G75*
%MOIN*%
%OFA0B0*%
%FSLAX24Y24*%
%IPPOS*%
%LPD*%
%AMOC8*
5,1,8,0,0,1.08239X$1,22.5*
%
%ADD10R,0.0740X0.0740*%
%ADD11OC8,0.1181*%
%ADD12C,0.0740*%
%ADD13C,0.0740*%
%ADD14R,0.1811X0.0394*%
%ADD15R,0.1339X0.0630*%
%ADD16R,0.0430X0.0790*%
%ADD17C,0.0160*%
%ADD18C,0.0100*%
%ADD19C,0.0060*%
%ADD20C,0.0270*%
%ADD21C,0.0320*%
%ADD22C,0.0400*%
D10*
X003133Y020259D03*
X004117Y020259D03*
X005101Y020259D03*
X008645Y023408D03*
X009629Y023408D03*
X010613Y023408D03*
X014156Y020259D03*
X015141Y020259D03*
X016125Y020259D03*
X014353Y011794D03*
X008054Y028920D03*
D11*
X005849Y023015D03*
X007897Y020652D03*
X011361Y020652D03*
X013408Y023015D03*
X016873Y023015D03*
X002385Y023015D03*
D12*
X006086Y008818D02*
X006086Y008078D01*
X007086Y008078D02*
X007086Y008818D01*
X008086Y008818D02*
X008086Y008078D01*
X009086Y008078D02*
X009086Y008818D01*
X010086Y008818D02*
X010086Y008078D01*
X011086Y008078D02*
X011086Y008818D01*
X012086Y008818D02*
X012086Y008078D01*
X013086Y008078D02*
X013086Y008818D01*
X013086Y002912D02*
X013086Y002172D01*
X012086Y002172D02*
X012086Y002912D01*
X011086Y002912D02*
X011086Y002172D01*
X010086Y002172D02*
X010086Y002912D01*
X009086Y002912D02*
X009086Y002172D01*
X008086Y002172D02*
X008086Y002912D01*
X007086Y002912D02*
X007086Y002172D01*
X006086Y002172D02*
X006086Y002912D01*
D13*
X006873Y000967D03*
X007873Y000967D03*
X010810Y000967D03*
X011810Y000967D03*
X012629Y009928D03*
X012629Y010928D03*
X012629Y011928D03*
X012629Y012928D03*
X012629Y013928D03*
X012629Y014928D03*
X012629Y015928D03*
X012629Y016928D03*
X012629Y017928D03*
X012629Y018928D03*
X012629Y019928D03*
X012629Y020928D03*
X007754Y017491D03*
X007754Y016491D03*
X006629Y016928D03*
X006629Y015928D03*
X006629Y014928D03*
X006629Y013928D03*
X006629Y012928D03*
X006629Y011928D03*
X006629Y010928D03*
X006629Y009928D03*
X007754Y012366D03*
X007754Y013366D03*
X006629Y017928D03*
X006629Y018928D03*
X006629Y019928D03*
X006629Y020928D03*
X004330Y024806D03*
X003330Y024806D03*
X002330Y024806D03*
X002566Y028526D03*
X003566Y028526D03*
X004566Y028526D03*
X009054Y028920D03*
X010054Y028920D03*
X011054Y028920D03*
X015353Y011794D03*
X016353Y011794D03*
X017353Y011794D03*
D14*
X003113Y010932D03*
X003113Y010145D03*
X003137Y013574D03*
X003137Y014361D03*
D15*
X002034Y015306D03*
X002034Y012629D03*
X002011Y011877D03*
X002011Y009200D03*
D16*
X014034Y014945D03*
X015034Y014945D03*
X016034Y014945D03*
X017034Y014945D03*
X017034Y018485D03*
X016034Y018485D03*
X015034Y018485D03*
X014034Y018485D03*
D17*
X000410Y029478D02*
X000410Y000410D01*
X018820Y000410D01*
X018820Y029478D01*
X000410Y029478D01*
X000410Y029344D02*
X007544Y029344D01*
X007544Y029348D02*
X007544Y028492D01*
X007626Y028410D01*
X008482Y028410D01*
X008564Y028492D01*
X008564Y028670D01*
X008584Y028632D01*
X008634Y028562D01*
X008696Y028501D01*
X008766Y028450D01*
X008843Y028410D01*
X008925Y028384D01*
X009011Y028370D01*
X009034Y028370D01*
X009034Y028900D01*
X009074Y028900D01*
X009074Y028370D01*
X009097Y028370D01*
X009183Y028384D01*
X009265Y028410D01*
X009342Y028450D01*
X009412Y028501D01*
X009474Y028562D01*
X009524Y028632D01*
X009564Y028709D01*
X009575Y028744D01*
X009622Y028631D01*
X009765Y028488D01*
X009953Y028410D01*
X010155Y028410D01*
X010343Y028488D01*
X010486Y028631D01*
X010554Y028795D01*
X010590Y028708D01*
X010590Y028659D01*
X008046Y026115D01*
X007702Y025776D01*
X007701Y025776D01*
X007646Y025721D01*
X007591Y025667D01*
X007591Y025666D01*
X007590Y025665D01*
X007590Y025587D01*
X007589Y025509D01*
X007590Y025508D01*
X007590Y022657D01*
X007589Y022656D01*
X007590Y022579D01*
X007590Y022501D01*
X007591Y022500D01*
X007591Y022499D01*
X007646Y022445D01*
X007701Y022390D01*
X007703Y022390D01*
X008325Y021783D01*
X008325Y021725D01*
X008367Y021624D01*
X008444Y021547D01*
X008545Y021505D01*
X008654Y021505D01*
X008755Y021547D01*
X008833Y021624D01*
X008875Y021725D01*
X008875Y021835D01*
X008833Y021936D01*
X008755Y022013D01*
X008654Y022055D01*
X008590Y022055D01*
X007970Y022660D01*
X007970Y025507D01*
X008258Y025790D01*
X008259Y025790D01*
X008314Y025845D01*
X008369Y025900D01*
X008369Y025901D01*
X010859Y028390D01*
X010900Y028432D01*
X010953Y028410D01*
X011155Y028410D01*
X011343Y028488D01*
X011486Y028631D01*
X011564Y028819D01*
X011564Y029022D01*
X011486Y029209D01*
X011343Y029353D01*
X011155Y029430D01*
X010953Y029430D01*
X010765Y029353D01*
X010622Y029209D01*
X010554Y029046D01*
X010486Y029209D01*
X010343Y029353D01*
X010155Y029430D01*
X009953Y029430D01*
X009765Y029353D01*
X009622Y029209D01*
X009575Y029096D01*
X009564Y029131D01*
X009524Y029208D01*
X009474Y029278D01*
X009412Y029340D01*
X009342Y029391D01*
X009265Y029430D01*
X009183Y029457D01*
X009097Y029470D01*
X009074Y029470D01*
X009074Y028940D01*
X009034Y028940D01*
X009034Y029470D01*
X009011Y029470D01*
X008925Y029457D01*
X008843Y029430D01*
X008766Y029391D01*
X008696Y029340D01*
X008634Y029278D01*
X008584Y029208D01*
X008564Y029170D01*
X008564Y029348D01*
X008482Y029430D01*
X007626Y029430D01*
X007544Y029348D01*
X007544Y029186D02*
X000410Y029186D01*
X000410Y029027D02*
X002442Y029027D01*
X002464Y029036D02*
X002277Y028959D01*
X002133Y028815D01*
X002056Y028628D01*
X002056Y028468D01*
X000741Y027005D01*
X000699Y026964D01*
X000696Y026955D01*
X000689Y026948D01*
X000670Y026893D01*
X000647Y026839D01*
X000647Y026829D01*
X000644Y026820D01*
X000647Y026762D01*
X000628Y019146D01*
X000627Y019145D01*
X000627Y019078D01*
X000627Y019011D01*
X000627Y019010D01*
X000653Y018948D01*
X000679Y018886D01*
X000679Y018885D01*
X000727Y018838D01*
X000774Y018790D01*
X000774Y018790D01*
X001218Y018346D01*
X001218Y017238D01*
X001270Y017113D01*
X001365Y017018D01*
X001365Y017018D01*
X002622Y015761D01*
X001307Y015761D01*
X001225Y015679D01*
X001225Y014933D01*
X001307Y014851D01*
X002762Y014851D01*
X002844Y014933D01*
X002844Y015539D01*
X002990Y015393D01*
X002990Y014698D01*
X002173Y014698D01*
X002091Y014616D01*
X002091Y014106D01*
X002173Y014024D01*
X003065Y014024D01*
X003076Y014020D01*
X003294Y014024D01*
X004100Y014024D01*
X004182Y014106D01*
X004182Y014616D01*
X004100Y014698D01*
X003670Y014698D01*
X003670Y015602D01*
X003618Y015727D01*
X003522Y015823D01*
X001898Y017447D01*
X001898Y018555D01*
X001846Y018680D01*
X001308Y019218D01*
X001327Y026640D01*
X002565Y028016D01*
X002667Y028016D01*
X002855Y028094D01*
X002998Y028238D01*
X003066Y028401D01*
X003133Y028238D01*
X003266Y028105D01*
X003266Y027049D01*
X003311Y026939D01*
X006573Y023678D01*
X006573Y023324D01*
X006152Y023745D01*
X005547Y023745D01*
X005119Y023317D01*
X005119Y022831D01*
X004614Y023336D01*
X004614Y024208D01*
X004618Y024374D01*
X004618Y024374D01*
X004762Y024517D01*
X004840Y024705D01*
X004840Y024907D01*
X004762Y025095D01*
X004618Y025238D01*
X004431Y025316D01*
X004228Y025316D01*
X004041Y025238D01*
X003897Y025095D01*
X003830Y024932D01*
X003762Y025095D01*
X003618Y025238D01*
X003431Y025316D01*
X003228Y025316D01*
X003041Y025238D01*
X002897Y025095D01*
X002830Y024932D01*
X002762Y025095D01*
X002618Y025238D01*
X002431Y025316D01*
X002228Y025316D01*
X002041Y025238D01*
X001897Y025095D01*
X001820Y024907D01*
X001820Y024705D01*
X001897Y024517D01*
X002041Y024374D01*
X002228Y024296D01*
X002431Y024296D01*
X002618Y024374D01*
X002762Y024517D01*
X002830Y024680D01*
X002897Y024517D01*
X003041Y024374D01*
X003044Y024372D01*
X003049Y024215D01*
X003032Y023670D01*
X003030Y023665D01*
X003030Y023610D01*
X003028Y023555D01*
X003030Y023551D01*
X003030Y023403D01*
X002687Y023745D01*
X002082Y023745D01*
X001654Y023317D01*
X001654Y022712D01*
X002082Y022284D01*
X002687Y022284D01*
X003030Y022626D01*
X003030Y021958D01*
X001979Y020907D01*
X001894Y020822D01*
X001849Y020712D01*
X001849Y019018D01*
X001894Y018908D01*
X002636Y018166D01*
X002636Y017049D01*
X002682Y016939D01*
X004801Y014820D01*
X004801Y003467D01*
X004847Y003357D01*
X005576Y002628D01*
X005576Y002071D01*
X005653Y001883D01*
X005797Y001740D01*
X005984Y001662D01*
X006187Y001662D01*
X006374Y001740D01*
X006518Y001883D01*
X006586Y002047D01*
X006653Y001883D01*
X006797Y001740D01*
X006984Y001662D01*
X007187Y001662D01*
X007374Y001740D01*
X007518Y001883D01*
X007564Y001996D01*
X007576Y001961D01*
X007615Y001884D01*
X007666Y001814D01*
X007727Y001753D01*
X007797Y001702D01*
X007874Y001663D01*
X007957Y001636D01*
X008042Y001622D01*
X008056Y001622D01*
X008056Y002512D01*
X008116Y002512D01*
X008116Y001622D01*
X008129Y001622D01*
X008214Y001636D01*
X008297Y001663D01*
X008374Y001702D01*
X008444Y001753D01*
X008505Y001814D01*
X008556Y001884D01*
X008595Y001961D01*
X008607Y001996D01*
X008653Y001883D01*
X008797Y001740D01*
X008984Y001662D01*
X009187Y001662D01*
X009374Y001740D01*
X009518Y001883D01*
X009586Y002047D01*
X009642Y001911D01*
X009301Y001570D01*
X008301Y001570D01*
X008190Y001459D01*
X008140Y001409D01*
X007974Y001477D01*
X007771Y001477D01*
X007584Y001400D01*
X007441Y001256D01*
X007373Y001093D01*
X007305Y001256D01*
X007162Y001400D01*
X006974Y001477D01*
X006771Y001477D01*
X006584Y001400D01*
X006441Y001256D01*
X006363Y001069D01*
X006363Y000866D01*
X006441Y000679D01*
X006584Y000535D01*
X006771Y000457D01*
X006974Y000457D01*
X007162Y000535D01*
X007305Y000679D01*
X007373Y000842D01*
X007441Y000679D01*
X007584Y000535D01*
X007771Y000457D01*
X007974Y000457D01*
X008162Y000535D01*
X008305Y000679D01*
X008383Y000866D01*
X008383Y001069D01*
X008370Y001101D01*
X008459Y001190D01*
X009459Y001190D01*
X009946Y001678D01*
X009984Y001662D01*
X010187Y001662D01*
X010374Y001740D01*
X010518Y001883D01*
X010586Y002047D01*
X010653Y001883D01*
X010797Y001740D01*
X010984Y001662D01*
X011187Y001662D01*
X011374Y001740D01*
X011518Y001883D01*
X011586Y002047D01*
X011653Y001883D01*
X011797Y001740D01*
X011984Y001662D01*
X012187Y001662D01*
X012374Y001740D01*
X012518Y001883D01*
X012564Y001996D01*
X012576Y001961D01*
X012615Y001884D01*
X012666Y001814D01*
X012727Y001753D01*
X012797Y001702D01*
X012874Y001663D01*
X012957Y001636D01*
X013042Y001622D01*
X013056Y001622D01*
X013056Y002512D01*
X013116Y002512D01*
X013116Y002572D01*
X013636Y002572D01*
X013636Y002955D01*
X013622Y003041D01*
X013595Y003123D01*
X013556Y003200D01*
X013505Y003271D01*
X013444Y003332D01*
X013374Y003383D01*
X013297Y003422D01*
X013214Y003449D01*
X013129Y003462D01*
X013116Y003462D01*
X013116Y002572D01*
X013056Y002572D01*
X013056Y003462D01*
X013042Y003462D01*
X012957Y003449D01*
X012874Y003422D01*
X012797Y003383D01*
X012727Y003332D01*
X012666Y003271D01*
X012615Y003200D01*
X012576Y003123D01*
X012564Y003089D01*
X012518Y003201D01*
X012374Y003345D01*
X012187Y003422D01*
X011984Y003422D01*
X011797Y003345D01*
X011653Y003201D01*
X011586Y003038D01*
X011518Y003201D01*
X011374Y003345D01*
X011187Y003422D01*
X010984Y003422D01*
X010797Y003345D01*
X010653Y003201D01*
X010586Y003038D01*
X010518Y003201D01*
X010374Y003345D01*
X010187Y003422D01*
X009984Y003422D01*
X009797Y003345D01*
X009653Y003201D01*
X009586Y003038D01*
X009518Y003201D01*
X009374Y003345D01*
X009187Y003422D01*
X008984Y003422D01*
X008797Y003345D01*
X008653Y003201D01*
X008607Y003089D01*
X008595Y003123D01*
X008556Y003200D01*
X008505Y003271D01*
X008444Y003332D01*
X008374Y003383D01*
X008297Y003422D01*
X008214Y003449D01*
X008129Y003462D01*
X008116Y003462D01*
X008116Y002572D01*
X008056Y002572D01*
X008056Y003462D01*
X008042Y003462D01*
X007957Y003449D01*
X007874Y003422D01*
X007797Y003383D01*
X007727Y003332D01*
X007666Y003271D01*
X007615Y003200D01*
X007576Y003123D01*
X007564Y003089D01*
X007518Y003201D01*
X007374Y003345D01*
X007187Y003422D01*
X006984Y003422D01*
X006797Y003345D01*
X006653Y003201D01*
X006586Y003038D01*
X006518Y003201D01*
X006374Y003345D01*
X006187Y003422D01*
X005984Y003422D01*
X005797Y003345D01*
X005752Y003300D01*
X005401Y003651D01*
X005401Y014890D01*
X006161Y014131D01*
X006119Y014029D01*
X006119Y013827D01*
X006196Y013639D01*
X006340Y013496D01*
X006503Y013428D01*
X006340Y013360D01*
X006196Y013217D01*
X006119Y013029D01*
X006119Y012827D01*
X006196Y012639D01*
X006340Y012496D01*
X006503Y012428D01*
X006340Y012360D01*
X006196Y012217D01*
X006119Y012029D01*
X006119Y011827D01*
X006196Y011639D01*
X006340Y011496D01*
X006503Y011428D01*
X006340Y011360D01*
X006196Y011217D01*
X006119Y011029D01*
X006119Y010827D01*
X006196Y010639D01*
X006340Y010496D01*
X006503Y010428D01*
X006340Y010360D01*
X006196Y010217D01*
X006119Y010029D01*
X006119Y009827D01*
X006196Y009639D01*
X006340Y009496D01*
X006527Y009418D01*
X006730Y009418D01*
X006831Y009460D01*
X006901Y009390D01*
X008301Y009390D01*
X008633Y009058D01*
X008586Y008943D01*
X008518Y009107D01*
X008374Y009250D01*
X008187Y009328D01*
X007984Y009328D01*
X007797Y009250D01*
X007653Y009107D01*
X007586Y008943D01*
X007518Y009107D01*
X007374Y009250D01*
X007187Y009328D01*
X006984Y009328D01*
X006797Y009250D01*
X006653Y009107D01*
X006586Y008943D01*
X006518Y009107D01*
X006374Y009250D01*
X006187Y009328D01*
X005984Y009328D01*
X005797Y009250D01*
X005653Y009107D01*
X005576Y008919D01*
X005576Y007976D01*
X005653Y007789D01*
X005797Y007645D01*
X005984Y007568D01*
X006187Y007568D01*
X006374Y007645D01*
X006518Y007789D01*
X006586Y007952D01*
X006653Y007789D01*
X006797Y007645D01*
X006984Y007568D01*
X007187Y007568D01*
X007374Y007645D01*
X007518Y007789D01*
X007586Y007952D01*
X007653Y007789D01*
X007797Y007645D01*
X007984Y007568D01*
X007990Y007568D01*
X007990Y007301D01*
X008101Y007190D01*
X010259Y007190D01*
X010659Y007590D01*
X010755Y007687D01*
X010797Y007645D01*
X010984Y007568D01*
X011187Y007568D01*
X011374Y007645D01*
X011518Y007789D01*
X011586Y007952D01*
X011653Y007789D01*
X011797Y007645D01*
X011984Y007568D01*
X012187Y007568D01*
X012374Y007645D01*
X012518Y007789D01*
X012564Y007901D01*
X012576Y007867D01*
X012615Y007789D01*
X012666Y007719D01*
X012727Y007658D01*
X012797Y007607D01*
X012874Y007568D01*
X012957Y007541D01*
X013042Y007528D01*
X013056Y007528D01*
X013056Y008418D01*
X013116Y008418D01*
X013116Y008478D01*
X013636Y008478D01*
X013636Y008861D01*
X013622Y008947D01*
X013595Y009029D01*
X013556Y009106D01*
X013505Y009176D01*
X013444Y009237D01*
X013374Y009288D01*
X013297Y009327D01*
X013214Y009354D01*
X013129Y009368D01*
X013116Y009368D01*
X013116Y008478D01*
X013056Y008478D01*
X013056Y009368D01*
X013042Y009368D01*
X012957Y009354D01*
X012874Y009327D01*
X012797Y009288D01*
X012727Y009237D01*
X012666Y009176D01*
X012615Y009106D01*
X012576Y009029D01*
X012564Y008994D01*
X012518Y009107D01*
X012374Y009250D01*
X012187Y009328D01*
X011984Y009328D01*
X011797Y009250D01*
X011653Y009107D01*
X011586Y008943D01*
X011518Y009107D01*
X011374Y009250D01*
X011187Y009328D01*
X010984Y009328D01*
X010797Y009250D01*
X010770Y009223D01*
X010770Y009390D01*
X012259Y009390D01*
X012357Y009489D01*
X012527Y009418D01*
X012730Y009418D01*
X012918Y009496D01*
X013061Y009639D01*
X013139Y009827D01*
X013139Y010029D01*
X013061Y010217D01*
X012918Y010360D01*
X012754Y010428D01*
X012918Y010496D01*
X013061Y010639D01*
X013139Y010827D01*
X013139Y011029D01*
X013061Y011217D01*
X012918Y011360D01*
X012754Y011428D01*
X012918Y011496D01*
X013061Y011639D01*
X013139Y011827D01*
X013139Y012029D01*
X013061Y012217D01*
X012918Y012360D01*
X012754Y012428D01*
X012918Y012496D01*
X013061Y012639D01*
X013139Y012827D01*
X013139Y013029D01*
X013122Y013070D01*
X013317Y013281D01*
X013370Y013334D01*
X013370Y013339D01*
X013373Y013342D01*
X013370Y013417D01*
X013370Y015501D01*
X013390Y015521D01*
X013390Y015501D01*
X013390Y014501D01*
X013501Y014390D01*
X013501Y014390D01*
X013701Y014190D01*
X013990Y014190D01*
X013990Y012304D01*
X013925Y012304D01*
X013843Y012222D01*
X013843Y011366D01*
X013925Y011284D01*
X014781Y011284D01*
X014863Y011366D01*
X014863Y011644D01*
X014921Y011505D01*
X015064Y011362D01*
X015252Y011284D01*
X015455Y011284D01*
X015642Y011362D01*
X015786Y011505D01*
X015832Y011618D01*
X015844Y011583D01*
X015883Y011506D01*
X015934Y011436D01*
X015995Y011375D01*
X016065Y011324D01*
X016142Y011284D01*
X016224Y011258D01*
X016310Y011244D01*
X016333Y011244D01*
X016333Y011774D01*
X016373Y011774D01*
X016373Y011244D01*
X016397Y011244D01*
X016482Y011258D01*
X016564Y011284D01*
X016641Y011324D01*
X016712Y011375D01*
X016773Y011436D01*
X016824Y011506D01*
X016863Y011583D01*
X016874Y011618D01*
X016921Y011505D01*
X017064Y011362D01*
X017252Y011284D01*
X017455Y011284D01*
X017642Y011362D01*
X017786Y011505D01*
X017863Y011693D01*
X017863Y011896D01*
X017786Y012083D01*
X017642Y012227D01*
X017569Y012257D01*
X017550Y018999D01*
X017550Y019078D01*
X017494Y019133D01*
X016635Y019994D01*
X016635Y020687D01*
X016553Y020769D01*
X016170Y020769D01*
X016170Y021427D01*
X015492Y022105D01*
X015436Y022161D01*
X015436Y022161D01*
X015436Y022161D01*
X015357Y022161D01*
X009859Y022170D01*
X009101Y022927D01*
X009137Y022962D01*
X009201Y022898D01*
X010057Y022898D01*
X010094Y022936D01*
X010099Y022928D01*
X010133Y022894D01*
X010174Y022871D01*
X010219Y022858D01*
X010595Y022858D01*
X010595Y023390D01*
X010631Y023390D01*
X010631Y022858D01*
X011007Y022858D01*
X011053Y022871D01*
X011094Y022894D01*
X011127Y022928D01*
X011151Y022969D01*
X011163Y023015D01*
X011163Y023390D01*
X010632Y023390D01*
X010632Y023427D01*
X011163Y023427D01*
X011163Y023802D01*
X011151Y023848D01*
X011127Y023889D01*
X011094Y023922D01*
X011053Y023946D01*
X011007Y023958D01*
X010631Y023958D01*
X010631Y023427D01*
X010595Y023427D01*
X010595Y023958D01*
X010219Y023958D01*
X010174Y023946D01*
X010133Y023922D01*
X010099Y023889D01*
X010094Y023881D01*
X010057Y023918D01*
X009201Y023918D01*
X009137Y023854D01*
X009073Y023918D01*
X008217Y023918D01*
X008135Y023836D01*
X008135Y022980D01*
X008217Y022898D01*
X008593Y022898D01*
X008701Y022790D01*
X009645Y021846D01*
X009701Y021790D01*
X009701Y021790D01*
X009701Y021790D01*
X009780Y021790D01*
X015278Y021781D01*
X015790Y021270D01*
X015790Y020769D01*
X015697Y020769D01*
X015633Y020705D01*
X015569Y020769D01*
X015170Y020769D01*
X015170Y020859D01*
X015059Y020970D01*
X014370Y021659D01*
X014314Y021715D01*
X014259Y021770D01*
X014259Y021770D01*
X014259Y021770D01*
X014181Y021770D01*
X014101Y021770D01*
X011242Y021768D01*
X010873Y021768D01*
X010390Y021285D01*
X010390Y019159D01*
X010336Y019213D01*
X010235Y019255D01*
X010125Y019255D01*
X010024Y019213D01*
X009947Y019136D01*
X009905Y019035D01*
X009905Y018974D01*
X008224Y017293D01*
X008264Y017389D01*
X008264Y017592D01*
X008186Y017779D01*
X008043Y017923D01*
X007855Y018001D01*
X007652Y018001D01*
X007465Y017923D01*
X007321Y017779D01*
X007244Y017592D01*
X007244Y017389D01*
X007321Y017202D01*
X007465Y017058D01*
X007628Y016991D01*
X007465Y016923D01*
X007321Y016779D01*
X007244Y016592D01*
X007244Y016389D01*
X007321Y016202D01*
X007465Y016058D01*
X007553Y016022D01*
X006899Y015368D01*
X006754Y015428D01*
X006918Y015496D01*
X007061Y015639D01*
X007139Y015827D01*
X007139Y016029D01*
X007061Y016217D01*
X006918Y016360D01*
X006754Y016428D01*
X006918Y016496D01*
X007061Y016639D01*
X007139Y016827D01*
X007139Y017029D01*
X007061Y017217D01*
X006918Y017360D01*
X006754Y017428D01*
X006918Y017496D01*
X007061Y017639D01*
X007139Y017827D01*
X007139Y018029D01*
X007061Y018217D01*
X006918Y018360D01*
X006754Y018428D01*
X006918Y018496D01*
X007061Y018639D01*
X007139Y018827D01*
X007139Y019029D01*
X007061Y019217D01*
X006918Y019360D01*
X006805Y019407D01*
X006840Y019418D01*
X006917Y019458D01*
X006987Y019509D01*
X007048Y019570D01*
X007099Y019640D01*
X007139Y019717D01*
X007165Y019799D01*
X007179Y019885D01*
X007179Y019908D01*
X006649Y019908D01*
X006649Y019948D01*
X007179Y019948D01*
X007179Y019971D01*
X007165Y020057D01*
X007139Y020139D01*
X007099Y020216D01*
X007048Y020286D01*
X006987Y020348D01*
X006917Y020398D01*
X006840Y020438D01*
X006805Y020449D01*
X006918Y020496D01*
X007061Y020639D01*
X007139Y020827D01*
X007139Y020833D01*
X007155Y020857D01*
X007161Y020887D01*
X007166Y020899D01*
X007166Y020350D01*
X007594Y019922D01*
X008199Y019922D01*
X008627Y020350D01*
X008627Y020955D01*
X008199Y021383D01*
X007594Y021383D01*
X007177Y020966D01*
X007179Y020974D01*
X007173Y021004D01*
X007173Y023862D01*
X007127Y023972D01*
X007043Y024056D01*
X003866Y027233D01*
X003866Y028105D01*
X003998Y028238D01*
X004066Y028401D01*
X004133Y028238D01*
X004277Y028094D01*
X004464Y028016D01*
X004667Y028016D01*
X004855Y028094D01*
X004998Y028238D01*
X005076Y028425D01*
X005076Y028628D01*
X004998Y028815D01*
X004855Y028959D01*
X004667Y029036D01*
X004464Y029036D01*
X004277Y028959D01*
X004133Y028815D01*
X004066Y028652D01*
X003998Y028815D01*
X003855Y028959D01*
X003667Y029036D01*
X003464Y029036D01*
X003277Y028959D01*
X003133Y028815D01*
X003066Y028652D01*
X002998Y028815D01*
X002855Y028959D01*
X002667Y029036D01*
X002464Y029036D01*
X002690Y029027D02*
X003442Y029027D01*
X003187Y028869D02*
X002945Y028869D01*
X003042Y028710D02*
X003090Y028710D01*
X003069Y028393D02*
X003063Y028393D01*
X002995Y028235D02*
X003136Y028235D01*
X003266Y028076D02*
X002811Y028076D01*
X002476Y027918D02*
X003266Y027918D01*
X003266Y027759D02*
X002333Y027759D01*
X002191Y027601D02*
X003266Y027601D01*
X003266Y027442D02*
X002048Y027442D01*
X001906Y027284D02*
X003266Y027284D01*
X003266Y027125D02*
X001763Y027125D01*
X001621Y026967D02*
X003300Y026967D01*
X003443Y026808D02*
X001478Y026808D01*
X001336Y026650D02*
X003601Y026650D01*
X003760Y026491D02*
X001326Y026491D01*
X001326Y026333D02*
X003918Y026333D01*
X004077Y026174D02*
X001326Y026174D01*
X001325Y026016D02*
X004235Y026016D01*
X004394Y025857D02*
X001325Y025857D01*
X001324Y025699D02*
X004552Y025699D01*
X004711Y025540D02*
X001324Y025540D01*
X001324Y025382D02*
X004869Y025382D01*
X005028Y025223D02*
X004634Y025223D01*
X004775Y025065D02*
X005186Y025065D01*
X005345Y024906D02*
X004840Y024906D01*
X004840Y024748D02*
X005503Y024748D01*
X005662Y024589D02*
X004792Y024589D01*
X004675Y024431D02*
X005820Y024431D01*
X005979Y024272D02*
X004616Y024272D01*
X004614Y024114D02*
X006137Y024114D01*
X006296Y023955D02*
X004614Y023955D01*
X004614Y023797D02*
X006454Y023797D01*
X006573Y023638D02*
X006259Y023638D01*
X006418Y023480D02*
X006573Y023480D01*
X006986Y024114D02*
X007590Y024114D01*
X007590Y024272D02*
X006827Y024272D01*
X006669Y024431D02*
X007590Y024431D01*
X007590Y024589D02*
X006510Y024589D01*
X006352Y024748D02*
X007590Y024748D01*
X007590Y024906D02*
X006193Y024906D01*
X006035Y025065D02*
X007590Y025065D01*
X007590Y025223D02*
X005876Y025223D01*
X005718Y025382D02*
X007590Y025382D01*
X007590Y025540D02*
X005559Y025540D01*
X005401Y025699D02*
X007623Y025699D01*
X007784Y025857D02*
X005242Y025857D01*
X005084Y026016D02*
X007945Y026016D01*
X008105Y026174D02*
X004925Y026174D01*
X004767Y026333D02*
X008264Y026333D01*
X008422Y026491D02*
X004608Y026491D01*
X004450Y026650D02*
X008581Y026650D01*
X008739Y026808D02*
X004291Y026808D01*
X004133Y026967D02*
X008898Y026967D01*
X009056Y027125D02*
X003974Y027125D01*
X003866Y027284D02*
X009215Y027284D01*
X009373Y027442D02*
X003866Y027442D01*
X003866Y027601D02*
X009532Y027601D01*
X009690Y027759D02*
X003866Y027759D01*
X003866Y027918D02*
X009849Y027918D01*
X010007Y028076D02*
X004811Y028076D01*
X004995Y028235D02*
X010166Y028235D01*
X010324Y028393D02*
X009212Y028393D01*
X009074Y028393D02*
X009034Y028393D01*
X008896Y028393D02*
X005063Y028393D01*
X005076Y028552D02*
X007544Y028552D01*
X007544Y028710D02*
X005042Y028710D01*
X004945Y028869D02*
X007544Y028869D01*
X007544Y029027D02*
X004690Y029027D01*
X004442Y029027D02*
X003690Y029027D01*
X003945Y028869D02*
X004187Y028869D01*
X004090Y028710D02*
X004042Y028710D01*
X004063Y028393D02*
X004069Y028393D01*
X004136Y028235D02*
X003995Y028235D01*
X003866Y028076D02*
X004321Y028076D01*
X004025Y025223D02*
X003634Y025223D01*
X003775Y025065D02*
X003885Y025065D01*
X003830Y024680D02*
X003897Y024517D01*
X004019Y024396D01*
X004015Y024275D01*
X004014Y024271D01*
X004014Y024215D01*
X004012Y024160D01*
X004014Y024156D01*
X004014Y023152D01*
X004060Y023042D01*
X004144Y022957D01*
X006119Y020982D01*
X006119Y020827D01*
X006196Y020639D01*
X006340Y020496D01*
X006453Y020449D01*
X006418Y020438D01*
X006341Y020398D01*
X006271Y020348D01*
X006209Y020286D01*
X006158Y020216D01*
X006119Y020139D01*
X006092Y020057D01*
X006079Y019971D01*
X006079Y019948D01*
X006609Y019948D01*
X006609Y019908D01*
X006079Y019908D01*
X006079Y019885D01*
X006092Y019799D01*
X006119Y019717D01*
X006158Y019640D01*
X006209Y019570D01*
X006271Y019509D01*
X006341Y019458D01*
X006418Y019418D01*
X006453Y019407D01*
X006340Y019360D01*
X006196Y019217D01*
X006119Y019029D01*
X006119Y018827D01*
X006196Y018639D01*
X006340Y018496D01*
X006503Y018428D01*
X006340Y018360D01*
X006196Y018217D01*
X006119Y018029D01*
X006119Y017827D01*
X006196Y017639D01*
X006340Y017496D01*
X006503Y017428D01*
X006340Y017360D01*
X006196Y017217D01*
X006119Y017029D01*
X006119Y016827D01*
X006196Y016639D01*
X006340Y016496D01*
X006503Y016428D01*
X006340Y016360D01*
X006196Y016217D01*
X006119Y016029D01*
X006119Y015827D01*
X006196Y015639D01*
X006340Y015496D01*
X006503Y015428D01*
X006340Y015360D01*
X006196Y015217D01*
X006119Y015029D01*
X006119Y014827D01*
X006196Y014639D01*
X006340Y014496D01*
X006503Y014428D01*
X006431Y014398D01*
X004370Y016459D01*
X004370Y019749D01*
X004545Y019749D01*
X004609Y019813D01*
X004673Y019749D01*
X005529Y019749D01*
X005611Y019831D01*
X005611Y020687D01*
X005529Y020769D01*
X004673Y020769D01*
X004609Y020705D01*
X004545Y020769D01*
X003689Y020769D01*
X003651Y020731D01*
X003647Y020739D01*
X003613Y020773D01*
X003572Y020796D01*
X003526Y020809D01*
X003151Y020809D01*
X003151Y020277D01*
X003114Y020277D01*
X003114Y020240D01*
X002583Y020240D01*
X002583Y019865D01*
X002595Y019819D01*
X002619Y019778D01*
X002652Y019745D01*
X002693Y019721D01*
X002739Y019709D01*
X003114Y019709D01*
X003114Y020240D01*
X003151Y020240D01*
X003151Y019709D01*
X003526Y019709D01*
X003572Y019721D01*
X003613Y019745D01*
X003647Y019778D01*
X003651Y019786D01*
X003689Y019749D01*
X003990Y019749D01*
X003990Y016479D01*
X003236Y017233D01*
X003236Y018350D01*
X003190Y018460D01*
X003106Y018545D01*
X002449Y019202D01*
X002449Y020528D01*
X002586Y020666D01*
X002583Y020652D01*
X002583Y020277D01*
X003114Y020277D01*
X003114Y020809D01*
X002739Y020809D01*
X002725Y020805D01*
X003584Y021664D01*
X003630Y021774D01*
X003630Y021893D01*
X003630Y023600D01*
X003648Y024156D01*
X003651Y024166D01*
X003649Y024216D01*
X003651Y024265D01*
X003647Y024275D01*
X003643Y024398D01*
X003762Y024517D01*
X003830Y024680D01*
X003792Y024589D02*
X003867Y024589D01*
X003984Y024431D02*
X003675Y024431D01*
X003649Y024272D02*
X004014Y024272D01*
X004014Y024114D02*
X003646Y024114D01*
X003641Y023955D02*
X004014Y023955D01*
X004014Y023797D02*
X003636Y023797D01*
X003631Y023638D02*
X004014Y023638D01*
X004014Y023480D02*
X003630Y023480D01*
X003630Y023321D02*
X004014Y023321D01*
X004014Y023163D02*
X003630Y023163D01*
X003630Y023004D02*
X004097Y023004D01*
X004256Y022846D02*
X003630Y022846D01*
X003630Y022687D02*
X004414Y022687D01*
X004573Y022529D02*
X003630Y022529D01*
X003630Y022370D02*
X004731Y022370D01*
X004890Y022212D02*
X003630Y022212D01*
X003630Y022053D02*
X005048Y022053D01*
X005207Y021895D02*
X003630Y021895D01*
X003614Y021736D02*
X005365Y021736D01*
X005524Y021578D02*
X003498Y021578D01*
X003339Y021419D02*
X005682Y021419D01*
X005841Y021261D02*
X003181Y021261D01*
X003022Y021102D02*
X005999Y021102D01*
X006119Y020944D02*
X002864Y020944D01*
X002583Y020627D02*
X002547Y020627D01*
X002583Y020468D02*
X002449Y020468D01*
X002449Y020310D02*
X002583Y020310D01*
X002583Y020151D02*
X002449Y020151D01*
X002449Y019993D02*
X002583Y019993D01*
X002591Y019834D02*
X002449Y019834D01*
X002449Y019676D02*
X003990Y019676D01*
X003990Y019517D02*
X002449Y019517D01*
X002449Y019359D02*
X003990Y019359D01*
X003990Y019200D02*
X002450Y019200D01*
X002609Y019042D02*
X003990Y019042D01*
X003990Y018883D02*
X002767Y018883D01*
X002926Y018725D02*
X003990Y018725D01*
X003990Y018566D02*
X003084Y018566D01*
X003212Y018408D02*
X003990Y018408D01*
X003990Y018249D02*
X003236Y018249D01*
X003236Y018091D02*
X003990Y018091D01*
X003990Y017932D02*
X003236Y017932D01*
X003236Y017774D02*
X003990Y017774D01*
X003990Y017615D02*
X003236Y017615D01*
X003236Y017457D02*
X003990Y017457D01*
X003990Y017298D02*
X003236Y017298D01*
X003330Y017140D02*
X003990Y017140D01*
X003990Y016981D02*
X003488Y016981D01*
X003647Y016823D02*
X003990Y016823D01*
X003990Y016664D02*
X003805Y016664D01*
X003964Y016506D02*
X003990Y016506D01*
X004370Y016506D02*
X006330Y016506D01*
X006327Y016347D02*
X004482Y016347D01*
X004640Y016189D02*
X006185Y016189D01*
X006119Y016030D02*
X004799Y016030D01*
X004957Y015872D02*
X006119Y015872D01*
X006166Y015713D02*
X005116Y015713D01*
X005274Y015555D02*
X006281Y015555D01*
X006426Y015396D02*
X005433Y015396D01*
X005591Y015238D02*
X006217Y015238D01*
X006139Y015079D02*
X005750Y015079D01*
X005908Y014921D02*
X006119Y014921D01*
X006146Y014762D02*
X006067Y014762D01*
X006225Y014604D02*
X006232Y014604D01*
X006384Y014445D02*
X006462Y014445D01*
X006754Y014428D02*
X006918Y014496D01*
X007061Y014639D01*
X007139Y014827D01*
X007139Y015029D01*
X007127Y015058D01*
X007859Y015790D01*
X008059Y015790D01*
X010659Y018390D01*
X010770Y018501D01*
X010770Y020210D01*
X011058Y019922D01*
X011664Y019922D01*
X012092Y020350D01*
X012092Y020955D01*
X011664Y021383D01*
X011058Y021383D01*
X010770Y021094D01*
X010770Y021127D01*
X011030Y021388D01*
X011164Y021388D01*
X011164Y021388D01*
X011242Y021388D01*
X011322Y021388D01*
X012408Y021389D01*
X012340Y021360D01*
X012196Y021217D01*
X012119Y021029D01*
X012119Y020827D01*
X012196Y020639D01*
X012340Y020496D01*
X012503Y020428D01*
X012340Y020360D01*
X012196Y020217D01*
X012119Y020029D01*
X012119Y019827D01*
X012196Y019639D01*
X012340Y019496D01*
X012503Y019428D01*
X012340Y019360D01*
X012196Y019217D01*
X012119Y019029D01*
X012119Y018827D01*
X012196Y018639D01*
X012340Y018496D01*
X012453Y018449D01*
X012418Y018438D01*
X012341Y018398D01*
X012271Y018348D01*
X012209Y018286D01*
X012158Y018216D01*
X012119Y018139D01*
X012092Y018057D01*
X012079Y017971D01*
X012079Y017948D01*
X012609Y017948D01*
X012609Y017908D01*
X012079Y017908D01*
X012079Y017885D01*
X012092Y017799D01*
X012119Y017717D01*
X012158Y017640D01*
X012209Y017570D01*
X012271Y017509D01*
X012341Y017458D01*
X012418Y017418D01*
X012453Y017407D01*
X012340Y017360D01*
X012196Y017217D01*
X012119Y017029D01*
X012119Y016827D01*
X012196Y016639D01*
X012340Y016496D01*
X012503Y016428D01*
X012340Y016360D01*
X012196Y016217D01*
X012119Y016029D01*
X012119Y015827D01*
X012196Y015639D01*
X012340Y015496D01*
X012503Y015428D01*
X012340Y015360D01*
X012196Y015217D01*
X012119Y015029D01*
X012119Y014827D01*
X012196Y014639D01*
X012340Y014496D01*
X012503Y014428D01*
X012340Y014360D01*
X012196Y014217D01*
X012119Y014029D01*
X012119Y013827D01*
X012196Y013639D01*
X012340Y013496D01*
X012503Y013428D01*
X012340Y013360D01*
X012196Y013217D01*
X012119Y013029D01*
X012119Y012827D01*
X012196Y012639D01*
X012340Y012496D01*
X012503Y012428D01*
X012340Y012360D01*
X012196Y012217D01*
X012119Y012029D01*
X012119Y011827D01*
X012196Y011639D01*
X012340Y011496D01*
X012503Y011428D01*
X012340Y011360D01*
X012196Y011217D01*
X012119Y011029D01*
X012119Y010827D01*
X012130Y010799D01*
X012101Y010770D01*
X008985Y010770D01*
X008942Y010813D01*
X008841Y010855D01*
X008732Y010855D01*
X008631Y010813D01*
X008553Y010736D01*
X008511Y010635D01*
X008511Y010525D01*
X008553Y010424D01*
X008607Y010370D01*
X008459Y010370D01*
X007099Y011730D01*
X007139Y011827D01*
X007139Y012029D01*
X007061Y012217D01*
X006918Y012360D01*
X006754Y012428D01*
X006918Y012496D01*
X007061Y012639D01*
X007139Y012827D01*
X007139Y013029D01*
X007061Y013217D01*
X006918Y013360D01*
X006754Y013428D01*
X006918Y013496D01*
X007061Y013639D01*
X007139Y013827D01*
X007139Y014029D01*
X007061Y014217D01*
X006918Y014360D01*
X006754Y014428D01*
X006795Y014445D02*
X012462Y014445D01*
X012266Y014287D02*
X006992Y014287D01*
X007098Y014128D02*
X012160Y014128D01*
X012119Y013970D02*
X007139Y013970D01*
X007132Y013811D02*
X007497Y013811D01*
X007465Y013798D02*
X007321Y013654D01*
X007244Y013467D01*
X007244Y013264D01*
X007321Y013077D01*
X007465Y012933D01*
X007628Y012866D01*
X007465Y012798D01*
X007321Y012654D01*
X007244Y012467D01*
X007244Y012264D01*
X007321Y012077D01*
X007465Y011933D01*
X007652Y011856D01*
X007855Y011856D01*
X008043Y011933D01*
X008186Y012077D01*
X008264Y012264D01*
X008264Y012467D01*
X008186Y012654D01*
X008043Y012798D01*
X007879Y012866D01*
X008043Y012933D01*
X008186Y013077D01*
X008264Y013264D01*
X008264Y013467D01*
X008186Y013654D01*
X008043Y013798D01*
X007855Y013876D01*
X007652Y013876D01*
X007465Y013798D01*
X007321Y013653D02*
X007067Y013653D01*
X006914Y013494D02*
X007255Y013494D01*
X007244Y013336D02*
X006943Y013336D01*
X007078Y013177D02*
X007280Y013177D01*
X007380Y013019D02*
X007139Y013019D01*
X007139Y012860D02*
X007615Y012860D01*
X007893Y012860D02*
X012119Y012860D01*
X012119Y013019D02*
X008128Y013019D01*
X008228Y013177D02*
X012180Y013177D01*
X012315Y013336D02*
X008264Y013336D01*
X008253Y013494D02*
X012344Y013494D01*
X012191Y013653D02*
X008187Y013653D01*
X008011Y013811D02*
X012125Y013811D01*
X012232Y014604D02*
X007026Y014604D01*
X007112Y014762D02*
X012146Y014762D01*
X012119Y014921D02*
X007139Y014921D01*
X007148Y015079D02*
X012139Y015079D01*
X012217Y015238D02*
X007306Y015238D01*
X007465Y015396D02*
X012426Y015396D01*
X012281Y015555D02*
X007623Y015555D01*
X007782Y015713D02*
X012166Y015713D01*
X012119Y015872D02*
X008140Y015872D01*
X008299Y016030D02*
X012119Y016030D01*
X012185Y016189D02*
X008457Y016189D01*
X008616Y016347D02*
X012327Y016347D01*
X012330Y016506D02*
X008774Y016506D01*
X008933Y016664D02*
X012186Y016664D01*
X012120Y016823D02*
X009091Y016823D01*
X009250Y016981D02*
X012119Y016981D01*
X012164Y017140D02*
X009408Y017140D01*
X009567Y017298D02*
X012278Y017298D01*
X012343Y017457D02*
X009725Y017457D01*
X009884Y017615D02*
X012176Y017615D01*
X012101Y017774D02*
X010042Y017774D01*
X010201Y017932D02*
X012609Y017932D01*
X012649Y017932D02*
X015263Y017932D01*
X015282Y017950D02*
X013125Y015794D01*
X013139Y015827D01*
X013139Y016029D01*
X013061Y016217D01*
X012918Y016360D01*
X012754Y016428D01*
X012918Y016496D01*
X013061Y016639D01*
X013139Y016827D01*
X013139Y017029D01*
X013061Y017217D01*
X012918Y017360D01*
X012805Y017407D01*
X012840Y017418D01*
X012917Y017458D01*
X012987Y017509D01*
X013048Y017570D01*
X013099Y017640D01*
X013139Y017717D01*
X013165Y017799D01*
X013179Y017885D01*
X013179Y017908D01*
X012649Y017908D01*
X012649Y017948D01*
X013179Y017948D01*
X013179Y017971D01*
X013165Y018057D01*
X013139Y018139D01*
X013099Y018216D01*
X013048Y018286D01*
X012987Y018348D01*
X012917Y018398D01*
X012840Y018438D01*
X012805Y018449D01*
X012918Y018496D01*
X013061Y018639D01*
X013139Y018827D01*
X013139Y019029D01*
X013061Y019217D01*
X012918Y019360D01*
X012754Y019428D01*
X012831Y019460D01*
X013679Y018612D01*
X013679Y018032D01*
X013761Y017950D01*
X014307Y017950D01*
X014389Y018032D01*
X014389Y018902D01*
X014679Y018612D01*
X014679Y018032D01*
X014761Y017950D01*
X015282Y017950D01*
X015389Y018058D02*
X015389Y018938D01*
X015307Y019020D01*
X014808Y019020D01*
X014120Y019709D01*
X014138Y019709D01*
X014138Y020240D01*
X014175Y020240D01*
X014175Y019709D01*
X014550Y019709D01*
X014596Y019721D01*
X014637Y019745D01*
X014670Y019778D01*
X014675Y019786D01*
X014713Y019749D01*
X015569Y019749D01*
X015633Y019813D01*
X015697Y019749D01*
X016342Y019749D01*
X017070Y019020D01*
X016761Y019020D01*
X016679Y018938D01*
X016679Y018032D01*
X016761Y017950D01*
X016790Y017950D01*
X016790Y016253D01*
X016589Y016055D01*
X016525Y016055D01*
X016424Y016013D01*
X016347Y015936D01*
X016305Y015835D01*
X016305Y015770D01*
X013639Y015770D01*
X015819Y017950D01*
X016307Y017950D01*
X016389Y018032D01*
X016389Y018938D01*
X016307Y019020D01*
X015761Y019020D01*
X015679Y018938D01*
X015679Y018348D01*
X015389Y018058D01*
X015389Y018091D02*
X015422Y018091D01*
X015389Y018249D02*
X015580Y018249D01*
X015679Y018408D02*
X015389Y018408D01*
X015389Y018566D02*
X015679Y018566D01*
X015679Y018725D02*
X015389Y018725D01*
X015389Y018883D02*
X015679Y018883D01*
X016389Y018883D02*
X016679Y018883D01*
X016679Y018725D02*
X016389Y018725D01*
X016389Y018566D02*
X016679Y018566D01*
X016679Y018408D02*
X016389Y018408D01*
X016389Y018249D02*
X016679Y018249D01*
X016679Y018091D02*
X016389Y018091D01*
X016790Y017932D02*
X015801Y017932D01*
X015642Y017774D02*
X016790Y017774D01*
X016790Y017615D02*
X015484Y017615D01*
X015325Y017457D02*
X016790Y017457D01*
X016790Y017298D02*
X015167Y017298D01*
X015008Y017140D02*
X016790Y017140D01*
X016790Y016981D02*
X014850Y016981D01*
X014691Y016823D02*
X016790Y016823D01*
X016790Y016664D02*
X014533Y016664D01*
X014374Y016506D02*
X016790Y016506D01*
X016790Y016347D02*
X014216Y016347D01*
X014057Y016189D02*
X016724Y016189D01*
X016465Y016030D02*
X013899Y016030D01*
X013740Y015872D02*
X016320Y015872D01*
X016389Y015302D02*
X016679Y015012D01*
X016679Y014492D01*
X016761Y014410D01*
X017183Y014410D01*
X017189Y012278D01*
X017064Y012227D01*
X016921Y012083D01*
X016874Y011970D01*
X016863Y012005D01*
X016824Y012082D01*
X016773Y012152D01*
X016712Y012214D01*
X016641Y012265D01*
X016564Y012304D01*
X016482Y012331D01*
X016397Y012344D01*
X016373Y012344D01*
X016373Y011814D01*
X016333Y011814D01*
X016333Y012344D01*
X016310Y012344D01*
X016224Y012331D01*
X016142Y012304D01*
X016065Y012265D01*
X015995Y012214D01*
X015934Y012152D01*
X015883Y012082D01*
X015844Y012005D01*
X015832Y011970D01*
X015786Y012083D01*
X015642Y012227D01*
X015455Y012304D01*
X015370Y012304D01*
X015370Y014190D01*
X015659Y014190D01*
X015879Y014410D01*
X016307Y014410D01*
X016389Y014492D01*
X016389Y015302D01*
X016389Y015238D02*
X016454Y015238D01*
X016389Y015079D02*
X016612Y015079D01*
X016679Y014921D02*
X016389Y014921D01*
X016389Y014762D02*
X016679Y014762D01*
X016679Y014604D02*
X016389Y014604D01*
X016342Y014445D02*
X016727Y014445D01*
X017183Y014287D02*
X015755Y014287D01*
X015370Y014128D02*
X017184Y014128D01*
X017184Y013970D02*
X015370Y013970D01*
X015370Y013811D02*
X017185Y013811D01*
X017185Y013653D02*
X015370Y013653D01*
X015370Y013494D02*
X017186Y013494D01*
X017186Y013336D02*
X015370Y013336D01*
X015370Y013177D02*
X017187Y013177D01*
X017187Y013019D02*
X015370Y013019D01*
X015370Y012860D02*
X017187Y012860D01*
X017188Y012702D02*
X015370Y012702D01*
X015370Y012543D02*
X017188Y012543D01*
X017189Y012385D02*
X015370Y012385D01*
X015643Y012226D02*
X016012Y012226D01*
X015875Y012068D02*
X015792Y012068D01*
X015822Y011592D02*
X015841Y011592D01*
X015936Y011434D02*
X015714Y011434D01*
X016171Y011275D02*
X013003Y011275D01*
X013103Y011117D02*
X018820Y011117D01*
X018820Y011275D02*
X016535Y011275D01*
X016373Y011275D02*
X016333Y011275D01*
X016333Y011434D02*
X016373Y011434D01*
X016373Y011592D02*
X016333Y011592D01*
X016333Y011751D02*
X016373Y011751D01*
X016373Y011909D02*
X016333Y011909D01*
X016333Y012068D02*
X016373Y012068D01*
X016373Y012226D02*
X016333Y012226D01*
X016695Y012226D02*
X017064Y012226D01*
X016914Y012068D02*
X016831Y012068D01*
X016866Y011592D02*
X016885Y011592D01*
X016993Y011434D02*
X016770Y011434D01*
X017714Y011434D02*
X018820Y011434D01*
X018820Y011592D02*
X017822Y011592D01*
X017863Y011751D02*
X018820Y011751D01*
X018820Y011909D02*
X017858Y011909D01*
X017792Y012068D02*
X018820Y012068D01*
X018820Y012226D02*
X017643Y012226D01*
X017569Y012385D02*
X018820Y012385D01*
X018820Y012543D02*
X017568Y012543D01*
X017568Y012702D02*
X018820Y012702D01*
X018820Y012860D02*
X017567Y012860D01*
X017567Y013019D02*
X018820Y013019D01*
X018820Y013177D02*
X017567Y013177D01*
X017566Y013336D02*
X018820Y013336D01*
X018820Y013494D02*
X017566Y013494D01*
X017565Y013653D02*
X018820Y013653D01*
X018820Y013811D02*
X017565Y013811D01*
X017564Y013970D02*
X018820Y013970D01*
X018820Y014128D02*
X017564Y014128D01*
X017563Y014287D02*
X018820Y014287D01*
X018820Y014445D02*
X017563Y014445D01*
X017563Y014604D02*
X018820Y014604D01*
X018820Y014762D02*
X017562Y014762D01*
X017562Y014921D02*
X018820Y014921D01*
X018820Y015079D02*
X017561Y015079D01*
X017561Y015238D02*
X018820Y015238D01*
X018820Y015396D02*
X017560Y015396D01*
X017560Y015555D02*
X018820Y015555D01*
X018820Y015713D02*
X017560Y015713D01*
X017559Y015872D02*
X018820Y015872D01*
X018820Y016030D02*
X017559Y016030D01*
X017558Y016189D02*
X018820Y016189D01*
X018820Y016347D02*
X017558Y016347D01*
X017557Y016506D02*
X018820Y016506D01*
X018820Y016664D02*
X017557Y016664D01*
X017556Y016823D02*
X018820Y016823D01*
X018820Y016981D02*
X017556Y016981D01*
X017556Y017140D02*
X018820Y017140D01*
X018820Y017298D02*
X017555Y017298D01*
X017555Y017457D02*
X018820Y017457D01*
X018820Y017615D02*
X017554Y017615D01*
X017554Y017774D02*
X018820Y017774D01*
X018820Y017932D02*
X017553Y017932D01*
X017553Y018091D02*
X018820Y018091D01*
X018820Y018249D02*
X017552Y018249D01*
X017552Y018408D02*
X018820Y018408D01*
X018820Y018566D02*
X017552Y018566D01*
X017551Y018725D02*
X018820Y018725D01*
X018820Y018883D02*
X017551Y018883D01*
X017550Y019042D02*
X018820Y019042D01*
X018820Y019200D02*
X017428Y019200D01*
X017550Y019078D02*
X017550Y019078D01*
X017550Y019078D01*
X017270Y019359D02*
X018820Y019359D01*
X018820Y019517D02*
X017111Y019517D01*
X016953Y019676D02*
X018820Y019676D01*
X018820Y019834D02*
X016794Y019834D01*
X016636Y019993D02*
X018820Y019993D01*
X018820Y020151D02*
X016635Y020151D01*
X016635Y020310D02*
X018820Y020310D01*
X018820Y020468D02*
X016635Y020468D01*
X016635Y020627D02*
X018820Y020627D01*
X018820Y020785D02*
X016170Y020785D01*
X016170Y020944D02*
X018820Y020944D01*
X018820Y021102D02*
X016170Y021102D01*
X016170Y021261D02*
X018820Y021261D01*
X018820Y021419D02*
X016170Y021419D01*
X016020Y021578D02*
X018820Y021578D01*
X018820Y021736D02*
X015861Y021736D01*
X015703Y021895D02*
X018820Y021895D01*
X018820Y022053D02*
X015544Y022053D01*
X015324Y021736D02*
X014293Y021736D01*
X014370Y021659D02*
X014370Y021659D01*
X014451Y021578D02*
X015482Y021578D01*
X015641Y021419D02*
X014610Y021419D01*
X014768Y021261D02*
X015790Y021261D01*
X015790Y021102D02*
X014927Y021102D01*
X015085Y020944D02*
X015790Y020944D01*
X015790Y020785D02*
X015170Y020785D01*
X014723Y020769D02*
X014713Y020769D01*
X014675Y020731D01*
X014670Y020739D01*
X014637Y020773D01*
X014596Y020796D01*
X014550Y020809D01*
X014175Y020809D01*
X014175Y020277D01*
X014138Y020277D01*
X014138Y020240D01*
X013606Y020240D01*
X013606Y020022D01*
X013025Y020603D01*
X013061Y020639D01*
X013139Y020827D01*
X013139Y021029D01*
X013061Y021217D01*
X012918Y021360D01*
X012849Y021389D01*
X014101Y021390D01*
X014723Y020769D01*
X014706Y020785D02*
X014616Y020785D01*
X014548Y020944D02*
X013139Y020944D01*
X013122Y020785D02*
X013697Y020785D01*
X013717Y020796D02*
X013676Y020773D01*
X013642Y020739D01*
X013619Y020698D01*
X013606Y020652D01*
X013606Y020277D01*
X014138Y020277D01*
X014138Y020809D01*
X013763Y020809D01*
X013717Y020796D01*
X013606Y020627D02*
X013049Y020627D01*
X013161Y020468D02*
X013606Y020468D01*
X013606Y020310D02*
X013319Y020310D01*
X013478Y020151D02*
X013606Y020151D01*
X014138Y020151D02*
X014175Y020151D01*
X014175Y019993D02*
X014138Y019993D01*
X014138Y019834D02*
X014175Y019834D01*
X014153Y019676D02*
X016416Y019676D01*
X016574Y019517D02*
X014312Y019517D01*
X014470Y019359D02*
X016732Y019359D01*
X016891Y019200D02*
X014629Y019200D01*
X014787Y019042D02*
X017049Y019042D01*
X015105Y017774D02*
X013157Y017774D01*
X013081Y017615D02*
X014946Y017615D01*
X014788Y017457D02*
X012915Y017457D01*
X012980Y017298D02*
X014629Y017298D01*
X014471Y017140D02*
X013093Y017140D01*
X013139Y016981D02*
X014312Y016981D01*
X014154Y016823D02*
X013137Y016823D01*
X013071Y016664D02*
X013995Y016664D01*
X013837Y016506D02*
X012928Y016506D01*
X012931Y016347D02*
X013678Y016347D01*
X013520Y016189D02*
X013073Y016189D01*
X013139Y016030D02*
X013361Y016030D01*
X013203Y015872D02*
X013139Y015872D01*
X013370Y015396D02*
X013390Y015396D01*
X013390Y015238D02*
X013370Y015238D01*
X013370Y015079D02*
X013390Y015079D01*
X013390Y014921D02*
X013370Y014921D01*
X013370Y014762D02*
X013390Y014762D01*
X013390Y014604D02*
X013370Y014604D01*
X013370Y014445D02*
X013446Y014445D01*
X013370Y014287D02*
X013605Y014287D01*
X013370Y014128D02*
X013990Y014128D01*
X013990Y013970D02*
X013370Y013970D01*
X013370Y013811D02*
X013990Y013811D01*
X013990Y013653D02*
X013370Y013653D01*
X013370Y013494D02*
X013990Y013494D01*
X013990Y013336D02*
X013370Y013336D01*
X013221Y013177D02*
X013990Y013177D01*
X013990Y013019D02*
X013139Y013019D01*
X013139Y012860D02*
X013990Y012860D01*
X013990Y012702D02*
X013087Y012702D01*
X012965Y012543D02*
X013990Y012543D01*
X013990Y012385D02*
X012859Y012385D01*
X013052Y012226D02*
X013847Y012226D01*
X013843Y012068D02*
X013123Y012068D01*
X013139Y011909D02*
X013843Y011909D01*
X013843Y011751D02*
X013107Y011751D01*
X013014Y011592D02*
X013843Y011592D01*
X013843Y011434D02*
X012768Y011434D01*
X012490Y011434D02*
X007395Y011434D01*
X007237Y011592D02*
X012244Y011592D01*
X012150Y011751D02*
X007107Y011751D01*
X007139Y011909D02*
X007523Y011909D01*
X007331Y012068D02*
X007123Y012068D01*
X007052Y012226D02*
X007260Y012226D01*
X007244Y012385D02*
X006859Y012385D01*
X006965Y012543D02*
X007275Y012543D01*
X007369Y012702D02*
X007087Y012702D01*
X006398Y012385D02*
X005401Y012385D01*
X005401Y012543D02*
X006293Y012543D01*
X006171Y012702D02*
X005401Y012702D01*
X005401Y012860D02*
X006119Y012860D01*
X006119Y013019D02*
X005401Y013019D01*
X005401Y013177D02*
X006180Y013177D01*
X006315Y013336D02*
X005401Y013336D01*
X005401Y013494D02*
X006344Y013494D01*
X006191Y013653D02*
X005401Y013653D01*
X005401Y013811D02*
X006125Y013811D01*
X006119Y013970D02*
X005401Y013970D01*
X005401Y014128D02*
X006160Y014128D01*
X006005Y014287D02*
X005401Y014287D01*
X005401Y014445D02*
X005846Y014445D01*
X005688Y014604D02*
X005401Y014604D01*
X005401Y014762D02*
X005529Y014762D01*
X004801Y014762D02*
X003670Y014762D01*
X003670Y014921D02*
X004700Y014921D01*
X004542Y015079D02*
X003670Y015079D01*
X003670Y015238D02*
X004383Y015238D01*
X004225Y015396D02*
X003670Y015396D01*
X003670Y015555D02*
X004066Y015555D01*
X003908Y015713D02*
X003624Y015713D01*
X003522Y015823D02*
X003522Y015823D01*
X003473Y015872D02*
X003749Y015872D01*
X003591Y016030D02*
X003315Y016030D01*
X003432Y016189D02*
X003156Y016189D01*
X003274Y016347D02*
X002998Y016347D01*
X003115Y016506D02*
X002839Y016506D01*
X002957Y016664D02*
X002681Y016664D01*
X002798Y016823D02*
X002522Y016823D01*
X002664Y016981D02*
X002364Y016981D01*
X002205Y017140D02*
X002636Y017140D01*
X002636Y017298D02*
X002047Y017298D01*
X001898Y017457D02*
X002636Y017457D01*
X002636Y017615D02*
X001898Y017615D01*
X001898Y017774D02*
X002636Y017774D01*
X002636Y017932D02*
X001898Y017932D01*
X001898Y018091D02*
X002636Y018091D01*
X002553Y018249D02*
X001898Y018249D01*
X001898Y018408D02*
X002394Y018408D01*
X002236Y018566D02*
X001893Y018566D01*
X001801Y018725D02*
X002077Y018725D01*
X001919Y018883D02*
X001643Y018883D01*
X001484Y019042D02*
X001849Y019042D01*
X001849Y019200D02*
X001326Y019200D01*
X001308Y019359D02*
X001849Y019359D01*
X001849Y019517D02*
X001309Y019517D01*
X001309Y019676D02*
X001849Y019676D01*
X001849Y019834D02*
X001309Y019834D01*
X001310Y019993D02*
X001849Y019993D01*
X001849Y020151D02*
X001310Y020151D01*
X001311Y020310D02*
X001849Y020310D01*
X001849Y020468D02*
X001311Y020468D01*
X001311Y020627D02*
X001849Y020627D01*
X001879Y020785D02*
X001312Y020785D01*
X001312Y020944D02*
X002015Y020944D01*
X002174Y021102D02*
X001313Y021102D01*
X001313Y021261D02*
X002332Y021261D01*
X002491Y021419D02*
X001313Y021419D01*
X001314Y021578D02*
X002649Y021578D01*
X002808Y021736D02*
X001314Y021736D01*
X001315Y021895D02*
X002966Y021895D01*
X003030Y022053D02*
X001315Y022053D01*
X001315Y022212D02*
X003030Y022212D01*
X003030Y022370D02*
X002773Y022370D01*
X002932Y022529D02*
X003030Y022529D01*
X003030Y023480D02*
X002953Y023480D01*
X003030Y023638D02*
X002794Y023638D01*
X003036Y023797D02*
X001319Y023797D01*
X001320Y023955D02*
X003041Y023955D01*
X003046Y024114D02*
X001320Y024114D01*
X001321Y024272D02*
X003047Y024272D01*
X002984Y024431D02*
X002675Y024431D01*
X002792Y024589D02*
X002867Y024589D01*
X002885Y025065D02*
X002775Y025065D01*
X002634Y025223D02*
X003025Y025223D01*
X002025Y025223D02*
X001323Y025223D01*
X001323Y025065D02*
X001885Y025065D01*
X001820Y024906D02*
X001322Y024906D01*
X001322Y024748D02*
X001820Y024748D01*
X001867Y024589D02*
X001322Y024589D01*
X001321Y024431D02*
X001984Y024431D01*
X001975Y023638D02*
X001319Y023638D01*
X001319Y023480D02*
X001816Y023480D01*
X001658Y023321D02*
X001318Y023321D01*
X001318Y023163D02*
X001654Y023163D01*
X001654Y023004D02*
X001317Y023004D01*
X001317Y022846D02*
X001654Y022846D01*
X001679Y022687D02*
X001317Y022687D01*
X001316Y022529D02*
X001838Y022529D01*
X001996Y022370D02*
X001316Y022370D01*
X000636Y022370D02*
X000410Y022370D01*
X000410Y022212D02*
X000635Y022212D01*
X000635Y022053D02*
X000410Y022053D01*
X000410Y021895D02*
X000635Y021895D01*
X000634Y021736D02*
X000410Y021736D01*
X000410Y021578D02*
X000634Y021578D01*
X000633Y021419D02*
X000410Y021419D01*
X000410Y021261D02*
X000633Y021261D01*
X000633Y021102D02*
X000410Y021102D01*
X000410Y020944D02*
X000632Y020944D01*
X000632Y020785D02*
X000410Y020785D01*
X000410Y020627D02*
X000631Y020627D01*
X000631Y020468D02*
X000410Y020468D01*
X000410Y020310D02*
X000631Y020310D01*
X000630Y020151D02*
X000410Y020151D01*
X000410Y019993D02*
X000630Y019993D01*
X000629Y019834D02*
X000410Y019834D01*
X000410Y019676D02*
X000629Y019676D01*
X000629Y019517D02*
X000410Y019517D01*
X000410Y019359D02*
X000628Y019359D01*
X000628Y019200D02*
X000410Y019200D01*
X000410Y019042D02*
X000627Y019042D01*
X000627Y019010D02*
X000627Y019010D01*
X000679Y018885D02*
X000679Y018885D01*
X000681Y018883D02*
X000410Y018883D01*
X000410Y018725D02*
X000840Y018725D01*
X000998Y018566D02*
X000410Y018566D01*
X000410Y018408D02*
X001157Y018408D01*
X001218Y018249D02*
X000410Y018249D01*
X000410Y018091D02*
X001218Y018091D01*
X001218Y017932D02*
X000410Y017932D01*
X000410Y017774D02*
X001218Y017774D01*
X001218Y017615D02*
X000410Y017615D01*
X000410Y017457D02*
X001218Y017457D01*
X001218Y017298D02*
X000410Y017298D01*
X000410Y017140D02*
X001259Y017140D01*
X001402Y016981D02*
X000410Y016981D01*
X000410Y016823D02*
X001561Y016823D01*
X001719Y016664D02*
X000410Y016664D01*
X000410Y016506D02*
X001878Y016506D01*
X002036Y016347D02*
X000410Y016347D01*
X000410Y016189D02*
X002195Y016189D01*
X002353Y016030D02*
X000410Y016030D01*
X000410Y015872D02*
X002512Y015872D01*
X002844Y015396D02*
X002987Y015396D01*
X002990Y015238D02*
X002844Y015238D01*
X002844Y015079D02*
X002990Y015079D01*
X002990Y014921D02*
X002831Y014921D01*
X002990Y014762D02*
X000410Y014762D01*
X000410Y014604D02*
X002091Y014604D01*
X002091Y014445D02*
X000410Y014445D01*
X000410Y014287D02*
X002091Y014287D01*
X002091Y014128D02*
X000410Y014128D01*
X000410Y013970D02*
X004801Y013970D01*
X004801Y014128D02*
X004182Y014128D01*
X004182Y014287D02*
X004801Y014287D01*
X004801Y014445D02*
X004182Y014445D01*
X004182Y014604D02*
X004801Y014604D01*
X004801Y013811D02*
X004182Y013811D01*
X004182Y013829D02*
X004100Y013911D01*
X003503Y013911D01*
X003496Y013914D01*
X003360Y013914D01*
X003353Y013911D01*
X002173Y013911D01*
X002091Y013829D01*
X002091Y013319D01*
X002173Y013237D01*
X003088Y013237D01*
X003088Y011269D01*
X002150Y011269D01*
X002068Y011187D01*
X002068Y010677D01*
X002150Y010595D01*
X004077Y010595D01*
X004159Y010677D01*
X004159Y011187D01*
X004077Y011269D01*
X003768Y011269D01*
X003768Y013237D01*
X004100Y013237D01*
X004182Y013319D01*
X004182Y013829D01*
X004182Y013653D02*
X004801Y013653D01*
X004801Y013494D02*
X004182Y013494D01*
X004182Y013336D02*
X004801Y013336D01*
X004801Y013177D02*
X003768Y013177D01*
X003768Y013019D02*
X004801Y013019D01*
X004801Y012860D02*
X003768Y012860D01*
X003768Y012702D02*
X004801Y012702D01*
X004801Y012543D02*
X003768Y012543D01*
X003768Y012385D02*
X004801Y012385D01*
X004801Y012226D02*
X003768Y012226D01*
X003768Y012068D02*
X004801Y012068D01*
X004801Y011909D02*
X003768Y011909D01*
X003768Y011751D02*
X004801Y011751D01*
X004801Y011592D02*
X003768Y011592D01*
X003768Y011434D02*
X004801Y011434D01*
X004801Y011275D02*
X003768Y011275D01*
X004159Y011117D02*
X004801Y011117D01*
X004801Y010958D02*
X004159Y010958D01*
X004159Y010800D02*
X004801Y010800D01*
X004801Y010641D02*
X004122Y010641D01*
X004088Y010509D02*
X004042Y010521D01*
X003131Y010521D01*
X003131Y010163D01*
X003095Y010163D01*
X003095Y010521D01*
X002184Y010521D01*
X002138Y010509D01*
X002097Y010485D01*
X002064Y010452D01*
X002040Y010411D01*
X002028Y010365D01*
X002028Y010163D01*
X003095Y010163D01*
X003095Y010126D01*
X003131Y010126D01*
X003131Y009768D01*
X004042Y009768D01*
X004088Y009780D01*
X004129Y009804D01*
X004163Y009837D01*
X004186Y009878D01*
X004199Y009924D01*
X004199Y010126D01*
X003132Y010126D01*
X003132Y010163D01*
X004199Y010163D01*
X004199Y010365D01*
X004186Y010411D01*
X004163Y010452D01*
X004129Y010485D01*
X004088Y010509D01*
X004132Y010483D02*
X004801Y010483D01*
X004801Y010324D02*
X004199Y010324D01*
X004199Y010166D02*
X004801Y010166D01*
X004801Y010007D02*
X004199Y010007D01*
X004169Y009849D02*
X004801Y009849D01*
X004801Y009690D02*
X000410Y009690D01*
X000410Y009532D02*
X001201Y009532D01*
X001201Y009573D02*
X001283Y009655D01*
X002738Y009655D01*
X002820Y009573D01*
X002820Y008827D01*
X002738Y008745D01*
X001283Y008745D01*
X001201Y008827D01*
X001201Y009573D01*
X001201Y009373D02*
X000410Y009373D01*
X000410Y009215D02*
X001201Y009215D01*
X001201Y009056D02*
X000410Y009056D01*
X000410Y008898D02*
X001201Y008898D01*
X000410Y008739D02*
X004801Y008739D01*
X004801Y008581D02*
X000410Y008581D01*
X000410Y008422D02*
X004801Y008422D01*
X004801Y008264D02*
X000410Y008264D01*
X000410Y008105D02*
X004801Y008105D01*
X004801Y007947D02*
X000410Y007947D01*
X000410Y007788D02*
X004801Y007788D01*
X004801Y007630D02*
X000410Y007630D01*
X000410Y007471D02*
X004801Y007471D01*
X004801Y007313D02*
X000410Y007313D01*
X000410Y007154D02*
X004801Y007154D01*
X004801Y006996D02*
X000410Y006996D01*
X000410Y006837D02*
X004801Y006837D01*
X004801Y006679D02*
X000410Y006679D01*
X000410Y006520D02*
X004801Y006520D01*
X004801Y006362D02*
X000410Y006362D01*
X000410Y006203D02*
X004801Y006203D01*
X004801Y006045D02*
X001806Y006045D01*
X001848Y006027D02*
X001532Y006158D01*
X001190Y006158D01*
X000874Y006027D01*
X000632Y005785D01*
X000501Y005469D01*
X000501Y005127D01*
X000632Y004811D01*
X000874Y004569D01*
X001190Y004438D01*
X001532Y004438D01*
X001848Y004569D01*
X002090Y004811D01*
X002221Y005127D01*
X002221Y005469D01*
X002090Y005785D01*
X001848Y006027D01*
X001989Y005886D02*
X004801Y005886D01*
X004801Y005728D02*
X002114Y005728D01*
X002180Y005569D02*
X004801Y005569D01*
X004801Y005411D02*
X002221Y005411D01*
X002221Y005252D02*
X004801Y005252D01*
X004801Y005094D02*
X002207Y005094D01*
X002141Y004935D02*
X004801Y004935D01*
X004801Y004777D02*
X002056Y004777D01*
X001897Y004618D02*
X004801Y004618D01*
X004801Y004460D02*
X001584Y004460D01*
X001139Y004460D02*
X000410Y004460D01*
X000410Y004618D02*
X000825Y004618D01*
X000667Y004777D02*
X000410Y004777D01*
X000410Y004935D02*
X000581Y004935D01*
X000515Y005094D02*
X000410Y005094D01*
X000410Y005252D02*
X000501Y005252D01*
X000501Y005411D02*
X000410Y005411D01*
X000410Y005569D02*
X000543Y005569D01*
X000608Y005728D02*
X000410Y005728D01*
X000410Y005886D02*
X000733Y005886D01*
X000916Y006045D02*
X000410Y006045D01*
X000410Y004301D02*
X004801Y004301D01*
X004801Y004143D02*
X000410Y004143D01*
X000410Y003984D02*
X004801Y003984D01*
X004801Y003826D02*
X000410Y003826D01*
X000410Y003667D02*
X004801Y003667D01*
X004801Y003509D02*
X000410Y003509D01*
X000410Y003350D02*
X004853Y003350D01*
X005012Y003192D02*
X000410Y003192D01*
X000410Y003033D02*
X005170Y003033D01*
X005329Y002875D02*
X000410Y002875D01*
X000410Y002716D02*
X005487Y002716D01*
X005576Y002558D02*
X001670Y002558D01*
X001532Y002615D02*
X001190Y002615D01*
X000874Y002484D01*
X000632Y002242D01*
X000501Y001926D01*
X000501Y001584D01*
X000632Y001268D01*
X000874Y001026D01*
X001190Y000895D01*
X001532Y000895D01*
X001848Y001026D01*
X002090Y001268D01*
X002221Y001584D01*
X002221Y001926D01*
X002090Y002242D01*
X001848Y002484D01*
X001532Y002615D01*
X001052Y002558D02*
X000410Y002558D01*
X000410Y002399D02*
X000789Y002399D01*
X000632Y002241D02*
X000410Y002241D01*
X000410Y002082D02*
X000566Y002082D01*
X000501Y001924D02*
X000410Y001924D01*
X000410Y001765D02*
X000501Y001765D01*
X000501Y001607D02*
X000410Y001607D01*
X000410Y001448D02*
X000557Y001448D01*
X000623Y001290D02*
X000410Y001290D01*
X000410Y001131D02*
X000769Y001131D01*
X001003Y000973D02*
X000410Y000973D01*
X000410Y000814D02*
X006384Y000814D01*
X006363Y000973D02*
X001720Y000973D01*
X001953Y001131D02*
X006389Y001131D01*
X006474Y001290D02*
X002099Y001290D01*
X002165Y001448D02*
X006700Y001448D01*
X006771Y001765D02*
X006400Y001765D01*
X006535Y001924D02*
X006637Y001924D01*
X007045Y001448D02*
X007700Y001448D01*
X007474Y001290D02*
X007272Y001290D01*
X007357Y001131D02*
X007389Y001131D01*
X007384Y000814D02*
X007361Y000814D01*
X007282Y000656D02*
X007464Y000656D01*
X007676Y000497D02*
X007070Y000497D01*
X006676Y000497D02*
X000410Y000497D01*
X000410Y000656D02*
X006464Y000656D01*
X005771Y001765D02*
X002221Y001765D01*
X002221Y001607D02*
X009338Y001607D01*
X009400Y001765D02*
X009496Y001765D01*
X009535Y001924D02*
X009637Y001924D01*
X009875Y001607D02*
X017067Y001607D01*
X017037Y001532D02*
X017037Y001190D01*
X017168Y000874D01*
X017409Y000632D01*
X017725Y000501D01*
X018068Y000501D01*
X018384Y000632D01*
X018626Y000874D01*
X018756Y001190D01*
X018756Y001532D01*
X018626Y001848D01*
X018384Y002090D01*
X018068Y002221D01*
X017725Y002221D01*
X017409Y002090D01*
X017168Y001848D01*
X017037Y001532D01*
X017037Y001448D02*
X011982Y001448D01*
X011911Y001477D02*
X012099Y001400D01*
X012242Y001256D01*
X012320Y001069D01*
X012320Y000866D01*
X012242Y000679D01*
X012099Y000535D01*
X011911Y000457D01*
X011708Y000457D01*
X011521Y000535D01*
X011378Y000679D01*
X011310Y000842D01*
X011242Y000679D01*
X011099Y000535D01*
X010911Y000457D01*
X010708Y000457D01*
X010521Y000535D01*
X010378Y000679D01*
X010300Y000866D01*
X010300Y001069D01*
X010378Y001256D01*
X010521Y001400D01*
X010708Y001477D01*
X010911Y001477D01*
X011099Y001400D01*
X011242Y001256D01*
X011310Y001093D01*
X011378Y001256D01*
X011521Y001400D01*
X011708Y001477D01*
X011911Y001477D01*
X011638Y001448D02*
X010982Y001448D01*
X011209Y001290D02*
X011411Y001290D01*
X011326Y001131D02*
X011294Y001131D01*
X011298Y000814D02*
X011321Y000814D01*
X011401Y000656D02*
X011219Y000656D01*
X011007Y000497D02*
X011613Y000497D01*
X012007Y000497D02*
X018820Y000497D01*
X018820Y000656D02*
X018407Y000656D01*
X018566Y000814D02*
X018820Y000814D01*
X018820Y000973D02*
X018666Y000973D01*
X018732Y001131D02*
X018820Y001131D01*
X018820Y001290D02*
X018756Y001290D01*
X018756Y001448D02*
X018820Y001448D01*
X018820Y001607D02*
X018726Y001607D01*
X018660Y001765D02*
X018820Y001765D01*
X018820Y001924D02*
X018550Y001924D01*
X018392Y002082D02*
X018820Y002082D01*
X018820Y002241D02*
X013636Y002241D01*
X013636Y002129D02*
X013636Y002512D01*
X013116Y002512D01*
X013116Y001622D01*
X013129Y001622D01*
X013214Y001636D01*
X013297Y001663D01*
X013374Y001702D01*
X013444Y001753D01*
X013505Y001814D01*
X013556Y001884D01*
X013595Y001961D01*
X013622Y002043D01*
X013636Y002129D01*
X013628Y002082D02*
X017401Y002082D01*
X017243Y001924D02*
X013576Y001924D01*
X013456Y001765D02*
X017133Y001765D01*
X017037Y001290D02*
X012209Y001290D01*
X012294Y001131D02*
X017061Y001131D01*
X017127Y000973D02*
X012320Y000973D01*
X012298Y000814D02*
X017228Y000814D01*
X017386Y000656D02*
X012219Y000656D01*
X012400Y001765D02*
X012715Y001765D01*
X012595Y001924D02*
X012535Y001924D01*
X013056Y001924D02*
X013116Y001924D01*
X013116Y002082D02*
X013056Y002082D01*
X013056Y002241D02*
X013116Y002241D01*
X013116Y002399D02*
X013056Y002399D01*
X013116Y002558D02*
X018820Y002558D01*
X018820Y002716D02*
X013636Y002716D01*
X013636Y002875D02*
X018820Y002875D01*
X018820Y003033D02*
X013623Y003033D01*
X013560Y003192D02*
X018820Y003192D01*
X018820Y003350D02*
X013419Y003350D01*
X013116Y003350D02*
X013056Y003350D01*
X013056Y003192D02*
X013116Y003192D01*
X013116Y003033D02*
X013056Y003033D01*
X013056Y002875D02*
X013116Y002875D01*
X013116Y002716D02*
X013056Y002716D01*
X012611Y003192D02*
X012522Y003192D01*
X012361Y003350D02*
X012752Y003350D01*
X013636Y002399D02*
X018820Y002399D01*
X018820Y003509D02*
X005543Y003509D01*
X005401Y003667D02*
X018820Y003667D01*
X018820Y003826D02*
X005401Y003826D01*
X005401Y003984D02*
X018820Y003984D01*
X018820Y004143D02*
X005401Y004143D01*
X005401Y004301D02*
X018820Y004301D01*
X018820Y004460D02*
X018119Y004460D01*
X018068Y004438D02*
X018384Y004569D01*
X018626Y004811D01*
X018756Y005127D01*
X018756Y005469D01*
X018626Y005785D01*
X018384Y006027D01*
X018068Y006158D01*
X017725Y006158D01*
X017409Y006027D01*
X017168Y005785D01*
X017037Y005469D01*
X017037Y005127D01*
X017168Y004811D01*
X017409Y004569D01*
X017725Y004438D01*
X018068Y004438D01*
X017674Y004460D02*
X005401Y004460D01*
X005401Y004618D02*
X017361Y004618D01*
X017202Y004777D02*
X005401Y004777D01*
X005401Y004935D02*
X017116Y004935D01*
X017051Y005094D02*
X005401Y005094D01*
X005401Y005252D02*
X017037Y005252D01*
X017037Y005411D02*
X005401Y005411D01*
X005401Y005569D02*
X017078Y005569D01*
X017144Y005728D02*
X005401Y005728D01*
X005401Y005886D02*
X017268Y005886D01*
X017451Y006045D02*
X005401Y006045D01*
X005401Y006203D02*
X018820Y006203D01*
X018820Y006045D02*
X018342Y006045D01*
X018525Y005886D02*
X018820Y005886D01*
X018820Y005728D02*
X018649Y005728D01*
X018715Y005569D02*
X018820Y005569D01*
X018820Y005411D02*
X018756Y005411D01*
X018756Y005252D02*
X018820Y005252D01*
X018820Y005094D02*
X018743Y005094D01*
X018677Y004935D02*
X018820Y004935D01*
X018820Y004777D02*
X018591Y004777D01*
X018433Y004618D02*
X018820Y004618D01*
X018820Y006362D02*
X005401Y006362D01*
X005401Y006520D02*
X018820Y006520D01*
X018820Y006679D02*
X005401Y006679D01*
X005401Y006837D02*
X018820Y006837D01*
X018820Y006996D02*
X005401Y006996D01*
X005401Y007154D02*
X018820Y007154D01*
X018820Y007313D02*
X010381Y007313D01*
X010540Y007471D02*
X018820Y007471D01*
X018820Y007630D02*
X013404Y007630D01*
X013374Y007607D02*
X013444Y007658D01*
X013505Y007719D01*
X013556Y007789D01*
X013595Y007867D01*
X013622Y007949D01*
X013636Y008034D01*
X013636Y008418D01*
X013116Y008418D01*
X013116Y007528D01*
X013129Y007528D01*
X013214Y007541D01*
X013297Y007568D01*
X013374Y007607D01*
X013555Y007788D02*
X018820Y007788D01*
X018820Y007947D02*
X013621Y007947D01*
X013636Y008105D02*
X018820Y008105D01*
X018820Y008264D02*
X013636Y008264D01*
X013636Y008581D02*
X018820Y008581D01*
X018820Y008739D02*
X013636Y008739D01*
X013630Y008898D02*
X018820Y008898D01*
X018820Y009056D02*
X013581Y009056D01*
X013467Y009215D02*
X018820Y009215D01*
X018820Y009373D02*
X010770Y009373D01*
X011410Y009215D02*
X011761Y009215D01*
X011632Y009056D02*
X011539Y009056D01*
X011583Y007947D02*
X011588Y007947D01*
X011654Y007788D02*
X011517Y007788D01*
X011336Y007630D02*
X011835Y007630D01*
X012336Y007630D02*
X012767Y007630D01*
X012616Y007788D02*
X012517Y007788D01*
X013056Y007788D02*
X013116Y007788D01*
X013116Y007630D02*
X013056Y007630D01*
X013056Y007947D02*
X013116Y007947D01*
X013116Y008105D02*
X013056Y008105D01*
X013056Y008264D02*
X013116Y008264D01*
X013116Y008422D02*
X018820Y008422D01*
X018820Y009532D02*
X012954Y009532D01*
X013082Y009690D02*
X018820Y009690D01*
X018820Y009849D02*
X013139Y009849D01*
X013139Y010007D02*
X018820Y010007D01*
X018820Y010166D02*
X013082Y010166D01*
X012954Y010324D02*
X018820Y010324D01*
X018820Y010483D02*
X012886Y010483D01*
X013062Y010641D02*
X018820Y010641D01*
X018820Y010800D02*
X013128Y010800D01*
X013139Y010958D02*
X018820Y010958D01*
X014993Y011434D02*
X014863Y011434D01*
X014863Y011592D02*
X014885Y011592D01*
X013116Y009215D02*
X013056Y009215D01*
X013056Y009056D02*
X013116Y009056D01*
X013116Y008898D02*
X013056Y008898D01*
X013056Y008739D02*
X013116Y008739D01*
X013116Y008581D02*
X013056Y008581D01*
X012590Y009056D02*
X012539Y009056D01*
X012410Y009215D02*
X012704Y009215D01*
X012130Y010800D02*
X008956Y010800D01*
X008617Y010800D02*
X008029Y010800D01*
X007871Y010958D02*
X012119Y010958D01*
X012155Y011117D02*
X007712Y011117D01*
X007554Y011275D02*
X012255Y011275D01*
X012119Y011909D02*
X007984Y011909D01*
X008177Y012068D02*
X012135Y012068D01*
X012206Y012226D02*
X008248Y012226D01*
X008264Y012385D02*
X012398Y012385D01*
X012293Y012543D02*
X008232Y012543D01*
X008139Y012702D02*
X012171Y012702D01*
X010835Y007630D02*
X010698Y007630D01*
X008632Y009056D02*
X008539Y009056D01*
X008477Y009215D02*
X008410Y009215D01*
X008318Y009373D02*
X005401Y009373D01*
X005401Y009215D02*
X005761Y009215D01*
X005632Y009056D02*
X005401Y009056D01*
X005401Y008898D02*
X005576Y008898D01*
X005576Y008739D02*
X005401Y008739D01*
X005401Y008581D02*
X005576Y008581D01*
X005576Y008422D02*
X005401Y008422D01*
X005401Y008264D02*
X005576Y008264D01*
X005576Y008105D02*
X005401Y008105D01*
X005401Y007947D02*
X005588Y007947D01*
X005654Y007788D02*
X005401Y007788D01*
X005401Y007630D02*
X005835Y007630D01*
X005401Y007471D02*
X007990Y007471D01*
X007990Y007313D02*
X005401Y007313D01*
X006336Y007630D02*
X006835Y007630D01*
X006654Y007788D02*
X006517Y007788D01*
X006583Y007947D02*
X006588Y007947D01*
X007336Y007630D02*
X007835Y007630D01*
X007654Y007788D02*
X007517Y007788D01*
X007583Y007947D02*
X007588Y007947D01*
X007632Y009056D02*
X007539Y009056D01*
X007410Y009215D02*
X007761Y009215D01*
X006761Y009215D02*
X006410Y009215D01*
X006539Y009056D02*
X006632Y009056D01*
X006304Y009532D02*
X005401Y009532D01*
X005401Y009690D02*
X006175Y009690D01*
X006119Y009849D02*
X005401Y009849D01*
X005401Y010007D02*
X006119Y010007D01*
X006175Y010166D02*
X005401Y010166D01*
X005401Y010324D02*
X006304Y010324D01*
X006372Y010483D02*
X005401Y010483D01*
X005401Y010641D02*
X006196Y010641D01*
X006130Y010800D02*
X005401Y010800D01*
X005401Y010958D02*
X006119Y010958D01*
X006155Y011117D02*
X005401Y011117D01*
X005401Y011275D02*
X006255Y011275D01*
X006490Y011434D02*
X005401Y011434D01*
X005401Y011592D02*
X006244Y011592D01*
X006150Y011751D02*
X005401Y011751D01*
X005401Y011909D02*
X006119Y011909D01*
X006135Y012068D02*
X005401Y012068D01*
X005401Y012226D02*
X006206Y012226D01*
X004801Y009532D02*
X002820Y009532D01*
X002820Y009373D02*
X004801Y009373D01*
X004801Y009215D02*
X002820Y009215D01*
X002820Y009056D02*
X004801Y009056D01*
X004801Y008898D02*
X002820Y008898D01*
X003095Y009768D02*
X002184Y009768D01*
X002138Y009780D01*
X002097Y009804D01*
X002064Y009837D01*
X002040Y009878D01*
X002028Y009924D01*
X002028Y010126D01*
X003095Y010126D01*
X003095Y009768D01*
X003095Y009849D02*
X003131Y009849D01*
X003131Y010007D02*
X003095Y010007D01*
X003095Y010166D02*
X003131Y010166D01*
X003131Y010324D02*
X003095Y010324D01*
X003095Y010483D02*
X003131Y010483D01*
X003113Y010932D02*
X003428Y010975D01*
X003088Y011275D02*
X000410Y011275D01*
X000410Y011117D02*
X002068Y011117D01*
X002068Y010958D02*
X000410Y010958D01*
X000410Y010800D02*
X002068Y010800D01*
X002104Y010641D02*
X000410Y010641D01*
X000410Y010483D02*
X002094Y010483D01*
X002028Y010324D02*
X000410Y010324D01*
X000410Y010166D02*
X002028Y010166D01*
X002028Y010007D02*
X000410Y010007D01*
X000410Y009849D02*
X002057Y009849D01*
X002738Y011422D02*
X001283Y011422D01*
X001201Y011504D01*
X001201Y012250D01*
X001225Y012273D01*
X001225Y013002D01*
X001307Y013084D01*
X002762Y013084D01*
X002844Y013002D01*
X002844Y012256D01*
X002820Y012232D01*
X002820Y011504D01*
X002738Y011422D01*
X002750Y011434D02*
X003088Y011434D01*
X003088Y011592D02*
X002820Y011592D01*
X002820Y011751D02*
X003088Y011751D01*
X003088Y011909D02*
X002820Y011909D01*
X002820Y012068D02*
X003088Y012068D01*
X003088Y012226D02*
X002820Y012226D01*
X002844Y012385D02*
X003088Y012385D01*
X003088Y012543D02*
X002844Y012543D01*
X002844Y012702D02*
X003088Y012702D01*
X003088Y012860D02*
X002844Y012860D01*
X002827Y013019D02*
X003088Y013019D01*
X003088Y013177D02*
X000410Y013177D01*
X000410Y013019D02*
X001242Y013019D01*
X001225Y012860D02*
X000410Y012860D01*
X000410Y012702D02*
X001225Y012702D01*
X001225Y012543D02*
X000410Y012543D01*
X000410Y012385D02*
X001225Y012385D01*
X001201Y012226D02*
X000410Y012226D01*
X000410Y012068D02*
X001201Y012068D01*
X001201Y011909D02*
X000410Y011909D01*
X000410Y011751D02*
X001201Y011751D01*
X001201Y011592D02*
X000410Y011592D01*
X000410Y011434D02*
X001272Y011434D01*
X002091Y013336D02*
X000410Y013336D01*
X000410Y013494D02*
X002091Y013494D01*
X002091Y013653D02*
X000410Y013653D01*
X000410Y013811D02*
X002091Y013811D01*
X001238Y014921D02*
X000410Y014921D01*
X000410Y015079D02*
X001225Y015079D01*
X001225Y015238D02*
X000410Y015238D01*
X000410Y015396D02*
X001225Y015396D01*
X001225Y015555D02*
X000410Y015555D01*
X000410Y015713D02*
X001259Y015713D01*
X003137Y013574D02*
X003428Y013574D01*
X004370Y016664D02*
X006186Y016664D01*
X006120Y016823D02*
X004370Y016823D01*
X004370Y016981D02*
X006119Y016981D01*
X006164Y017140D02*
X004370Y017140D01*
X004370Y017298D02*
X006278Y017298D01*
X006434Y017457D02*
X004370Y017457D01*
X004370Y017615D02*
X006221Y017615D01*
X006141Y017774D02*
X004370Y017774D01*
X004370Y017932D02*
X006119Y017932D01*
X006144Y018091D02*
X004370Y018091D01*
X004370Y018249D02*
X006229Y018249D01*
X006454Y018408D02*
X004370Y018408D01*
X004370Y018566D02*
X006270Y018566D01*
X006161Y018725D02*
X004370Y018725D01*
X004370Y018883D02*
X006119Y018883D01*
X006124Y019042D02*
X004370Y019042D01*
X004370Y019200D02*
X006189Y019200D01*
X006338Y019359D02*
X004370Y019359D01*
X004370Y019517D02*
X006262Y019517D01*
X006140Y019676D02*
X004370Y019676D01*
X003592Y020785D02*
X006136Y020785D01*
X006209Y020627D02*
X005611Y020627D01*
X005611Y020468D02*
X006407Y020468D01*
X006233Y020310D02*
X005611Y020310D01*
X005611Y020151D02*
X006125Y020151D01*
X006082Y019993D02*
X005611Y019993D01*
X005611Y019834D02*
X006087Y019834D01*
X006920Y019359D02*
X010390Y019359D01*
X010390Y019517D02*
X006996Y019517D01*
X007117Y019676D02*
X010390Y019676D01*
X010390Y019834D02*
X007171Y019834D01*
X007175Y019993D02*
X007523Y019993D01*
X007365Y020151D02*
X007132Y020151D01*
X007206Y020310D02*
X007025Y020310D01*
X007166Y020468D02*
X006851Y020468D01*
X007049Y020627D02*
X007166Y020627D01*
X007166Y020785D02*
X007122Y020785D01*
X007173Y021102D02*
X007313Y021102D01*
X007173Y021261D02*
X007471Y021261D01*
X007173Y021419D02*
X010524Y021419D01*
X010390Y021261D02*
X008322Y021261D01*
X008480Y021102D02*
X010390Y021102D01*
X010390Y020944D02*
X008627Y020944D01*
X008627Y020785D02*
X010390Y020785D01*
X010390Y020627D02*
X008627Y020627D01*
X008627Y020468D02*
X010390Y020468D01*
X010390Y020310D02*
X008587Y020310D01*
X008428Y020151D02*
X010390Y020151D01*
X010390Y019993D02*
X008270Y019993D01*
X007134Y019042D02*
X009908Y019042D01*
X009814Y018883D02*
X007139Y018883D01*
X007097Y018725D02*
X009656Y018725D01*
X009497Y018566D02*
X006988Y018566D01*
X006804Y018408D02*
X009339Y018408D01*
X009180Y018249D02*
X007029Y018249D01*
X007114Y018091D02*
X009022Y018091D01*
X008863Y017932D02*
X008021Y017932D01*
X008189Y017774D02*
X008705Y017774D01*
X008546Y017615D02*
X008254Y017615D01*
X008264Y017457D02*
X008388Y017457D01*
X008229Y017298D02*
X008226Y017298D01*
X007605Y016981D02*
X007139Y016981D01*
X007137Y016823D02*
X007365Y016823D01*
X007274Y016664D02*
X007071Y016664D01*
X006928Y016506D02*
X007244Y016506D01*
X007261Y016347D02*
X006931Y016347D01*
X007073Y016189D02*
X007335Y016189D01*
X007139Y016030D02*
X007533Y016030D01*
X007403Y015872D02*
X007139Y015872D01*
X007092Y015713D02*
X007244Y015713D01*
X007086Y015555D02*
X006977Y015555D01*
X006927Y015396D02*
X006832Y015396D01*
X007093Y017140D02*
X007384Y017140D01*
X007282Y017298D02*
X006980Y017298D01*
X006823Y017457D02*
X007244Y017457D01*
X007253Y017615D02*
X007037Y017615D01*
X007117Y017774D02*
X007319Y017774D01*
X007487Y017932D02*
X007139Y017932D01*
X007068Y019200D02*
X010011Y019200D01*
X010349Y019200D02*
X010390Y019200D01*
X010770Y019200D02*
X012189Y019200D01*
X012124Y019042D02*
X010770Y019042D01*
X010770Y018883D02*
X012119Y018883D01*
X012161Y018725D02*
X010770Y018725D01*
X010770Y018566D02*
X012270Y018566D01*
X012358Y018408D02*
X010676Y018408D01*
X010518Y018249D02*
X012182Y018249D01*
X012103Y018091D02*
X010359Y018091D01*
X010770Y019359D02*
X012338Y019359D01*
X012319Y019517D02*
X010770Y019517D01*
X010770Y019676D02*
X012181Y019676D01*
X012119Y019834D02*
X010770Y019834D01*
X010770Y019993D02*
X010988Y019993D01*
X010829Y020151D02*
X010770Y020151D01*
X010770Y021102D02*
X010778Y021102D01*
X010903Y021261D02*
X010936Y021261D01*
X010683Y021578D02*
X008786Y021578D01*
X008875Y021736D02*
X010841Y021736D01*
X011322Y021388D02*
X011322Y021388D01*
X011786Y021261D02*
X012240Y021261D01*
X012149Y021102D02*
X011945Y021102D01*
X012092Y020944D02*
X012119Y020944D01*
X012136Y020785D02*
X012092Y020785D01*
X012092Y020627D02*
X012209Y020627D01*
X012092Y020468D02*
X012407Y020468D01*
X012289Y020310D02*
X012051Y020310D01*
X012169Y020151D02*
X011893Y020151D01*
X011734Y019993D02*
X012119Y019993D01*
X012920Y019359D02*
X012933Y019359D01*
X013068Y019200D02*
X013091Y019200D01*
X013134Y019042D02*
X013250Y019042D01*
X013139Y018883D02*
X013408Y018883D01*
X013567Y018725D02*
X013097Y018725D01*
X012988Y018566D02*
X013679Y018566D01*
X013679Y018408D02*
X012899Y018408D01*
X013075Y018249D02*
X013679Y018249D01*
X013679Y018091D02*
X013154Y018091D01*
X014389Y018091D02*
X014679Y018091D01*
X014679Y018249D02*
X014389Y018249D01*
X014389Y018408D02*
X014679Y018408D01*
X014679Y018566D02*
X014389Y018566D01*
X014389Y018725D02*
X014567Y018725D01*
X014408Y018883D02*
X014389Y018883D01*
X014175Y020310D02*
X014138Y020310D01*
X014138Y020468D02*
X014175Y020468D01*
X014175Y020627D02*
X014138Y020627D01*
X014138Y020785D02*
X014175Y020785D01*
X014389Y021102D02*
X013109Y021102D01*
X013018Y021261D02*
X014231Y021261D01*
X014101Y021770D02*
X014101Y021770D01*
X013711Y022284D02*
X014139Y022712D01*
X014139Y023317D01*
X013711Y023745D01*
X013106Y023745D01*
X012678Y023317D01*
X012678Y022712D01*
X013106Y022284D01*
X013711Y022284D01*
X013797Y022370D02*
X016484Y022370D01*
X016570Y022284D02*
X017176Y022284D01*
X017603Y022712D01*
X017603Y023317D01*
X017176Y023745D01*
X016570Y023745D01*
X016142Y023317D01*
X016142Y022712D01*
X016570Y022284D01*
X016326Y022529D02*
X013955Y022529D01*
X014114Y022687D02*
X016167Y022687D01*
X016142Y022846D02*
X014139Y022846D01*
X014139Y023004D02*
X016142Y023004D01*
X016142Y023163D02*
X014139Y023163D01*
X014135Y023321D02*
X016146Y023321D01*
X016305Y023480D02*
X013977Y023480D01*
X013818Y023638D02*
X016463Y023638D01*
X017283Y023638D02*
X018820Y023638D01*
X018820Y023480D02*
X017441Y023480D01*
X017600Y023321D02*
X018820Y023321D01*
X018820Y023163D02*
X017603Y023163D01*
X017603Y023004D02*
X018820Y023004D01*
X018820Y022846D02*
X017603Y022846D01*
X017578Y022687D02*
X018820Y022687D01*
X018820Y022529D02*
X017420Y022529D01*
X017261Y022370D02*
X018820Y022370D01*
X018820Y022212D02*
X009817Y022212D01*
X009659Y022370D02*
X013020Y022370D01*
X012861Y022529D02*
X009500Y022529D01*
X009342Y022687D02*
X012703Y022687D01*
X012678Y022846D02*
X009183Y022846D01*
X008963Y022529D02*
X008105Y022529D01*
X007970Y022687D02*
X008804Y022687D01*
X008646Y022846D02*
X007970Y022846D01*
X007970Y023004D02*
X008135Y023004D01*
X008135Y023163D02*
X007970Y023163D01*
X007970Y023321D02*
X008135Y023321D01*
X008135Y023480D02*
X007970Y023480D01*
X007970Y023638D02*
X008135Y023638D01*
X008135Y023797D02*
X007970Y023797D01*
X007970Y023955D02*
X010207Y023955D01*
X010595Y023955D02*
X010631Y023955D01*
X010631Y023797D02*
X010595Y023797D01*
X010595Y023638D02*
X010631Y023638D01*
X010631Y023480D02*
X010595Y023480D01*
X010595Y023321D02*
X010631Y023321D01*
X010631Y023163D02*
X010595Y023163D01*
X010595Y023004D02*
X010631Y023004D01*
X011160Y023004D02*
X012678Y023004D01*
X012678Y023163D02*
X011163Y023163D01*
X011163Y023321D02*
X012682Y023321D01*
X012840Y023480D02*
X011163Y023480D01*
X011163Y023638D02*
X012999Y023638D01*
X011163Y023797D02*
X018820Y023797D01*
X018820Y023955D02*
X011019Y023955D01*
X009438Y022053D02*
X008659Y022053D01*
X008850Y021895D02*
X009597Y021895D01*
X009280Y022212D02*
X008430Y022212D01*
X008267Y022370D02*
X009121Y022370D01*
X008325Y021736D02*
X007173Y021736D01*
X007173Y021578D02*
X008413Y021578D01*
X008210Y021895D02*
X007173Y021895D01*
X007173Y022053D02*
X008048Y022053D01*
X007886Y022212D02*
X007173Y022212D01*
X007173Y022370D02*
X007723Y022370D01*
X007590Y022529D02*
X007173Y022529D01*
X007173Y022687D02*
X007590Y022687D01*
X007590Y022846D02*
X007173Y022846D01*
X007173Y023004D02*
X007590Y023004D01*
X007590Y023163D02*
X007173Y023163D01*
X007173Y023321D02*
X007590Y023321D01*
X007590Y023480D02*
X007173Y023480D01*
X007173Y023638D02*
X007590Y023638D01*
X007590Y023797D02*
X007173Y023797D01*
X007134Y023955D02*
X007590Y023955D01*
X007970Y024114D02*
X018820Y024114D01*
X018820Y024272D02*
X007970Y024272D01*
X007970Y024431D02*
X018820Y024431D01*
X018820Y024589D02*
X007970Y024589D01*
X007970Y024748D02*
X018820Y024748D01*
X018820Y024906D02*
X007970Y024906D01*
X007970Y025065D02*
X018820Y025065D01*
X018820Y025223D02*
X007970Y025223D01*
X007970Y025382D02*
X018820Y025382D01*
X018820Y025540D02*
X008004Y025540D01*
X008165Y025699D02*
X018820Y025699D01*
X018820Y025857D02*
X008326Y025857D01*
X008484Y026016D02*
X018820Y026016D01*
X018820Y026174D02*
X008643Y026174D01*
X008801Y026333D02*
X018820Y026333D01*
X018820Y026491D02*
X008960Y026491D01*
X009118Y026650D02*
X018820Y026650D01*
X018820Y026808D02*
X009277Y026808D01*
X009435Y026967D02*
X018820Y026967D01*
X018820Y027125D02*
X009594Y027125D01*
X009752Y027284D02*
X018820Y027284D01*
X018820Y027442D02*
X009911Y027442D01*
X010069Y027601D02*
X018820Y027601D01*
X018820Y027759D02*
X010228Y027759D01*
X010386Y027918D02*
X018820Y027918D01*
X018820Y028076D02*
X010545Y028076D01*
X010703Y028235D02*
X018820Y028235D01*
X018820Y028393D02*
X010862Y028393D01*
X010483Y028552D02*
X010407Y028552D01*
X010519Y028710D02*
X010589Y028710D01*
X010612Y029186D02*
X010496Y029186D01*
X010351Y029344D02*
X010757Y029344D01*
X011351Y029344D02*
X018820Y029344D01*
X018820Y029186D02*
X011496Y029186D01*
X011562Y029027D02*
X018820Y029027D01*
X018820Y028869D02*
X011564Y028869D01*
X011519Y028710D02*
X018820Y028710D01*
X018820Y028552D02*
X011407Y028552D01*
X009701Y028552D02*
X009463Y028552D01*
X009564Y028710D02*
X009589Y028710D01*
X009612Y029186D02*
X009536Y029186D01*
X009406Y029344D02*
X009757Y029344D01*
X009074Y029344D02*
X009034Y029344D01*
X009034Y029186D02*
X009074Y029186D01*
X009074Y029027D02*
X009034Y029027D01*
X009034Y028869D02*
X009074Y028869D01*
X009074Y028710D02*
X009034Y028710D01*
X009034Y028552D02*
X009074Y028552D01*
X008645Y028552D02*
X008564Y028552D01*
X008564Y029186D02*
X008572Y029186D01*
X008564Y029344D02*
X008702Y029344D01*
X005440Y023638D02*
X004614Y023638D01*
X004614Y023480D02*
X005281Y023480D01*
X005123Y023321D02*
X004629Y023321D01*
X004787Y023163D02*
X005119Y023163D01*
X005119Y023004D02*
X004946Y023004D01*
X005104Y022846D02*
X005119Y022846D01*
X003151Y020785D02*
X003114Y020785D01*
X003114Y020627D02*
X003151Y020627D01*
X003151Y020468D02*
X003114Y020468D01*
X003114Y020310D02*
X003151Y020310D01*
X003151Y020151D02*
X003114Y020151D01*
X003114Y019993D02*
X003151Y019993D01*
X003151Y019834D02*
X003114Y019834D01*
X000636Y022529D02*
X000410Y022529D01*
X000410Y022687D02*
X000637Y022687D01*
X000637Y022846D02*
X000410Y022846D01*
X000410Y023004D02*
X000637Y023004D01*
X000638Y023163D02*
X000410Y023163D01*
X000410Y023321D02*
X000638Y023321D01*
X000639Y023480D02*
X000410Y023480D01*
X000410Y023638D02*
X000639Y023638D01*
X000639Y023797D02*
X000410Y023797D01*
X000410Y023955D02*
X000640Y023955D01*
X000640Y024114D02*
X000410Y024114D01*
X000410Y024272D02*
X000641Y024272D01*
X000641Y024431D02*
X000410Y024431D01*
X000410Y024589D02*
X000642Y024589D01*
X000642Y024748D02*
X000410Y024748D01*
X000410Y024906D02*
X000642Y024906D01*
X000643Y025065D02*
X000410Y025065D01*
X000410Y025223D02*
X000643Y025223D01*
X000644Y025382D02*
X000410Y025382D01*
X000410Y025540D02*
X000644Y025540D01*
X000644Y025699D02*
X000410Y025699D01*
X000410Y025857D02*
X000645Y025857D01*
X000645Y026016D02*
X000410Y026016D01*
X000410Y026174D02*
X000646Y026174D01*
X000646Y026333D02*
X000410Y026333D01*
X000410Y026491D02*
X000646Y026491D01*
X000647Y026650D02*
X000410Y026650D01*
X000410Y026808D02*
X000645Y026808D01*
X000702Y026967D02*
X000410Y026967D01*
X000410Y027125D02*
X000849Y027125D01*
X000991Y027284D02*
X000410Y027284D01*
X000410Y027442D02*
X001134Y027442D01*
X001276Y027601D02*
X000410Y027601D01*
X000410Y027759D02*
X001419Y027759D01*
X001561Y027918D02*
X000410Y027918D01*
X000410Y028076D02*
X001704Y028076D01*
X001846Y028235D02*
X000410Y028235D01*
X000410Y028393D02*
X001989Y028393D01*
X002056Y028552D02*
X000410Y028552D01*
X000410Y028710D02*
X002090Y028710D01*
X002187Y028869D02*
X000410Y028869D01*
X008188Y010641D02*
X008514Y010641D01*
X008529Y010483D02*
X008346Y010483D01*
X008419Y003350D02*
X008810Y003350D01*
X008649Y003192D02*
X008560Y003192D01*
X008116Y003192D02*
X008056Y003192D01*
X008056Y003350D02*
X008116Y003350D01*
X008116Y003033D02*
X008056Y003033D01*
X008056Y002875D02*
X008116Y002875D01*
X008116Y002716D02*
X008056Y002716D01*
X008056Y002399D02*
X008116Y002399D01*
X008116Y002241D02*
X008056Y002241D01*
X008056Y002082D02*
X008116Y002082D01*
X008116Y001924D02*
X008056Y001924D01*
X008056Y001765D02*
X008116Y001765D01*
X008179Y001448D02*
X008045Y001448D01*
X007715Y001765D02*
X007400Y001765D01*
X007535Y001924D02*
X007595Y001924D01*
X008456Y001765D02*
X008771Y001765D01*
X008637Y001924D02*
X008576Y001924D01*
X008400Y001131D02*
X010326Y001131D01*
X010300Y000973D02*
X008383Y000973D01*
X008361Y000814D02*
X010321Y000814D01*
X010401Y000656D02*
X008282Y000656D01*
X008070Y000497D02*
X010613Y000497D01*
X010411Y001290D02*
X009558Y001290D01*
X009717Y001448D02*
X010638Y001448D01*
X010771Y001765D02*
X010400Y001765D01*
X010535Y001924D02*
X010637Y001924D01*
X011400Y001765D02*
X011771Y001765D01*
X011637Y001924D02*
X011535Y001924D01*
X011522Y003192D02*
X011649Y003192D01*
X011810Y003350D02*
X011361Y003350D01*
X010810Y003350D02*
X010361Y003350D01*
X010522Y003192D02*
X010649Y003192D01*
X009810Y003350D02*
X009361Y003350D01*
X009522Y003192D02*
X009649Y003192D01*
X007752Y003350D02*
X007361Y003350D01*
X007522Y003192D02*
X007611Y003192D01*
X006810Y003350D02*
X006361Y003350D01*
X006522Y003192D02*
X006649Y003192D01*
X005810Y003350D02*
X005702Y003350D01*
X005576Y002399D02*
X001933Y002399D01*
X002091Y002241D02*
X005576Y002241D01*
X005576Y002082D02*
X002156Y002082D01*
X002221Y001924D02*
X005637Y001924D01*
X013056Y001765D02*
X013116Y001765D01*
D18*
X009980Y001980D02*
X009380Y001380D01*
X008380Y001380D01*
X007980Y000980D01*
X008180Y007380D02*
X010180Y007380D01*
X010580Y007780D01*
X010580Y009580D01*
X012180Y009580D01*
X012380Y009780D01*
X012180Y010580D02*
X012380Y010780D01*
X012180Y010580D02*
X008786Y010580D01*
X008380Y010180D02*
X009980Y010180D01*
X008980Y009980D02*
X009980Y008980D01*
X008980Y008980D02*
X008380Y009580D01*
X006980Y009580D01*
X006780Y009780D01*
X007580Y009980D02*
X006780Y010780D01*
X006780Y011780D02*
X008380Y010180D01*
X008980Y009980D02*
X007580Y009980D01*
X008180Y008380D02*
X008180Y007380D01*
X006580Y013980D02*
X004180Y016380D01*
X004180Y020180D01*
X007780Y015980D02*
X006780Y014980D01*
X007780Y015980D02*
X007980Y015980D01*
X010580Y018580D01*
X010580Y021206D01*
X010952Y021578D01*
X011243Y021578D01*
X014180Y021580D01*
X014980Y020780D01*
X014980Y020380D01*
X015980Y020380D02*
X015980Y021349D01*
X015357Y021971D01*
X009780Y021980D01*
X008780Y022980D01*
X008780Y023380D01*
X007780Y022580D02*
X007780Y025586D01*
X008180Y025980D01*
X010780Y028580D01*
X010780Y028780D01*
X007780Y022580D02*
X008600Y021780D01*
X010180Y018980D02*
X007780Y016580D01*
X012580Y020780D02*
X013659Y019701D01*
X013859Y019701D01*
X014980Y018580D01*
X013980Y018580D02*
X012780Y019780D01*
X015980Y018380D02*
X013180Y015580D01*
X013180Y013413D01*
X012780Y012980D01*
X013780Y014380D02*
X013580Y014580D01*
X013580Y015580D01*
X015780Y015580D01*
X016380Y015580D01*
X016980Y014980D01*
X016580Y015780D02*
X016980Y016174D01*
X016980Y018380D01*
X017360Y018999D02*
X016180Y020180D01*
X017360Y018999D02*
X017380Y011958D01*
X015580Y014380D02*
X015980Y014780D01*
X015580Y014380D02*
X015180Y014380D01*
X015180Y011761D01*
X014180Y011761D02*
X014180Y014380D01*
X013780Y014380D01*
X014180Y014780D02*
X014580Y014380D01*
X015180Y014380D01*
X015180Y014980D02*
X015780Y015580D01*
D19*
X016034Y014945D02*
X015980Y014780D01*
X015180Y014980D02*
X015034Y014945D01*
X014180Y014780D02*
X014034Y014945D01*
X012780Y012980D02*
X012629Y012928D01*
X012629Y010928D02*
X012580Y010780D01*
X012380Y010780D01*
X012629Y009928D02*
X012580Y009780D01*
X012380Y009780D01*
X014180Y011761D02*
X014353Y011794D01*
X015180Y011761D02*
X015353Y011794D01*
X017353Y011794D02*
X017380Y011958D01*
X017034Y014945D02*
X016980Y014980D01*
X016980Y018380D02*
X017034Y018485D01*
X016034Y018485D02*
X015980Y018380D01*
X015034Y018485D02*
X014980Y018580D01*
X014034Y018485D02*
X013980Y018580D01*
X012780Y019780D02*
X012629Y019928D01*
X012580Y020780D02*
X012629Y020928D01*
X014980Y020380D02*
X015141Y020259D01*
X015980Y020380D02*
X016125Y020259D01*
X016180Y020180D01*
X010980Y028780D02*
X010780Y028780D01*
X010980Y028780D02*
X011054Y028920D01*
X008780Y023380D02*
X008645Y023408D01*
X004180Y020180D02*
X004117Y020259D01*
X006629Y014928D02*
X006780Y014980D01*
X006580Y013980D02*
X006629Y013928D01*
X006629Y011928D02*
X006780Y011780D01*
X006629Y010928D02*
X006780Y010780D01*
X006629Y009928D02*
X006780Y009780D01*
X008086Y008448D02*
X008180Y008380D01*
X008980Y008580D02*
X009086Y008448D01*
X008980Y008580D02*
X008980Y008980D01*
X009980Y008980D02*
X009980Y008580D01*
X010086Y008448D01*
X010086Y002542D02*
X009980Y002380D01*
X009980Y001980D01*
X007980Y000980D02*
X007873Y000967D01*
X007754Y016491D02*
X007780Y016580D01*
D20*
X010180Y018980D03*
X008600Y021780D03*
X008786Y010580D03*
X009980Y010180D03*
X016580Y015780D03*
D21*
X006873Y020975D02*
X006629Y020928D01*
X006597Y020928D01*
X004314Y023211D01*
X004314Y024211D01*
X004330Y024806D01*
X003330Y024806D02*
X003349Y024215D01*
X003330Y023605D01*
X003330Y021834D01*
X002149Y020652D01*
X002149Y019078D01*
X002936Y018290D01*
X002936Y017109D01*
X005101Y014944D01*
X005101Y003526D01*
X006086Y002542D01*
X006873Y020975D02*
X006873Y023802D01*
X003566Y027109D01*
X003566Y028526D01*
D22*
X002566Y028526D02*
X000987Y026771D01*
X000967Y019078D01*
X001558Y018487D01*
X001558Y017503D01*
X001558Y017306D01*
X003330Y015534D01*
X003330Y014365D01*
X003137Y014361D01*
X003428Y013574D02*
X003428Y010975D01*
M02*
