%
M48
M72
T01C0.0130
T02C0.0394
T03C0.0400
T04C0.0440
T05C0.0787
T06C0.1260
%
T01
X8786Y10580
X9980Y10180
X10180Y18980
X8600Y21780
X16580Y15780
T02
X16125Y20259
X15141Y20259
X14156Y20259
X10613Y23408
X9629Y23408
X8645Y23408
X5101Y20259
X4117Y20259
X3133Y20259
T03
X3330Y24806
X4330Y24806
X2330Y24806
X2566Y28526
X3566Y28526
X4566Y28526
X8054Y28920
X9054Y28920
X10054Y28920
X11054Y28920
X12629Y20928
X12629Y19928
X12629Y18928
X12629Y17928
X12629Y16928
X12629Y15928
X12629Y14928
X12629Y13928
X12629Y12928
X12629Y11928
X12629Y10928
X12629Y9928
X14353Y11794
X15353Y11794
X16353Y11794
X17353Y11794
X11810Y967
X10810Y967
X7873Y967
X6873Y967
X6629Y9928
X6629Y10928
X6629Y11928
X6629Y12928
X6629Y13928
X6629Y14928
X6629Y15928
X6629Y16928
X6629Y17928
X6629Y18928
X6629Y19928
X6629Y20928
X7754Y17491
X7754Y16491
X7754Y13366
X7754Y12366
T04
X8086Y8448
X7086Y8448
X6086Y8448
X9086Y8448
X10086Y8448
X11086Y8448
X12086Y8448
X13086Y8448
X13086Y2542
X12086Y2542
X11086Y2542
X10086Y2542
X9086Y2542
X8086Y2542
X7086Y2542
X6086Y2542
T05
X7897Y20652
X5849Y23015
X2385Y23015
X11361Y20652
X13408Y23015
X16873Y23015
T06
X1361Y1755
X1361Y5298
X17897Y5298
X17897Y1361
M30
