G75*
%MOIN*%
%OFA0B0*%
%FSLAX24Y24*%
%IPPOS*%
%LPD*%
%AMOC8*
5,1,8,0,0,1.08239X$1,22.5*
%
%ADD10C,0.0000*%
D10*
X000180Y000180D02*
X000180Y029708D01*
X019050Y029708D01*
X019050Y000180D01*
X000180Y000180D01*
X000731Y001755D02*
X000733Y001805D01*
X000739Y001855D01*
X000749Y001904D01*
X000763Y001952D01*
X000780Y001999D01*
X000801Y002044D01*
X000826Y002088D01*
X000854Y002129D01*
X000886Y002168D01*
X000920Y002205D01*
X000957Y002239D01*
X000997Y002269D01*
X001039Y002296D01*
X001083Y002320D01*
X001129Y002341D01*
X001176Y002357D01*
X001224Y002370D01*
X001274Y002379D01*
X001323Y002384D01*
X001374Y002385D01*
X001424Y002382D01*
X001473Y002375D01*
X001522Y002364D01*
X001570Y002349D01*
X001616Y002331D01*
X001661Y002309D01*
X001704Y002283D01*
X001745Y002254D01*
X001784Y002222D01*
X001820Y002187D01*
X001852Y002149D01*
X001882Y002109D01*
X001909Y002066D01*
X001932Y002022D01*
X001951Y001976D01*
X001967Y001928D01*
X001979Y001879D01*
X001987Y001830D01*
X001991Y001780D01*
X001991Y001730D01*
X001987Y001680D01*
X001979Y001631D01*
X001967Y001582D01*
X001951Y001534D01*
X001932Y001488D01*
X001909Y001444D01*
X001882Y001401D01*
X001852Y001361D01*
X001820Y001323D01*
X001784Y001288D01*
X001745Y001256D01*
X001704Y001227D01*
X001661Y001201D01*
X001616Y001179D01*
X001570Y001161D01*
X001522Y001146D01*
X001473Y001135D01*
X001424Y001128D01*
X001374Y001125D01*
X001323Y001126D01*
X001274Y001131D01*
X001224Y001140D01*
X001176Y001153D01*
X001129Y001169D01*
X001083Y001190D01*
X001039Y001214D01*
X000997Y001241D01*
X000957Y001271D01*
X000920Y001305D01*
X000886Y001342D01*
X000854Y001381D01*
X000826Y001422D01*
X000801Y001466D01*
X000780Y001511D01*
X000763Y001558D01*
X000749Y001606D01*
X000739Y001655D01*
X000733Y001705D01*
X000731Y001755D01*
X000731Y005298D02*
X000733Y005348D01*
X000739Y005398D01*
X000749Y005447D01*
X000763Y005495D01*
X000780Y005542D01*
X000801Y005587D01*
X000826Y005631D01*
X000854Y005672D01*
X000886Y005711D01*
X000920Y005748D01*
X000957Y005782D01*
X000997Y005812D01*
X001039Y005839D01*
X001083Y005863D01*
X001129Y005884D01*
X001176Y005900D01*
X001224Y005913D01*
X001274Y005922D01*
X001323Y005927D01*
X001374Y005928D01*
X001424Y005925D01*
X001473Y005918D01*
X001522Y005907D01*
X001570Y005892D01*
X001616Y005874D01*
X001661Y005852D01*
X001704Y005826D01*
X001745Y005797D01*
X001784Y005765D01*
X001820Y005730D01*
X001852Y005692D01*
X001882Y005652D01*
X001909Y005609D01*
X001932Y005565D01*
X001951Y005519D01*
X001967Y005471D01*
X001979Y005422D01*
X001987Y005373D01*
X001991Y005323D01*
X001991Y005273D01*
X001987Y005223D01*
X001979Y005174D01*
X001967Y005125D01*
X001951Y005077D01*
X001932Y005031D01*
X001909Y004987D01*
X001882Y004944D01*
X001852Y004904D01*
X001820Y004866D01*
X001784Y004831D01*
X001745Y004799D01*
X001704Y004770D01*
X001661Y004744D01*
X001616Y004722D01*
X001570Y004704D01*
X001522Y004689D01*
X001473Y004678D01*
X001424Y004671D01*
X001374Y004668D01*
X001323Y004669D01*
X001274Y004674D01*
X001224Y004683D01*
X001176Y004696D01*
X001129Y004712D01*
X001083Y004733D01*
X001039Y004757D01*
X000997Y004784D01*
X000957Y004814D01*
X000920Y004848D01*
X000886Y004885D01*
X000854Y004924D01*
X000826Y004965D01*
X000801Y005009D01*
X000780Y005054D01*
X000763Y005101D01*
X000749Y005149D01*
X000739Y005198D01*
X000733Y005248D01*
X000731Y005298D01*
X017267Y005298D02*
X017269Y005348D01*
X017275Y005398D01*
X017285Y005447D01*
X017299Y005495D01*
X017316Y005542D01*
X017337Y005587D01*
X017362Y005631D01*
X017390Y005672D01*
X017422Y005711D01*
X017456Y005748D01*
X017493Y005782D01*
X017533Y005812D01*
X017575Y005839D01*
X017619Y005863D01*
X017665Y005884D01*
X017712Y005900D01*
X017760Y005913D01*
X017810Y005922D01*
X017859Y005927D01*
X017910Y005928D01*
X017960Y005925D01*
X018009Y005918D01*
X018058Y005907D01*
X018106Y005892D01*
X018152Y005874D01*
X018197Y005852D01*
X018240Y005826D01*
X018281Y005797D01*
X018320Y005765D01*
X018356Y005730D01*
X018388Y005692D01*
X018418Y005652D01*
X018445Y005609D01*
X018468Y005565D01*
X018487Y005519D01*
X018503Y005471D01*
X018515Y005422D01*
X018523Y005373D01*
X018527Y005323D01*
X018527Y005273D01*
X018523Y005223D01*
X018515Y005174D01*
X018503Y005125D01*
X018487Y005077D01*
X018468Y005031D01*
X018445Y004987D01*
X018418Y004944D01*
X018388Y004904D01*
X018356Y004866D01*
X018320Y004831D01*
X018281Y004799D01*
X018240Y004770D01*
X018197Y004744D01*
X018152Y004722D01*
X018106Y004704D01*
X018058Y004689D01*
X018009Y004678D01*
X017960Y004671D01*
X017910Y004668D01*
X017859Y004669D01*
X017810Y004674D01*
X017760Y004683D01*
X017712Y004696D01*
X017665Y004712D01*
X017619Y004733D01*
X017575Y004757D01*
X017533Y004784D01*
X017493Y004814D01*
X017456Y004848D01*
X017422Y004885D01*
X017390Y004924D01*
X017362Y004965D01*
X017337Y005009D01*
X017316Y005054D01*
X017299Y005101D01*
X017285Y005149D01*
X017275Y005198D01*
X017269Y005248D01*
X017267Y005298D01*
X017267Y001361D02*
X017269Y001411D01*
X017275Y001461D01*
X017285Y001510D01*
X017299Y001558D01*
X017316Y001605D01*
X017337Y001650D01*
X017362Y001694D01*
X017390Y001735D01*
X017422Y001774D01*
X017456Y001811D01*
X017493Y001845D01*
X017533Y001875D01*
X017575Y001902D01*
X017619Y001926D01*
X017665Y001947D01*
X017712Y001963D01*
X017760Y001976D01*
X017810Y001985D01*
X017859Y001990D01*
X017910Y001991D01*
X017960Y001988D01*
X018009Y001981D01*
X018058Y001970D01*
X018106Y001955D01*
X018152Y001937D01*
X018197Y001915D01*
X018240Y001889D01*
X018281Y001860D01*
X018320Y001828D01*
X018356Y001793D01*
X018388Y001755D01*
X018418Y001715D01*
X018445Y001672D01*
X018468Y001628D01*
X018487Y001582D01*
X018503Y001534D01*
X018515Y001485D01*
X018523Y001436D01*
X018527Y001386D01*
X018527Y001336D01*
X018523Y001286D01*
X018515Y001237D01*
X018503Y001188D01*
X018487Y001140D01*
X018468Y001094D01*
X018445Y001050D01*
X018418Y001007D01*
X018388Y000967D01*
X018356Y000929D01*
X018320Y000894D01*
X018281Y000862D01*
X018240Y000833D01*
X018197Y000807D01*
X018152Y000785D01*
X018106Y000767D01*
X018058Y000752D01*
X018009Y000741D01*
X017960Y000734D01*
X017910Y000731D01*
X017859Y000732D01*
X017810Y000737D01*
X017760Y000746D01*
X017712Y000759D01*
X017665Y000775D01*
X017619Y000796D01*
X017575Y000820D01*
X017533Y000847D01*
X017493Y000877D01*
X017456Y000911D01*
X017422Y000948D01*
X017390Y000987D01*
X017362Y001028D01*
X017337Y001072D01*
X017316Y001117D01*
X017299Y001164D01*
X017285Y001212D01*
X017275Y001261D01*
X017269Y001311D01*
X017267Y001361D01*
M02*
