G75*
%MOIN*%
%OFA0B0*%
%FSLAX24Y24*%
%IPPOS*%
%LPD*%
%AMOC8*
5,1,8,0,0,1.08239X$1,22.5*
%
%ADD10C,0.0000*%
%ADD11C,0.0060*%
%ADD12C,0.0090*%
%ADD13C,0.0080*%
%ADD14C,0.0030*%
%ADD15C,0.0059*%
%ADD16R,0.0020X0.0001*%
%ADD17R,0.0038X0.0001*%
%ADD18R,0.0039X0.0001*%
%ADD19R,0.0050X0.0001*%
%ADD20R,0.0051X0.0001*%
%ADD21R,0.0060X0.0001*%
%ADD22R,0.0059X0.0001*%
%ADD23R,0.0068X0.0001*%
%ADD24R,0.0068X0.0001*%
%ADD25R,0.0067X0.0001*%
%ADD26R,0.0074X0.0001*%
%ADD27R,0.0074X0.0001*%
%ADD28R,0.0075X0.0001*%
%ADD29R,0.0080X0.0001*%
%ADD30R,0.0081X0.0001*%
%ADD31R,0.0086X0.0001*%
%ADD32R,0.0086X0.0001*%
%ADD33R,0.0091X0.0001*%
%ADD34R,0.0092X0.0001*%
%ADD35R,0.0096X0.0001*%
%ADD36R,0.0096X0.0001*%
%ADD37R,0.0101X0.0001*%
%ADD38R,0.0100X0.0001*%
%ADD39R,0.0105X0.0001*%
%ADD40R,0.0109X0.0001*%
%ADD41R,0.0110X0.0001*%
%ADD42R,0.0113X0.0001*%
%ADD43R,0.0113X0.0001*%
%ADD44R,0.0117X0.0001*%
%ADD45R,0.0116X0.0001*%
%ADD46R,0.0120X0.0001*%
%ADD47R,0.0123X0.0001*%
%ADD48R,0.0124X0.0001*%
%ADD49R,0.0127X0.0001*%
%ADD50R,0.0127X0.0001*%
%ADD51R,0.0130X0.0001*%
%ADD52R,0.0133X0.0001*%
%ADD53R,0.0133X0.0001*%
%ADD54R,0.0134X0.0001*%
%ADD55R,0.0136X0.0001*%
%ADD56R,0.0136X0.0001*%
%ADD57R,0.0139X0.0001*%
%ADD58R,0.0139X0.0001*%
%ADD59R,0.0141X0.0001*%
%ADD60R,0.0142X0.0001*%
%ADD61R,0.0142X0.0001*%
%ADD62R,0.0145X0.0001*%
%ADD63R,0.0144X0.0001*%
%ADD64R,0.0147X0.0001*%
%ADD65R,0.0147X0.0001*%
%ADD66R,0.0148X0.0001*%
%ADD67R,0.0149X0.0001*%
%ADD68R,0.0150X0.0001*%
%ADD69R,0.0153X0.0001*%
%ADD70R,0.0152X0.0001*%
%ADD71R,0.0152X0.0001*%
%ADD72R,0.0155X0.0001*%
%ADD73R,0.0154X0.0001*%
%ADD74R,0.0157X0.0001*%
%ADD75R,0.0157X0.0001*%
%ADD76R,0.0159X0.0001*%
%ADD77R,0.0159X0.0001*%
%ADD78R,0.0160X0.0001*%
%ADD79R,0.0161X0.0001*%
%ADD80R,0.0161X0.0001*%
%ADD81R,0.0162X0.0001*%
%ADD82R,0.0163X0.0001*%
%ADD83R,0.0164X0.0001*%
%ADD84R,0.0165X0.0001*%
%ADD85R,0.0166X0.0001*%
%ADD86R,0.0168X0.0001*%
%ADD87R,0.0168X0.0001*%
%ADD88R,0.0170X0.0001*%
%ADD89R,0.0172X0.0001*%
%ADD90R,0.0172X0.0001*%
%ADD91R,0.0174X0.0001*%
%ADD92R,0.0176X0.0001*%
%ADD93R,0.0178X0.0001*%
%ADD94R,0.0178X0.0001*%
%ADD95R,0.0179X0.0001*%
%ADD96R,0.0180X0.0001*%
%ADD97R,0.0181X0.0001*%
%ADD98R,0.0181X0.0001*%
%ADD99R,0.0182X0.0001*%
%ADD100R,0.0183X0.0001*%
%ADD101R,0.0183X0.0001*%
%ADD102R,0.0184X0.0001*%
%ADD103R,0.0185X0.0001*%
%ADD104R,0.0187X0.0001*%
%ADD105R,0.0187X0.0001*%
%ADD106R,0.0189X0.0001*%
%ADD107R,0.0189X0.0001*%
%ADD108R,0.0188X0.0001*%
%ADD109R,0.0190X0.0001*%
%ADD110R,0.0191X0.0001*%
%ADD111R,0.0192X0.0001*%
%ADD112R,0.0192X0.0001*%
%ADD113R,0.0193X0.0001*%
%ADD114R,0.0193X0.0001*%
%ADD115R,0.0194X0.0001*%
%ADD116R,0.0195X0.0001*%
%ADD117R,0.0197X0.0001*%
%ADD118R,0.0197X0.0001*%
%ADD119R,0.0196X0.0001*%
%ADD120R,0.0198X0.0001*%
%ADD121R,0.0198X0.0001*%
%ADD122R,0.0199X0.0001*%
%ADD123R,0.0199X0.0001*%
%ADD124R,0.0200X0.0001*%
%ADD125R,0.0201X0.0001*%
%ADD126R,0.0201X0.0001*%
%ADD127R,0.0202X0.0001*%
%ADD128R,0.0203X0.0001*%
%ADD129R,0.0204X0.0001*%
%ADD130R,0.0205X0.0001*%
%ADD131R,0.0206X0.0001*%
%ADD132R,0.0207X0.0001*%
%ADD133R,0.0208X0.0001*%
%ADD134R,0.0207X0.0001*%
%ADD135R,0.0209X0.0001*%
%ADD136R,0.0209X0.0001*%
%ADD137R,0.0210X0.0001*%
%ADD138R,0.0211X0.0001*%
%ADD139R,0.0211X0.0001*%
%ADD140R,0.0213X0.0001*%
%ADD141R,0.0213X0.0001*%
%ADD142R,0.0214X0.0001*%
%ADD143R,0.0213X0.0001*%
%ADD144R,0.0215X0.0001*%
%ADD145R,0.0216X0.0001*%
%ADD146R,0.0217X0.0001*%
%ADD147R,0.0217X0.0001*%
%ADD148R,0.0218X0.0001*%
%ADD149R,0.0219X0.0001*%
%ADD150R,0.0219X0.0001*%
%ADD151R,0.0219X0.0001*%
%ADD152R,0.0220X0.0001*%
%ADD153R,0.0221X0.0001*%
%ADD154R,0.0221X0.0001*%
%ADD155R,0.0222X0.0001*%
%ADD156R,0.0222X0.0001*%
%ADD157R,0.0223X0.0001*%
%ADD158R,0.0223X0.0001*%
%ADD159R,0.0224X0.0001*%
%ADD160R,0.0223X0.0001*%
%ADD161R,0.0225X0.0001*%
%ADD162R,0.0226X0.0001*%
%ADD163R,0.0227X0.0001*%
%ADD164R,0.0227X0.0001*%
%ADD165R,0.0227X0.0001*%
%ADD166R,0.0227X0.0001*%
%ADD167R,0.0228X0.0001*%
%ADD168R,0.0228X0.0001*%
%ADD169R,0.0229X0.0001*%
%ADD170R,0.0229X0.0001*%
%ADD171R,0.0230X0.0001*%
%ADD172R,0.0231X0.0001*%
%ADD173R,0.0231X0.0001*%
%ADD174R,0.0231X0.0001*%
%ADD175R,0.0232X0.0001*%
%ADD176R,0.0231X0.0001*%
%ADD177R,0.0233X0.0001*%
%ADD178R,0.0233X0.0001*%
%ADD179R,0.0234X0.0001*%
%ADD180R,0.0234X0.0001*%
%ADD181R,0.0235X0.0001*%
%ADD182R,0.0235X0.0001*%
%ADD183R,0.0236X0.0001*%
%ADD184R,0.0237X0.0001*%
%ADD185R,0.0237X0.0001*%
%ADD186R,0.0237X0.0001*%
%ADD187R,0.0237X0.0001*%
%ADD188R,0.0238X0.0001*%
%ADD189R,0.0238X0.0001*%
%ADD190R,0.0239X0.0001*%
%ADD191R,0.0239X0.0001*%
%ADD192R,0.0239X0.0001*%
%ADD193R,0.0239X0.0001*%
%ADD194R,0.0240X0.0001*%
%ADD195R,0.0241X0.0001*%
%ADD196R,0.0241X0.0001*%
%ADD197R,0.0241X0.0001*%
%ADD198R,0.0241X0.0001*%
%ADD199R,0.0242X0.0001*%
%ADD200R,0.0242X0.0001*%
%ADD201R,0.0242X0.0001*%
%ADD202R,0.0243X0.0001*%
%ADD203R,0.0243X0.0001*%
%ADD204R,0.0243X0.0001*%
%ADD205R,0.0243X0.0001*%
%ADD206R,0.0244X0.0001*%
%ADD207R,0.0244X0.0001*%
%ADD208R,0.0240X0.0001*%
%ADD209R,0.0238X0.0001*%
%ADD210R,0.0232X0.0001*%
%ADD211R,0.0232X0.0001*%
%ADD212R,0.0228X0.0001*%
%ADD213R,0.0229X0.0001*%
%ADD214R,0.0229X0.0001*%
%ADD215R,0.0224X0.0001*%
%ADD216R,0.0225X0.0001*%
%ADD217R,0.0223X0.0001*%
%ADD218R,0.0220X0.0001*%
%ADD219R,0.0218X0.0001*%
%ADD220R,0.0214X0.0001*%
%ADD221R,0.0215X0.0001*%
%ADD222R,0.0213X0.0001*%
%ADD223R,0.0212X0.0001*%
%ADD224R,0.0209X0.0001*%
%ADD225R,0.0209X0.0001*%
%ADD226R,0.0207X0.0001*%
%ADD227R,0.0206X0.0001*%
%ADD228R,0.0203X0.0001*%
%ADD229R,0.0202X0.0001*%
%ADD230R,0.0202X0.0001*%
%ADD231R,0.0200X0.0001*%
%ADD232R,0.0199X0.0001*%
%ADD233R,0.0199X0.0001*%
%ADD234R,0.0195X0.0001*%
%ADD235R,0.0191X0.0001*%
%ADD236R,0.0192X0.0001*%
%ADD237R,0.0187X0.0001*%
%ADD238R,0.0187X0.0001*%
%ADD239R,0.0186X0.0001*%
%ADD240R,0.0183X0.0001*%
%ADD241R,0.0183X0.0001*%
%ADD242R,0.0179X0.0001*%
%ADD243R,0.0177X0.0001*%
%ADD244R,0.0177X0.0001*%
%ADD245R,0.0178X0.0001*%
%ADD246R,0.0175X0.0001*%
%ADD247R,0.0174X0.0001*%
%ADD248R,0.0167X0.0001*%
%ADD249R,0.0168X0.0001*%
%ADD250R,0.0168X0.0001*%
%ADD251R,0.0163X0.0001*%
%ADD252R,0.0164X0.0001*%
%ADD253R,0.0157X0.0001*%
%ADD254R,0.0157X0.0001*%
%ADD255R,0.0153X0.0001*%
%ADD256R,0.0152X0.0001*%
%ADD257R,0.0152X0.0001*%
%ADD258R,0.0145X0.0001*%
%ADD259R,0.0144X0.0001*%
%ADD260R,0.0139X0.0001*%
%ADD261R,0.0139X0.0001*%
%ADD262R,0.0140X0.0001*%
%ADD263R,0.0137X0.0001*%
%ADD264R,0.0131X0.0001*%
%ADD265R,0.0131X0.0001*%
%ADD266R,0.0130X0.0001*%
%ADD267R,0.0128X0.0001*%
%ADD268R,0.0128X0.0001*%
%ADD269R,0.0125X0.0001*%
%ADD270R,0.0124X0.0001*%
%ADD271R,0.0121X0.0001*%
%ADD272R,0.0121X0.0001*%
%ADD273R,0.0118X0.0001*%
%ADD274R,0.0118X0.0001*%
%ADD275R,0.0114X0.0001*%
%ADD276R,0.0114X0.0001*%
%ADD277R,0.0106X0.0001*%
%ADD278R,0.0106X0.0001*%
%ADD279R,0.0102X0.0001*%
%ADD280R,0.0102X0.0001*%
%ADD281R,0.0098X0.0001*%
%ADD282R,0.0098X0.0001*%
%ADD283R,0.0093X0.0001*%
%ADD284R,0.0094X0.0001*%
%ADD285R,0.0093X0.0001*%
%ADD286R,0.0088X0.0001*%
%ADD287R,0.0088X0.0001*%
%ADD288R,0.0083X0.0001*%
%ADD289R,0.0082X0.0001*%
%ADD290R,0.0083X0.0001*%
%ADD291R,0.0077X0.0001*%
%ADD292R,0.0076X0.0001*%
%ADD293R,0.0077X0.0001*%
%ADD294R,0.0070X0.0001*%
%ADD295R,0.0071X0.0001*%
%ADD296R,0.0063X0.0001*%
%ADD297R,0.0063X0.0001*%
%ADD298R,0.0054X0.0001*%
%ADD299R,0.0054X0.0001*%
%ADD300R,0.0055X0.0001*%
%ADD301R,0.0044X0.0001*%
%ADD302R,0.0044X0.0001*%
%ADD303R,0.0045X0.0001*%
%ADD304R,0.0030X0.0001*%
%ADD305R,0.0031X0.0001*%
%ADD306R,0.0001X0.0020*%
%ADD307R,0.0001X0.0038*%
%ADD308R,0.0001X0.0039*%
%ADD309R,0.0001X0.0050*%
%ADD310R,0.0001X0.0051*%
%ADD311R,0.0001X0.0060*%
%ADD312R,0.0001X0.0059*%
%ADD313R,0.0001X0.0068*%
%ADD314R,0.0001X0.0068*%
%ADD315R,0.0001X0.0067*%
%ADD316R,0.0001X0.0074*%
%ADD317R,0.0001X0.0074*%
%ADD318R,0.0001X0.0075*%
%ADD319R,0.0001X0.0080*%
%ADD320R,0.0001X0.0081*%
%ADD321R,0.0001X0.0086*%
%ADD322R,0.0001X0.0086*%
%ADD323R,0.0001X0.0091*%
%ADD324R,0.0001X0.0092*%
%ADD325R,0.0001X0.0096*%
%ADD326R,0.0001X0.0096*%
%ADD327R,0.0001X0.0101*%
%ADD328R,0.0001X0.0100*%
%ADD329R,0.0001X0.0105*%
%ADD330R,0.0001X0.0109*%
%ADD331R,0.0001X0.0110*%
%ADD332R,0.0001X0.0113*%
%ADD333R,0.0001X0.0113*%
%ADD334R,0.0001X0.0117*%
%ADD335R,0.0001X0.0116*%
%ADD336R,0.0001X0.0120*%
%ADD337R,0.0001X0.0123*%
%ADD338R,0.0001X0.0124*%
%ADD339R,0.0001X0.0127*%
%ADD340R,0.0001X0.0127*%
%ADD341R,0.0001X0.0130*%
%ADD342R,0.0001X0.0133*%
%ADD343R,0.0001X0.0133*%
%ADD344R,0.0001X0.0134*%
%ADD345R,0.0001X0.0136*%
%ADD346R,0.0001X0.0136*%
%ADD347R,0.0001X0.0139*%
%ADD348R,0.0001X0.0139*%
%ADD349R,0.0001X0.0141*%
%ADD350R,0.0001X0.0142*%
%ADD351R,0.0001X0.0142*%
%ADD352R,0.0001X0.0145*%
%ADD353R,0.0001X0.0144*%
%ADD354R,0.0001X0.0147*%
%ADD355R,0.0001X0.0147*%
%ADD356R,0.0001X0.0148*%
%ADD357R,0.0001X0.0149*%
%ADD358R,0.0001X0.0150*%
%ADD359R,0.0001X0.0153*%
%ADD360R,0.0001X0.0152*%
%ADD361R,0.0001X0.0152*%
%ADD362R,0.0001X0.0155*%
%ADD363R,0.0001X0.0154*%
%ADD364R,0.0001X0.0157*%
%ADD365R,0.0001X0.0157*%
%ADD366R,0.0001X0.0159*%
%ADD367R,0.0001X0.0159*%
%ADD368R,0.0001X0.0160*%
%ADD369R,0.0001X0.0161*%
%ADD370R,0.0001X0.0161*%
%ADD371R,0.0001X0.0162*%
%ADD372R,0.0001X0.0163*%
%ADD373R,0.0001X0.0164*%
%ADD374R,0.0001X0.0165*%
%ADD375R,0.0001X0.0166*%
%ADD376R,0.0001X0.0168*%
%ADD377R,0.0001X0.0168*%
%ADD378R,0.0001X0.0170*%
%ADD379R,0.0001X0.0172*%
%ADD380R,0.0001X0.0172*%
%ADD381R,0.0001X0.0174*%
%ADD382R,0.0001X0.0176*%
%ADD383R,0.0001X0.0178*%
%ADD384R,0.0001X0.0178*%
%ADD385R,0.0001X0.0179*%
%ADD386R,0.0001X0.0180*%
%ADD387R,0.0001X0.0181*%
%ADD388R,0.0001X0.0181*%
%ADD389R,0.0001X0.0182*%
%ADD390R,0.0001X0.0183*%
%ADD391R,0.0001X0.0183*%
%ADD392R,0.0001X0.0184*%
%ADD393R,0.0001X0.0185*%
%ADD394R,0.0001X0.0187*%
%ADD395R,0.0001X0.0187*%
%ADD396R,0.0001X0.0189*%
%ADD397R,0.0001X0.0189*%
%ADD398R,0.0001X0.0188*%
%ADD399R,0.0001X0.0190*%
%ADD400R,0.0001X0.0191*%
%ADD401R,0.0001X0.0192*%
%ADD402R,0.0001X0.0192*%
%ADD403R,0.0001X0.0193*%
%ADD404R,0.0001X0.0193*%
%ADD405R,0.0001X0.0194*%
%ADD406R,0.0001X0.0195*%
%ADD407R,0.0001X0.0197*%
%ADD408R,0.0001X0.0197*%
%ADD409R,0.0001X0.0196*%
%ADD410R,0.0001X0.0198*%
%ADD411R,0.0001X0.0198*%
%ADD412R,0.0001X0.0199*%
%ADD413R,0.0001X0.0199*%
%ADD414R,0.0001X0.0200*%
%ADD415R,0.0001X0.0201*%
%ADD416R,0.0001X0.0201*%
%ADD417R,0.0001X0.0202*%
%ADD418R,0.0001X0.0203*%
%ADD419R,0.0001X0.0204*%
%ADD420R,0.0001X0.0205*%
%ADD421R,0.0001X0.0206*%
%ADD422R,0.0001X0.0207*%
%ADD423R,0.0001X0.0208*%
%ADD424R,0.0001X0.0207*%
%ADD425R,0.0001X0.0209*%
%ADD426R,0.0001X0.0209*%
%ADD427R,0.0001X0.0210*%
%ADD428R,0.0001X0.0211*%
%ADD429R,0.0001X0.0211*%
%ADD430R,0.0001X0.0213*%
%ADD431R,0.0001X0.0213*%
%ADD432R,0.0001X0.0214*%
%ADD433R,0.0001X0.0213*%
%ADD434R,0.0001X0.0215*%
%ADD435R,0.0001X0.0216*%
%ADD436R,0.0001X0.0217*%
%ADD437R,0.0001X0.0217*%
%ADD438R,0.0001X0.0218*%
%ADD439R,0.0001X0.0219*%
%ADD440R,0.0001X0.0219*%
%ADD441R,0.0001X0.0219*%
%ADD442R,0.0001X0.0220*%
%ADD443R,0.0001X0.0221*%
%ADD444R,0.0001X0.0221*%
%ADD445R,0.0001X0.0222*%
%ADD446R,0.0001X0.0222*%
%ADD447R,0.0001X0.0223*%
%ADD448R,0.0001X0.0223*%
%ADD449R,0.0001X0.0224*%
%ADD450R,0.0001X0.0223*%
%ADD451R,0.0001X0.0225*%
%ADD452R,0.0001X0.0226*%
%ADD453R,0.0001X0.0227*%
%ADD454R,0.0001X0.0227*%
%ADD455R,0.0001X0.0227*%
%ADD456R,0.0001X0.0227*%
%ADD457R,0.0001X0.0228*%
%ADD458R,0.0001X0.0228*%
%ADD459R,0.0001X0.0229*%
%ADD460R,0.0001X0.0229*%
%ADD461R,0.0001X0.0230*%
%ADD462R,0.0001X0.0231*%
%ADD463R,0.0001X0.0231*%
%ADD464R,0.0001X0.0231*%
%ADD465R,0.0001X0.0232*%
%ADD466R,0.0001X0.0231*%
%ADD467R,0.0001X0.0233*%
%ADD468R,0.0001X0.0233*%
%ADD469R,0.0001X0.0234*%
%ADD470R,0.0001X0.0234*%
%ADD471R,0.0001X0.0235*%
%ADD472R,0.0001X0.0235*%
%ADD473R,0.0001X0.0236*%
%ADD474R,0.0001X0.0237*%
%ADD475R,0.0001X0.0237*%
%ADD476R,0.0001X0.0237*%
%ADD477R,0.0001X0.0237*%
%ADD478R,0.0001X0.0238*%
%ADD479R,0.0001X0.0238*%
%ADD480R,0.0001X0.0239*%
%ADD481R,0.0001X0.0239*%
%ADD482R,0.0001X0.0239*%
%ADD483R,0.0001X0.0239*%
%ADD484R,0.0001X0.0240*%
%ADD485R,0.0001X0.0241*%
%ADD486R,0.0001X0.0241*%
%ADD487R,0.0001X0.0241*%
%ADD488R,0.0001X0.0241*%
%ADD489R,0.0001X0.0242*%
%ADD490R,0.0001X0.0242*%
%ADD491R,0.0001X0.0242*%
%ADD492R,0.0001X0.0243*%
%ADD493R,0.0001X0.0243*%
%ADD494R,0.0001X0.0243*%
%ADD495R,0.0001X0.0243*%
%ADD496R,0.0001X0.0244*%
%ADD497R,0.0001X0.0244*%
%ADD498R,0.0001X0.0240*%
%ADD499R,0.0001X0.0238*%
%ADD500R,0.0001X0.0232*%
%ADD501R,0.0001X0.0232*%
%ADD502R,0.0001X0.0228*%
%ADD503R,0.0001X0.0229*%
%ADD504R,0.0001X0.0229*%
%ADD505R,0.0001X0.0224*%
%ADD506R,0.0001X0.0225*%
%ADD507R,0.0001X0.0223*%
%ADD508R,0.0001X0.0220*%
%ADD509R,0.0001X0.0218*%
%ADD510R,0.0001X0.0214*%
%ADD511R,0.0001X0.0215*%
%ADD512R,0.0001X0.0213*%
%ADD513R,0.0001X0.0212*%
%ADD514R,0.0001X0.0209*%
%ADD515R,0.0001X0.0209*%
%ADD516R,0.0001X0.0207*%
%ADD517R,0.0001X0.0206*%
%ADD518R,0.0001X0.0203*%
%ADD519R,0.0001X0.0202*%
%ADD520R,0.0001X0.0202*%
%ADD521R,0.0001X0.0200*%
%ADD522R,0.0001X0.0199*%
%ADD523R,0.0001X0.0199*%
%ADD524R,0.0001X0.0195*%
%ADD525R,0.0001X0.0191*%
%ADD526R,0.0001X0.0192*%
%ADD527R,0.0001X0.0187*%
%ADD528R,0.0001X0.0187*%
%ADD529R,0.0001X0.0186*%
%ADD530R,0.0001X0.0183*%
%ADD531R,0.0001X0.0183*%
%ADD532R,0.0001X0.0179*%
%ADD533R,0.0001X0.0177*%
%ADD534R,0.0001X0.0177*%
%ADD535R,0.0001X0.0178*%
%ADD536R,0.0001X0.0175*%
%ADD537R,0.0001X0.0174*%
%ADD538R,0.0001X0.0167*%
%ADD539R,0.0001X0.0168*%
%ADD540R,0.0001X0.0168*%
%ADD541R,0.0001X0.0163*%
%ADD542R,0.0001X0.0164*%
%ADD543R,0.0001X0.0157*%
%ADD544R,0.0001X0.0157*%
%ADD545R,0.0001X0.0153*%
%ADD546R,0.0001X0.0152*%
%ADD547R,0.0001X0.0152*%
%ADD548R,0.0001X0.0145*%
%ADD549R,0.0001X0.0144*%
%ADD550R,0.0001X0.0139*%
%ADD551R,0.0001X0.0139*%
%ADD552R,0.0001X0.0140*%
%ADD553R,0.0001X0.0137*%
%ADD554R,0.0001X0.0131*%
%ADD555R,0.0001X0.0131*%
%ADD556R,0.0001X0.0130*%
%ADD557R,0.0001X0.0128*%
%ADD558R,0.0001X0.0128*%
%ADD559R,0.0001X0.0125*%
%ADD560R,0.0001X0.0124*%
%ADD561R,0.0001X0.0121*%
%ADD562R,0.0001X0.0121*%
%ADD563R,0.0001X0.0118*%
%ADD564R,0.0001X0.0118*%
%ADD565R,0.0001X0.0114*%
%ADD566R,0.0001X0.0114*%
%ADD567R,0.0001X0.0106*%
%ADD568R,0.0001X0.0106*%
%ADD569R,0.0001X0.0102*%
%ADD570R,0.0001X0.0102*%
%ADD571R,0.0001X0.0098*%
%ADD572R,0.0001X0.0098*%
%ADD573R,0.0001X0.0093*%
%ADD574R,0.0001X0.0094*%
%ADD575R,0.0001X0.0093*%
%ADD576R,0.0001X0.0088*%
%ADD577R,0.0001X0.0088*%
%ADD578R,0.0001X0.0083*%
%ADD579R,0.0001X0.0082*%
%ADD580R,0.0001X0.0083*%
%ADD581R,0.0001X0.0077*%
%ADD582R,0.0001X0.0076*%
%ADD583R,0.0001X0.0077*%
%ADD584R,0.0001X0.0070*%
%ADD585R,0.0001X0.0071*%
%ADD586R,0.0001X0.0063*%
%ADD587R,0.0001X0.0063*%
%ADD588R,0.0001X0.0054*%
%ADD589R,0.0001X0.0054*%
%ADD590R,0.0001X0.0055*%
%ADD591R,0.0001X0.0044*%
%ADD592R,0.0001X0.0044*%
%ADD593R,0.0001X0.0045*%
%ADD594R,0.0001X0.0030*%
%ADD595R,0.0001X0.0031*%
D10*
X000180Y000180D02*
X000180Y029708D01*
X019050Y029708D01*
X019050Y000180D01*
X000180Y000180D01*
X000731Y001755D02*
X000733Y001805D01*
X000739Y001855D01*
X000749Y001904D01*
X000763Y001952D01*
X000780Y001999D01*
X000801Y002044D01*
X000826Y002088D01*
X000854Y002129D01*
X000886Y002168D01*
X000920Y002205D01*
X000957Y002239D01*
X000997Y002269D01*
X001039Y002296D01*
X001083Y002320D01*
X001129Y002341D01*
X001176Y002357D01*
X001224Y002370D01*
X001274Y002379D01*
X001323Y002384D01*
X001374Y002385D01*
X001424Y002382D01*
X001473Y002375D01*
X001522Y002364D01*
X001570Y002349D01*
X001616Y002331D01*
X001661Y002309D01*
X001704Y002283D01*
X001745Y002254D01*
X001784Y002222D01*
X001820Y002187D01*
X001852Y002149D01*
X001882Y002109D01*
X001909Y002066D01*
X001932Y002022D01*
X001951Y001976D01*
X001967Y001928D01*
X001979Y001879D01*
X001987Y001830D01*
X001991Y001780D01*
X001991Y001730D01*
X001987Y001680D01*
X001979Y001631D01*
X001967Y001582D01*
X001951Y001534D01*
X001932Y001488D01*
X001909Y001444D01*
X001882Y001401D01*
X001852Y001361D01*
X001820Y001323D01*
X001784Y001288D01*
X001745Y001256D01*
X001704Y001227D01*
X001661Y001201D01*
X001616Y001179D01*
X001570Y001161D01*
X001522Y001146D01*
X001473Y001135D01*
X001424Y001128D01*
X001374Y001125D01*
X001323Y001126D01*
X001274Y001131D01*
X001224Y001140D01*
X001176Y001153D01*
X001129Y001169D01*
X001083Y001190D01*
X001039Y001214D01*
X000997Y001241D01*
X000957Y001271D01*
X000920Y001305D01*
X000886Y001342D01*
X000854Y001381D01*
X000826Y001422D01*
X000801Y001466D01*
X000780Y001511D01*
X000763Y001558D01*
X000749Y001606D01*
X000739Y001655D01*
X000733Y001705D01*
X000731Y001755D01*
X000731Y005298D02*
X000733Y005348D01*
X000739Y005398D01*
X000749Y005447D01*
X000763Y005495D01*
X000780Y005542D01*
X000801Y005587D01*
X000826Y005631D01*
X000854Y005672D01*
X000886Y005711D01*
X000920Y005748D01*
X000957Y005782D01*
X000997Y005812D01*
X001039Y005839D01*
X001083Y005863D01*
X001129Y005884D01*
X001176Y005900D01*
X001224Y005913D01*
X001274Y005922D01*
X001323Y005927D01*
X001374Y005928D01*
X001424Y005925D01*
X001473Y005918D01*
X001522Y005907D01*
X001570Y005892D01*
X001616Y005874D01*
X001661Y005852D01*
X001704Y005826D01*
X001745Y005797D01*
X001784Y005765D01*
X001820Y005730D01*
X001852Y005692D01*
X001882Y005652D01*
X001909Y005609D01*
X001932Y005565D01*
X001951Y005519D01*
X001967Y005471D01*
X001979Y005422D01*
X001987Y005373D01*
X001991Y005323D01*
X001991Y005273D01*
X001987Y005223D01*
X001979Y005174D01*
X001967Y005125D01*
X001951Y005077D01*
X001932Y005031D01*
X001909Y004987D01*
X001882Y004944D01*
X001852Y004904D01*
X001820Y004866D01*
X001784Y004831D01*
X001745Y004799D01*
X001704Y004770D01*
X001661Y004744D01*
X001616Y004722D01*
X001570Y004704D01*
X001522Y004689D01*
X001473Y004678D01*
X001424Y004671D01*
X001374Y004668D01*
X001323Y004669D01*
X001274Y004674D01*
X001224Y004683D01*
X001176Y004696D01*
X001129Y004712D01*
X001083Y004733D01*
X001039Y004757D01*
X000997Y004784D01*
X000957Y004814D01*
X000920Y004848D01*
X000886Y004885D01*
X000854Y004924D01*
X000826Y004965D01*
X000801Y005009D01*
X000780Y005054D01*
X000763Y005101D01*
X000749Y005149D01*
X000739Y005198D01*
X000733Y005248D01*
X000731Y005298D01*
X002485Y006105D02*
X002485Y006105D01*
X002485Y006105D01*
X002485Y006106D01*
X002485Y006106D01*
X002485Y006106D01*
X002485Y006106D01*
X002485Y006106D01*
X002485Y006106D01*
X002486Y006106D01*
X002486Y006106D01*
X002486Y006107D01*
X002485Y006107D01*
X002485Y006107D01*
X002486Y006108D01*
X002485Y006108D01*
X002485Y006108D01*
X002485Y006109D01*
X002485Y006109D01*
X002485Y006109D01*
X002485Y006109D01*
X002485Y006110D01*
X002485Y006110D01*
X002485Y006110D01*
X002485Y006110D01*
X002486Y006110D01*
X002488Y006110D01*
X002488Y006111D01*
X002486Y006111D01*
X002486Y006112D01*
X002485Y006113D01*
X002485Y006114D01*
X002485Y006114D01*
X002485Y006114D01*
X002485Y006114D01*
X002485Y006114D01*
X002485Y006114D01*
X002486Y006114D01*
X002486Y006114D01*
X002485Y006114D01*
X002486Y006114D01*
X002487Y006114D02*
X002487Y006114D01*
X002487Y006113D01*
X002487Y006112D01*
X002487Y006112D01*
X002487Y006112D01*
X002487Y006113D01*
X002488Y006113D01*
X002487Y006113D01*
X002487Y006115D01*
X002487Y006115D01*
X002487Y006114D01*
X002488Y006114D02*
X002488Y006113D01*
X002488Y006113D01*
X002488Y006112D01*
X002488Y006111D02*
X002488Y006111D01*
X002488Y006110D02*
X002488Y006110D01*
X002488Y006108D02*
X002486Y006109D01*
X002485Y006109D01*
X002485Y006109D01*
X002485Y006110D01*
X002485Y006111D01*
X002485Y006111D01*
X002485Y006111D01*
X002485Y006112D01*
X002485Y006111D01*
X002485Y006111D01*
X002485Y006112D02*
X002485Y006112D01*
X002486Y006112D01*
X002486Y006113D02*
X002485Y006113D01*
X002485Y006115D02*
X002485Y006115D01*
X002485Y006115D01*
X002485Y006115D01*
X002486Y006115D01*
X002485Y006115D01*
X002485Y006116D02*
X002485Y006116D01*
X002485Y006116D01*
X002485Y006116D01*
X002486Y006116D01*
X002486Y006116D01*
X002486Y006116D01*
X002486Y006116D01*
X002485Y006116D01*
X002485Y006117D02*
X002485Y006117D01*
X002485Y006118D01*
X002485Y006118D01*
X002485Y006118D01*
X002486Y006118D01*
X002486Y006119D01*
X002485Y006119D01*
X002485Y006120D01*
X002486Y006120D01*
X002488Y006119D01*
X002488Y006118D02*
X002487Y006118D01*
X002487Y006117D01*
X002487Y006117D01*
X002487Y006117D01*
X002487Y006118D01*
X002488Y006118D02*
X002488Y006118D01*
X002488Y006117D01*
X002487Y006116D02*
X002487Y006116D01*
X002487Y006115D01*
X002488Y006115D01*
X002488Y006114D02*
X002488Y006114D01*
X002486Y006115D02*
X002486Y006115D01*
X002486Y006117D02*
X002486Y006117D01*
X002485Y006117D01*
X002486Y006117D01*
X002485Y006118D02*
X002485Y006118D01*
X002485Y006119D01*
X002485Y006120D01*
X002485Y006120D01*
X002486Y006120D02*
X002485Y006121D01*
X002485Y006121D01*
X002486Y006121D01*
X002486Y006121D01*
X002488Y006121D01*
X002488Y006122D02*
X002486Y006122D01*
X002485Y006122D01*
X002485Y006122D01*
X002485Y006122D01*
X002485Y006122D01*
X002485Y006122D01*
X002485Y006122D01*
X002485Y006121D01*
X002485Y006122D02*
X002485Y006122D01*
X002486Y006122D01*
X002486Y006122D01*
X002486Y006121D02*
X002485Y006122D01*
X002485Y006123D02*
X002485Y006123D01*
X002485Y006123D01*
X002485Y006123D01*
X002486Y006123D01*
X002486Y006123D01*
X002485Y006124D02*
X002486Y006124D01*
X002486Y006124D01*
X002485Y006124D01*
X002485Y006124D01*
X002485Y006125D02*
X002485Y006125D01*
X002485Y006125D01*
X002485Y006125D01*
X002486Y006125D01*
X002485Y006125D01*
X002485Y006125D01*
X002485Y006126D01*
X002485Y006126D01*
X002485Y006126D01*
X002485Y006126D01*
X002485Y006125D01*
X002485Y006125D01*
X002486Y006125D01*
X002486Y006126D02*
X002488Y006126D01*
X002488Y006126D01*
X002487Y006126D01*
X002487Y006126D01*
X002487Y006127D01*
X002488Y006127D01*
X002488Y006126D01*
X002488Y006125D01*
X002488Y006124D01*
X002487Y006124D01*
X002487Y006125D01*
X002487Y006126D01*
X002486Y006126D02*
X002486Y006126D01*
X002485Y006126D01*
X002485Y006127D01*
X002485Y006127D01*
X002486Y006127D01*
X002485Y006127D02*
X002486Y006128D01*
X002486Y006128D01*
X002486Y006128D01*
X002485Y006129D01*
X002485Y006128D01*
X002485Y006128D01*
X002485Y006128D01*
X002485Y006128D01*
X002485Y006127D01*
X002485Y006127D01*
X002485Y006128D02*
X002485Y006129D01*
X002486Y006129D01*
X002486Y006130D02*
X002486Y006130D01*
X002485Y006130D01*
X002485Y006130D01*
X002485Y006131D01*
X002485Y006131D01*
X002486Y006131D01*
X002486Y006131D01*
X002486Y006132D01*
X002485Y006132D01*
X002485Y006132D01*
X002485Y006132D01*
X002485Y006132D01*
X002485Y006133D01*
X002485Y006133D01*
X002486Y006133D01*
X002485Y006133D01*
X002485Y006133D01*
X002485Y006132D01*
X002486Y006132D02*
X002486Y006132D01*
X002485Y006131D02*
X002486Y006131D01*
X002485Y006130D01*
X002485Y006130D01*
X002485Y006131D02*
X002485Y006131D01*
X002487Y006131D02*
X002487Y006132D01*
X002487Y006131D01*
X002487Y006131D01*
X002487Y006131D01*
X002487Y006130D02*
X002488Y006130D01*
X002488Y006129D02*
X002487Y006129D01*
X002487Y006130D01*
X002487Y006130D01*
X002488Y006131D02*
X002488Y006132D01*
X002488Y006132D01*
X002487Y006132D01*
X002488Y006133D02*
X002487Y006133D01*
X002487Y006134D01*
X002488Y006134D01*
X002488Y006133D01*
X002488Y006133D01*
X002487Y006133D02*
X002487Y006134D01*
X002487Y006134D01*
X002488Y006135D02*
X002486Y006136D01*
X002486Y006136D01*
X002485Y006136D01*
X002485Y006136D01*
X002485Y006136D01*
X002485Y006136D01*
X002485Y006137D01*
X002485Y006137D01*
X002485Y006137D01*
X002485Y006137D01*
X002485Y006136D01*
X002486Y006136D01*
X002486Y006137D02*
X002486Y006138D01*
X002485Y006138D01*
X002485Y006138D01*
X002485Y006138D01*
X002485Y006138D01*
X002485Y006137D01*
X002486Y006137D01*
X002486Y006136D01*
X002486Y006137D02*
X002488Y006137D01*
X002488Y006138D01*
X002486Y006138D01*
X002486Y006138D01*
X002486Y006137D02*
X002485Y006137D01*
X002485Y006138D01*
X002485Y006139D01*
X002485Y006139D01*
X002485Y006139D01*
X002485Y006139D01*
X002485Y006140D01*
X002485Y006140D01*
X002485Y006140D01*
X002486Y006140D01*
X002486Y006140D01*
X002486Y006140D01*
X002485Y006140D01*
X002484Y006140D01*
X002485Y006141D02*
X002485Y006141D01*
X002485Y006141D01*
X002485Y006141D01*
X002485Y006141D01*
X002485Y006141D01*
X002485Y006141D01*
X002485Y006142D02*
X002485Y006142D01*
X002485Y006142D01*
X002485Y006142D01*
X002485Y006143D01*
X002485Y006143D01*
X002486Y006143D01*
X002485Y006144D01*
X002485Y006145D01*
X002485Y006145D01*
X002485Y006145D01*
X002486Y006145D01*
X002485Y006146D02*
X002486Y006146D01*
X002485Y006146D01*
X002485Y006146D01*
X002485Y006146D01*
X002485Y006146D01*
X002485Y006147D01*
X002485Y006147D01*
X002485Y006147D01*
X002485Y006147D01*
X002486Y006147D01*
X002485Y006147D01*
X002485Y006147D01*
X002486Y006147D01*
X002486Y006146D02*
X002486Y006146D01*
X002485Y006147D02*
X002485Y006146D01*
X002485Y006145D01*
X002486Y006144D02*
X002485Y006144D01*
X002487Y006144D02*
X002487Y006144D01*
X002488Y006144D01*
X002487Y006145D02*
X002488Y006145D01*
X002487Y006145D01*
X002487Y006145D01*
X002487Y006145D01*
X002487Y006144D01*
X002488Y006143D02*
X002487Y006143D01*
X002487Y006142D02*
X002488Y006142D01*
X002488Y006142D01*
X002488Y006143D01*
X002488Y006142D02*
X002488Y006141D01*
X002488Y006140D01*
X002487Y006140D01*
X002487Y006141D01*
X002487Y006142D01*
X002486Y006142D02*
X002486Y006142D01*
X002485Y006142D01*
X002486Y006141D02*
X002486Y006141D01*
X002485Y006141D01*
X002486Y006140D02*
X002486Y006139D01*
X002485Y006139D01*
X002487Y006139D02*
X002487Y006138D01*
X002488Y006138D01*
X002488Y006138D01*
X002488Y006139D01*
X002488Y006139D01*
X002488Y006140D01*
X002487Y006140D01*
X002487Y006139D01*
X002487Y006139D01*
X002485Y006135D02*
X002486Y006135D01*
X002485Y006135D01*
X002485Y006135D01*
X002485Y006135D01*
X002485Y006134D02*
X002486Y006134D01*
X002485Y006134D01*
X002485Y006134D01*
X002485Y006134D01*
X002485Y006134D01*
X002485Y006134D01*
X002486Y006134D02*
X002486Y006134D01*
X002487Y006128D02*
X002488Y006128D01*
X002488Y006129D01*
X002487Y006128D02*
X002487Y006128D01*
X002488Y006127D02*
X002489Y006127D01*
X002489Y006127D01*
X002488Y006124D02*
X002487Y006124D01*
X002487Y006123D01*
X002487Y006122D01*
X002487Y006121D01*
X002487Y006122D02*
X002488Y006122D01*
X002488Y006123D01*
X002488Y006123D01*
X002488Y006124D01*
X002487Y006123D02*
X002487Y006123D01*
X002485Y006125D02*
X002486Y006126D01*
X002486Y006120D02*
X002486Y006119D01*
X002485Y006119D02*
X002485Y006119D01*
X002485Y006118D01*
X002485Y006119D02*
X002485Y006119D01*
X002486Y006119D01*
X002484Y006117D02*
X002485Y006117D01*
X002486Y006110D02*
X002486Y006110D01*
X002485Y006109D01*
X002485Y006108D01*
X002486Y006108D02*
X002486Y006108D01*
X002486Y006109D01*
X002487Y006107D02*
X002487Y006107D01*
X002487Y006107D01*
X002487Y006107D01*
X002487Y006107D01*
X002488Y006107D02*
X002488Y006107D01*
X002488Y006107D01*
X002488Y006107D01*
X002488Y006107D01*
X002488Y006106D01*
X002488Y006106D01*
X002488Y006105D01*
X002486Y006105D01*
X002486Y006106D01*
X002486Y006106D01*
X002485Y006106D01*
X002485Y006106D01*
X002486Y006106D01*
X002486Y006105D01*
X002485Y006105D01*
X002487Y006146D02*
X002487Y006146D01*
X002487Y006147D01*
X002487Y006147D01*
X002487Y006147D01*
X002487Y006146D01*
X002488Y006146D01*
X002488Y006146D01*
X002488Y006147D01*
X002488Y006148D02*
X002487Y006148D01*
X002487Y006149D01*
X002488Y006149D01*
X002488Y006150D02*
X002488Y006150D01*
X002486Y006150D01*
X002486Y006150D01*
X002485Y006150D01*
X002485Y006150D01*
X002485Y006150D01*
X002485Y006150D01*
X002485Y006150D01*
X002485Y006150D01*
X002485Y006150D01*
X002485Y006151D01*
X002485Y006151D01*
X002486Y006151D01*
X002486Y006151D01*
X002486Y006150D01*
X002485Y006151D02*
X002486Y006151D01*
X002486Y006152D02*
X002485Y006152D01*
X002485Y006152D01*
X002485Y006152D01*
X002485Y006152D01*
X002486Y006152D01*
X002486Y006152D01*
X002486Y006153D02*
X002486Y006153D01*
X002485Y006153D01*
X002485Y006153D01*
X002485Y006153D01*
X002485Y006153D01*
X002485Y006153D01*
X002485Y006153D01*
X002485Y006154D02*
X002485Y006154D01*
X002485Y006154D01*
X002485Y006154D01*
X002485Y006155D01*
X002485Y006155D01*
X002486Y006155D01*
X002486Y006154D01*
X002488Y006152D01*
X002487Y006152D01*
X002487Y006151D01*
X002487Y006151D01*
X002487Y006151D01*
X002487Y006152D01*
X002488Y006152D02*
X002488Y006152D01*
X002488Y006151D01*
X002487Y006150D02*
X002487Y006149D01*
X002487Y006149D01*
X002486Y006149D02*
X002485Y006149D01*
X002485Y006148D02*
X002485Y006148D01*
X002485Y006148D01*
X002485Y006148D01*
X002485Y006148D01*
X002485Y006148D01*
X002485Y006148D01*
X002486Y006148D01*
X002486Y006148D01*
X002485Y006147D02*
X002485Y006147D01*
X002484Y006151D02*
X002485Y006151D01*
X002486Y006154D02*
X002486Y006154D01*
X002486Y006155D01*
X002486Y006155D01*
X002488Y006155D01*
X002488Y006154D01*
X002488Y006156D02*
X002487Y006156D01*
X002487Y006157D01*
X002486Y006157D02*
X002488Y006157D01*
X002488Y006156D01*
X002488Y006156D01*
X002487Y006156D02*
X002487Y006156D01*
X002486Y006156D02*
X002485Y006156D01*
X002485Y006156D01*
X002485Y006156D01*
X002485Y006156D01*
X002485Y006157D01*
X002485Y006157D01*
X002485Y006157D01*
X002486Y006157D01*
X002485Y006157D01*
X002486Y006157D01*
X002486Y006158D01*
X002488Y006158D01*
X002488Y006157D01*
X002488Y006159D02*
X002487Y006159D01*
X002487Y006160D01*
X002487Y006160D01*
X002487Y006160D01*
X002487Y006162D01*
X002487Y006163D02*
X002487Y006163D01*
X002487Y006164D01*
X002487Y006165D01*
X002487Y006165D01*
X002488Y006165D01*
X002488Y006164D02*
X002487Y006164D01*
X002488Y006164D01*
X002488Y006163D01*
X002488Y006162D01*
X002486Y006162D01*
X002488Y006160D02*
X002486Y006160D01*
X002487Y006159D02*
X002487Y006159D01*
X002487Y006160D01*
X002488Y006160D02*
X002488Y006159D01*
X002488Y006159D01*
X002486Y006158D02*
X002486Y006157D01*
X002486Y006156D02*
X002485Y006156D01*
X002485Y006157D02*
X002485Y006157D01*
X002485Y006158D01*
X002485Y006158D01*
X002485Y006158D01*
X002486Y006158D01*
X002486Y006156D02*
X002486Y006156D01*
X002485Y006156D01*
X002485Y006155D02*
X002486Y006155D01*
X002485Y006155D01*
X002485Y006154D01*
X002486Y006154D01*
X002485Y006155D02*
X002485Y006155D01*
X002484Y006154D02*
X002485Y006154D01*
X002488Y006162D02*
X002487Y006163D01*
X002487Y006164D01*
X002487Y006166D02*
X002487Y006166D01*
X002488Y006166D01*
X002488Y006166D01*
X002488Y006167D01*
X002486Y006167D01*
X002487Y006166D02*
X002487Y006167D01*
X002487Y006168D02*
X002487Y006168D01*
X002487Y006168D01*
X002487Y006169D01*
X002487Y006168D01*
X002488Y006169D02*
X002487Y006169D01*
X002487Y006170D02*
X002487Y006171D01*
X002487Y006171D01*
X002486Y006171D01*
X002486Y006171D01*
X002486Y006170D01*
X002488Y006170D01*
X002488Y006169D02*
X002488Y006169D01*
X002488Y006168D01*
X002488Y006171D02*
X002487Y006171D01*
X002487Y006172D01*
X002487Y006173D01*
X002488Y006173D01*
X002488Y006173D01*
X002488Y006174D01*
X002488Y006174D01*
X002487Y006174D01*
X002487Y006173D01*
X002487Y006173D01*
X002487Y006174D02*
X002487Y006174D01*
X002488Y006176D02*
X002487Y006176D01*
X002487Y006176D01*
X002488Y006176D01*
X002488Y006176D01*
X002488Y006177D01*
X002487Y006177D02*
X002487Y006176D01*
X002487Y006177D01*
X002487Y006177D01*
X002487Y006177D01*
X002487Y006178D02*
X002488Y006178D01*
X002488Y006178D01*
X002488Y006179D01*
X002488Y006180D02*
X002488Y006180D01*
X002486Y006180D01*
X002487Y006180D02*
X002487Y006180D01*
X002487Y006179D02*
X002487Y006178D01*
X002487Y006178D01*
X002486Y006176D02*
X002486Y006176D01*
X002488Y006176D02*
X002489Y006175D01*
X002489Y006175D01*
X002488Y006181D02*
X002486Y006182D01*
X002486Y006183D02*
X002486Y006184D01*
X002488Y006184D01*
X002488Y006185D02*
X002486Y006185D01*
X002487Y006185D02*
X002487Y006186D01*
X002488Y006186D01*
X002488Y006187D02*
X002487Y006187D01*
X002487Y006188D01*
X002487Y006188D01*
X002487Y006188D01*
X002487Y006189D01*
X002487Y006189D01*
X002488Y006189D01*
X002488Y006188D02*
X002487Y006188D01*
X002487Y006187D01*
X002487Y006187D01*
X002488Y006187D02*
X002488Y006187D01*
X002488Y006188D01*
X002487Y006189D02*
X002487Y006189D01*
X002487Y006190D01*
X002487Y006191D01*
X002487Y006192D01*
X002487Y006192D01*
X002487Y006190D01*
X002488Y006190D01*
X002488Y006191D01*
X002488Y006191D01*
X002488Y006192D02*
X002486Y006193D01*
X002487Y006194D02*
X002487Y006194D01*
X002488Y006194D01*
X002488Y006194D01*
X002488Y006195D01*
X002487Y006195D02*
X002487Y006194D01*
X002487Y006195D01*
X002487Y006195D01*
X002487Y006195D01*
X002486Y006196D02*
X002486Y006196D01*
X002488Y006196D01*
X002488Y006196D01*
X002488Y006197D02*
X002488Y006198D01*
X002488Y006199D01*
X002488Y006200D01*
X002488Y006201D01*
X002488Y006201D01*
X002487Y006201D01*
X002487Y006200D01*
X002487Y006200D01*
X002487Y006200D01*
X002488Y006200D01*
X002487Y006201D02*
X002487Y006200D01*
X002487Y006199D01*
X002487Y006198D01*
X002489Y006198D01*
X002488Y006197D02*
X002487Y006197D01*
X002487Y006197D01*
X002486Y006197D02*
X002486Y006197D01*
X002487Y006202D02*
X002487Y006202D01*
X002488Y006202D01*
X002488Y006203D01*
X002488Y006204D01*
X002488Y006204D01*
X002487Y006204D01*
X002487Y006203D01*
X002487Y006203D01*
X002487Y006203D01*
X002487Y006204D01*
X002488Y006205D02*
X002488Y006205D01*
X002488Y006205D01*
X002488Y006205D01*
X002488Y006205D01*
X002488Y006206D02*
X002488Y006207D01*
X002488Y006207D01*
X002487Y006207D01*
X002487Y006206D01*
X002486Y006206D02*
X002488Y006206D01*
X002487Y006207D02*
X002487Y006207D01*
X002487Y006208D02*
X002487Y006208D01*
X002487Y006208D01*
X002488Y006208D01*
X002487Y006208D01*
X002487Y006209D01*
X002488Y006209D01*
X002488Y006210D02*
X002488Y006211D01*
X002488Y006211D01*
X002487Y006211D01*
X002487Y006211D01*
X002487Y006210D01*
X002489Y006210D01*
X002487Y006209D02*
X002487Y006209D01*
X002486Y006202D02*
X002486Y006202D01*
X002487Y006191D02*
X002487Y006191D01*
X002487Y006190D02*
X002488Y006190D01*
X002487Y006186D02*
X002487Y006186D01*
X002487Y006185D02*
X002487Y006185D01*
X015338Y027144D02*
X015338Y027144D01*
X015337Y027144D01*
X015337Y027145D01*
X015338Y027146D01*
X015338Y027146D01*
X015338Y027146D01*
X015337Y027146D01*
X015337Y027147D01*
X015338Y027147D01*
X015338Y027147D01*
X015338Y027147D01*
X015338Y027147D01*
X015339Y027147D01*
X015339Y027146D02*
X015340Y027147D01*
X015340Y027146D01*
X015340Y027146D01*
X015340Y027146D01*
X015340Y027146D01*
X015340Y027147D01*
X015341Y027147D02*
X015341Y027147D01*
X015341Y027147D01*
X015341Y027146D01*
X015341Y027146D01*
X015341Y027146D01*
X015341Y027146D01*
X015341Y027146D01*
X015342Y027146D02*
X015342Y027147D01*
X015342Y027147D01*
X015342Y027147D01*
X015342Y027147D01*
X015342Y027146D01*
X015342Y027146D01*
X015342Y027146D01*
X015342Y027146D01*
X015342Y027144D01*
X015342Y027144D01*
X015343Y027144D01*
X015343Y027146D01*
X015344Y027146D01*
X015344Y027146D01*
X015344Y027146D01*
X015345Y027147D01*
X015345Y027146D01*
X015345Y027147D02*
X015346Y027147D01*
X015346Y027146D01*
X015346Y027146D01*
X015346Y027147D01*
X015346Y027147D01*
X015347Y027147D01*
X015348Y027147D01*
X015348Y027147D01*
X015349Y027147D01*
X015349Y027147D01*
X015349Y027146D01*
X015349Y027146D01*
X015348Y027146D01*
X015348Y027146D01*
X015348Y027147D01*
X015348Y027146D01*
X015347Y027146D01*
X015347Y027146D01*
X015347Y027147D01*
X015347Y027147D01*
X015347Y027147D01*
X015347Y027146D01*
X015347Y027146D01*
X015346Y027146D01*
X015346Y027145D02*
X015347Y027145D01*
X015347Y027145D01*
X015347Y027144D01*
X015346Y027144D01*
X015346Y027145D01*
X015346Y027145D01*
X015345Y027145D02*
X015344Y027145D01*
X015344Y027145D01*
X015344Y027144D01*
X015345Y027144D01*
X015345Y027144D01*
X015345Y027144D01*
X015344Y027144D01*
X015343Y027144D02*
X015343Y027144D01*
X015343Y027146D02*
X015343Y027147D01*
X015343Y027147D01*
X015343Y027146D01*
X015343Y027147D01*
X015344Y027147D01*
X015343Y027147D02*
X015343Y027147D01*
X015344Y027146D02*
X015343Y027146D01*
X015342Y027146D02*
X015340Y027144D01*
X015340Y027144D01*
X015339Y027144D01*
X015338Y027144D01*
X015339Y027144D02*
X015339Y027144D01*
X015340Y027144D01*
X015340Y027145D02*
X015339Y027145D01*
X015338Y027146D01*
X015338Y027146D01*
X015339Y027146D01*
X015339Y027146D01*
X015338Y027146D01*
X015338Y027146D01*
X015339Y027147D02*
X015338Y027147D01*
X015339Y027147D02*
X015339Y027147D01*
X015339Y027145D02*
X015339Y027145D01*
X015340Y027145D01*
X015340Y027145D01*
X015346Y027144D02*
X015346Y027144D01*
X015347Y027144D01*
X015348Y027144D02*
X015348Y027145D01*
X015349Y027145D01*
X015350Y027145D01*
X015349Y027145D02*
X015349Y027145D01*
X015349Y027144D01*
X015350Y027144D01*
X015350Y027144D01*
X015350Y027144D01*
X015349Y027144D01*
X015348Y027144D02*
X015348Y027145D01*
X015348Y027146D02*
X015348Y027146D01*
X015349Y027146D01*
X015349Y027147D01*
X015349Y027147D01*
X015349Y027146D01*
X015349Y027147D02*
X015350Y027147D01*
X015350Y027147D01*
X015350Y027146D01*
X015351Y027146D01*
X015351Y027146D01*
X015351Y027146D01*
X015351Y027146D01*
X015351Y027146D01*
X015351Y027146D01*
X015352Y027146D01*
X015352Y027147D01*
X015352Y027147D01*
X015351Y027147D01*
X015351Y027147D01*
X015350Y027147D01*
X015351Y027146D01*
X015352Y027146D01*
X015353Y027147D01*
X015354Y027147D01*
X015354Y027147D01*
X015354Y027146D01*
X015354Y027146D01*
X015354Y027147D01*
X015354Y027147D01*
X015355Y027147D01*
X015355Y027147D01*
X015356Y027147D01*
X015356Y027146D01*
X015357Y027146D01*
X015357Y027147D01*
X015357Y027147D01*
X015357Y027147D01*
X015357Y027146D01*
X015357Y027147D01*
X015357Y027147D01*
X015357Y027147D01*
X015357Y027146D01*
X015358Y027146D02*
X015358Y027147D01*
X015358Y027147D01*
X015358Y027147D01*
X015358Y027147D01*
X015358Y027146D01*
X015358Y027146D01*
X015358Y027146D01*
X015358Y027146D01*
X015358Y027144D01*
X015359Y027144D01*
X015360Y027144D01*
X015361Y027144D01*
X015361Y027145D01*
X015362Y027145D01*
X015363Y027145D01*
X015363Y027144D01*
X015364Y027144D01*
X015364Y027144D01*
X015365Y027144D01*
X015365Y027144D01*
X015365Y027144D01*
X015364Y027144D01*
X015363Y027145D01*
X015364Y027145D01*
X015365Y027145D01*
X015366Y027145D01*
X015366Y027145D01*
X015366Y027144D01*
X015365Y027144D01*
X015366Y027144D01*
X015367Y027144D02*
X015368Y027146D01*
X015368Y027146D01*
X015369Y027146D01*
X015369Y027146D01*
X015369Y027146D01*
X015369Y027147D01*
X015369Y027147D01*
X015369Y027147D01*
X015369Y027146D01*
X015369Y027146D01*
X015369Y027146D01*
X015370Y027146D01*
X015370Y027147D01*
X015370Y027147D01*
X015370Y027147D01*
X015370Y027147D01*
X015370Y027146D01*
X015370Y027146D01*
X015370Y027145D01*
X015370Y027144D01*
X015370Y027144D01*
X015369Y027144D01*
X015369Y027146D01*
X015368Y027147D02*
X015369Y027147D01*
X015368Y027147D02*
X015368Y027147D01*
X015368Y027146D01*
X015368Y027147D01*
X015367Y027147D01*
X015367Y027147D01*
X015367Y027146D01*
X015366Y027146D01*
X015366Y027146D01*
X015366Y027146D01*
X015366Y027147D01*
X015367Y027147D01*
X015367Y027147D01*
X015367Y027146D01*
X015366Y027146D01*
X015365Y027147D02*
X015366Y027147D01*
X015365Y027146D02*
X015365Y027147D01*
X015365Y027147D01*
X015364Y027147D01*
X015364Y027146D01*
X015364Y027146D01*
X015364Y027147D01*
X015364Y027147D01*
X015364Y027147D01*
X015365Y027146D02*
X015364Y027146D01*
X015364Y027146D01*
X015365Y027146D01*
X015365Y027147D01*
X015363Y027147D02*
X015363Y027146D01*
X015363Y027146D01*
X015363Y027146D01*
X015363Y027147D01*
X015363Y027147D01*
X015363Y027147D01*
X015362Y027147D02*
X015362Y027147D01*
X015362Y027146D01*
X015362Y027146D01*
X015361Y027146D02*
X015362Y027147D01*
X015361Y027147D02*
X015360Y027147D01*
X015360Y027146D01*
X015360Y027146D01*
X015361Y027146D01*
X015361Y027146D01*
X015361Y027146D01*
X015360Y027146D01*
X015360Y027147D01*
X015360Y027147D01*
X015360Y027147D01*
X015359Y027147D02*
X015359Y027146D01*
X015359Y027147D01*
X015359Y027147D01*
X015359Y027147D01*
X015361Y027146D02*
X015361Y027146D01*
X015361Y027145D02*
X015361Y027144D01*
X015360Y027145D02*
X015361Y027145D01*
X015360Y027145D02*
X015359Y027145D01*
X015358Y027145D01*
X015357Y027145D01*
X015357Y027145D01*
X015357Y027144D01*
X015357Y027144D01*
X015358Y027144D01*
X015358Y027145D01*
X015360Y027143D02*
X015360Y027145D01*
X015359Y027143D02*
X015360Y027143D01*
X015359Y027143D02*
X015359Y027143D01*
X015356Y027144D02*
X015356Y027145D01*
X015355Y027145D01*
X015355Y027145D01*
X015355Y027144D01*
X015355Y027144D01*
X015356Y027144D01*
X015356Y027144D01*
X015356Y027145D02*
X015356Y027145D01*
X015356Y027146D02*
X015356Y027146D01*
X015355Y027146D01*
X015355Y027146D01*
X015355Y027147D01*
X015355Y027147D01*
X015355Y027146D01*
X015355Y027146D01*
X015354Y027146D01*
X015354Y027146D01*
X015353Y027146D01*
X015353Y027147D01*
X015353Y027146D02*
X015353Y027144D01*
X015353Y027145D02*
X015354Y027145D01*
X015354Y027146D02*
X015354Y027144D01*
X015352Y027146D02*
X015351Y027144D01*
X015371Y027144D02*
X015371Y027144D01*
X015371Y027145D01*
X015371Y027145D01*
X015372Y027145D01*
X015372Y027145D01*
X015372Y027144D01*
X015372Y027144D01*
X015373Y027144D01*
X015374Y027144D01*
X015375Y027144D01*
X015376Y027144D01*
X015376Y027145D01*
X015376Y027145D01*
X015376Y027144D01*
X015377Y027145D02*
X015377Y027144D01*
X015377Y027145D02*
X015377Y027145D01*
X015377Y027145D01*
X015376Y027145D01*
X015377Y027146D02*
X015377Y027147D01*
X015376Y027147D01*
X015375Y027146D01*
X015375Y027146D01*
X015375Y027147D01*
X015375Y027147D01*
X015374Y027147D02*
X015374Y027147D01*
X015374Y027147D01*
X015374Y027146D01*
X015374Y027146D01*
X015374Y027146D01*
X015373Y027146D01*
X015373Y027146D01*
X015373Y027146D01*
X015373Y027147D01*
X015373Y027147D01*
X015373Y027147D01*
X015373Y027147D01*
X015373Y027146D01*
X015372Y027146D01*
X015372Y027146D01*
X015372Y027146D01*
X015372Y027147D01*
X015372Y027147D01*
X015372Y027147D01*
X015371Y027147D01*
X015371Y027147D01*
X015371Y027146D01*
X015371Y027147D01*
X015371Y027146D01*
X015372Y027146D01*
X015372Y027146D01*
X015373Y027145D02*
X015372Y027145D01*
X015372Y027144D01*
X015371Y027144D01*
X015373Y027145D02*
X015374Y027145D01*
X015374Y027144D01*
X015374Y027146D02*
X015374Y027147D01*
X015373Y027147D01*
X015377Y027147D02*
X015377Y027146D01*
X015377Y027147D02*
X015377Y027147D01*
X015378Y027147D01*
X015378Y027147D01*
X015379Y027147D01*
X015379Y027147D01*
X015379Y027146D01*
X015378Y027146D01*
X015378Y027147D01*
X015378Y027147D01*
X015378Y027146D01*
X015378Y027146D01*
X015379Y027146D01*
X015379Y027147D01*
X015379Y027147D01*
X015379Y027147D01*
X015379Y027146D01*
X015379Y027147D02*
X015380Y027147D01*
X015380Y027147D01*
X015380Y027147D01*
X015380Y027146D01*
X015380Y027146D01*
X015380Y027146D01*
X015380Y027147D01*
X015380Y027147D01*
X015381Y027147D01*
X015381Y027146D02*
X015382Y027147D01*
X015382Y027147D01*
X015382Y027147D01*
X015382Y027147D01*
X015382Y027146D01*
X015382Y027146D01*
X015382Y027146D01*
X015382Y027146D01*
X015382Y027147D01*
X015383Y027147D02*
X015383Y027147D01*
X015383Y027146D01*
X015383Y027146D01*
X015384Y027146D01*
X015384Y027146D01*
X015384Y027147D01*
X015384Y027147D01*
X015384Y027147D01*
X015385Y027147D01*
X015386Y027147D01*
X015386Y027147D01*
X015386Y027146D01*
X015386Y027146D01*
X015387Y027146D01*
X015387Y027146D01*
X015387Y027146D01*
X015387Y027146D01*
X015387Y027146D01*
X015387Y027146D01*
X015387Y027146D01*
X015387Y027146D01*
X015387Y027144D01*
X015387Y027144D01*
X015388Y027144D02*
X015388Y027145D01*
X015389Y027145D01*
X015389Y027146D02*
X015389Y027144D01*
X015388Y027144D01*
X015388Y027144D01*
X015388Y027145D02*
X015388Y027145D01*
X015387Y027146D02*
X015387Y027146D01*
X015386Y027147D01*
X015386Y027147D01*
X015387Y027147D01*
X015387Y027147D01*
X015388Y027147D02*
X015388Y027146D01*
X015388Y027146D01*
X015388Y027146D01*
X015388Y027147D01*
X015388Y027147D01*
X015388Y027147D01*
X015389Y027147D02*
X015389Y027147D01*
X015389Y027147D01*
X015389Y027147D01*
X015389Y027147D01*
X015389Y027146D01*
X015389Y027147D01*
X015389Y027146D01*
X015390Y027146D02*
X015390Y027146D01*
X015390Y027146D01*
X015390Y027147D01*
X015390Y027147D01*
X015390Y027147D01*
X015390Y027146D01*
X015390Y027144D01*
X015390Y027144D01*
X015391Y027144D02*
X015391Y027145D01*
X015392Y027145D01*
X015392Y027145D01*
X015392Y027144D01*
X015391Y027144D01*
X015391Y027144D01*
X015391Y027145D02*
X015391Y027145D01*
X015390Y027146D02*
X015390Y027146D01*
X015393Y027144D02*
X015393Y027146D01*
X015394Y027146D02*
X015394Y027144D01*
X015393Y027145D02*
X015394Y027145D01*
X015395Y027145D02*
X015396Y027145D01*
X015397Y027145D01*
X015398Y027145D01*
X015398Y027144D01*
X015398Y027145D01*
X015399Y027145D01*
X015400Y027145D01*
X015401Y027145D01*
X015400Y027145D02*
X015400Y027145D01*
X015400Y027144D01*
X015401Y027144D01*
X015401Y027144D01*
X015401Y027144D01*
X015400Y027144D01*
X015399Y027144D01*
X015398Y027144D01*
X015396Y027144D02*
X015396Y027145D01*
X015396Y027145D01*
X015396Y027144D01*
X015395Y027144D01*
X015395Y027144D01*
X015395Y027144D01*
X015396Y027144D01*
X015400Y027146D02*
X015400Y027144D01*
X015402Y027144D02*
X015403Y027144D01*
X015403Y027145D01*
X015403Y027145D01*
X015403Y027146D01*
X015402Y027146D01*
X015402Y027144D01*
X015404Y027144D02*
X015404Y027145D01*
X015404Y027144D01*
X015404Y027145D02*
X015405Y027145D01*
X015405Y027144D01*
X015406Y027144D01*
X015406Y027144D01*
X015407Y027144D01*
X015407Y027145D01*
X015406Y027145D01*
X015406Y027145D01*
X015405Y027145D01*
X015408Y027143D02*
X015408Y027145D01*
X015408Y027146D02*
X015408Y027146D01*
X015409Y027145D02*
X015409Y027145D01*
X015408Y027145D01*
X015408Y027144D01*
X015409Y027144D01*
X015409Y027144D01*
X015410Y027144D02*
X015408Y027144D01*
X015407Y027143D02*
X015408Y027143D01*
X015407Y027143D02*
X015407Y027143D01*
X015410Y027145D02*
X015410Y027144D01*
X015411Y027144D01*
X015412Y027144D01*
X015413Y027144D01*
X015415Y027146D01*
X015416Y027146D01*
X015416Y027144D01*
X015417Y027144D02*
X015417Y027146D01*
X015417Y027145D02*
X015418Y027145D01*
X015418Y027145D01*
X015418Y027144D01*
X015419Y027144D02*
X015419Y027145D01*
X015420Y027145D01*
X015420Y027145D01*
X015420Y027144D01*
X015419Y027144D01*
X015419Y027144D01*
X015420Y027144D01*
X015421Y027144D02*
X015421Y027145D01*
X015421Y027145D01*
X015421Y027145D01*
X015422Y027145D01*
X015422Y027145D01*
X015422Y027144D01*
X015423Y027144D02*
X015423Y027145D01*
X015424Y027145D01*
X015424Y027145D01*
X015424Y027144D01*
X015423Y027144D01*
X015423Y027144D01*
X015424Y027144D01*
X015426Y027146D01*
X015427Y027145D02*
X015427Y027145D01*
X015428Y027145D01*
X015428Y027146D02*
X015428Y027146D01*
X015428Y027144D01*
X015429Y027144D01*
X015430Y027144D01*
X015430Y027145D01*
X015429Y027145D01*
X015430Y027146D02*
X015430Y027146D01*
X015430Y027145D02*
X015431Y027145D01*
X015432Y027145D01*
X015432Y027144D01*
X015431Y027144D01*
X015430Y027144D01*
X015430Y027143D02*
X015430Y027145D01*
X015432Y027145D02*
X015433Y027145D01*
X015434Y027145D01*
X015435Y027145D01*
X015435Y027144D01*
X015434Y027144D01*
X015433Y027144D01*
X015433Y027144D01*
X015432Y027145D01*
X015432Y027144D02*
X015433Y027144D01*
X015434Y027144D01*
X015435Y027144D02*
X015436Y027144D01*
X015435Y027145D01*
X015436Y027145D01*
X015437Y027145D01*
X015436Y027144D02*
X015436Y027144D01*
X015437Y027144D01*
X015438Y027144D01*
X015438Y027144D01*
X015439Y027144D01*
X015439Y027145D01*
X015438Y027145D01*
X015438Y027146D02*
X015438Y027144D01*
X015437Y027144D01*
X015437Y027144D01*
X015436Y027144D01*
X015435Y027146D02*
X015435Y027146D01*
X015439Y027145D02*
X015439Y027145D01*
X015440Y027145D02*
X015440Y027145D01*
X015440Y027144D01*
X015439Y027144D02*
X015439Y027144D01*
X015440Y027145D02*
X015441Y027145D01*
X015441Y027145D01*
X015441Y027145D01*
X015441Y027144D01*
X015441Y027145D01*
X015442Y027145D02*
X015443Y027145D01*
X015443Y027145D01*
X015443Y027144D01*
X015443Y027144D01*
X015442Y027144D01*
X015442Y027143D02*
X015442Y027145D01*
X015428Y027145D02*
X015428Y027144D01*
X015426Y027144D01*
X015426Y027145D01*
X015427Y027145D01*
X015427Y027144D02*
X015426Y027144D01*
X015427Y027144D02*
X015427Y027144D01*
X015423Y027145D02*
X015423Y027145D01*
X015421Y027145D02*
X015421Y027144D01*
X015419Y027145D02*
X015419Y027145D01*
X015417Y027145D02*
X015417Y027145D01*
X015413Y027145D02*
X015412Y027145D01*
X015412Y027144D01*
X015412Y027145D02*
X015411Y027145D01*
X015410Y027145D01*
X015410Y027144D01*
X015409Y027145D02*
X015410Y027145D01*
X015392Y027144D02*
X015391Y027144D01*
X015386Y027146D02*
X015385Y027144D01*
X015384Y027144D02*
X015384Y027144D01*
X015383Y027144D01*
X015383Y027145D01*
X015384Y027145D01*
X015383Y027145D02*
X015383Y027145D01*
X015382Y027145D02*
X015382Y027145D01*
X015382Y027144D01*
X015382Y027144D01*
X015381Y027145D02*
X015381Y027144D01*
X015381Y027145D02*
X015381Y027145D01*
X015380Y027145D01*
X015380Y027144D01*
X015379Y027144D02*
X015378Y027144D01*
X015378Y027145D01*
X015379Y027145D01*
X015379Y027145D01*
X015379Y027144D01*
X015378Y027144D01*
X015378Y027144D01*
X015378Y027145D02*
X015378Y027145D01*
X015377Y027145D02*
X015377Y027144D01*
X015380Y027146D02*
X015381Y027146D01*
X015381Y027147D01*
X015383Y027147D02*
X015384Y027147D01*
X015384Y027146D01*
X015385Y027146D01*
X015385Y027146D01*
X015385Y027147D01*
X015385Y027147D01*
X015385Y027146D01*
X015385Y027146D01*
X015386Y027146D01*
X015385Y027146D01*
X015384Y027144D02*
X015384Y027144D01*
X015383Y027144D01*
X017267Y005298D02*
X017269Y005348D01*
X017275Y005398D01*
X017285Y005447D01*
X017299Y005495D01*
X017316Y005542D01*
X017337Y005587D01*
X017362Y005631D01*
X017390Y005672D01*
X017422Y005711D01*
X017456Y005748D01*
X017493Y005782D01*
X017533Y005812D01*
X017575Y005839D01*
X017619Y005863D01*
X017665Y005884D01*
X017712Y005900D01*
X017760Y005913D01*
X017810Y005922D01*
X017859Y005927D01*
X017910Y005928D01*
X017960Y005925D01*
X018009Y005918D01*
X018058Y005907D01*
X018106Y005892D01*
X018152Y005874D01*
X018197Y005852D01*
X018240Y005826D01*
X018281Y005797D01*
X018320Y005765D01*
X018356Y005730D01*
X018388Y005692D01*
X018418Y005652D01*
X018445Y005609D01*
X018468Y005565D01*
X018487Y005519D01*
X018503Y005471D01*
X018515Y005422D01*
X018523Y005373D01*
X018527Y005323D01*
X018527Y005273D01*
X018523Y005223D01*
X018515Y005174D01*
X018503Y005125D01*
X018487Y005077D01*
X018468Y005031D01*
X018445Y004987D01*
X018418Y004944D01*
X018388Y004904D01*
X018356Y004866D01*
X018320Y004831D01*
X018281Y004799D01*
X018240Y004770D01*
X018197Y004744D01*
X018152Y004722D01*
X018106Y004704D01*
X018058Y004689D01*
X018009Y004678D01*
X017960Y004671D01*
X017910Y004668D01*
X017859Y004669D01*
X017810Y004674D01*
X017760Y004683D01*
X017712Y004696D01*
X017665Y004712D01*
X017619Y004733D01*
X017575Y004757D01*
X017533Y004784D01*
X017493Y004814D01*
X017456Y004848D01*
X017422Y004885D01*
X017390Y004924D01*
X017362Y004965D01*
X017337Y005009D01*
X017316Y005054D01*
X017299Y005101D01*
X017285Y005149D01*
X017275Y005198D01*
X017269Y005248D01*
X017267Y005298D01*
X017267Y001361D02*
X017269Y001411D01*
X017275Y001461D01*
X017285Y001510D01*
X017299Y001558D01*
X017316Y001605D01*
X017337Y001650D01*
X017362Y001694D01*
X017390Y001735D01*
X017422Y001774D01*
X017456Y001811D01*
X017493Y001845D01*
X017533Y001875D01*
X017575Y001902D01*
X017619Y001926D01*
X017665Y001947D01*
X017712Y001963D01*
X017760Y001976D01*
X017810Y001985D01*
X017859Y001990D01*
X017910Y001991D01*
X017960Y001988D01*
X018009Y001981D01*
X018058Y001970D01*
X018106Y001955D01*
X018152Y001937D01*
X018197Y001915D01*
X018240Y001889D01*
X018281Y001860D01*
X018320Y001828D01*
X018356Y001793D01*
X018388Y001755D01*
X018418Y001715D01*
X018445Y001672D01*
X018468Y001628D01*
X018487Y001582D01*
X018503Y001534D01*
X018515Y001485D01*
X018523Y001436D01*
X018527Y001386D01*
X018527Y001336D01*
X018523Y001286D01*
X018515Y001237D01*
X018503Y001188D01*
X018487Y001140D01*
X018468Y001094D01*
X018445Y001050D01*
X018418Y001007D01*
X018388Y000967D01*
X018356Y000929D01*
X018320Y000894D01*
X018281Y000862D01*
X018240Y000833D01*
X018197Y000807D01*
X018152Y000785D01*
X018106Y000767D01*
X018058Y000752D01*
X018009Y000741D01*
X017960Y000734D01*
X017910Y000731D01*
X017859Y000732D01*
X017810Y000737D01*
X017760Y000746D01*
X017712Y000759D01*
X017665Y000775D01*
X017619Y000796D01*
X017575Y000820D01*
X017533Y000847D01*
X017493Y000877D01*
X017456Y000911D01*
X017422Y000948D01*
X017390Y000987D01*
X017362Y001028D01*
X017337Y001072D01*
X017316Y001117D01*
X017299Y001164D01*
X017285Y001212D01*
X017275Y001261D01*
X017269Y001311D01*
X017267Y001361D01*
D11*
X014717Y002786D02*
X014076Y002786D01*
X014076Y002999D02*
X014076Y002572D01*
X014076Y003217D02*
X014076Y003537D01*
X014183Y003644D01*
X014290Y003644D01*
X014397Y003537D01*
X014397Y003217D01*
X014717Y003217D02*
X014076Y003217D01*
X014397Y003537D02*
X014503Y003644D01*
X014610Y003644D01*
X014717Y003537D01*
X014717Y003217D01*
X014610Y003861D02*
X014397Y003861D01*
X014397Y004182D01*
X014503Y004288D01*
X014610Y004288D01*
X014717Y004182D01*
X014717Y003968D01*
X014610Y003861D01*
X014397Y003861D02*
X014183Y004075D01*
X014076Y004288D01*
X014397Y004506D02*
X014183Y004719D01*
X014076Y004933D01*
X014290Y005150D02*
X014076Y005364D01*
X014717Y005364D01*
X014717Y005577D02*
X014717Y005150D01*
X014610Y004933D02*
X014503Y004933D01*
X014397Y004826D01*
X014397Y004506D01*
X014610Y004506D01*
X014717Y004613D01*
X014717Y004826D01*
X014610Y004933D01*
X014717Y005795D02*
X014290Y006222D01*
X014183Y006222D01*
X014076Y006115D01*
X014076Y005902D01*
X014183Y005795D01*
X014076Y006440D02*
X014076Y006867D01*
X014076Y007084D02*
X014717Y007511D01*
X014076Y007511D01*
X014183Y007729D02*
X014610Y007729D01*
X014717Y007835D01*
X014717Y008049D01*
X014610Y008156D01*
X014397Y008156D01*
X014397Y007942D01*
X014183Y007729D02*
X014076Y007835D01*
X014076Y008049D01*
X014183Y008156D01*
X014076Y007084D02*
X014717Y007084D01*
X014397Y006653D02*
X014397Y006440D01*
X014717Y006440D02*
X014076Y006440D01*
X014717Y006222D02*
X014717Y005795D01*
X014229Y001332D02*
X013865Y001332D01*
X013865Y000604D01*
X014229Y000604D01*
X014350Y000725D01*
X014350Y000846D01*
X014229Y000968D01*
X013865Y000968D01*
X013625Y001332D02*
X013140Y001332D01*
X013382Y001332D02*
X013382Y000604D01*
X012900Y000604D02*
X012900Y001332D01*
X012657Y001089D01*
X012415Y001332D01*
X012415Y000604D01*
X014229Y000968D02*
X014350Y001089D01*
X014350Y001210D01*
X014229Y001332D01*
X017836Y019383D02*
X017836Y019704D01*
X017943Y019810D01*
X018156Y019810D01*
X018263Y019704D01*
X018263Y019383D01*
X018477Y019383D02*
X017836Y019383D01*
X017836Y020028D02*
X017836Y020241D01*
X017836Y020135D02*
X018477Y020135D01*
X018477Y020241D02*
X018477Y020028D01*
X018477Y020457D02*
X018477Y020778D01*
X018370Y020885D01*
X017943Y020885D01*
X017836Y020778D01*
X017836Y020457D01*
X018477Y020457D01*
X018477Y021102D02*
X018477Y021422D01*
X018370Y021529D01*
X017943Y021529D01*
X017836Y021422D01*
X017836Y021102D01*
X018477Y021102D01*
X017943Y021747D02*
X018156Y021960D01*
X018477Y021960D01*
X018156Y021960D02*
X017943Y022174D01*
X017836Y022174D01*
X017836Y022391D02*
X017836Y022711D01*
X017943Y022818D01*
X018050Y022818D01*
X018156Y022711D01*
X018156Y022391D01*
X017836Y022391D02*
X018477Y022391D01*
X018477Y022711D01*
X018370Y022818D01*
X018263Y022818D01*
X018156Y022711D01*
X017943Y023036D02*
X017836Y023142D01*
X017836Y023356D01*
X017943Y023463D01*
X018370Y023463D01*
X018477Y023356D01*
X018477Y023142D01*
X018370Y023036D01*
X017943Y023036D01*
X017836Y023680D02*
X017836Y024107D01*
X017836Y023894D02*
X018477Y023894D01*
X018584Y024325D02*
X018584Y024752D01*
X018263Y024969D02*
X018477Y025183D01*
X018263Y025396D01*
X017836Y025396D01*
X017943Y025614D02*
X017836Y025721D01*
X017836Y025934D01*
X017943Y026041D01*
X018050Y026041D01*
X018156Y025934D01*
X018263Y026041D01*
X018370Y026041D01*
X018477Y025934D01*
X018477Y025721D01*
X018370Y025614D01*
X018156Y025827D02*
X018156Y025934D01*
X018584Y026258D02*
X018584Y026685D01*
X018477Y026903D02*
X018477Y027223D01*
X018370Y027330D01*
X018263Y027330D01*
X018156Y027223D01*
X018156Y026903D01*
X017836Y026903D02*
X018477Y026903D01*
X018156Y027223D02*
X018050Y027330D01*
X017943Y027330D01*
X017836Y027223D01*
X017836Y026903D01*
X017836Y027548D02*
X017836Y027975D01*
X017836Y027761D02*
X018477Y027761D01*
X018263Y024969D02*
X017836Y024969D01*
X017836Y021747D02*
X017943Y021747D01*
D12*
X015338Y025422D02*
X015520Y025604D01*
X015520Y026332D01*
X015338Y026514D01*
X014792Y026514D01*
X014792Y025422D01*
X015338Y025422D01*
X009644Y025333D02*
X009280Y025333D01*
X009462Y025333D02*
X009462Y024241D01*
X009280Y024241D02*
X009644Y024241D01*
X004496Y025968D02*
X004314Y025786D01*
X003768Y025786D01*
X003768Y025422D02*
X003768Y026514D01*
X004314Y026514D01*
X004496Y026332D01*
X004496Y025968D01*
X001631Y026046D02*
X001631Y025682D01*
X001449Y025500D01*
X001085Y025500D01*
X000903Y025682D01*
X000903Y026046D01*
X001085Y026228D01*
X001449Y026228D01*
X001631Y026046D01*
X001631Y026587D02*
X000903Y026587D01*
X000903Y026769D01*
X001085Y026951D01*
X000903Y027133D01*
X001085Y027315D01*
X001631Y027315D01*
X001631Y026951D02*
X001085Y026951D01*
X000903Y025140D02*
X000903Y024594D01*
X001085Y024412D01*
X001449Y024412D01*
X001631Y024594D01*
X001631Y025140D01*
X001631Y024050D02*
X001449Y024050D01*
X001449Y023868D01*
X001631Y023868D01*
X001631Y024050D01*
X001631Y023507D02*
X001449Y023325D01*
X000721Y023325D01*
X000903Y023143D02*
X000903Y023507D01*
X000903Y022784D02*
X000903Y022238D01*
X001085Y022056D01*
X001449Y022056D01*
X001631Y022238D01*
X001631Y022784D01*
X001267Y021696D02*
X001085Y021696D01*
X000903Y021514D01*
X000903Y021150D01*
X001085Y020968D01*
X001449Y020968D01*
X001631Y021150D01*
X001631Y021514D01*
X001267Y021696D02*
X001267Y020968D01*
X000903Y020607D02*
X001813Y020607D01*
X001995Y020425D01*
X001995Y020243D01*
X001631Y019702D02*
X001449Y019884D01*
X001085Y019884D01*
X000903Y019702D01*
X000903Y019338D01*
X001085Y019156D01*
X001449Y019156D01*
X001631Y019338D01*
X001631Y019702D01*
X000903Y018795D02*
X000903Y018613D01*
X001267Y018249D01*
X001631Y018249D02*
X000903Y018249D01*
X000721Y017890D02*
X000539Y017708D01*
X000539Y017162D01*
X001631Y017162D01*
X001449Y016802D02*
X001267Y016620D01*
X001267Y016256D01*
X001085Y016074D01*
X000903Y016256D01*
X000903Y016802D01*
X001267Y017162D02*
X001267Y017708D01*
X001085Y017890D01*
X000721Y017890D01*
X001449Y016802D02*
X001631Y016620D01*
X001631Y016074D01*
X001631Y015715D02*
X001631Y015169D01*
X001449Y014987D01*
X001085Y014987D01*
X000903Y015169D01*
X000903Y015715D01*
X000539Y015715D02*
X001631Y015715D01*
X001631Y014627D02*
X001085Y014627D01*
X000903Y014445D01*
X000903Y013899D01*
X001631Y013899D01*
X001631Y013540D02*
X001631Y012994D01*
X001449Y012812D01*
X001267Y012994D01*
X001267Y013540D01*
X001085Y013540D02*
X001631Y013540D01*
X001085Y013540D02*
X000903Y013358D01*
X000903Y012994D01*
X001085Y012452D02*
X001085Y011724D01*
X001085Y011365D02*
X001267Y011365D01*
X001267Y010637D01*
X001085Y010637D02*
X000903Y010819D01*
X000903Y011183D01*
X001085Y011365D01*
X001631Y011183D02*
X001631Y010819D01*
X001449Y010637D01*
X001085Y010637D01*
X001631Y010276D02*
X001631Y009912D01*
X001631Y010094D02*
X000539Y010094D01*
X000539Y009912D01*
X000539Y009552D02*
X001631Y009552D01*
X001631Y009006D01*
X001449Y008824D01*
X001085Y008824D01*
X000903Y009006D01*
X000903Y009552D01*
X000539Y008463D02*
X000539Y008099D01*
X000539Y008281D02*
X001631Y008281D01*
X001631Y008099D02*
X001631Y008463D01*
X001631Y011724D02*
X000539Y011724D01*
X000539Y012452D02*
X001631Y012452D01*
X000539Y020607D02*
X000357Y020607D01*
D13*
X007804Y028420D02*
X007554Y028670D01*
X007554Y029170D01*
X007804Y029420D01*
X008304Y029420D01*
X008554Y029170D01*
X008804Y029420D01*
X009304Y029420D01*
X009554Y029170D01*
X009804Y029420D01*
X010304Y029420D01*
X010554Y029170D01*
X010804Y029420D01*
X011304Y029420D01*
X011554Y029170D01*
X011554Y028670D01*
X011304Y028420D01*
X010804Y028420D01*
X010554Y028670D01*
X010304Y028420D01*
X009804Y028420D01*
X009554Y028670D01*
X009304Y028420D01*
X008804Y028420D01*
X008554Y028670D01*
X008304Y028420D01*
X007804Y028420D01*
X005586Y008698D02*
X005586Y008198D01*
X005586Y002792D02*
X005586Y002292D01*
X005707Y001254D02*
X005943Y001018D01*
X005943Y000546D01*
X005943Y000900D02*
X005471Y000900D01*
X005471Y001018D02*
X005707Y001254D01*
X005471Y001018D02*
X005471Y000546D01*
X004982Y000546D02*
X004982Y001254D01*
X004746Y001254D02*
X005218Y001254D01*
X004493Y001254D02*
X004493Y000546D01*
X004257Y001018D02*
X004493Y001254D01*
X004257Y001018D02*
X004021Y001254D01*
X004021Y000546D01*
X006373Y000717D02*
X006623Y000467D01*
X007123Y000467D01*
X007373Y000717D01*
X007623Y000467D01*
X008123Y000467D01*
X008373Y000717D01*
X008373Y001217D01*
X008123Y001467D01*
X007623Y001467D01*
X007373Y001217D01*
X007123Y001467D01*
X006623Y001467D01*
X006373Y001217D01*
X006373Y000717D01*
X010310Y000717D02*
X010560Y000467D01*
X011060Y000467D01*
X011310Y000717D01*
X011560Y000467D01*
X012060Y000467D01*
X012310Y000717D01*
X012310Y001217D01*
X012060Y001467D01*
X011560Y001467D01*
X011310Y001217D01*
X011060Y001467D01*
X010560Y001467D01*
X010310Y001217D01*
X010310Y000717D01*
X013586Y002292D02*
X013586Y002792D01*
X013586Y008198D02*
X013586Y008698D01*
D14*
X011595Y027951D02*
X011405Y027951D01*
X011405Y028236D01*
X011305Y028189D02*
X011258Y028236D01*
X011162Y028236D01*
X011115Y028189D01*
X011115Y027998D01*
X011162Y027951D01*
X011258Y027951D01*
X011305Y027998D01*
X011015Y027998D02*
X010968Y027951D01*
X010872Y027951D01*
X010825Y027998D01*
X010872Y028094D02*
X010968Y028094D01*
X011015Y028046D01*
X011015Y027998D01*
X010872Y028094D02*
X010825Y028141D01*
X010825Y028189D01*
X010872Y028236D01*
X010968Y028236D01*
X011015Y028189D01*
X010427Y028144D02*
X010427Y027951D01*
X010427Y028096D02*
X010233Y028096D01*
X010233Y028144D02*
X010330Y028241D01*
X010427Y028144D01*
X010233Y028144D02*
X010233Y027951D01*
X010132Y027999D02*
X010132Y028193D01*
X010084Y028241D01*
X009938Y028241D01*
X009938Y027951D01*
X010084Y027951D01*
X010132Y027999D01*
X009837Y027999D02*
X009789Y027951D01*
X009692Y027951D01*
X009644Y027999D01*
X009692Y028096D02*
X009789Y028096D01*
X009837Y028048D01*
X009837Y027999D01*
X009692Y028096D02*
X009644Y028144D01*
X009644Y028193D01*
X009692Y028241D01*
X009789Y028241D01*
X009837Y028193D01*
X009430Y028189D02*
X009430Y027998D01*
X009382Y027951D01*
X009240Y027951D01*
X009240Y028236D01*
X009382Y028236D01*
X009430Y028189D01*
X009140Y028236D02*
X009140Y027951D01*
X008950Y028236D01*
X008950Y027951D01*
X008850Y027998D02*
X008850Y028094D01*
X008755Y028094D01*
X008850Y028189D02*
X008802Y028236D01*
X008707Y028236D01*
X008660Y028189D01*
X008660Y027998D01*
X008707Y027951D01*
X008802Y027951D01*
X008850Y027998D01*
X008445Y027998D02*
X008398Y027951D01*
X008303Y027951D01*
X008255Y027998D01*
X008255Y028189D01*
X008303Y028236D01*
X008398Y028236D01*
X008445Y028189D01*
X008155Y028189D02*
X008108Y028236D01*
X008013Y028236D01*
X007965Y028189D01*
X007965Y027998D01*
X008013Y027951D01*
X008108Y027951D01*
X008155Y027998D01*
X007865Y028046D02*
X007865Y028236D01*
X007675Y028236D02*
X007675Y028046D01*
X007770Y027951D01*
X007865Y028046D01*
D15*
X017114Y028454D02*
X017304Y028435D01*
X017325Y028371D01*
X017355Y028311D01*
X017234Y028163D01*
X017336Y028061D01*
X017485Y028182D01*
X017544Y028151D01*
X017629Y028356D01*
X017591Y028377D01*
X017559Y028407D01*
X017535Y028443D01*
X017520Y028483D01*
X017515Y028526D01*
X017520Y028570D01*
X017536Y028612D01*
X017561Y028648D01*
X017594Y028678D01*
X017633Y028698D01*
X017676Y028709D01*
X017720Y028710D01*
X017763Y028700D01*
X017802Y028680D01*
X017836Y028651D01*
X017861Y028615D01*
X017878Y028574D01*
X017884Y028530D01*
X017880Y028487D01*
X017865Y028445D01*
X017841Y028408D01*
X017809Y028378D01*
X017770Y028356D01*
X017855Y028151D01*
X017915Y028182D01*
X018063Y028061D01*
X018165Y028163D01*
X018044Y028311D01*
X018075Y028371D01*
X018095Y028435D01*
X018286Y028454D01*
X018286Y028598D01*
X018095Y028618D01*
X018075Y028682D01*
X018044Y028742D01*
X018165Y028890D01*
X018063Y028992D01*
X017915Y028871D01*
X017855Y028902D01*
X017791Y028922D01*
X017772Y029113D01*
X017628Y029113D01*
X017608Y028922D01*
X017544Y028902D01*
X017485Y028871D01*
X017336Y028992D01*
X017234Y028890D01*
X017355Y028742D01*
X017325Y028682D01*
X017304Y028618D01*
X017114Y028598D01*
X017114Y028454D01*
X017114Y028497D02*
X017519Y028497D01*
X017519Y028555D02*
X017114Y028555D01*
X017250Y028612D02*
X017536Y028612D01*
X017585Y028670D02*
X017321Y028670D01*
X017348Y028727D02*
X018051Y028727D01*
X018079Y028670D02*
X017814Y028670D01*
X017863Y028612D02*
X018149Y028612D01*
X018286Y028555D02*
X017881Y028555D01*
X017881Y028497D02*
X018286Y028497D01*
X018140Y028440D02*
X017862Y028440D01*
X017814Y028382D02*
X018078Y028382D01*
X018051Y028325D02*
X017783Y028325D01*
X017807Y028267D02*
X018080Y028267D01*
X018127Y028209D02*
X017831Y028209D01*
X017855Y028152D02*
X017856Y028152D01*
X017952Y028152D02*
X018154Y028152D01*
X018097Y028094D02*
X018022Y028094D01*
X017592Y028267D02*
X017319Y028267D01*
X017349Y028325D02*
X017616Y028325D01*
X017586Y028382D02*
X017321Y028382D01*
X017259Y028440D02*
X017537Y028440D01*
X017568Y028209D02*
X017272Y028209D01*
X017245Y028152D02*
X017447Y028152D01*
X017377Y028094D02*
X017303Y028094D01*
X017543Y028152D02*
X017545Y028152D01*
X017320Y028785D02*
X018079Y028785D01*
X018126Y028843D02*
X017273Y028843D01*
X017244Y028900D02*
X017449Y028900D01*
X017378Y028958D02*
X017302Y028958D01*
X017541Y028900D02*
X017858Y028900D01*
X017787Y028958D02*
X017612Y028958D01*
X017618Y029015D02*
X017782Y029015D01*
X017776Y029073D02*
X017624Y029073D01*
X017951Y028900D02*
X018155Y028900D01*
X018097Y028958D02*
X018021Y028958D01*
D16*
X016803Y028048D03*
X016322Y028048D03*
X015840Y028048D03*
D17*
X015840Y028049D03*
D18*
X016321Y028049D03*
X016803Y028049D03*
D19*
X016322Y028050D03*
X015840Y028050D03*
D20*
X016803Y028050D03*
D21*
X016322Y028051D03*
X015840Y028051D03*
D22*
X016803Y028051D03*
D23*
X015840Y028052D03*
D24*
X016322Y028052D03*
D25*
X016803Y028052D03*
D26*
X015840Y028053D03*
D27*
X016322Y028053D03*
D28*
X016803Y028053D03*
D29*
X016322Y028054D03*
X015840Y028054D03*
D30*
X016803Y028054D03*
D31*
X015840Y028055D03*
D32*
X016322Y028055D03*
X016804Y028055D03*
D33*
X016803Y028056D03*
X015840Y028056D03*
D34*
X016322Y028056D03*
D35*
X015840Y028057D03*
D36*
X016322Y028057D03*
X016804Y028057D03*
D37*
X016803Y028058D03*
X015840Y028058D03*
D38*
X016322Y028058D03*
D39*
X016322Y028059D03*
X015840Y028059D03*
X016803Y028059D03*
D40*
X016803Y028060D03*
X015840Y028060D03*
D41*
X015840Y028280D03*
X016322Y028280D03*
X016322Y028060D03*
X016804Y028280D03*
D42*
X015840Y028061D03*
D43*
X016322Y028061D03*
X016803Y028061D03*
D44*
X015840Y028062D03*
X015840Y028278D03*
D45*
X016322Y028062D03*
X016804Y028062D03*
D46*
X016804Y028063D03*
X016322Y028063D03*
X015840Y028063D03*
D47*
X015840Y028064D03*
D48*
X016322Y028064D03*
X016804Y028064D03*
D49*
X015840Y028065D03*
X015840Y028275D03*
D50*
X016322Y028065D03*
X016803Y028065D03*
D51*
X016804Y028066D03*
X016322Y028066D03*
X015840Y028066D03*
D52*
X015840Y028067D03*
X015840Y028273D03*
D53*
X016322Y028067D03*
D54*
X016322Y028273D03*
X016804Y028273D03*
X016804Y028067D03*
D55*
X015840Y028068D03*
D56*
X016322Y028068D03*
X016322Y028272D03*
X016804Y028272D03*
X016804Y028068D03*
D57*
X016803Y028069D03*
X015840Y028069D03*
D58*
X016322Y028069D03*
D59*
X015840Y028070D03*
D60*
X016322Y028070D03*
X016322Y028270D03*
D61*
X015840Y028270D03*
X016804Y028270D03*
X016804Y028070D03*
D62*
X015840Y028071D03*
D63*
X016322Y028071D03*
X016804Y028071D03*
D64*
X015840Y028072D03*
X015840Y028268D03*
D65*
X016322Y028268D03*
X016322Y028072D03*
D66*
X016804Y028072D03*
X016804Y028268D03*
D67*
X015840Y028267D03*
X015840Y028073D03*
D68*
X016322Y028073D03*
X016322Y028267D03*
X016804Y028267D03*
X016804Y028073D03*
D69*
X015840Y028074D03*
D70*
X016322Y028074D03*
D71*
X016804Y028074D03*
D72*
X016322Y028075D03*
X016322Y028265D03*
X015840Y028265D03*
X015840Y028075D03*
D73*
X016804Y028075D03*
X016804Y028265D03*
D74*
X016804Y028076D03*
X015840Y028076D03*
D75*
X016322Y028076D03*
D76*
X015840Y028077D03*
X015840Y028263D03*
D77*
X016322Y028263D03*
X016322Y028077D03*
D78*
X016804Y028077D03*
X016804Y028263D03*
D79*
X015840Y028262D03*
X015840Y028078D03*
D80*
X016322Y028078D03*
X016322Y028262D03*
D81*
X016804Y028262D03*
X016804Y028078D03*
D82*
X015840Y028079D03*
D83*
X016322Y028079D03*
X016804Y028079D03*
D84*
X015840Y028080D03*
X015840Y028260D03*
D85*
X016322Y028260D03*
X016322Y028080D03*
X016804Y028080D03*
X016804Y028260D03*
D86*
X016804Y028081D03*
X015841Y028081D03*
D87*
X016322Y028081D03*
D88*
X016322Y028082D03*
X016322Y028258D03*
X015841Y028258D03*
X015841Y028082D03*
X016804Y028082D03*
X016804Y028258D03*
D89*
X016804Y028257D03*
X016804Y028083D03*
X015841Y028083D03*
X015841Y028257D03*
D90*
X016322Y028257D03*
X016322Y028083D03*
D91*
X016322Y028084D03*
X015841Y028084D03*
X016804Y028084D03*
D92*
X016804Y028085D03*
X016804Y028255D03*
X016322Y028255D03*
X016322Y028085D03*
X015841Y028085D03*
D93*
X015841Y028086D03*
X016804Y028086D03*
D94*
X016322Y028086D03*
D95*
X015840Y028087D03*
X015840Y028253D03*
D96*
X016322Y028087D03*
X016804Y028087D03*
X016804Y028253D03*
D97*
X015840Y028252D03*
X015840Y028088D03*
D98*
X016322Y028088D03*
X016322Y028252D03*
D99*
X016804Y028252D03*
X016804Y028088D03*
D100*
X015840Y028089D03*
D101*
X016322Y028089D03*
D102*
X016804Y028089D03*
D103*
X016804Y028090D03*
X016804Y028250D03*
X016322Y028250D03*
X016322Y028090D03*
X015840Y028090D03*
X015840Y028250D03*
D104*
X015840Y028091D03*
X016804Y028091D03*
D105*
X016322Y028091D03*
D106*
X015840Y028092D03*
D107*
X016322Y028092D03*
X016322Y028248D03*
D108*
X015841Y028248D03*
X016804Y028248D03*
X016804Y028092D03*
D109*
X016804Y028093D03*
X016804Y028247D03*
X016322Y028247D03*
X015841Y028247D03*
X015841Y028093D03*
D110*
X016322Y028093D03*
X016322Y028246D03*
D111*
X015841Y028094D03*
X016804Y028094D03*
D112*
X016322Y028094D03*
D113*
X015840Y028095D03*
X015840Y028245D03*
X016804Y028245D03*
D114*
X016322Y028245D03*
X016322Y028095D03*
D115*
X016804Y028095D03*
D116*
X016804Y028096D03*
X016322Y028096D03*
X015840Y028096D03*
D117*
X015840Y028097D03*
X015840Y028242D03*
D118*
X016322Y028243D03*
X016322Y028242D03*
X016322Y028097D03*
D119*
X015841Y028243D03*
X016804Y028243D03*
X016804Y028097D03*
D120*
X016804Y028098D03*
X016804Y028242D03*
X015841Y028098D03*
D121*
X016322Y028098D03*
D122*
X015840Y028099D03*
D123*
X016322Y028099D03*
D124*
X016804Y028099D03*
D125*
X016804Y028100D03*
X015840Y028100D03*
X015840Y028240D03*
D126*
X016322Y028240D03*
X016322Y028100D03*
D127*
X015841Y028101D03*
X016804Y028101D03*
D128*
X016322Y028102D03*
X016322Y028101D03*
X016322Y028238D03*
D129*
X015841Y028102D03*
X016804Y028102D03*
D130*
X016804Y028103D03*
X016804Y028237D03*
X016322Y028237D03*
X016322Y028236D03*
X016322Y028103D03*
X015840Y028103D03*
X015840Y028237D03*
D131*
X015841Y028104D03*
X016804Y028104D03*
D132*
X016322Y028104D03*
D133*
X015841Y028105D03*
X016804Y028105D03*
D134*
X016322Y028105D03*
X016322Y028235D03*
D135*
X015840Y028106D03*
X016804Y028106D03*
D136*
X016322Y028106D03*
X016322Y028233D03*
D137*
X015841Y028233D03*
X015841Y028107D03*
X016804Y028107D03*
X016804Y028233D03*
D138*
X016322Y028232D03*
X016322Y028108D03*
X016322Y028107D03*
D139*
X015840Y028108D03*
X015840Y028232D03*
X016804Y028232D03*
X016804Y028108D03*
D140*
X016804Y028109D03*
X015840Y028109D03*
D141*
X016322Y028109D03*
D142*
X015841Y028110D03*
X016804Y028110D03*
D143*
X016322Y028110D03*
X016322Y028230D03*
X016322Y028231D03*
D144*
X016322Y028228D03*
X016322Y028112D03*
X016322Y028111D03*
X015840Y028111D03*
X015840Y028228D03*
X016804Y028228D03*
X016804Y028111D03*
D145*
X016804Y028112D03*
X015841Y028112D03*
D146*
X015840Y028113D03*
X015840Y028227D03*
X016804Y028227D03*
X016804Y028113D03*
D147*
X016322Y028113D03*
X016322Y028226D03*
X016322Y028227D03*
D148*
X015841Y028114D03*
X016804Y028114D03*
D149*
X016322Y028114D03*
X016322Y028224D03*
D150*
X015840Y028225D03*
X015840Y028115D03*
X016804Y028115D03*
X016804Y028225D03*
D151*
X016322Y028225D03*
X016322Y028115D03*
D152*
X015841Y028116D03*
X016804Y028116D03*
D153*
X016322Y028117D03*
X016322Y028116D03*
X016322Y028222D03*
X016322Y028223D03*
D154*
X015840Y028223D03*
X015840Y028117D03*
X016804Y028117D03*
X016804Y028222D03*
X016804Y028223D03*
D155*
X016804Y028118D03*
X015841Y028118D03*
X015841Y028221D03*
X015841Y028222D03*
D156*
X016323Y028118D03*
D157*
X015840Y028119D03*
X016804Y028119D03*
D158*
X016322Y028119D03*
D159*
X015841Y028120D03*
X016804Y028120D03*
D160*
X016322Y028120D03*
X016322Y028220D03*
X016322Y028221D03*
D161*
X016322Y028218D03*
X016322Y028122D03*
X016322Y028121D03*
X015840Y028121D03*
X015840Y028218D03*
X016804Y028218D03*
X016804Y028122D03*
X016804Y028121D03*
D162*
X016804Y028217D03*
X016323Y028217D03*
X015841Y028217D03*
X015841Y028123D03*
X015841Y028122D03*
D163*
X016322Y028123D03*
X016322Y028215D03*
X016322Y028216D03*
D164*
X015840Y028216D03*
X016804Y028216D03*
X016804Y028215D03*
X016804Y028123D03*
D165*
X016804Y028124D03*
X015840Y028124D03*
D166*
X016322Y028124D03*
D167*
X015841Y028125D03*
X015841Y028215D03*
X016804Y028125D03*
D168*
X016323Y028125D03*
D169*
X015840Y028126D03*
X015840Y028213D03*
X016804Y028213D03*
X016804Y028127D03*
X016804Y028126D03*
D170*
X016322Y028127D03*
X016322Y028126D03*
X016322Y028213D03*
D171*
X016323Y028212D03*
X015841Y028212D03*
X015841Y028128D03*
X015841Y028127D03*
X016804Y028128D03*
X016804Y028212D03*
D172*
X016322Y028211D03*
X016322Y028210D03*
X016322Y028130D03*
X016322Y028128D03*
D173*
X015840Y028129D03*
X016804Y028129D03*
D174*
X016322Y028129D03*
D175*
X015841Y028130D03*
X015841Y028131D03*
D176*
X015840Y028210D03*
X015840Y028211D03*
X016804Y028211D03*
X016804Y028210D03*
X016804Y028130D03*
D177*
X016322Y028131D03*
X016322Y028132D03*
X016322Y028133D03*
X016322Y028207D03*
X016322Y028208D03*
D178*
X015840Y028208D03*
X015840Y028207D03*
X015840Y028132D03*
X016804Y028133D03*
X016804Y028132D03*
X016804Y028131D03*
X016804Y028207D03*
X016804Y028208D03*
D179*
X016804Y028206D03*
X016323Y028206D03*
X015841Y028206D03*
X015841Y028205D03*
X015841Y028133D03*
D180*
X015841Y028134D03*
X016804Y028134D03*
D181*
X016804Y028204D03*
X016322Y028204D03*
X016322Y028134D03*
X015840Y028204D03*
D182*
X015840Y028136D03*
X015840Y028135D03*
X016322Y028136D03*
X016322Y028135D03*
X016322Y028203D03*
X016322Y028205D03*
X016804Y028205D03*
X016804Y028203D03*
X016804Y028136D03*
X016804Y028135D03*
D183*
X016804Y028137D03*
X016804Y028202D03*
X016323Y028202D03*
X016323Y028137D03*
X015841Y028138D03*
X015841Y028137D03*
X015841Y028201D03*
X015841Y028202D03*
X015841Y028203D03*
D184*
X016322Y028201D03*
X016322Y028200D03*
X016322Y028140D03*
X016322Y028138D03*
D185*
X015840Y028200D03*
X016804Y028201D03*
X016804Y028200D03*
X016804Y028140D03*
X016804Y028138D03*
D186*
X016804Y028139D03*
X016804Y028199D03*
X015840Y028139D03*
D187*
X016322Y028139D03*
X016322Y028199D03*
D188*
X015841Y028198D03*
X015841Y028197D03*
X015841Y028142D03*
X015841Y028141D03*
X015841Y028140D03*
X016804Y028141D03*
X016804Y028198D03*
D189*
X016323Y028198D03*
X016323Y028141D03*
D190*
X016322Y028142D03*
X016322Y028143D03*
X016322Y028145D03*
X016322Y028195D03*
X016322Y028196D03*
X016322Y028197D03*
D191*
X015840Y028196D03*
X015840Y028195D03*
X015840Y028143D03*
X016804Y028145D03*
X016804Y028143D03*
X016804Y028142D03*
X016804Y028195D03*
X016804Y028196D03*
X016804Y028197D03*
D192*
X016804Y028194D03*
X016804Y028144D03*
X015840Y028144D03*
D193*
X016322Y028144D03*
X016322Y028194D03*
D194*
X016323Y028193D03*
X016323Y028146D03*
X015841Y028147D03*
X015841Y028148D03*
X015841Y028146D03*
X015841Y028145D03*
X015841Y028192D03*
X015841Y028193D03*
X016804Y028193D03*
X016804Y028146D03*
D195*
X016322Y028147D03*
X016322Y028148D03*
X016322Y028150D03*
X016322Y028151D03*
X016322Y028188D03*
X016322Y028190D03*
X016322Y028191D03*
X016322Y028192D03*
D196*
X015840Y028191D03*
X015840Y028190D03*
X015840Y028150D03*
X016804Y028151D03*
X016804Y028150D03*
X016804Y028148D03*
X016804Y028147D03*
X016804Y028188D03*
X016804Y028190D03*
X016804Y028191D03*
X016804Y028192D03*
D197*
X016804Y028189D03*
X016804Y028149D03*
X015840Y028149D03*
D198*
X016322Y028149D03*
X016322Y028189D03*
D199*
X015841Y028188D03*
X015841Y028187D03*
X015841Y028186D03*
X015841Y028185D03*
X015841Y028155D03*
X015841Y028153D03*
X015841Y028152D03*
X015841Y028151D03*
X016804Y028153D03*
X016804Y028152D03*
X016804Y028186D03*
X016804Y028187D03*
D200*
X016323Y028187D03*
X016323Y028186D03*
X016323Y028153D03*
X016323Y028152D03*
D201*
X015841Y028154D03*
X015841Y028184D03*
X015841Y028189D03*
D202*
X016322Y028184D03*
X016322Y028179D03*
X016322Y028159D03*
X016322Y028154D03*
D203*
X015840Y028159D03*
X016804Y028159D03*
X016804Y028154D03*
X016804Y028179D03*
X016804Y028184D03*
D204*
X016322Y028185D03*
X016322Y028183D03*
X016322Y028182D03*
X016322Y028181D03*
X016322Y028180D03*
X016322Y028178D03*
X016322Y028177D03*
X016322Y028162D03*
X016322Y028161D03*
X016322Y028160D03*
X016322Y028158D03*
X016322Y028157D03*
X016322Y028156D03*
X016322Y028155D03*
D205*
X015840Y028156D03*
X015840Y028157D03*
X015840Y028158D03*
X015840Y028181D03*
X015840Y028182D03*
X015840Y028183D03*
X016804Y028185D03*
X016804Y028183D03*
X016804Y028182D03*
X016804Y028181D03*
X016804Y028180D03*
X016804Y028178D03*
X016804Y028177D03*
X016804Y028176D03*
X016804Y028163D03*
X016804Y028162D03*
X016804Y028161D03*
X016804Y028160D03*
X016804Y028158D03*
X016804Y028157D03*
X016804Y028156D03*
X016804Y028155D03*
D206*
X016804Y028165D03*
X016804Y028166D03*
X016804Y028167D03*
X016804Y028168D03*
X016804Y028170D03*
X016804Y028171D03*
X016804Y028172D03*
X016804Y028173D03*
X016804Y028175D03*
X016323Y028176D03*
X016323Y028175D03*
X016323Y028173D03*
X016323Y028172D03*
X016323Y028171D03*
X016323Y028170D03*
X016323Y028168D03*
X016323Y028167D03*
X016323Y028166D03*
X016323Y028165D03*
X016323Y028163D03*
X015841Y028163D03*
X015841Y028162D03*
X015841Y028161D03*
X015841Y028160D03*
X015841Y028165D03*
X015841Y028166D03*
X015841Y028167D03*
X015841Y028168D03*
X015841Y028170D03*
X015841Y028171D03*
X015841Y028172D03*
X015841Y028173D03*
X015841Y028175D03*
X015841Y028176D03*
X015841Y028177D03*
X015841Y028178D03*
X015841Y028180D03*
D207*
X015841Y028179D03*
X015841Y028174D03*
X015841Y028169D03*
X015841Y028164D03*
X016323Y028164D03*
X016323Y028169D03*
X016323Y028174D03*
X016804Y028174D03*
X016804Y028169D03*
X016804Y028164D03*
D208*
X015841Y028194D03*
D209*
X015841Y028199D03*
D210*
X015841Y028209D03*
X016804Y028209D03*
D211*
X016323Y028209D03*
D212*
X015841Y028214D03*
D213*
X016322Y028214D03*
D214*
X016804Y028214D03*
D215*
X016804Y028219D03*
X015841Y028219D03*
D216*
X016322Y028219D03*
D217*
X015840Y028220D03*
X016804Y028221D03*
X016804Y028220D03*
D218*
X016804Y028224D03*
X015841Y028224D03*
D219*
X015841Y028226D03*
X016804Y028226D03*
D220*
X016804Y028229D03*
X015841Y028229D03*
D221*
X016322Y028229D03*
D222*
X015840Y028230D03*
X016804Y028230D03*
D223*
X016804Y028231D03*
X015841Y028231D03*
D224*
X015840Y028234D03*
X016804Y028234D03*
D225*
X016322Y028234D03*
D226*
X015840Y028235D03*
X016804Y028235D03*
D227*
X016804Y028236D03*
X015841Y028236D03*
D228*
X015840Y028238D03*
X016804Y028238D03*
D229*
X016804Y028239D03*
X015841Y028239D03*
D230*
X016322Y028239D03*
D231*
X016804Y028240D03*
D232*
X016804Y028241D03*
X015840Y028241D03*
D233*
X016322Y028241D03*
D234*
X016322Y028244D03*
X015840Y028244D03*
X016804Y028244D03*
D235*
X015840Y028246D03*
D236*
X016804Y028246D03*
D237*
X015840Y028249D03*
D238*
X016322Y028249D03*
D239*
X016804Y028249D03*
D240*
X016804Y028251D03*
X015840Y028251D03*
D241*
X016322Y028251D03*
D242*
X016322Y028253D03*
D243*
X015840Y028254D03*
D244*
X016322Y028254D03*
D245*
X016804Y028254D03*
D246*
X015840Y028255D03*
D247*
X015841Y028256D03*
X016322Y028256D03*
X016804Y028256D03*
D248*
X015840Y028259D03*
D249*
X016322Y028259D03*
D250*
X016804Y028259D03*
D251*
X015840Y028261D03*
D252*
X016322Y028261D03*
X016804Y028261D03*
D253*
X016804Y028264D03*
X015840Y028264D03*
D254*
X016322Y028264D03*
D255*
X015840Y028266D03*
D256*
X016322Y028266D03*
D257*
X016804Y028266D03*
D258*
X016322Y028269D03*
X015840Y028269D03*
D259*
X016804Y028269D03*
D260*
X015840Y028271D03*
D261*
X016322Y028271D03*
D262*
X016804Y028271D03*
D263*
X015840Y028272D03*
D264*
X015840Y028274D03*
D265*
X016322Y028274D03*
D266*
X016804Y028274D03*
D267*
X016322Y028275D03*
D268*
X016804Y028275D03*
D269*
X015840Y028276D03*
D270*
X016322Y028276D03*
X016804Y028276D03*
D271*
X016803Y028277D03*
X015840Y028277D03*
D272*
X016322Y028277D03*
D273*
X016322Y028278D03*
D274*
X016804Y028278D03*
D275*
X015840Y028279D03*
D276*
X016322Y028279D03*
X016804Y028279D03*
D277*
X015840Y028281D03*
D278*
X016322Y028281D03*
X016804Y028281D03*
D279*
X016804Y028282D03*
X015840Y028282D03*
D280*
X016322Y028282D03*
D281*
X015840Y028283D03*
X016804Y028283D03*
D282*
X016322Y028283D03*
D283*
X015840Y028284D03*
D284*
X016322Y028284D03*
D285*
X016803Y028284D03*
D286*
X016804Y028285D03*
X015840Y028285D03*
D287*
X016322Y028285D03*
D288*
X015840Y028286D03*
D289*
X016322Y028286D03*
D290*
X016803Y028286D03*
D291*
X015840Y028287D03*
D292*
X016322Y028287D03*
D293*
X016803Y028287D03*
D294*
X016322Y028288D03*
X015840Y028288D03*
D295*
X016803Y028288D03*
D296*
X015840Y028289D03*
D297*
X016321Y028289D03*
X016803Y028289D03*
D298*
X015840Y028290D03*
D299*
X016322Y028290D03*
D300*
X016803Y028290D03*
D301*
X015840Y028291D03*
D302*
X016322Y028291D03*
D303*
X016803Y028291D03*
D304*
X016322Y028292D03*
X015840Y028292D03*
D305*
X016803Y028292D03*
D306*
X001584Y007571D03*
X001584Y007090D03*
X001584Y006608D03*
D307*
X001583Y006608D03*
D308*
X001583Y007089D03*
X001583Y007571D03*
D309*
X001582Y007090D03*
X001582Y006608D03*
D310*
X001582Y007571D03*
D311*
X001581Y007090D03*
X001581Y006608D03*
D312*
X001581Y007571D03*
D313*
X001580Y006608D03*
D314*
X001580Y007090D03*
D315*
X001580Y007571D03*
D316*
X001579Y006608D03*
D317*
X001579Y007090D03*
D318*
X001579Y007571D03*
D319*
X001578Y007090D03*
X001578Y006608D03*
D320*
X001578Y007571D03*
D321*
X001577Y006608D03*
D322*
X001577Y007090D03*
X001577Y007572D03*
D323*
X001576Y007571D03*
X001576Y006608D03*
D324*
X001576Y007090D03*
D325*
X001575Y006608D03*
D326*
X001575Y007090D03*
X001575Y007572D03*
D327*
X001574Y007571D03*
X001574Y006608D03*
D328*
X001574Y007090D03*
D329*
X001573Y007090D03*
X001573Y006608D03*
X001573Y007571D03*
D330*
X001572Y007571D03*
X001572Y006608D03*
D331*
X001352Y006608D03*
X001352Y007090D03*
X001572Y007090D03*
X001352Y007572D03*
D332*
X001571Y006608D03*
D333*
X001571Y007090D03*
X001571Y007571D03*
D334*
X001570Y006608D03*
X001354Y006608D03*
D335*
X001570Y007090D03*
X001570Y007572D03*
D336*
X001569Y007572D03*
X001569Y007090D03*
X001569Y006608D03*
D337*
X001568Y006608D03*
D338*
X001568Y007090D03*
X001568Y007572D03*
D339*
X001567Y006608D03*
X001357Y006608D03*
D340*
X001567Y007090D03*
X001567Y007571D03*
D341*
X001566Y007572D03*
X001566Y007090D03*
X001566Y006608D03*
D342*
X001565Y006608D03*
X001359Y006608D03*
D343*
X001565Y007090D03*
D344*
X001359Y007090D03*
X001359Y007572D03*
X001565Y007572D03*
D345*
X001564Y006608D03*
D346*
X001564Y007090D03*
X001360Y007090D03*
X001360Y007572D03*
X001564Y007572D03*
D347*
X001563Y007571D03*
X001563Y006608D03*
D348*
X001563Y007090D03*
D349*
X001562Y006608D03*
D350*
X001562Y007090D03*
X001362Y007090D03*
D351*
X001362Y006608D03*
X001362Y007572D03*
X001562Y007572D03*
D352*
X001561Y006608D03*
D353*
X001561Y007090D03*
X001561Y007572D03*
D354*
X001560Y006608D03*
X001364Y006608D03*
D355*
X001364Y007090D03*
X001560Y007090D03*
D356*
X001560Y007572D03*
X001364Y007572D03*
D357*
X001365Y006608D03*
X001559Y006608D03*
D358*
X001559Y007090D03*
X001365Y007090D03*
X001365Y007572D03*
X001559Y007572D03*
D359*
X001558Y006608D03*
D360*
X001558Y007090D03*
D361*
X001558Y007572D03*
D362*
X001557Y007090D03*
X001367Y007090D03*
X001367Y006608D03*
X001557Y006608D03*
D363*
X001557Y007572D03*
X001367Y007572D03*
D364*
X001556Y007572D03*
X001556Y006608D03*
D365*
X001556Y007090D03*
D366*
X001555Y006608D03*
X001369Y006608D03*
D367*
X001369Y007090D03*
X001555Y007090D03*
D368*
X001555Y007572D03*
X001369Y007572D03*
D369*
X001370Y006608D03*
X001554Y006608D03*
D370*
X001554Y007090D03*
X001370Y007090D03*
D371*
X001370Y007572D03*
X001554Y007572D03*
D372*
X001553Y006608D03*
D373*
X001553Y007090D03*
X001553Y007572D03*
D374*
X001552Y006608D03*
X001372Y006608D03*
D375*
X001372Y007090D03*
X001552Y007090D03*
X001552Y007572D03*
X001372Y007572D03*
D376*
X001551Y007572D03*
X001551Y006609D03*
D377*
X001551Y007090D03*
D378*
X001550Y007090D03*
X001374Y007090D03*
X001374Y006609D03*
X001550Y006609D03*
X001550Y007572D03*
X001374Y007572D03*
D379*
X001375Y007572D03*
X001549Y007572D03*
X001549Y006609D03*
X001375Y006609D03*
D380*
X001375Y007090D03*
X001549Y007090D03*
D381*
X001548Y007090D03*
X001548Y006609D03*
X001548Y007572D03*
D382*
X001547Y007572D03*
X001377Y007572D03*
X001377Y007090D03*
X001547Y007090D03*
X001547Y006609D03*
D383*
X001546Y006609D03*
X001546Y007572D03*
D384*
X001546Y007090D03*
D385*
X001545Y006608D03*
X001379Y006608D03*
D386*
X001545Y007090D03*
X001545Y007572D03*
X001379Y007572D03*
D387*
X001380Y006608D03*
X001544Y006608D03*
D388*
X001544Y007090D03*
X001380Y007090D03*
D389*
X001380Y007572D03*
X001544Y007572D03*
D390*
X001543Y006608D03*
D391*
X001543Y007090D03*
D392*
X001543Y007572D03*
D393*
X001542Y007572D03*
X001382Y007572D03*
X001382Y007090D03*
X001542Y007090D03*
X001542Y006608D03*
X001382Y006608D03*
D394*
X001541Y006608D03*
X001541Y007572D03*
D395*
X001541Y007090D03*
D396*
X001540Y006608D03*
D397*
X001540Y007090D03*
X001384Y007090D03*
D398*
X001384Y006609D03*
X001384Y007572D03*
X001540Y007572D03*
D399*
X001539Y007572D03*
X001385Y007572D03*
X001385Y007090D03*
X001385Y006609D03*
X001539Y006609D03*
D400*
X001539Y007090D03*
X001386Y007090D03*
D401*
X001538Y006609D03*
X001538Y007572D03*
D402*
X001538Y007090D03*
D403*
X001537Y006608D03*
X001387Y006608D03*
X001387Y007572D03*
D404*
X001387Y007090D03*
X001537Y007090D03*
D405*
X001537Y007572D03*
D406*
X001536Y007572D03*
X001536Y007090D03*
X001536Y006608D03*
D407*
X001535Y006608D03*
X001390Y006608D03*
D408*
X001389Y007090D03*
X001390Y007090D03*
X001535Y007090D03*
D409*
X001389Y006609D03*
X001389Y007572D03*
X001535Y007572D03*
D410*
X001534Y007572D03*
X001390Y007572D03*
X001534Y006609D03*
D411*
X001534Y007090D03*
D412*
X001533Y006608D03*
D413*
X001533Y007090D03*
D414*
X001533Y007572D03*
D415*
X001532Y007572D03*
X001532Y006608D03*
X001392Y006608D03*
D416*
X001392Y007090D03*
X001532Y007090D03*
D417*
X001531Y006609D03*
X001531Y007572D03*
D418*
X001530Y007090D03*
X001531Y007090D03*
X001394Y007090D03*
D419*
X001530Y006609D03*
X001530Y007572D03*
D420*
X001529Y007572D03*
X001395Y007572D03*
X001395Y007090D03*
X001396Y007090D03*
X001529Y007090D03*
X001529Y006608D03*
X001395Y006608D03*
D421*
X001528Y006609D03*
X001528Y007572D03*
D422*
X001528Y007090D03*
D423*
X001527Y006609D03*
X001527Y007572D03*
D424*
X001527Y007090D03*
X001397Y007090D03*
D425*
X001526Y006608D03*
X001526Y007572D03*
D426*
X001526Y007090D03*
X001399Y007090D03*
D427*
X001399Y006609D03*
X001525Y006609D03*
X001525Y007572D03*
X001399Y007572D03*
D428*
X001400Y007090D03*
X001524Y007090D03*
X001525Y007090D03*
D429*
X001524Y006608D03*
X001400Y006608D03*
X001400Y007572D03*
X001524Y007572D03*
D430*
X001523Y007572D03*
X001523Y006608D03*
D431*
X001523Y007090D03*
D432*
X001522Y006609D03*
X001522Y007572D03*
D433*
X001522Y007090D03*
X001402Y007090D03*
X001401Y007090D03*
D434*
X001404Y007090D03*
X001520Y007090D03*
X001521Y007090D03*
X001521Y006608D03*
X001404Y006608D03*
X001404Y007572D03*
X001521Y007572D03*
D435*
X001520Y007572D03*
X001520Y006609D03*
D436*
X001519Y006608D03*
X001405Y006608D03*
X001405Y007572D03*
X001519Y007572D03*
D437*
X001519Y007090D03*
X001406Y007090D03*
X001405Y007090D03*
D438*
X001518Y006609D03*
X001518Y007572D03*
D439*
X001518Y007090D03*
X001408Y007090D03*
D440*
X001407Y006608D03*
X001517Y006608D03*
X001517Y007572D03*
X001407Y007572D03*
D441*
X001407Y007090D03*
X001517Y007090D03*
D442*
X001516Y006609D03*
X001516Y007572D03*
D443*
X001515Y007090D03*
X001516Y007090D03*
X001410Y007090D03*
X001409Y007090D03*
D444*
X001409Y006608D03*
X001515Y006608D03*
X001515Y007572D03*
X001410Y007572D03*
X001409Y007572D03*
D445*
X001514Y007572D03*
X001514Y006609D03*
X001411Y006609D03*
X001410Y006609D03*
D446*
X001514Y007091D03*
D447*
X001513Y006608D03*
X001513Y007572D03*
D448*
X001513Y007090D03*
D449*
X001512Y006609D03*
X001512Y007572D03*
D450*
X001512Y007090D03*
X001412Y007090D03*
X001411Y007090D03*
D451*
X001414Y007090D03*
X001510Y007090D03*
X001511Y007090D03*
X001511Y006608D03*
X001414Y006608D03*
X001414Y007572D03*
X001510Y007572D03*
X001511Y007572D03*
D452*
X001415Y007572D03*
X001415Y007091D03*
X001415Y006609D03*
X001509Y006609D03*
X001510Y006609D03*
D453*
X001509Y007090D03*
X001417Y007090D03*
X001416Y007090D03*
D454*
X001416Y006608D03*
X001416Y007572D03*
X001417Y007572D03*
X001509Y007572D03*
D455*
X001508Y007572D03*
X001508Y006608D03*
D456*
X001508Y007090D03*
D457*
X001507Y006609D03*
X001417Y006609D03*
X001507Y007572D03*
D458*
X001507Y007091D03*
D459*
X001506Y006608D03*
X001419Y006608D03*
X001419Y007572D03*
X001505Y007572D03*
X001506Y007572D03*
D460*
X001505Y007090D03*
X001506Y007090D03*
X001419Y007090D03*
D461*
X001420Y007091D03*
X001420Y006609D03*
X001504Y006609D03*
X001505Y006609D03*
X001504Y007572D03*
X001420Y007572D03*
D462*
X001421Y007090D03*
X001422Y007090D03*
X001502Y007090D03*
X001504Y007090D03*
D463*
X001503Y006608D03*
X001503Y007572D03*
D464*
X001503Y007090D03*
D465*
X001502Y006609D03*
X001501Y006609D03*
D466*
X001422Y006608D03*
X001421Y006608D03*
X001421Y007572D03*
X001422Y007572D03*
X001502Y007572D03*
D467*
X001501Y007090D03*
X001500Y007090D03*
X001499Y007090D03*
X001425Y007090D03*
X001424Y007090D03*
D468*
X001424Y006608D03*
X001425Y006608D03*
X001500Y006608D03*
X001499Y007572D03*
X001500Y007572D03*
X001501Y007572D03*
X001425Y007572D03*
X001424Y007572D03*
D469*
X001426Y007572D03*
X001426Y007091D03*
X001426Y006609D03*
X001427Y006609D03*
X001499Y006609D03*
D470*
X001498Y006609D03*
X001498Y007572D03*
D471*
X001428Y007572D03*
X001428Y007090D03*
X001498Y007090D03*
X001428Y006608D03*
D472*
X001496Y006608D03*
X001497Y006608D03*
X001496Y007090D03*
X001497Y007090D03*
X001429Y007090D03*
X001427Y007090D03*
X001427Y007572D03*
X001429Y007572D03*
X001496Y007572D03*
X001497Y007572D03*
D473*
X001495Y007572D03*
X001430Y007572D03*
X001430Y007091D03*
X001495Y007091D03*
X001494Y006609D03*
X001495Y006609D03*
X001431Y006609D03*
X001430Y006609D03*
X001429Y006609D03*
D474*
X001431Y007090D03*
X001432Y007090D03*
X001492Y007090D03*
X001494Y007090D03*
D475*
X001432Y006608D03*
X001431Y007572D03*
X001432Y007572D03*
X001492Y007572D03*
X001494Y007572D03*
D476*
X001493Y007572D03*
X001433Y007572D03*
X001493Y006608D03*
D477*
X001493Y007090D03*
X001433Y007090D03*
D478*
X001434Y006609D03*
X001435Y006609D03*
X001490Y006609D03*
X001491Y006609D03*
X001492Y006609D03*
X001491Y007572D03*
X001434Y007572D03*
D479*
X001434Y007091D03*
X001491Y007091D03*
D480*
X001490Y007090D03*
X001489Y007090D03*
X001487Y007090D03*
X001437Y007090D03*
X001436Y007090D03*
X001435Y007090D03*
D481*
X001436Y006608D03*
X001437Y006608D03*
X001489Y006608D03*
X001489Y007572D03*
X001490Y007572D03*
X001487Y007572D03*
X001437Y007572D03*
X001436Y007572D03*
X001435Y007572D03*
D482*
X001438Y007572D03*
X001488Y007572D03*
X001488Y006608D03*
D483*
X001488Y007090D03*
X001438Y007090D03*
D484*
X001439Y007091D03*
X001486Y007091D03*
X001485Y006609D03*
X001484Y006609D03*
X001486Y006609D03*
X001487Y006609D03*
X001440Y006609D03*
X001439Y006609D03*
X001439Y007572D03*
X001486Y007572D03*
D485*
X001485Y007090D03*
X001484Y007090D03*
X001482Y007090D03*
X001481Y007090D03*
X001444Y007090D03*
X001442Y007090D03*
X001441Y007090D03*
X001440Y007090D03*
D486*
X001441Y006608D03*
X001442Y006608D03*
X001482Y006608D03*
X001481Y007572D03*
X001482Y007572D03*
X001484Y007572D03*
X001485Y007572D03*
X001444Y007572D03*
X001442Y007572D03*
X001441Y007572D03*
X001440Y007572D03*
D487*
X001443Y007572D03*
X001483Y007572D03*
X001483Y006608D03*
D488*
X001483Y007090D03*
X001443Y007090D03*
D489*
X001444Y006609D03*
X001445Y006609D03*
X001446Y006609D03*
X001447Y006609D03*
X001477Y006609D03*
X001479Y006609D03*
X001480Y006609D03*
X001481Y006609D03*
X001480Y007572D03*
X001479Y007572D03*
X001446Y007572D03*
X001445Y007572D03*
D490*
X001445Y007091D03*
X001446Y007091D03*
X001479Y007091D03*
X001480Y007091D03*
D491*
X001478Y006609D03*
X001448Y006609D03*
X001443Y006609D03*
D492*
X001448Y007090D03*
X001453Y007090D03*
X001473Y007090D03*
X001478Y007090D03*
D493*
X001473Y006608D03*
X001473Y007572D03*
X001478Y007572D03*
X001453Y007572D03*
X001448Y007572D03*
D494*
X001447Y007090D03*
X001449Y007090D03*
X001450Y007090D03*
X001451Y007090D03*
X001452Y007090D03*
X001454Y007090D03*
X001455Y007090D03*
X001470Y007090D03*
X001471Y007090D03*
X001472Y007090D03*
X001474Y007090D03*
X001475Y007090D03*
X001476Y007090D03*
X001477Y007090D03*
D495*
X001476Y006608D03*
X001475Y006608D03*
X001474Y006608D03*
X001451Y006608D03*
X001450Y006608D03*
X001449Y006608D03*
X001449Y007572D03*
X001450Y007572D03*
X001451Y007572D03*
X001452Y007572D03*
X001454Y007572D03*
X001455Y007572D03*
X001456Y007572D03*
X001447Y007572D03*
X001469Y007572D03*
X001470Y007572D03*
X001471Y007572D03*
X001472Y007572D03*
X001474Y007572D03*
X001475Y007572D03*
X001476Y007572D03*
X001477Y007572D03*
D496*
X001467Y007572D03*
X001466Y007572D03*
X001465Y007572D03*
X001464Y007572D03*
X001462Y007572D03*
X001461Y007572D03*
X001460Y007572D03*
X001459Y007572D03*
X001457Y007572D03*
X001456Y007091D03*
X001457Y007091D03*
X001459Y007091D03*
X001460Y007091D03*
X001461Y007091D03*
X001462Y007091D03*
X001464Y007091D03*
X001465Y007091D03*
X001466Y007091D03*
X001467Y007091D03*
X001469Y007091D03*
X001469Y006609D03*
X001470Y006609D03*
X001471Y006609D03*
X001472Y006609D03*
X001467Y006609D03*
X001466Y006609D03*
X001465Y006609D03*
X001464Y006609D03*
X001462Y006609D03*
X001461Y006609D03*
X001460Y006609D03*
X001459Y006609D03*
X001457Y006609D03*
X001456Y006609D03*
X001455Y006609D03*
X001454Y006609D03*
X001452Y006609D03*
D497*
X001453Y006609D03*
X001458Y006609D03*
X001463Y006609D03*
X001468Y006609D03*
X001468Y007091D03*
X001463Y007091D03*
X001458Y007091D03*
X001458Y007572D03*
X001463Y007572D03*
X001468Y007572D03*
D498*
X001438Y006609D03*
D499*
X001433Y006609D03*
D500*
X001423Y006609D03*
X001423Y007572D03*
D501*
X001423Y007091D03*
D502*
X001418Y006609D03*
D503*
X001418Y007090D03*
D504*
X001418Y007572D03*
D505*
X001413Y007572D03*
X001413Y006609D03*
D506*
X001413Y007090D03*
D507*
X001412Y006608D03*
X001411Y007572D03*
X001412Y007572D03*
D508*
X001408Y007572D03*
X001408Y006609D03*
D509*
X001406Y006609D03*
X001406Y007572D03*
D510*
X001403Y007572D03*
X001403Y006609D03*
D511*
X001403Y007090D03*
D512*
X001402Y006608D03*
X001402Y007572D03*
D513*
X001401Y007572D03*
X001401Y006609D03*
D514*
X001398Y006608D03*
X001398Y007572D03*
D515*
X001398Y007090D03*
D516*
X001397Y006608D03*
X001397Y007572D03*
D517*
X001396Y007572D03*
X001396Y006609D03*
D518*
X001394Y006608D03*
X001394Y007572D03*
D519*
X001393Y007572D03*
X001393Y006609D03*
D520*
X001393Y007090D03*
D521*
X001392Y007572D03*
D522*
X001391Y007572D03*
X001391Y006608D03*
D523*
X001391Y007090D03*
D524*
X001388Y007090D03*
X001388Y006608D03*
X001388Y007572D03*
D525*
X001386Y006608D03*
D526*
X001386Y007572D03*
D527*
X001383Y006608D03*
D528*
X001383Y007090D03*
D529*
X001383Y007572D03*
D530*
X001381Y007572D03*
X001381Y006608D03*
D531*
X001381Y007090D03*
D532*
X001379Y007090D03*
D533*
X001378Y006608D03*
D534*
X001378Y007090D03*
D535*
X001378Y007572D03*
D536*
X001377Y006608D03*
D537*
X001376Y006609D03*
X001376Y007090D03*
X001376Y007572D03*
D538*
X001373Y006608D03*
D539*
X001373Y007090D03*
D540*
X001373Y007572D03*
D541*
X001371Y006608D03*
D542*
X001371Y007090D03*
X001371Y007572D03*
D543*
X001368Y007572D03*
X001368Y006608D03*
D544*
X001368Y007090D03*
D545*
X001366Y006608D03*
D546*
X001366Y007090D03*
D547*
X001366Y007572D03*
D548*
X001363Y007090D03*
X001363Y006608D03*
D549*
X001363Y007572D03*
D550*
X001361Y006608D03*
D551*
X001361Y007090D03*
D552*
X001361Y007572D03*
D553*
X001360Y006608D03*
D554*
X001358Y006608D03*
D555*
X001358Y007090D03*
D556*
X001358Y007572D03*
D557*
X001357Y007090D03*
D558*
X001357Y007572D03*
D559*
X001356Y006608D03*
D560*
X001356Y007090D03*
X001356Y007572D03*
D561*
X001355Y007571D03*
X001355Y006608D03*
D562*
X001355Y007090D03*
D563*
X001354Y007090D03*
D564*
X001354Y007572D03*
D565*
X001353Y006608D03*
D566*
X001353Y007090D03*
X001353Y007572D03*
D567*
X001351Y006608D03*
D568*
X001351Y007090D03*
X001351Y007572D03*
D569*
X001350Y007572D03*
X001350Y006608D03*
D570*
X001350Y007090D03*
D571*
X001349Y006608D03*
X001349Y007572D03*
D572*
X001349Y007090D03*
D573*
X001348Y006608D03*
D574*
X001348Y007090D03*
D575*
X001348Y007571D03*
D576*
X001347Y007572D03*
X001347Y006608D03*
D577*
X001347Y007090D03*
D578*
X001346Y006608D03*
D579*
X001346Y007090D03*
D580*
X001346Y007571D03*
D581*
X001345Y006608D03*
D582*
X001345Y007090D03*
D583*
X001345Y007571D03*
D584*
X001344Y007090D03*
X001344Y006608D03*
D585*
X001344Y007571D03*
D586*
X001343Y006608D03*
D587*
X001343Y007089D03*
X001343Y007571D03*
D588*
X001342Y006608D03*
D589*
X001342Y007090D03*
D590*
X001342Y007571D03*
D591*
X001341Y006608D03*
D592*
X001341Y007090D03*
D593*
X001341Y007571D03*
D594*
X001340Y007090D03*
X001340Y006608D03*
D595*
X001340Y007571D03*
M02*
