G75*
%MOIN*%
%OFA0B0*%
%FSLAX24Y24*%
%IPPOS*%
%LPD*%
%AMOC8*
5,1,8,0,0,1.08239X$1,22.5*
%
%ADD10R,0.0740X0.0740*%
%ADD11OC8,0.1181*%
%ADD12C,0.0740*%
%ADD13C,0.0740*%
%ADD14C,0.0160*%
%ADD15C,0.0100*%
%ADD16C,0.0060*%
%ADD17C,0.0270*%
D10*
X003133Y020259D03*
X004117Y020259D03*
X005101Y020259D03*
X008645Y023408D03*
X009629Y023408D03*
X010613Y023408D03*
X014156Y020259D03*
X015141Y020259D03*
X016125Y020259D03*
X014353Y011794D03*
X008054Y028920D03*
D11*
X005849Y023015D03*
X007897Y020652D03*
X011361Y020652D03*
X013408Y023015D03*
X016873Y023015D03*
X002385Y023015D03*
D12*
X006086Y008818D02*
X006086Y008078D01*
X007086Y008078D02*
X007086Y008818D01*
X008086Y008818D02*
X008086Y008078D01*
X009086Y008078D02*
X009086Y008818D01*
X010086Y008818D02*
X010086Y008078D01*
X011086Y008078D02*
X011086Y008818D01*
X012086Y008818D02*
X012086Y008078D01*
X013086Y008078D02*
X013086Y008818D01*
X013086Y002912D02*
X013086Y002172D01*
X012086Y002172D02*
X012086Y002912D01*
X011086Y002912D02*
X011086Y002172D01*
X010086Y002172D02*
X010086Y002912D01*
X009086Y002912D02*
X009086Y002172D01*
X008086Y002172D02*
X008086Y002912D01*
X007086Y002912D02*
X007086Y002172D01*
X006086Y002172D02*
X006086Y002912D01*
D13*
X006873Y000967D03*
X007873Y000967D03*
X010810Y000967D03*
X011810Y000967D03*
X012629Y009928D03*
X012629Y010928D03*
X012629Y011928D03*
X012629Y012928D03*
X012629Y013928D03*
X012629Y014928D03*
X012629Y015928D03*
X012629Y016928D03*
X012629Y017928D03*
X012629Y018928D03*
X012629Y019928D03*
X012629Y020928D03*
X007754Y017491D03*
X007754Y016491D03*
X006629Y016928D03*
X006629Y015928D03*
X006629Y014928D03*
X006629Y013928D03*
X006629Y012928D03*
X006629Y011928D03*
X006629Y010928D03*
X006629Y009928D03*
X007754Y012366D03*
X007754Y013366D03*
X006629Y017928D03*
X006629Y018928D03*
X006629Y019928D03*
X006629Y020928D03*
X004330Y024806D03*
X003330Y024806D03*
X002330Y024806D03*
X002566Y028526D03*
X003566Y028526D03*
X004566Y028526D03*
X009054Y028920D03*
X010054Y028920D03*
X011054Y028920D03*
X015353Y011794D03*
X016353Y011794D03*
X017353Y011794D03*
D14*
X000410Y000410D02*
X000410Y029478D01*
X018820Y029478D01*
X018820Y000410D01*
X009170Y000410D01*
X009170Y001662D01*
X009187Y001662D01*
X009374Y001740D01*
X009518Y001883D01*
X009586Y002047D01*
X009653Y001883D01*
X009797Y001740D01*
X009984Y001662D01*
X010187Y001662D01*
X010374Y001740D01*
X010518Y001883D01*
X010586Y002047D01*
X010653Y001883D01*
X010797Y001740D01*
X010984Y001662D01*
X010990Y001662D01*
X010990Y001445D01*
X010911Y001477D01*
X010708Y001477D01*
X010521Y001400D01*
X010378Y001256D01*
X010300Y001069D01*
X010300Y000866D01*
X010378Y000679D01*
X010521Y000535D01*
X010708Y000457D01*
X010911Y000457D01*
X011099Y000535D01*
X011242Y000679D01*
X011310Y000842D01*
X011378Y000679D01*
X011521Y000535D01*
X011708Y000457D01*
X011911Y000457D01*
X012099Y000535D01*
X012242Y000679D01*
X012320Y000866D01*
X012320Y001051D01*
X012370Y001101D01*
X012370Y001738D01*
X012374Y001740D01*
X012518Y001883D01*
X012564Y001996D01*
X012576Y001961D01*
X012615Y001884D01*
X012666Y001814D01*
X012727Y001753D01*
X012797Y001702D01*
X012874Y001663D01*
X012957Y001636D01*
X013042Y001622D01*
X013056Y001622D01*
X013056Y002512D01*
X013116Y002512D01*
X013116Y002572D01*
X013636Y002572D01*
X013636Y002955D01*
X013622Y003041D01*
X013595Y003123D01*
X013556Y003200D01*
X013505Y003271D01*
X013444Y003332D01*
X013374Y003383D01*
X013297Y003422D01*
X013214Y003449D01*
X013129Y003462D01*
X013116Y003462D01*
X013116Y002572D01*
X013056Y002572D01*
X013056Y003462D01*
X013042Y003462D01*
X012957Y003449D01*
X012874Y003422D01*
X012797Y003383D01*
X012727Y003332D01*
X012666Y003271D01*
X012615Y003200D01*
X012576Y003123D01*
X012564Y003089D01*
X012518Y003201D01*
X012374Y003345D01*
X012187Y003422D01*
X011984Y003422D01*
X011797Y003345D01*
X011653Y003201D01*
X011586Y003038D01*
X011518Y003201D01*
X011374Y003345D01*
X011187Y003422D01*
X010984Y003422D01*
X010797Y003345D01*
X010653Y003201D01*
X010586Y003038D01*
X010518Y003201D01*
X010374Y003345D01*
X010187Y003422D01*
X009984Y003422D01*
X009797Y003345D01*
X009653Y003201D01*
X009586Y003038D01*
X009518Y003201D01*
X009374Y003345D01*
X009187Y003422D01*
X008984Y003422D01*
X008797Y003345D01*
X008653Y003201D01*
X008607Y003089D01*
X008595Y003123D01*
X008556Y003200D01*
X008505Y003271D01*
X008444Y003332D01*
X008374Y003383D01*
X008297Y003422D01*
X008214Y003449D01*
X008129Y003462D01*
X008116Y003462D01*
X008116Y002572D01*
X008056Y002572D01*
X008056Y003462D01*
X008042Y003462D01*
X007957Y003449D01*
X007874Y003422D01*
X007797Y003383D01*
X007727Y003332D01*
X007666Y003271D01*
X007615Y003200D01*
X007576Y003123D01*
X007564Y003089D01*
X007518Y003201D01*
X007374Y003345D01*
X007187Y003422D01*
X007170Y003422D01*
X007170Y003459D01*
X005767Y004862D01*
X005767Y007675D01*
X005797Y007645D01*
X005984Y007568D01*
X006187Y007568D01*
X006374Y007645D01*
X006518Y007789D01*
X006586Y007952D01*
X006653Y007789D01*
X006797Y007645D01*
X006984Y007568D01*
X007187Y007568D01*
X007374Y007645D01*
X007518Y007789D01*
X007586Y007952D01*
X007653Y007789D01*
X007797Y007645D01*
X007984Y007568D01*
X008187Y007568D01*
X008374Y007645D01*
X008518Y007789D01*
X008586Y007952D01*
X008653Y007789D01*
X008797Y007645D01*
X008984Y007568D01*
X009187Y007568D01*
X009374Y007645D01*
X009518Y007789D01*
X009586Y007952D01*
X009653Y007789D01*
X009797Y007645D01*
X009984Y007568D01*
X010187Y007568D01*
X010374Y007645D01*
X010518Y007789D01*
X010586Y007952D01*
X010653Y007789D01*
X010797Y007645D01*
X010984Y007568D01*
X011187Y007568D01*
X011374Y007645D01*
X011518Y007789D01*
X011586Y007952D01*
X011653Y007789D01*
X011797Y007645D01*
X011984Y007568D01*
X012187Y007568D01*
X012374Y007645D01*
X012518Y007789D01*
X012564Y007901D01*
X012576Y007867D01*
X012615Y007789D01*
X012666Y007719D01*
X012727Y007658D01*
X012797Y007607D01*
X012874Y007568D01*
X012957Y007541D01*
X013042Y007528D01*
X013056Y007528D01*
X013056Y008418D01*
X013116Y008418D01*
X013116Y008478D01*
X013636Y008478D01*
X013636Y008861D01*
X013622Y008947D01*
X013595Y009029D01*
X013556Y009106D01*
X013505Y009176D01*
X013444Y009237D01*
X013374Y009288D01*
X013297Y009327D01*
X013214Y009354D01*
X013129Y009368D01*
X013116Y009368D01*
X013116Y008478D01*
X013056Y008478D01*
X013056Y009368D01*
X013042Y009368D01*
X012957Y009354D01*
X012874Y009327D01*
X012797Y009288D01*
X012727Y009237D01*
X012666Y009176D01*
X012615Y009106D01*
X012576Y009029D01*
X012564Y008994D01*
X012518Y009107D01*
X012374Y009250D01*
X012187Y009328D01*
X011984Y009328D01*
X011970Y009322D01*
X011970Y013101D01*
X012357Y013489D01*
X012503Y013428D01*
X012340Y013360D01*
X012196Y013217D01*
X012119Y013029D01*
X012119Y012827D01*
X012196Y012639D01*
X012340Y012496D01*
X012503Y012428D01*
X012340Y012360D01*
X012196Y012217D01*
X012119Y012029D01*
X012119Y011827D01*
X012196Y011639D01*
X012340Y011496D01*
X012503Y011428D01*
X012340Y011360D01*
X012196Y011217D01*
X012119Y011029D01*
X012119Y010827D01*
X012196Y010639D01*
X012340Y010496D01*
X012503Y010428D01*
X012340Y010360D01*
X012196Y010217D01*
X012119Y010029D01*
X012119Y009827D01*
X012196Y009639D01*
X012340Y009496D01*
X012527Y009418D01*
X012730Y009418D01*
X012918Y009496D01*
X013061Y009639D01*
X013139Y009827D01*
X013139Y010029D01*
X013061Y010217D01*
X012918Y010360D01*
X012754Y010428D01*
X012918Y010496D01*
X013061Y010639D01*
X013139Y010827D01*
X013139Y011029D01*
X013061Y011217D01*
X012918Y011360D01*
X012754Y011428D01*
X012918Y011496D01*
X013061Y011639D01*
X013139Y011827D01*
X013139Y012029D01*
X013127Y012058D01*
X016574Y015505D01*
X016635Y015505D01*
X016736Y015547D01*
X016813Y015624D01*
X016855Y015725D01*
X016855Y015835D01*
X016813Y015936D01*
X016736Y016013D01*
X016635Y016055D01*
X016525Y016055D01*
X016424Y016013D01*
X016347Y015936D01*
X016305Y015835D01*
X016305Y015774D01*
X012899Y012368D01*
X012754Y012428D01*
X012918Y012496D01*
X013061Y012639D01*
X013139Y012827D01*
X013139Y013029D01*
X013061Y013217D01*
X012918Y013360D01*
X012754Y013428D01*
X012918Y013496D01*
X013061Y013639D01*
X013139Y013827D01*
X013139Y014029D01*
X013061Y014217D01*
X012918Y014360D01*
X012754Y014428D01*
X012918Y014496D01*
X013061Y014639D01*
X013139Y014827D01*
X013139Y015029D01*
X013061Y015217D01*
X012918Y015360D01*
X012754Y015428D01*
X012918Y015496D01*
X013061Y015639D01*
X013139Y015827D01*
X013139Y016029D01*
X013061Y016217D01*
X012918Y016360D01*
X012754Y016428D01*
X012918Y016496D01*
X013061Y016639D01*
X013139Y016827D01*
X013139Y017029D01*
X013061Y017217D01*
X012918Y017360D01*
X012805Y017407D01*
X012840Y017418D01*
X012917Y017458D01*
X012987Y017509D01*
X013048Y017570D01*
X013099Y017640D01*
X013139Y017717D01*
X013165Y017799D01*
X013179Y017885D01*
X013179Y017908D01*
X012649Y017908D01*
X012649Y017948D01*
X013179Y017948D01*
X013179Y017971D01*
X013165Y018057D01*
X013139Y018139D01*
X013099Y018216D01*
X013048Y018286D01*
X012987Y018348D01*
X012917Y018398D01*
X012840Y018438D01*
X012805Y018449D01*
X012918Y018496D01*
X013061Y018639D01*
X013139Y018827D01*
X013139Y019029D01*
X013061Y019217D01*
X012918Y019360D01*
X012754Y019428D01*
X012918Y019496D01*
X013061Y019639D01*
X013139Y019827D01*
X013139Y020029D01*
X013061Y020217D01*
X012918Y020360D01*
X012754Y020428D01*
X012918Y020496D01*
X013061Y020639D01*
X013139Y020827D01*
X013139Y021029D01*
X013061Y021217D01*
X012918Y021360D01*
X012730Y021438D01*
X012527Y021438D01*
X012340Y021360D01*
X012196Y021217D01*
X012119Y021029D01*
X012119Y020827D01*
X012196Y020639D01*
X012340Y020496D01*
X012503Y020428D01*
X012340Y020360D01*
X012196Y020217D01*
X012119Y020029D01*
X012119Y019827D01*
X012196Y019639D01*
X012340Y019496D01*
X012503Y019428D01*
X012340Y019360D01*
X012196Y019217D01*
X012119Y019029D01*
X012119Y018827D01*
X012196Y018639D01*
X012340Y018496D01*
X012453Y018449D01*
X012418Y018438D01*
X012341Y018398D01*
X012271Y018348D01*
X012209Y018286D01*
X012158Y018216D01*
X012119Y018139D01*
X012092Y018057D01*
X012079Y017971D01*
X012079Y017948D01*
X012609Y017948D01*
X012609Y017908D01*
X012079Y017908D01*
X012079Y017885D01*
X012092Y017799D01*
X012119Y017717D01*
X012158Y017640D01*
X012209Y017570D01*
X012271Y017509D01*
X012341Y017458D01*
X012418Y017418D01*
X012453Y017407D01*
X012340Y017360D01*
X012196Y017217D01*
X012119Y017029D01*
X012119Y016827D01*
X012196Y016639D01*
X012340Y016496D01*
X012503Y016428D01*
X012340Y016360D01*
X012196Y016217D01*
X012119Y016029D01*
X012119Y015827D01*
X012130Y015799D01*
X011790Y015459D01*
X011790Y014557D01*
X007139Y009906D01*
X007139Y010029D01*
X007061Y010217D01*
X006918Y010360D01*
X006754Y010428D01*
X006918Y010496D01*
X007061Y010639D01*
X007139Y010827D01*
X007139Y011029D01*
X007061Y011217D01*
X006918Y011360D01*
X006754Y011428D01*
X006918Y011496D01*
X007061Y011639D01*
X007139Y011827D01*
X007139Y012029D01*
X007061Y012217D01*
X006918Y012360D01*
X006754Y012428D01*
X006918Y012496D01*
X007061Y012639D01*
X007139Y012827D01*
X007139Y013029D01*
X007061Y013217D01*
X006918Y013360D01*
X006754Y013428D01*
X006918Y013496D01*
X007061Y013639D01*
X007139Y013827D01*
X007139Y014029D01*
X007061Y014217D01*
X006918Y014360D01*
X006754Y014428D01*
X006918Y014496D01*
X007061Y014639D01*
X007139Y014827D01*
X007139Y015029D01*
X007061Y015217D01*
X006918Y015360D01*
X006754Y015428D01*
X006918Y015496D01*
X007010Y015588D01*
X007891Y015581D01*
X007892Y015581D01*
X007970Y015581D01*
X008048Y015580D01*
X008048Y015581D01*
X008049Y015581D01*
X008104Y015636D01*
X008160Y015690D01*
X008160Y015691D01*
X009170Y016701D01*
X009170Y022730D01*
X009339Y022898D01*
X010057Y022898D01*
X010094Y022936D01*
X010099Y022928D01*
X010133Y022894D01*
X010174Y022871D01*
X010219Y022858D01*
X010595Y022858D01*
X010595Y023390D01*
X010631Y023390D01*
X010631Y022858D01*
X011007Y022858D01*
X011053Y022871D01*
X011094Y022894D01*
X011127Y022928D01*
X011151Y022969D01*
X011163Y023015D01*
X011163Y023390D01*
X010632Y023390D01*
X010632Y023427D01*
X011163Y023427D01*
X011163Y023802D01*
X011151Y023848D01*
X011127Y023889D01*
X011094Y023922D01*
X011053Y023946D01*
X011007Y023958D01*
X010631Y023958D01*
X010631Y023427D01*
X010595Y023427D01*
X010595Y023958D01*
X010219Y023958D01*
X010174Y023946D01*
X010133Y023922D01*
X010099Y023889D01*
X010094Y023881D01*
X010057Y023918D01*
X009201Y023918D01*
X009137Y023854D01*
X009073Y023918D01*
X008570Y023918D01*
X008570Y028659D01*
X008584Y028632D01*
X008634Y028562D01*
X008696Y028501D01*
X008766Y028450D01*
X008843Y028410D01*
X008925Y028384D01*
X009011Y028370D01*
X009034Y028370D01*
X009034Y028900D01*
X009074Y028900D01*
X009074Y028370D01*
X009097Y028370D01*
X009183Y028384D01*
X009265Y028410D01*
X009342Y028450D01*
X009412Y028501D01*
X009474Y028562D01*
X009524Y028632D01*
X009564Y028709D01*
X009575Y028744D01*
X009622Y028631D01*
X009765Y028488D01*
X009953Y028410D01*
X010081Y028410D01*
X011190Y027301D01*
X011190Y022859D01*
X010131Y021800D01*
X010131Y019255D01*
X010125Y019255D01*
X010024Y019213D01*
X009947Y019136D01*
X009905Y019035D01*
X009905Y018925D01*
X009947Y018824D01*
X010024Y018747D01*
X010125Y018705D01*
X010235Y018705D01*
X010336Y018747D01*
X010413Y018824D01*
X010455Y018925D01*
X010455Y018986D01*
X010511Y019042D01*
X010511Y021642D01*
X011459Y022590D01*
X011570Y022701D01*
X011570Y027459D01*
X010442Y028587D01*
X010486Y028631D01*
X010554Y028795D01*
X010622Y028631D01*
X010765Y028488D01*
X010953Y028410D01*
X011155Y028410D01*
X011343Y028488D01*
X011486Y028631D01*
X011564Y028819D01*
X011564Y029022D01*
X011486Y029209D01*
X011343Y029353D01*
X011155Y029430D01*
X010953Y029430D01*
X010765Y029353D01*
X010622Y029209D01*
X010554Y029046D01*
X010486Y029209D01*
X010343Y029353D01*
X010155Y029430D01*
X009953Y029430D01*
X009765Y029353D01*
X009622Y029209D01*
X009575Y029096D01*
X009564Y029131D01*
X009524Y029208D01*
X009474Y029278D01*
X009412Y029340D01*
X009342Y029391D01*
X009265Y029430D01*
X009183Y029457D01*
X009097Y029470D01*
X009074Y029470D01*
X009074Y028940D01*
X009034Y028940D01*
X009034Y029470D01*
X009011Y029470D01*
X008925Y029457D01*
X008843Y029430D01*
X008766Y029391D01*
X008696Y029340D01*
X008634Y029278D01*
X008584Y029208D01*
X008564Y029170D01*
X008564Y029348D01*
X008482Y029430D01*
X007626Y029430D01*
X007544Y029348D01*
X007544Y028492D01*
X007626Y028410D01*
X008190Y028410D01*
X008190Y023892D01*
X008135Y023836D01*
X008135Y023203D01*
X006915Y021984D01*
X005771Y021984D01*
X005659Y021873D01*
X004990Y021204D01*
X004990Y020769D01*
X004673Y020769D01*
X004609Y020705D01*
X004545Y020769D01*
X003689Y020769D01*
X003651Y020731D01*
X003647Y020739D01*
X003613Y020773D01*
X003572Y020796D01*
X003526Y020809D01*
X003151Y020809D01*
X003151Y020277D01*
X003114Y020277D01*
X003114Y020240D01*
X002583Y020240D01*
X002583Y019865D01*
X002595Y019819D01*
X002619Y019778D01*
X002652Y019745D01*
X002693Y019721D01*
X002739Y019709D01*
X003114Y019709D01*
X003114Y020240D01*
X003151Y020240D01*
X003151Y019709D01*
X003526Y019709D01*
X003572Y019721D01*
X003613Y019745D01*
X003647Y019778D01*
X003651Y019786D01*
X003689Y019749D01*
X004545Y019749D01*
X004609Y019813D01*
X004673Y019749D01*
X005343Y019749D01*
X005590Y019501D01*
X005590Y017259D01*
X005387Y017056D01*
X005387Y004704D01*
X005498Y004593D01*
X006772Y003320D01*
X006653Y003201D01*
X006586Y003038D01*
X006518Y003201D01*
X006374Y003345D01*
X006187Y003422D01*
X005984Y003422D01*
X005797Y003345D01*
X005653Y003201D01*
X005576Y003014D01*
X005576Y002071D01*
X005653Y001883D01*
X005797Y001740D01*
X005984Y001662D01*
X006187Y001662D01*
X006374Y001740D01*
X006518Y001883D01*
X006586Y002047D01*
X006653Y001883D01*
X006797Y001740D01*
X006984Y001662D01*
X007187Y001662D01*
X007374Y001740D01*
X007518Y001883D01*
X007564Y001996D01*
X007576Y001961D01*
X007615Y001884D01*
X007666Y001814D01*
X007727Y001753D01*
X007797Y001702D01*
X007874Y001663D01*
X007957Y001636D01*
X008042Y001622D01*
X008056Y001622D01*
X008056Y002512D01*
X008116Y002512D01*
X008116Y001622D01*
X008129Y001622D01*
X008214Y001636D01*
X008297Y001663D01*
X008374Y001702D01*
X008444Y001753D01*
X008505Y001814D01*
X008556Y001884D01*
X008595Y001961D01*
X008607Y001996D01*
X008653Y001883D01*
X008790Y001746D01*
X008790Y000570D01*
X008197Y000570D01*
X008305Y000679D01*
X008383Y000866D01*
X008383Y001069D01*
X008305Y001256D01*
X008162Y001400D01*
X007974Y001477D01*
X007771Y001477D01*
X007584Y001400D01*
X007441Y001256D01*
X007373Y001093D01*
X007305Y001256D01*
X007162Y001400D01*
X006974Y001477D01*
X006771Y001477D01*
X006584Y001400D01*
X006441Y001256D01*
X006363Y001069D01*
X006363Y000866D01*
X006441Y000679D01*
X006584Y000535D01*
X006771Y000457D01*
X006974Y000457D01*
X007016Y000475D01*
X007081Y000410D01*
X000410Y000410D01*
X000410Y000497D02*
X006676Y000497D01*
X006464Y000656D02*
X000410Y000656D01*
X000410Y000814D02*
X006384Y000814D01*
X006363Y000973D02*
X001720Y000973D01*
X001848Y001026D02*
X001532Y000895D01*
X001190Y000895D01*
X000874Y001026D01*
X000632Y001268D01*
X000501Y001584D01*
X000501Y001926D01*
X000632Y002242D01*
X000874Y002484D01*
X001190Y002615D01*
X001532Y002615D01*
X001848Y002484D01*
X002090Y002242D01*
X002221Y001926D01*
X002221Y001584D01*
X002090Y001268D01*
X001848Y001026D01*
X001953Y001131D02*
X006389Y001131D01*
X006474Y001290D02*
X002099Y001290D01*
X002165Y001448D02*
X006700Y001448D01*
X006771Y001765D02*
X006400Y001765D01*
X006535Y001924D02*
X006637Y001924D01*
X007045Y001448D02*
X007700Y001448D01*
X007474Y001290D02*
X007272Y001290D01*
X007357Y001131D02*
X007389Y001131D01*
X007400Y001765D02*
X007715Y001765D01*
X007595Y001924D02*
X007535Y001924D01*
X008056Y001924D02*
X008116Y001924D01*
X008116Y002082D02*
X008056Y002082D01*
X008056Y002241D02*
X008116Y002241D01*
X008116Y002399D02*
X008056Y002399D01*
X008056Y002716D02*
X008116Y002716D01*
X008116Y002875D02*
X008056Y002875D01*
X008056Y003033D02*
X008116Y003033D01*
X008116Y003192D02*
X008056Y003192D01*
X008056Y003350D02*
X008116Y003350D01*
X008419Y003350D02*
X008810Y003350D01*
X008649Y003192D02*
X008560Y003192D01*
X009361Y003350D02*
X009810Y003350D01*
X009649Y003192D02*
X009522Y003192D01*
X010361Y003350D02*
X010810Y003350D01*
X010649Y003192D02*
X010522Y003192D01*
X011361Y003350D02*
X011810Y003350D01*
X011649Y003192D02*
X011522Y003192D01*
X010637Y001924D02*
X010535Y001924D01*
X010400Y001765D02*
X010771Y001765D01*
X010638Y001448D02*
X009170Y001448D01*
X009170Y001290D02*
X010411Y001290D01*
X010326Y001131D02*
X009170Y001131D01*
X009170Y000973D02*
X010300Y000973D01*
X010321Y000814D02*
X009170Y000814D01*
X009170Y000656D02*
X010401Y000656D01*
X010613Y000497D02*
X009170Y000497D01*
X008790Y000656D02*
X008282Y000656D01*
X008361Y000814D02*
X008790Y000814D01*
X008790Y000973D02*
X008383Y000973D01*
X008357Y001131D02*
X008790Y001131D01*
X008790Y001290D02*
X008272Y001290D01*
X008045Y001448D02*
X008790Y001448D01*
X008790Y001607D02*
X002221Y001607D01*
X002221Y001765D02*
X005771Y001765D01*
X005637Y001924D02*
X002221Y001924D01*
X002156Y002082D02*
X005576Y002082D01*
X005576Y002241D02*
X002091Y002241D01*
X001933Y002399D02*
X005576Y002399D01*
X005576Y002558D02*
X001670Y002558D01*
X001052Y002558D02*
X000410Y002558D01*
X000410Y002716D02*
X005576Y002716D01*
X005576Y002875D02*
X000410Y002875D01*
X000410Y003033D02*
X005584Y003033D01*
X005649Y003192D02*
X000410Y003192D01*
X000410Y003350D02*
X005810Y003350D01*
X006266Y003826D02*
X000410Y003826D01*
X000410Y003984D02*
X006107Y003984D01*
X005949Y004143D02*
X000410Y004143D01*
X000410Y004301D02*
X005790Y004301D01*
X005632Y004460D02*
X001584Y004460D01*
X001532Y004438D02*
X001848Y004569D01*
X002090Y004811D01*
X002221Y005127D01*
X002221Y005469D01*
X002090Y005785D01*
X001848Y006027D01*
X001532Y006158D01*
X001190Y006158D01*
X000874Y006027D01*
X000632Y005785D01*
X000501Y005469D01*
X000501Y005127D01*
X000632Y004811D01*
X000874Y004569D01*
X001190Y004438D01*
X001532Y004438D01*
X001139Y004460D02*
X000410Y004460D01*
X000410Y004618D02*
X000825Y004618D01*
X000667Y004777D02*
X000410Y004777D01*
X000410Y004935D02*
X000581Y004935D01*
X000515Y005094D02*
X000410Y005094D01*
X000410Y005252D02*
X000501Y005252D01*
X000501Y005411D02*
X000410Y005411D01*
X000410Y005569D02*
X000543Y005569D01*
X000608Y005728D02*
X000410Y005728D01*
X000410Y005886D02*
X000733Y005886D01*
X000916Y006045D02*
X000410Y006045D01*
X000410Y006203D02*
X005387Y006203D01*
X005387Y006045D02*
X001806Y006045D01*
X001989Y005886D02*
X005387Y005886D01*
X005387Y005728D02*
X002114Y005728D01*
X002180Y005569D02*
X005387Y005569D01*
X005387Y005411D02*
X002221Y005411D01*
X002221Y005252D02*
X005387Y005252D01*
X005387Y005094D02*
X002207Y005094D01*
X002141Y004935D02*
X005387Y004935D01*
X005387Y004777D02*
X002056Y004777D01*
X001897Y004618D02*
X005473Y004618D01*
X005767Y004935D02*
X017116Y004935D01*
X017168Y004811D02*
X017037Y005127D01*
X017037Y005469D01*
X017168Y005785D01*
X017409Y006027D01*
X017725Y006158D01*
X018068Y006158D01*
X018384Y006027D01*
X018626Y005785D01*
X018756Y005469D01*
X018756Y005127D01*
X018626Y004811D01*
X018384Y004569D01*
X018068Y004438D01*
X017725Y004438D01*
X017409Y004569D01*
X017168Y004811D01*
X017202Y004777D02*
X005852Y004777D01*
X006011Y004618D02*
X017361Y004618D01*
X017674Y004460D02*
X006169Y004460D01*
X006328Y004301D02*
X018820Y004301D01*
X018820Y004143D02*
X006486Y004143D01*
X006645Y003984D02*
X018820Y003984D01*
X018820Y003826D02*
X006803Y003826D01*
X006962Y003667D02*
X018820Y003667D01*
X018820Y003509D02*
X007120Y003509D01*
X006741Y003350D02*
X006361Y003350D01*
X006522Y003192D02*
X006649Y003192D01*
X006583Y003509D02*
X000410Y003509D01*
X000410Y003667D02*
X006424Y003667D01*
X007361Y003350D02*
X007752Y003350D01*
X007611Y003192D02*
X007522Y003192D01*
X008056Y001765D02*
X008116Y001765D01*
X008456Y001765D02*
X008771Y001765D01*
X008637Y001924D02*
X008576Y001924D01*
X009170Y001607D02*
X010990Y001607D01*
X010982Y001448D02*
X010990Y001448D01*
X011298Y000814D02*
X011321Y000814D01*
X011401Y000656D02*
X011219Y000656D01*
X011007Y000497D02*
X011613Y000497D01*
X012007Y000497D02*
X018820Y000497D01*
X018820Y000656D02*
X018407Y000656D01*
X018384Y000632D02*
X018626Y000874D01*
X018756Y001190D01*
X018756Y001532D01*
X018626Y001848D01*
X018384Y002090D01*
X018068Y002221D01*
X017725Y002221D01*
X017409Y002090D01*
X017168Y001848D01*
X017037Y001532D01*
X017037Y001190D01*
X017168Y000874D01*
X017409Y000632D01*
X017725Y000501D01*
X018068Y000501D01*
X018384Y000632D01*
X018566Y000814D02*
X018820Y000814D01*
X018820Y000973D02*
X018666Y000973D01*
X018732Y001131D02*
X018820Y001131D01*
X018820Y001290D02*
X018756Y001290D01*
X018756Y001448D02*
X018820Y001448D01*
X018820Y001607D02*
X018726Y001607D01*
X018660Y001765D02*
X018820Y001765D01*
X018820Y001924D02*
X018550Y001924D01*
X018392Y002082D02*
X018820Y002082D01*
X018820Y002241D02*
X013636Y002241D01*
X013636Y002129D02*
X013636Y002512D01*
X013116Y002512D01*
X013116Y001622D01*
X013129Y001622D01*
X013214Y001636D01*
X013297Y001663D01*
X013374Y001702D01*
X013444Y001753D01*
X013505Y001814D01*
X013556Y001884D01*
X013595Y001961D01*
X013622Y002043D01*
X013636Y002129D01*
X013628Y002082D02*
X017401Y002082D01*
X017243Y001924D02*
X013576Y001924D01*
X013456Y001765D02*
X017133Y001765D01*
X017067Y001607D02*
X012370Y001607D01*
X012370Y001448D02*
X017037Y001448D01*
X017037Y001290D02*
X012370Y001290D01*
X012370Y001131D02*
X017061Y001131D01*
X017127Y000973D02*
X012320Y000973D01*
X012298Y000814D02*
X017228Y000814D01*
X017386Y000656D02*
X012219Y000656D01*
X012400Y001765D02*
X012715Y001765D01*
X012595Y001924D02*
X012535Y001924D01*
X013056Y001924D02*
X013116Y001924D01*
X013116Y002082D02*
X013056Y002082D01*
X013056Y002241D02*
X013116Y002241D01*
X013116Y002399D02*
X013056Y002399D01*
X013116Y002558D02*
X018820Y002558D01*
X018820Y002716D02*
X013636Y002716D01*
X013636Y002875D02*
X018820Y002875D01*
X018820Y003033D02*
X013623Y003033D01*
X013560Y003192D02*
X018820Y003192D01*
X018820Y003350D02*
X013419Y003350D01*
X013116Y003350D02*
X013056Y003350D01*
X013056Y003192D02*
X013116Y003192D01*
X013116Y003033D02*
X013056Y003033D01*
X013056Y002875D02*
X013116Y002875D01*
X013116Y002716D02*
X013056Y002716D01*
X012611Y003192D02*
X012522Y003192D01*
X012361Y003350D02*
X012752Y003350D01*
X013636Y002399D02*
X018820Y002399D01*
X018820Y004460D02*
X018119Y004460D01*
X018433Y004618D02*
X018820Y004618D01*
X018820Y004777D02*
X018591Y004777D01*
X018677Y004935D02*
X018820Y004935D01*
X018820Y005094D02*
X018743Y005094D01*
X018756Y005252D02*
X018820Y005252D01*
X018820Y005411D02*
X018756Y005411D01*
X018715Y005569D02*
X018820Y005569D01*
X018820Y005728D02*
X018649Y005728D01*
X018525Y005886D02*
X018820Y005886D01*
X018820Y006045D02*
X018342Y006045D01*
X018820Y006203D02*
X005767Y006203D01*
X005767Y006045D02*
X017451Y006045D01*
X017268Y005886D02*
X005767Y005886D01*
X005767Y005728D02*
X017144Y005728D01*
X017078Y005569D02*
X005767Y005569D01*
X005767Y005411D02*
X017037Y005411D01*
X017037Y005252D02*
X005767Y005252D01*
X005767Y005094D02*
X017051Y005094D01*
X018820Y006362D02*
X005767Y006362D01*
X005767Y006520D02*
X018820Y006520D01*
X018820Y006679D02*
X005767Y006679D01*
X005767Y006837D02*
X018820Y006837D01*
X018820Y006996D02*
X005767Y006996D01*
X005767Y007154D02*
X018820Y007154D01*
X018820Y007313D02*
X005767Y007313D01*
X005767Y007471D02*
X018820Y007471D01*
X018820Y007630D02*
X013404Y007630D01*
X013374Y007607D02*
X013444Y007658D01*
X013505Y007719D01*
X013556Y007789D01*
X013595Y007867D01*
X013622Y007949D01*
X013636Y008034D01*
X013636Y008418D01*
X013116Y008418D01*
X013116Y007528D01*
X013129Y007528D01*
X013214Y007541D01*
X013297Y007568D01*
X013374Y007607D01*
X013555Y007788D02*
X018820Y007788D01*
X018820Y007947D02*
X013621Y007947D01*
X013636Y008105D02*
X018820Y008105D01*
X018820Y008264D02*
X013636Y008264D01*
X013636Y008581D02*
X018820Y008581D01*
X018820Y008739D02*
X013636Y008739D01*
X013630Y008898D02*
X018820Y008898D01*
X018820Y009056D02*
X013581Y009056D01*
X013467Y009215D02*
X018820Y009215D01*
X018820Y009373D02*
X011970Y009373D01*
X011970Y009532D02*
X012304Y009532D01*
X012175Y009690D02*
X011970Y009690D01*
X011970Y009849D02*
X012119Y009849D01*
X012119Y010007D02*
X011970Y010007D01*
X011970Y010166D02*
X012175Y010166D01*
X012304Y010324D02*
X011970Y010324D01*
X011970Y010483D02*
X012372Y010483D01*
X012196Y010641D02*
X011970Y010641D01*
X011970Y010800D02*
X012130Y010800D01*
X012119Y010958D02*
X011970Y010958D01*
X011970Y011117D02*
X012155Y011117D01*
X012255Y011275D02*
X011970Y011275D01*
X011970Y011434D02*
X012490Y011434D01*
X012244Y011592D02*
X011970Y011592D01*
X011970Y011751D02*
X012150Y011751D01*
X012119Y011909D02*
X011970Y011909D01*
X011970Y012068D02*
X012135Y012068D01*
X012206Y012226D02*
X011970Y012226D01*
X011970Y012385D02*
X012398Y012385D01*
X012293Y012543D02*
X011970Y012543D01*
X011970Y012702D02*
X012171Y012702D01*
X012119Y012860D02*
X011970Y012860D01*
X011970Y013019D02*
X012119Y013019D01*
X012180Y013177D02*
X012046Y013177D01*
X012204Y013336D02*
X012315Y013336D01*
X012859Y012385D02*
X012916Y012385D01*
X012965Y012543D02*
X013074Y012543D01*
X013087Y012702D02*
X013233Y012702D01*
X013139Y012860D02*
X013391Y012860D01*
X013550Y013019D02*
X013139Y013019D01*
X013078Y013177D02*
X013708Y013177D01*
X013867Y013336D02*
X012943Y013336D01*
X012914Y013494D02*
X014025Y013494D01*
X014184Y013653D02*
X013067Y013653D01*
X013132Y013811D02*
X014342Y013811D01*
X014501Y013970D02*
X013139Y013970D01*
X013098Y014128D02*
X014659Y014128D01*
X014818Y014287D02*
X012992Y014287D01*
X012795Y014445D02*
X014976Y014445D01*
X015135Y014604D02*
X013026Y014604D01*
X013112Y014762D02*
X015293Y014762D01*
X015452Y014921D02*
X013139Y014921D01*
X013118Y015079D02*
X015610Y015079D01*
X015769Y015238D02*
X013041Y015238D01*
X012832Y015396D02*
X015927Y015396D01*
X016086Y015555D02*
X012977Y015555D01*
X013092Y015713D02*
X016244Y015713D01*
X016320Y015872D02*
X013139Y015872D01*
X013139Y016030D02*
X016465Y016030D01*
X016695Y016030D02*
X018820Y016030D01*
X018820Y015872D02*
X016840Y015872D01*
X016850Y015713D02*
X018820Y015713D01*
X018820Y015555D02*
X016743Y015555D01*
X016465Y015396D02*
X018820Y015396D01*
X018820Y015238D02*
X016306Y015238D01*
X016148Y015079D02*
X018820Y015079D01*
X018820Y014921D02*
X015989Y014921D01*
X015831Y014762D02*
X018820Y014762D01*
X018820Y014604D02*
X015672Y014604D01*
X015514Y014445D02*
X018820Y014445D01*
X018820Y014287D02*
X015355Y014287D01*
X015197Y014128D02*
X018820Y014128D01*
X018820Y013970D02*
X015038Y013970D01*
X014880Y013811D02*
X018820Y013811D01*
X018820Y013653D02*
X014721Y013653D01*
X014563Y013494D02*
X018820Y013494D01*
X018820Y013336D02*
X014404Y013336D01*
X014246Y013177D02*
X018820Y013177D01*
X018820Y013019D02*
X014087Y013019D01*
X013929Y012860D02*
X018820Y012860D01*
X018820Y012702D02*
X013770Y012702D01*
X013612Y012543D02*
X018820Y012543D01*
X018820Y012385D02*
X013453Y012385D01*
X013295Y012226D02*
X013847Y012226D01*
X013843Y012222D02*
X013843Y011366D01*
X013925Y011284D01*
X014781Y011284D01*
X014863Y011366D01*
X014863Y011644D01*
X014921Y011505D01*
X015064Y011362D01*
X015252Y011284D01*
X015455Y011284D01*
X015642Y011362D01*
X015786Y011505D01*
X015832Y011618D01*
X015844Y011583D01*
X015883Y011506D01*
X015934Y011436D01*
X015995Y011375D01*
X016065Y011324D01*
X016142Y011284D01*
X016224Y011258D01*
X016310Y011244D01*
X016333Y011244D01*
X016333Y011774D01*
X016373Y011774D01*
X016373Y011244D01*
X016397Y011244D01*
X016482Y011258D01*
X016564Y011284D01*
X016641Y011324D01*
X016712Y011375D01*
X016773Y011436D01*
X016824Y011506D01*
X016863Y011583D01*
X016874Y011618D01*
X016921Y011505D01*
X017064Y011362D01*
X017252Y011284D01*
X017455Y011284D01*
X017642Y011362D01*
X017786Y011505D01*
X017863Y011693D01*
X017863Y011896D01*
X017786Y012083D01*
X017642Y012227D01*
X017455Y012304D01*
X017252Y012304D01*
X017064Y012227D01*
X016921Y012083D01*
X016874Y011970D01*
X016863Y012005D01*
X016824Y012082D01*
X016773Y012152D01*
X016712Y012214D01*
X016641Y012265D01*
X016564Y012304D01*
X016482Y012331D01*
X016397Y012344D01*
X016373Y012344D01*
X016373Y011814D01*
X016333Y011814D01*
X016333Y012344D01*
X016310Y012344D01*
X016224Y012331D01*
X016142Y012304D01*
X016065Y012265D01*
X015995Y012214D01*
X015934Y012152D01*
X015883Y012082D01*
X015844Y012005D01*
X015832Y011970D01*
X015786Y012083D01*
X015642Y012227D01*
X015455Y012304D01*
X015252Y012304D01*
X015064Y012227D01*
X014921Y012083D01*
X014863Y011944D01*
X014863Y012222D01*
X014781Y012304D01*
X013925Y012304D01*
X013843Y012222D01*
X013843Y012068D02*
X013136Y012068D01*
X013139Y011909D02*
X013843Y011909D01*
X013843Y011751D02*
X013107Y011751D01*
X013014Y011592D02*
X013843Y011592D01*
X013843Y011434D02*
X012768Y011434D01*
X013003Y011275D02*
X016171Y011275D01*
X016333Y011275D02*
X016373Y011275D01*
X016373Y011434D02*
X016333Y011434D01*
X016333Y011592D02*
X016373Y011592D01*
X016373Y011751D02*
X016333Y011751D01*
X016333Y011909D02*
X016373Y011909D01*
X016373Y012068D02*
X016333Y012068D01*
X016333Y012226D02*
X016373Y012226D01*
X016695Y012226D02*
X017064Y012226D01*
X016914Y012068D02*
X016831Y012068D01*
X016866Y011592D02*
X016885Y011592D01*
X016993Y011434D02*
X016770Y011434D01*
X016535Y011275D02*
X018820Y011275D01*
X018820Y011117D02*
X013103Y011117D01*
X013139Y010958D02*
X018820Y010958D01*
X018820Y010800D02*
X013128Y010800D01*
X013062Y010641D02*
X018820Y010641D01*
X018820Y010483D02*
X012886Y010483D01*
X012954Y010324D02*
X018820Y010324D01*
X018820Y010166D02*
X013082Y010166D01*
X013139Y010007D02*
X018820Y010007D01*
X018820Y009849D02*
X013139Y009849D01*
X013082Y009690D02*
X018820Y009690D01*
X018820Y009532D02*
X012954Y009532D01*
X013056Y009215D02*
X013116Y009215D01*
X013116Y009056D02*
X013056Y009056D01*
X013056Y008898D02*
X013116Y008898D01*
X013116Y008739D02*
X013056Y008739D01*
X013056Y008581D02*
X013116Y008581D01*
X013116Y008422D02*
X018820Y008422D01*
X018820Y011434D02*
X017714Y011434D01*
X017822Y011592D02*
X018820Y011592D01*
X018820Y011751D02*
X017863Y011751D01*
X017858Y011909D02*
X018820Y011909D01*
X018820Y012068D02*
X017792Y012068D01*
X017643Y012226D02*
X018820Y012226D01*
X016012Y012226D02*
X015643Y012226D01*
X015792Y012068D02*
X015875Y012068D01*
X015841Y011592D02*
X015822Y011592D01*
X015714Y011434D02*
X015936Y011434D01*
X015064Y012226D02*
X014859Y012226D01*
X014863Y012068D02*
X014914Y012068D01*
X014885Y011592D02*
X014863Y011592D01*
X014863Y011434D02*
X014993Y011434D01*
X013116Y008264D02*
X013056Y008264D01*
X013056Y008105D02*
X013116Y008105D01*
X013116Y007947D02*
X013056Y007947D01*
X013056Y007788D02*
X013116Y007788D01*
X013116Y007630D02*
X013056Y007630D01*
X012767Y007630D02*
X012336Y007630D01*
X012517Y007788D02*
X012616Y007788D01*
X011835Y007630D02*
X011336Y007630D01*
X011517Y007788D02*
X011654Y007788D01*
X011588Y007947D02*
X011583Y007947D01*
X010835Y007630D02*
X010336Y007630D01*
X010517Y007788D02*
X010654Y007788D01*
X010588Y007947D02*
X010583Y007947D01*
X009835Y007630D02*
X009336Y007630D01*
X009517Y007788D02*
X009654Y007788D01*
X009588Y007947D02*
X009583Y007947D01*
X008835Y007630D02*
X008336Y007630D01*
X008517Y007788D02*
X008654Y007788D01*
X008588Y007947D02*
X008583Y007947D01*
X007835Y007630D02*
X007336Y007630D01*
X007517Y007788D02*
X007654Y007788D01*
X007588Y007947D02*
X007583Y007947D01*
X006835Y007630D02*
X006336Y007630D01*
X006517Y007788D02*
X006654Y007788D01*
X006588Y007947D02*
X006583Y007947D01*
X005835Y007630D02*
X005767Y007630D01*
X005387Y007630D02*
X000410Y007630D01*
X000410Y007788D02*
X005387Y007788D01*
X005387Y007947D02*
X000410Y007947D01*
X000410Y008105D02*
X005387Y008105D01*
X005387Y008264D02*
X000410Y008264D01*
X000410Y008422D02*
X005387Y008422D01*
X005387Y008581D02*
X000410Y008581D01*
X000410Y008739D02*
X005387Y008739D01*
X005387Y008898D02*
X000410Y008898D01*
X000410Y009056D02*
X005387Y009056D01*
X005387Y009215D02*
X000410Y009215D01*
X000410Y009373D02*
X005387Y009373D01*
X005387Y009532D02*
X000410Y009532D01*
X000410Y009690D02*
X005387Y009690D01*
X005387Y009849D02*
X000410Y009849D01*
X000410Y010007D02*
X005387Y010007D01*
X005387Y010166D02*
X000410Y010166D01*
X000410Y010324D02*
X005387Y010324D01*
X005387Y010483D02*
X000410Y010483D01*
X000410Y010641D02*
X005387Y010641D01*
X005387Y010800D02*
X000410Y010800D01*
X000410Y010958D02*
X005387Y010958D01*
X005387Y011117D02*
X000410Y011117D01*
X000410Y011275D02*
X005387Y011275D01*
X005387Y011434D02*
X000410Y011434D01*
X000410Y011592D02*
X005387Y011592D01*
X005387Y011751D02*
X000410Y011751D01*
X000410Y011909D02*
X005387Y011909D01*
X005387Y012068D02*
X000410Y012068D01*
X000410Y012226D02*
X005387Y012226D01*
X005387Y012385D02*
X000410Y012385D01*
X000410Y012543D02*
X005387Y012543D01*
X005387Y012702D02*
X000410Y012702D01*
X000410Y012860D02*
X005387Y012860D01*
X005387Y013019D02*
X000410Y013019D01*
X000410Y013177D02*
X005387Y013177D01*
X005387Y013336D02*
X000410Y013336D01*
X000410Y013494D02*
X005387Y013494D01*
X005387Y013653D02*
X000410Y013653D01*
X000410Y013811D02*
X005387Y013811D01*
X005387Y013970D02*
X000410Y013970D01*
X000410Y014128D02*
X005387Y014128D01*
X005387Y014287D02*
X000410Y014287D01*
X000410Y014445D02*
X005387Y014445D01*
X005387Y014604D02*
X000410Y014604D01*
X000410Y014762D02*
X005387Y014762D01*
X005387Y014921D02*
X000410Y014921D01*
X000410Y015079D02*
X005387Y015079D01*
X005387Y015238D02*
X000410Y015238D01*
X000410Y015396D02*
X005387Y015396D01*
X005387Y015555D02*
X000410Y015555D01*
X000410Y015713D02*
X005387Y015713D01*
X005387Y015872D02*
X000410Y015872D01*
X000410Y016030D02*
X005387Y016030D01*
X005387Y016189D02*
X000410Y016189D01*
X000410Y016347D02*
X005387Y016347D01*
X005387Y016506D02*
X000410Y016506D01*
X000410Y016664D02*
X005387Y016664D01*
X005387Y016823D02*
X000410Y016823D01*
X000410Y016981D02*
X005387Y016981D01*
X005471Y017140D02*
X000410Y017140D01*
X000410Y017298D02*
X005590Y017298D01*
X005590Y017457D02*
X000410Y017457D01*
X000410Y017615D02*
X005590Y017615D01*
X005590Y017774D02*
X000410Y017774D01*
X000410Y017932D02*
X005590Y017932D01*
X005590Y018091D02*
X000410Y018091D01*
X000410Y018249D02*
X005590Y018249D01*
X005590Y018408D02*
X000410Y018408D01*
X000410Y018566D02*
X005590Y018566D01*
X005590Y018725D02*
X000410Y018725D01*
X000410Y018883D02*
X005590Y018883D01*
X005590Y019042D02*
X000410Y019042D01*
X000410Y019200D02*
X005590Y019200D01*
X005590Y019359D02*
X000410Y019359D01*
X000410Y019517D02*
X005574Y019517D01*
X005416Y019676D02*
X000410Y019676D01*
X000410Y019834D02*
X002591Y019834D01*
X002583Y019993D02*
X000410Y019993D01*
X000410Y020151D02*
X002583Y020151D01*
X002583Y020277D02*
X003114Y020277D01*
X003114Y020809D01*
X002739Y020809D01*
X002693Y020796D01*
X002652Y020773D01*
X002619Y020739D01*
X002595Y020698D01*
X002583Y020652D01*
X002583Y020277D01*
X002583Y020310D02*
X000410Y020310D01*
X000410Y020468D02*
X002583Y020468D01*
X002583Y020627D02*
X000410Y020627D01*
X000410Y020785D02*
X002673Y020785D01*
X003114Y020785D02*
X003151Y020785D01*
X003151Y020627D02*
X003114Y020627D01*
X003114Y020468D02*
X003151Y020468D01*
X003151Y020310D02*
X003114Y020310D01*
X003114Y020151D02*
X003151Y020151D01*
X003151Y019993D02*
X003114Y019993D01*
X003114Y019834D02*
X003151Y019834D01*
X003592Y020785D02*
X004990Y020785D01*
X004990Y020944D02*
X000410Y020944D01*
X000410Y021102D02*
X004990Y021102D01*
X005047Y021261D02*
X000410Y021261D01*
X000410Y021419D02*
X005205Y021419D01*
X005364Y021578D02*
X000410Y021578D01*
X000410Y021736D02*
X005522Y021736D01*
X005681Y021895D02*
X000410Y021895D01*
X000410Y022053D02*
X006984Y022053D01*
X007143Y022212D02*
X000410Y022212D01*
X000410Y022370D02*
X001996Y022370D01*
X002082Y022284D02*
X002687Y022284D01*
X003115Y022712D01*
X003115Y023317D01*
X002687Y023745D01*
X002082Y023745D01*
X001654Y023317D01*
X001654Y022712D01*
X002082Y022284D01*
X001838Y022529D02*
X000410Y022529D01*
X000410Y022687D02*
X001679Y022687D01*
X001654Y022846D02*
X000410Y022846D01*
X000410Y023004D02*
X001654Y023004D01*
X001654Y023163D02*
X000410Y023163D01*
X000410Y023321D02*
X001658Y023321D01*
X001816Y023480D02*
X000410Y023480D01*
X000410Y023638D02*
X001975Y023638D01*
X002228Y024296D02*
X002041Y024374D01*
X001897Y024517D01*
X001820Y024705D01*
X001820Y024907D01*
X001897Y025095D01*
X002041Y025238D01*
X002228Y025316D01*
X002431Y025316D01*
X002618Y025238D01*
X002762Y025095D01*
X002830Y024932D01*
X002897Y025095D01*
X003041Y025238D01*
X003228Y025316D01*
X003431Y025316D01*
X003618Y025238D01*
X003762Y025095D01*
X003830Y024932D01*
X003897Y025095D01*
X004041Y025238D01*
X004228Y025316D01*
X004431Y025316D01*
X004618Y025238D01*
X004762Y025095D01*
X004840Y024907D01*
X004840Y024705D01*
X004762Y024517D01*
X004618Y024374D01*
X004431Y024296D01*
X004228Y024296D01*
X004041Y024374D01*
X003897Y024517D01*
X003830Y024680D01*
X003762Y024517D01*
X003618Y024374D01*
X003431Y024296D01*
X003228Y024296D01*
X003041Y024374D01*
X002897Y024517D01*
X002830Y024680D01*
X002762Y024517D01*
X002618Y024374D01*
X002431Y024296D01*
X002228Y024296D01*
X001984Y024431D02*
X000410Y024431D01*
X000410Y024589D02*
X001867Y024589D01*
X001820Y024748D02*
X000410Y024748D01*
X000410Y024906D02*
X001820Y024906D01*
X001885Y025065D02*
X000410Y025065D01*
X000410Y025223D02*
X002025Y025223D01*
X002634Y025223D02*
X003025Y025223D01*
X002885Y025065D02*
X002775Y025065D01*
X002792Y024589D02*
X002867Y024589D01*
X002984Y024431D02*
X002675Y024431D01*
X002794Y023638D02*
X005440Y023638D01*
X005547Y023745D02*
X005119Y023317D01*
X005119Y022712D01*
X005547Y022284D01*
X006152Y022284D01*
X006580Y022712D01*
X006580Y023317D01*
X006152Y023745D01*
X005547Y023745D01*
X005281Y023480D02*
X002953Y023480D01*
X003111Y023321D02*
X005123Y023321D01*
X005119Y023163D02*
X003115Y023163D01*
X003115Y023004D02*
X005119Y023004D01*
X005119Y022846D02*
X003115Y022846D01*
X003090Y022687D02*
X005144Y022687D01*
X005302Y022529D02*
X002932Y022529D01*
X002773Y022370D02*
X005461Y022370D01*
X005928Y021604D02*
X006887Y021604D01*
X006901Y021590D01*
X007059Y021590D01*
X007170Y021701D01*
X007170Y021701D01*
X008367Y022898D01*
X008830Y022898D01*
X008790Y022859D01*
X008790Y021979D01*
X008755Y022013D01*
X008654Y022055D01*
X008545Y022055D01*
X008444Y022013D01*
X008367Y021936D01*
X008325Y021835D01*
X008325Y021725D01*
X008367Y021624D01*
X008410Y021581D01*
X008410Y021172D01*
X008199Y021383D01*
X007594Y021383D01*
X007166Y020955D01*
X007166Y020350D01*
X007594Y019922D01*
X008199Y019922D01*
X008410Y020132D01*
X008410Y018497D01*
X007905Y017980D01*
X007855Y018001D01*
X007652Y018001D01*
X007465Y017923D01*
X007321Y017779D01*
X007244Y017592D01*
X007244Y017389D01*
X007321Y017202D01*
X007465Y017058D01*
X007628Y016991D01*
X007465Y016923D01*
X007321Y016779D01*
X007244Y016592D01*
X007244Y016389D01*
X007321Y016202D01*
X007465Y016058D01*
X007652Y015981D01*
X007855Y015981D01*
X007952Y016021D01*
X007892Y015961D01*
X007139Y015967D01*
X007139Y016029D01*
X007061Y016217D01*
X006918Y016360D01*
X006754Y016428D01*
X006918Y016496D01*
X007061Y016639D01*
X007139Y016827D01*
X007139Y017029D01*
X007061Y017217D01*
X006918Y017360D01*
X006754Y017428D01*
X006918Y017496D01*
X007061Y017639D01*
X007139Y017827D01*
X007139Y018029D01*
X007061Y018217D01*
X006918Y018360D01*
X006754Y018428D01*
X006918Y018496D01*
X007061Y018639D01*
X007139Y018827D01*
X007139Y019029D01*
X007061Y019217D01*
X006918Y019360D01*
X006805Y019407D01*
X006840Y019418D01*
X006917Y019458D01*
X006987Y019509D01*
X007048Y019570D01*
X007099Y019640D01*
X007139Y019717D01*
X007165Y019799D01*
X007179Y019885D01*
X007179Y019908D01*
X006649Y019908D01*
X006649Y019948D01*
X007179Y019948D01*
X007179Y019971D01*
X007165Y020057D01*
X007139Y020139D01*
X007099Y020216D01*
X007048Y020286D01*
X006987Y020348D01*
X006917Y020398D01*
X006840Y020438D01*
X006805Y020449D01*
X006918Y020496D01*
X007061Y020639D01*
X007139Y020827D01*
X007139Y021029D01*
X007061Y021217D01*
X006918Y021360D01*
X006730Y021438D01*
X006527Y021438D01*
X006340Y021360D01*
X006196Y021217D01*
X006119Y021029D01*
X006119Y020827D01*
X006196Y020639D01*
X006340Y020496D01*
X006453Y020449D01*
X006418Y020438D01*
X006341Y020398D01*
X006271Y020348D01*
X006209Y020286D01*
X006158Y020216D01*
X006119Y020139D01*
X006092Y020057D01*
X006079Y019971D01*
X006079Y019948D01*
X006609Y019948D01*
X006609Y019908D01*
X006079Y019908D01*
X006079Y019885D01*
X006092Y019799D01*
X006119Y019717D01*
X006158Y019640D01*
X006209Y019570D01*
X006271Y019509D01*
X006341Y019458D01*
X006418Y019418D01*
X006453Y019407D01*
X006340Y019360D01*
X006196Y019217D01*
X006119Y019029D01*
X006119Y018827D01*
X006196Y018639D01*
X006340Y018496D01*
X006503Y018428D01*
X006340Y018360D01*
X006196Y018217D01*
X006119Y018029D01*
X006119Y017827D01*
X006130Y017799D01*
X005970Y017639D01*
X005970Y019659D01*
X005859Y019770D01*
X005611Y020017D01*
X005611Y020687D01*
X005529Y020769D01*
X005370Y020769D01*
X005370Y021046D01*
X005928Y021604D01*
X005901Y021578D02*
X008410Y021578D01*
X008410Y021419D02*
X006776Y021419D01*
X007018Y021261D02*
X007471Y021261D01*
X007313Y021102D02*
X007109Y021102D01*
X007139Y020944D02*
X007166Y020944D01*
X007166Y020785D02*
X007122Y020785D01*
X007166Y020627D02*
X007049Y020627D01*
X007166Y020468D02*
X006851Y020468D01*
X007025Y020310D02*
X007206Y020310D01*
X007132Y020151D02*
X007365Y020151D01*
X007523Y019993D02*
X007175Y019993D01*
X007171Y019834D02*
X008410Y019834D01*
X008410Y019676D02*
X007117Y019676D01*
X006996Y019517D02*
X008410Y019517D01*
X008410Y019359D02*
X006920Y019359D01*
X007068Y019200D02*
X008410Y019200D01*
X008410Y019042D02*
X007134Y019042D01*
X007139Y018883D02*
X008410Y018883D01*
X008410Y018725D02*
X007097Y018725D01*
X006988Y018566D02*
X008410Y018566D01*
X008323Y018408D02*
X006804Y018408D01*
X007029Y018249D02*
X008168Y018249D01*
X008013Y018091D02*
X007114Y018091D01*
X007139Y017932D02*
X007487Y017932D01*
X007319Y017774D02*
X007117Y017774D01*
X007037Y017615D02*
X007253Y017615D01*
X007244Y017457D02*
X006823Y017457D01*
X006980Y017298D02*
X007282Y017298D01*
X007384Y017140D02*
X007093Y017140D01*
X007139Y016981D02*
X007605Y016981D01*
X007365Y016823D02*
X007137Y016823D01*
X007071Y016664D02*
X007274Y016664D01*
X007244Y016506D02*
X006928Y016506D01*
X006931Y016347D02*
X007261Y016347D01*
X007335Y016189D02*
X007073Y016189D01*
X007139Y016030D02*
X007533Y016030D01*
X008182Y015713D02*
X012044Y015713D01*
X012119Y015872D02*
X008340Y015872D01*
X008499Y016030D02*
X012119Y016030D01*
X012185Y016189D02*
X008657Y016189D01*
X008816Y016347D02*
X012327Y016347D01*
X012330Y016506D02*
X008974Y016506D01*
X009133Y016664D02*
X012186Y016664D01*
X012120Y016823D02*
X009170Y016823D01*
X009170Y016981D02*
X012119Y016981D01*
X012164Y017140D02*
X009170Y017140D01*
X009170Y017298D02*
X012278Y017298D01*
X012343Y017457D02*
X009170Y017457D01*
X009170Y017615D02*
X012176Y017615D01*
X012101Y017774D02*
X009170Y017774D01*
X009170Y017932D02*
X012609Y017932D01*
X012649Y017932D02*
X018820Y017932D01*
X018820Y017774D02*
X013157Y017774D01*
X013081Y017615D02*
X018820Y017615D01*
X018820Y017457D02*
X012915Y017457D01*
X012980Y017298D02*
X018820Y017298D01*
X018820Y017140D02*
X013093Y017140D01*
X013139Y016981D02*
X018820Y016981D01*
X018820Y016823D02*
X013137Y016823D01*
X013071Y016664D02*
X018820Y016664D01*
X018820Y016506D02*
X012928Y016506D01*
X012931Y016347D02*
X018820Y016347D01*
X018820Y016189D02*
X013073Y016189D01*
X011886Y015555D02*
X006977Y015555D01*
X006832Y015396D02*
X011790Y015396D01*
X011790Y015238D02*
X007041Y015238D01*
X007118Y015079D02*
X011790Y015079D01*
X011790Y014921D02*
X007139Y014921D01*
X007112Y014762D02*
X011790Y014762D01*
X011790Y014604D02*
X007026Y014604D01*
X006795Y014445D02*
X011678Y014445D01*
X011519Y014287D02*
X006992Y014287D01*
X007098Y014128D02*
X011361Y014128D01*
X011202Y013970D02*
X007139Y013970D01*
X007132Y013811D02*
X007497Y013811D01*
X007465Y013798D02*
X007321Y013654D01*
X007244Y013467D01*
X007244Y013264D01*
X007321Y013077D01*
X007465Y012933D01*
X007628Y012866D01*
X007465Y012798D01*
X007321Y012654D01*
X007244Y012467D01*
X007244Y012264D01*
X007321Y012077D01*
X007465Y011933D01*
X007652Y011856D01*
X007855Y011856D01*
X008043Y011933D01*
X008186Y012077D01*
X008264Y012264D01*
X008264Y012467D01*
X008186Y012654D01*
X008043Y012798D01*
X007879Y012866D01*
X008043Y012933D01*
X008186Y013077D01*
X008264Y013264D01*
X008264Y013467D01*
X008186Y013654D01*
X008043Y013798D01*
X007855Y013876D01*
X007652Y013876D01*
X007465Y013798D01*
X007321Y013653D02*
X007067Y013653D01*
X006914Y013494D02*
X007255Y013494D01*
X007244Y013336D02*
X006943Y013336D01*
X007078Y013177D02*
X007280Y013177D01*
X007380Y013019D02*
X007139Y013019D01*
X007139Y012860D02*
X007615Y012860D01*
X007893Y012860D02*
X010093Y012860D01*
X010251Y013019D02*
X008128Y013019D01*
X008228Y013177D02*
X010410Y013177D01*
X010568Y013336D02*
X008264Y013336D01*
X008253Y013494D02*
X010727Y013494D01*
X010885Y013653D02*
X008187Y013653D01*
X008011Y013811D02*
X011044Y013811D01*
X009934Y012702D02*
X008139Y012702D01*
X008232Y012543D02*
X009776Y012543D01*
X009617Y012385D02*
X008264Y012385D01*
X008248Y012226D02*
X009459Y012226D01*
X009300Y012068D02*
X008177Y012068D01*
X007984Y011909D02*
X009142Y011909D01*
X008983Y011751D02*
X007107Y011751D01*
X007139Y011909D02*
X007523Y011909D01*
X007331Y012068D02*
X007123Y012068D01*
X007052Y012226D02*
X007260Y012226D01*
X007244Y012385D02*
X006859Y012385D01*
X006965Y012543D02*
X007275Y012543D01*
X007369Y012702D02*
X007087Y012702D01*
X007014Y011592D02*
X008825Y011592D01*
X008666Y011434D02*
X006768Y011434D01*
X007003Y011275D02*
X008508Y011275D01*
X008349Y011117D02*
X007103Y011117D01*
X007139Y010958D02*
X008191Y010958D01*
X008032Y010800D02*
X007128Y010800D01*
X007062Y010641D02*
X007874Y010641D01*
X007715Y010483D02*
X006886Y010483D01*
X006954Y010324D02*
X007557Y010324D01*
X007398Y010166D02*
X007082Y010166D01*
X007139Y010007D02*
X007240Y010007D01*
X005387Y007471D02*
X000410Y007471D01*
X000410Y007313D02*
X005387Y007313D01*
X005387Y007154D02*
X000410Y007154D01*
X000410Y006996D02*
X005387Y006996D01*
X005387Y006837D02*
X000410Y006837D01*
X000410Y006679D02*
X005387Y006679D01*
X005387Y006520D02*
X000410Y006520D01*
X000410Y006362D02*
X005387Y006362D01*
X009400Y001765D02*
X009771Y001765D01*
X009637Y001924D02*
X009535Y001924D01*
X013056Y001765D02*
X013116Y001765D01*
X012590Y009056D02*
X012539Y009056D01*
X012410Y009215D02*
X012704Y009215D01*
X013154Y018091D02*
X018820Y018091D01*
X018820Y018249D02*
X013075Y018249D01*
X012899Y018408D02*
X018820Y018408D01*
X018820Y018566D02*
X012988Y018566D01*
X013097Y018725D02*
X018820Y018725D01*
X018820Y018883D02*
X013139Y018883D01*
X013134Y019042D02*
X018820Y019042D01*
X018820Y019200D02*
X013068Y019200D01*
X012920Y019359D02*
X018820Y019359D01*
X018820Y019517D02*
X012939Y019517D01*
X013076Y019676D02*
X018820Y019676D01*
X018820Y019834D02*
X016635Y019834D01*
X016635Y019831D02*
X016635Y020687D01*
X016553Y020769D01*
X015697Y020769D01*
X015633Y020705D01*
X015569Y020769D01*
X014713Y020769D01*
X014675Y020731D01*
X014670Y020739D01*
X014637Y020773D01*
X014596Y020796D01*
X014550Y020809D01*
X014175Y020809D01*
X014175Y020277D01*
X014138Y020277D01*
X014138Y020240D01*
X014175Y020240D01*
X014175Y019709D01*
X014550Y019709D01*
X014596Y019721D01*
X014637Y019745D01*
X014670Y019778D01*
X014675Y019786D01*
X014713Y019749D01*
X015569Y019749D01*
X015633Y019813D01*
X015697Y019749D01*
X016553Y019749D01*
X016635Y019831D01*
X016635Y019993D02*
X018820Y019993D01*
X018820Y020151D02*
X016635Y020151D01*
X016635Y020310D02*
X018820Y020310D01*
X018820Y020468D02*
X016635Y020468D01*
X016635Y020627D02*
X018820Y020627D01*
X018820Y020785D02*
X014616Y020785D01*
X014175Y020785D02*
X014138Y020785D01*
X014138Y020809D02*
X013763Y020809D01*
X013717Y020796D01*
X013676Y020773D01*
X013642Y020739D01*
X013619Y020698D01*
X013606Y020652D01*
X013606Y020277D01*
X014138Y020277D01*
X014138Y020809D01*
X014138Y020627D02*
X014175Y020627D01*
X014175Y020468D02*
X014138Y020468D01*
X014138Y020310D02*
X014175Y020310D01*
X014138Y020240D02*
X013606Y020240D01*
X013606Y019865D01*
X013619Y019819D01*
X013642Y019778D01*
X013676Y019745D01*
X013717Y019721D01*
X013763Y019709D01*
X014138Y019709D01*
X014138Y020240D01*
X014138Y020151D02*
X014175Y020151D01*
X014175Y019993D02*
X014138Y019993D01*
X014138Y019834D02*
X014175Y019834D01*
X013615Y019834D02*
X013139Y019834D01*
X013139Y019993D02*
X013606Y019993D01*
X013606Y020151D02*
X013088Y020151D01*
X012969Y020310D02*
X013606Y020310D01*
X013606Y020468D02*
X012851Y020468D01*
X013049Y020627D02*
X013606Y020627D01*
X013697Y020785D02*
X013122Y020785D01*
X013139Y020944D02*
X018820Y020944D01*
X018820Y021102D02*
X013109Y021102D01*
X013018Y021261D02*
X018820Y021261D01*
X018820Y021419D02*
X012776Y021419D01*
X012482Y021419D02*
X010511Y021419D01*
X010511Y021261D02*
X010936Y021261D01*
X011058Y021383D02*
X010631Y020955D01*
X010631Y020350D01*
X011058Y019922D01*
X011664Y019922D01*
X012092Y020350D01*
X012092Y020955D01*
X011664Y021383D01*
X011058Y021383D01*
X010778Y021102D02*
X010511Y021102D01*
X010511Y020944D02*
X010631Y020944D01*
X010631Y020785D02*
X010511Y020785D01*
X010511Y020627D02*
X010631Y020627D01*
X010631Y020468D02*
X010511Y020468D01*
X010511Y020310D02*
X010671Y020310D01*
X010829Y020151D02*
X010511Y020151D01*
X010511Y019993D02*
X010988Y019993D01*
X010511Y019834D02*
X012119Y019834D01*
X012119Y019993D02*
X011734Y019993D01*
X011893Y020151D02*
X012169Y020151D01*
X012051Y020310D02*
X012289Y020310D01*
X012407Y020468D02*
X012092Y020468D01*
X012092Y020627D02*
X012209Y020627D01*
X012136Y020785D02*
X012092Y020785D01*
X012092Y020944D02*
X012119Y020944D01*
X012149Y021102D02*
X011945Y021102D01*
X011786Y021261D02*
X012240Y021261D01*
X013106Y022284D02*
X012678Y022712D01*
X012678Y023317D01*
X013106Y023745D01*
X013711Y023745D01*
X014139Y023317D01*
X014139Y022712D01*
X013711Y022284D01*
X013106Y022284D01*
X013020Y022370D02*
X011239Y022370D01*
X011397Y022529D02*
X012861Y022529D01*
X012703Y022687D02*
X011556Y022687D01*
X011570Y022846D02*
X012678Y022846D01*
X012678Y023004D02*
X011570Y023004D01*
X011570Y023163D02*
X012678Y023163D01*
X012682Y023321D02*
X011570Y023321D01*
X011570Y023480D02*
X012840Y023480D01*
X012999Y023638D02*
X011570Y023638D01*
X011570Y023797D02*
X018820Y023797D01*
X018820Y023955D02*
X011570Y023955D01*
X011570Y024114D02*
X018820Y024114D01*
X018820Y024272D02*
X011570Y024272D01*
X011570Y024431D02*
X018820Y024431D01*
X018820Y024589D02*
X011570Y024589D01*
X011570Y024748D02*
X018820Y024748D01*
X018820Y024906D02*
X011570Y024906D01*
X011570Y025065D02*
X018820Y025065D01*
X018820Y025223D02*
X011570Y025223D01*
X011570Y025382D02*
X018820Y025382D01*
X018820Y025540D02*
X011570Y025540D01*
X011570Y025699D02*
X018820Y025699D01*
X018820Y025857D02*
X011570Y025857D01*
X011570Y026016D02*
X018820Y026016D01*
X018820Y026174D02*
X011570Y026174D01*
X011570Y026333D02*
X018820Y026333D01*
X018820Y026491D02*
X011570Y026491D01*
X011570Y026650D02*
X018820Y026650D01*
X018820Y026808D02*
X011570Y026808D01*
X011570Y026967D02*
X018820Y026967D01*
X018820Y027125D02*
X011570Y027125D01*
X011570Y027284D02*
X018820Y027284D01*
X018820Y027442D02*
X011570Y027442D01*
X011428Y027601D02*
X018820Y027601D01*
X018820Y027759D02*
X011270Y027759D01*
X011111Y027918D02*
X018820Y027918D01*
X018820Y028076D02*
X010953Y028076D01*
X010794Y028235D02*
X018820Y028235D01*
X018820Y028393D02*
X010636Y028393D01*
X010701Y028552D02*
X010477Y028552D01*
X010519Y028710D02*
X010589Y028710D01*
X010612Y029186D02*
X010496Y029186D01*
X010351Y029344D02*
X010757Y029344D01*
X011351Y029344D02*
X018820Y029344D01*
X018820Y029186D02*
X011496Y029186D01*
X011562Y029027D02*
X018820Y029027D01*
X018820Y028869D02*
X011564Y028869D01*
X011519Y028710D02*
X018820Y028710D01*
X018820Y028552D02*
X011407Y028552D01*
X010891Y027601D02*
X008570Y027601D01*
X008570Y027759D02*
X010732Y027759D01*
X010574Y027918D02*
X008570Y027918D01*
X008570Y028076D02*
X010415Y028076D01*
X010257Y028235D02*
X008570Y028235D01*
X008570Y028393D02*
X008896Y028393D01*
X009034Y028393D02*
X009074Y028393D01*
X009212Y028393D02*
X010098Y028393D01*
X009701Y028552D02*
X009463Y028552D01*
X009564Y028710D02*
X009589Y028710D01*
X009612Y029186D02*
X009536Y029186D01*
X009406Y029344D02*
X009757Y029344D01*
X009074Y029344D02*
X009034Y029344D01*
X009034Y029186D02*
X009074Y029186D01*
X009074Y029027D02*
X009034Y029027D01*
X009034Y028869D02*
X009074Y028869D01*
X009074Y028710D02*
X009034Y028710D01*
X009034Y028552D02*
X009074Y028552D01*
X008645Y028552D02*
X008570Y028552D01*
X008190Y028393D02*
X005063Y028393D01*
X005076Y028425D02*
X005076Y028628D01*
X004998Y028815D01*
X004855Y028959D01*
X004667Y029036D01*
X004464Y029036D01*
X004277Y028959D01*
X004133Y028815D01*
X004066Y028652D01*
X003998Y028815D01*
X003855Y028959D01*
X003667Y029036D01*
X003464Y029036D01*
X003277Y028959D01*
X003133Y028815D01*
X003066Y028652D01*
X002998Y028815D01*
X002855Y028959D01*
X002667Y029036D01*
X002464Y029036D01*
X002277Y028959D01*
X002133Y028815D01*
X002056Y028628D01*
X002056Y028425D01*
X002133Y028238D01*
X002277Y028094D01*
X002464Y028016D01*
X002667Y028016D01*
X002855Y028094D01*
X002998Y028238D01*
X003066Y028401D01*
X003133Y028238D01*
X003277Y028094D01*
X003464Y028016D01*
X003667Y028016D01*
X003855Y028094D01*
X003998Y028238D01*
X004066Y028401D01*
X004133Y028238D01*
X004277Y028094D01*
X004464Y028016D01*
X004667Y028016D01*
X004855Y028094D01*
X004998Y028238D01*
X005076Y028425D01*
X005076Y028552D02*
X007544Y028552D01*
X007544Y028710D02*
X005042Y028710D01*
X004945Y028869D02*
X007544Y028869D01*
X007544Y029027D02*
X004690Y029027D01*
X004442Y029027D02*
X003690Y029027D01*
X003945Y028869D02*
X004187Y028869D01*
X004090Y028710D02*
X004042Y028710D01*
X004063Y028393D02*
X004069Y028393D01*
X004136Y028235D02*
X003995Y028235D01*
X003811Y028076D02*
X004321Y028076D01*
X004811Y028076D02*
X008190Y028076D01*
X008190Y027918D02*
X000410Y027918D01*
X000410Y028076D02*
X002321Y028076D01*
X002136Y028235D02*
X000410Y028235D01*
X000410Y028393D02*
X002069Y028393D01*
X002056Y028552D02*
X000410Y028552D01*
X000410Y028710D02*
X002090Y028710D01*
X002187Y028869D02*
X000410Y028869D01*
X000410Y029027D02*
X002442Y029027D01*
X002690Y029027D02*
X003442Y029027D01*
X003187Y028869D02*
X002945Y028869D01*
X003042Y028710D02*
X003090Y028710D01*
X003069Y028393D02*
X003063Y028393D01*
X002995Y028235D02*
X003136Y028235D01*
X003321Y028076D02*
X002811Y028076D01*
X003634Y025223D02*
X004025Y025223D01*
X003885Y025065D02*
X003775Y025065D01*
X003792Y024589D02*
X003867Y024589D01*
X003984Y024431D02*
X003675Y024431D01*
X004675Y024431D02*
X008190Y024431D01*
X008190Y024589D02*
X004792Y024589D01*
X004840Y024748D02*
X008190Y024748D01*
X008190Y024906D02*
X004840Y024906D01*
X004775Y025065D02*
X008190Y025065D01*
X008190Y025223D02*
X004634Y025223D01*
X006259Y023638D02*
X008135Y023638D01*
X008135Y023480D02*
X006418Y023480D01*
X006576Y023321D02*
X008135Y023321D01*
X008094Y023163D02*
X006580Y023163D01*
X006580Y023004D02*
X007935Y023004D01*
X007777Y022846D02*
X006580Y022846D01*
X006555Y022687D02*
X007618Y022687D01*
X007460Y022529D02*
X006396Y022529D01*
X006238Y022370D02*
X007301Y022370D01*
X007363Y021895D02*
X008349Y021895D01*
X008325Y021736D02*
X007205Y021736D01*
X007522Y022053D02*
X008540Y022053D01*
X008659Y022053D02*
X008790Y022053D01*
X008790Y022212D02*
X007680Y022212D01*
X007839Y022370D02*
X008790Y022370D01*
X008790Y022529D02*
X007997Y022529D01*
X008156Y022687D02*
X008790Y022687D01*
X008790Y022846D02*
X008314Y022846D01*
X008135Y023797D02*
X000410Y023797D01*
X000410Y023955D02*
X008190Y023955D01*
X008190Y024114D02*
X000410Y024114D01*
X000410Y024272D02*
X008190Y024272D01*
X008570Y024272D02*
X011190Y024272D01*
X011190Y024114D02*
X008570Y024114D01*
X008570Y023955D02*
X010207Y023955D01*
X010595Y023955D02*
X010631Y023955D01*
X010631Y023797D02*
X010595Y023797D01*
X010595Y023638D02*
X010631Y023638D01*
X010631Y023480D02*
X010595Y023480D01*
X010595Y023321D02*
X010631Y023321D01*
X010631Y023163D02*
X010595Y023163D01*
X010595Y023004D02*
X010631Y023004D01*
X010860Y022529D02*
X009170Y022529D01*
X009170Y022687D02*
X011018Y022687D01*
X011177Y022846D02*
X009286Y022846D01*
X009170Y022370D02*
X010701Y022370D01*
X010543Y022212D02*
X009170Y022212D01*
X009170Y022053D02*
X010384Y022053D01*
X010226Y021895D02*
X009170Y021895D01*
X009170Y021736D02*
X010131Y021736D01*
X010131Y021578D02*
X009170Y021578D01*
X009170Y021419D02*
X010131Y021419D01*
X010131Y021261D02*
X009170Y021261D01*
X009170Y021102D02*
X010131Y021102D01*
X010131Y020944D02*
X009170Y020944D01*
X009170Y020785D02*
X010131Y020785D01*
X010131Y020627D02*
X009170Y020627D01*
X009170Y020468D02*
X010131Y020468D01*
X010131Y020310D02*
X009170Y020310D01*
X009170Y020151D02*
X010131Y020151D01*
X010131Y019993D02*
X009170Y019993D01*
X009170Y019834D02*
X010131Y019834D01*
X010131Y019676D02*
X009170Y019676D01*
X009170Y019517D02*
X010131Y019517D01*
X010131Y019359D02*
X009170Y019359D01*
X009170Y019200D02*
X010011Y019200D01*
X009908Y019042D02*
X009170Y019042D01*
X009170Y018883D02*
X009923Y018883D01*
X010078Y018725D02*
X009170Y018725D01*
X009170Y018566D02*
X012270Y018566D01*
X012358Y018408D02*
X009170Y018408D01*
X009170Y018249D02*
X012182Y018249D01*
X012103Y018091D02*
X009170Y018091D01*
X010282Y018725D02*
X012161Y018725D01*
X012119Y018883D02*
X010437Y018883D01*
X010510Y019042D02*
X012124Y019042D01*
X012189Y019200D02*
X010511Y019200D01*
X010511Y019359D02*
X012338Y019359D01*
X012319Y019517D02*
X010511Y019517D01*
X010511Y019676D02*
X012181Y019676D01*
X010605Y021736D02*
X018820Y021736D01*
X018820Y021578D02*
X010511Y021578D01*
X010763Y021895D02*
X018820Y021895D01*
X018820Y022053D02*
X010922Y022053D01*
X011080Y022212D02*
X018820Y022212D01*
X018820Y022370D02*
X017261Y022370D01*
X017176Y022284D02*
X017603Y022712D01*
X017603Y023317D01*
X017176Y023745D01*
X016570Y023745D01*
X016142Y023317D01*
X016142Y022712D01*
X016570Y022284D01*
X017176Y022284D01*
X017420Y022529D02*
X018820Y022529D01*
X018820Y022687D02*
X017578Y022687D01*
X017603Y022846D02*
X018820Y022846D01*
X018820Y023004D02*
X017603Y023004D01*
X017603Y023163D02*
X018820Y023163D01*
X018820Y023321D02*
X017600Y023321D01*
X017441Y023480D02*
X018820Y023480D01*
X018820Y023638D02*
X017283Y023638D01*
X016463Y023638D02*
X013818Y023638D01*
X013977Y023480D02*
X016305Y023480D01*
X016146Y023321D02*
X014135Y023321D01*
X014139Y023163D02*
X016142Y023163D01*
X016142Y023004D02*
X014139Y023004D01*
X014139Y022846D02*
X016142Y022846D01*
X016167Y022687D02*
X014114Y022687D01*
X013955Y022529D02*
X016326Y022529D01*
X016484Y022370D02*
X013797Y022370D01*
X011190Y023004D02*
X011160Y023004D01*
X011163Y023163D02*
X011190Y023163D01*
X011190Y023321D02*
X011163Y023321D01*
X011163Y023480D02*
X011190Y023480D01*
X011190Y023638D02*
X011163Y023638D01*
X011163Y023797D02*
X011190Y023797D01*
X011190Y023955D02*
X011019Y023955D01*
X011190Y024431D02*
X008570Y024431D01*
X008570Y024589D02*
X011190Y024589D01*
X011190Y024748D02*
X008570Y024748D01*
X008570Y024906D02*
X011190Y024906D01*
X011190Y025065D02*
X008570Y025065D01*
X008570Y025223D02*
X011190Y025223D01*
X011190Y025382D02*
X008570Y025382D01*
X008570Y025540D02*
X011190Y025540D01*
X011190Y025699D02*
X008570Y025699D01*
X008570Y025857D02*
X011190Y025857D01*
X011190Y026016D02*
X008570Y026016D01*
X008570Y026174D02*
X011190Y026174D01*
X011190Y026333D02*
X008570Y026333D01*
X008570Y026491D02*
X011190Y026491D01*
X011190Y026650D02*
X008570Y026650D01*
X008570Y026808D02*
X011190Y026808D01*
X011190Y026967D02*
X008570Y026967D01*
X008570Y027125D02*
X011190Y027125D01*
X011190Y027284D02*
X008570Y027284D01*
X008570Y027442D02*
X011049Y027442D01*
X008702Y029344D02*
X008564Y029344D01*
X008564Y029186D02*
X008572Y029186D01*
X008190Y028235D02*
X004995Y028235D01*
X007544Y029186D02*
X000410Y029186D01*
X000410Y029344D02*
X007544Y029344D01*
X008190Y027759D02*
X000410Y027759D01*
X000410Y027601D02*
X008190Y027601D01*
X008190Y027442D02*
X000410Y027442D01*
X000410Y027284D02*
X008190Y027284D01*
X008190Y027125D02*
X000410Y027125D01*
X000410Y026967D02*
X008190Y026967D01*
X008190Y026808D02*
X000410Y026808D01*
X000410Y026650D02*
X008190Y026650D01*
X008190Y026491D02*
X000410Y026491D01*
X000410Y026333D02*
X008190Y026333D01*
X008190Y026174D02*
X000410Y026174D01*
X000410Y026016D02*
X008190Y026016D01*
X008190Y025857D02*
X000410Y025857D01*
X000410Y025699D02*
X008190Y025699D01*
X008190Y025540D02*
X000410Y025540D01*
X000410Y025382D02*
X008190Y025382D01*
X008322Y021261D02*
X008410Y021261D01*
X008410Y019993D02*
X008270Y019993D01*
X006407Y020468D02*
X005611Y020468D01*
X005611Y020310D02*
X006233Y020310D01*
X006125Y020151D02*
X005611Y020151D01*
X005636Y019993D02*
X006082Y019993D01*
X006087Y019834D02*
X005795Y019834D01*
X005953Y019676D02*
X006140Y019676D01*
X006262Y019517D02*
X005970Y019517D01*
X005970Y019359D02*
X006338Y019359D01*
X006189Y019200D02*
X005970Y019200D01*
X005970Y019042D02*
X006124Y019042D01*
X006119Y018883D02*
X005970Y018883D01*
X005970Y018725D02*
X006161Y018725D01*
X006270Y018566D02*
X005970Y018566D01*
X005970Y018408D02*
X006454Y018408D01*
X006229Y018249D02*
X005970Y018249D01*
X005970Y018091D02*
X006144Y018091D01*
X006119Y017932D02*
X005970Y017932D01*
X005970Y017774D02*
X006105Y017774D01*
X006209Y020627D02*
X005611Y020627D01*
X005426Y021102D02*
X006149Y021102D01*
X006119Y020944D02*
X005370Y020944D01*
X005370Y020785D02*
X006136Y020785D01*
X006240Y021261D02*
X005584Y021261D01*
X005743Y021419D02*
X006482Y021419D01*
X000789Y002399D02*
X000410Y002399D01*
X000410Y002241D02*
X000632Y002241D01*
X000566Y002082D02*
X000410Y002082D01*
X000410Y001924D02*
X000501Y001924D01*
X000501Y001765D02*
X000410Y001765D01*
X000410Y001607D02*
X000501Y001607D01*
X000557Y001448D02*
X000410Y001448D01*
X000410Y001290D02*
X000623Y001290D01*
X000769Y001131D02*
X000410Y001131D01*
X000410Y000973D02*
X001003Y000973D01*
D15*
X005577Y004783D02*
X005577Y016977D01*
X005780Y017180D01*
X005780Y019580D01*
X005101Y020259D01*
X005180Y020380D02*
X005180Y021125D01*
X005849Y021794D01*
X006966Y021794D01*
X006980Y021780D01*
X008380Y023180D01*
X008380Y028580D01*
X010180Y028580D02*
X011380Y027380D01*
X011380Y022780D01*
X010321Y021721D01*
X010321Y019121D01*
X010180Y018980D01*
X008980Y016780D02*
X007971Y015771D01*
X006780Y015780D01*
X005780Y017180D02*
X006580Y017980D01*
X007780Y017580D02*
X008600Y018419D01*
X008600Y021780D01*
X008980Y022780D02*
X008980Y016780D01*
X012580Y013980D02*
X011780Y013180D01*
X011780Y008780D01*
X010980Y009180D02*
X009980Y010180D01*
X008786Y010580D02*
X006786Y008580D01*
X006180Y008678D02*
X011980Y014478D01*
X011980Y015380D01*
X012580Y015980D01*
X012980Y012180D02*
X016580Y015780D01*
X012180Y002380D02*
X012180Y001180D01*
X011980Y000980D01*
X011180Y001180D02*
X011180Y002380D01*
X011180Y001180D02*
X010980Y000980D01*
X008980Y000380D02*
X008980Y002380D01*
X008980Y000380D02*
X007380Y000380D01*
X006980Y000780D01*
X006980Y002580D02*
X006980Y003380D01*
X005577Y004783D01*
D16*
X006980Y002580D02*
X007086Y002542D01*
X006873Y000967D02*
X006980Y000780D01*
X008980Y002380D02*
X009086Y002542D01*
X010810Y000967D02*
X010980Y000980D01*
X011810Y000967D02*
X011980Y000980D01*
X012180Y002380D02*
X012086Y002542D01*
X011180Y002380D02*
X011086Y002542D01*
X011086Y008448D02*
X010980Y008580D01*
X010980Y009180D01*
X011780Y008780D02*
X011980Y008580D01*
X012086Y008448D01*
X012629Y011928D02*
X012780Y011980D01*
X012780Y012180D01*
X012980Y012180D01*
X012629Y013928D02*
X012580Y013980D01*
X012629Y015928D02*
X012580Y015980D01*
X008980Y022780D02*
X009580Y023380D01*
X009629Y023408D01*
X008645Y023408D02*
X008380Y023180D01*
X008580Y023380D01*
X008645Y023408D01*
X008380Y028580D02*
X008180Y028780D01*
X008054Y028920D01*
X010054Y028920D02*
X010180Y028780D01*
X010180Y028580D01*
X005180Y020380D02*
X005101Y020259D01*
X006580Y017980D02*
X006629Y017928D01*
X007780Y017580D02*
X007754Y017491D01*
X006629Y015928D02*
X006780Y015780D01*
X006180Y008678D02*
X006086Y008448D01*
X006786Y008580D02*
X007086Y008448D01*
D17*
X008786Y010580D03*
X009980Y010180D03*
X010180Y018980D03*
X008600Y021780D03*
X016580Y015780D03*
M02*
