G75*
%MOIN*%
%OFA0B0*%
%FSLAX24Y24*%
%IPPOS*%
%LPD*%
%AMOC8*
5,1,8,0,0,1.08239X$1,22.5*
%
%ADD10C,0.0000*%
%ADD11C,0.0040*%
%ADD12C,0.0050*%
%ADD13C,0.0010*%
%ADD14C,0.0070*%
%ADD15C,0.0080*%
%ADD16R,0.0001X0.0020*%
%ADD17R,0.0001X0.0038*%
%ADD18R,0.0001X0.0039*%
%ADD19R,0.0001X0.0050*%
%ADD20R,0.0001X0.0051*%
%ADD21R,0.0001X0.0060*%
%ADD22R,0.0001X0.0059*%
%ADD23R,0.0001X0.0068*%
%ADD24R,0.0001X0.0068*%
%ADD25R,0.0001X0.0067*%
%ADD26R,0.0001X0.0074*%
%ADD27R,0.0001X0.0074*%
%ADD28R,0.0001X0.0075*%
%ADD29R,0.0001X0.0080*%
%ADD30R,0.0001X0.0081*%
%ADD31R,0.0001X0.0086*%
%ADD32R,0.0001X0.0086*%
%ADD33R,0.0001X0.0091*%
%ADD34R,0.0001X0.0092*%
%ADD35R,0.0001X0.0096*%
%ADD36R,0.0001X0.0096*%
%ADD37R,0.0001X0.0101*%
%ADD38R,0.0001X0.0100*%
%ADD39R,0.0001X0.0105*%
%ADD40R,0.0001X0.0109*%
%ADD41R,0.0001X0.0110*%
%ADD42R,0.0001X0.0113*%
%ADD43R,0.0001X0.0113*%
%ADD44R,0.0001X0.0117*%
%ADD45R,0.0001X0.0116*%
%ADD46R,0.0001X0.0120*%
%ADD47R,0.0001X0.0123*%
%ADD48R,0.0001X0.0124*%
%ADD49R,0.0001X0.0127*%
%ADD50R,0.0001X0.0127*%
%ADD51R,0.0001X0.0130*%
%ADD52R,0.0001X0.0133*%
%ADD53R,0.0001X0.0133*%
%ADD54R,0.0001X0.0134*%
%ADD55R,0.0001X0.0136*%
%ADD56R,0.0001X0.0136*%
%ADD57R,0.0001X0.0139*%
%ADD58R,0.0001X0.0139*%
%ADD59R,0.0001X0.0141*%
%ADD60R,0.0001X0.0142*%
%ADD61R,0.0001X0.0142*%
%ADD62R,0.0001X0.0145*%
%ADD63R,0.0001X0.0144*%
%ADD64R,0.0001X0.0147*%
%ADD65R,0.0001X0.0147*%
%ADD66R,0.0001X0.0148*%
%ADD67R,0.0001X0.0149*%
%ADD68R,0.0001X0.0150*%
%ADD69R,0.0001X0.0153*%
%ADD70R,0.0001X0.0152*%
%ADD71R,0.0001X0.0152*%
%ADD72R,0.0001X0.0155*%
%ADD73R,0.0001X0.0154*%
%ADD74R,0.0001X0.0157*%
%ADD75R,0.0001X0.0157*%
%ADD76R,0.0001X0.0159*%
%ADD77R,0.0001X0.0159*%
%ADD78R,0.0001X0.0160*%
%ADD79R,0.0001X0.0161*%
%ADD80R,0.0001X0.0161*%
%ADD81R,0.0001X0.0162*%
%ADD82R,0.0001X0.0163*%
%ADD83R,0.0001X0.0164*%
%ADD84R,0.0001X0.0165*%
%ADD85R,0.0001X0.0166*%
%ADD86R,0.0001X0.0168*%
%ADD87R,0.0001X0.0168*%
%ADD88R,0.0001X0.0170*%
%ADD89R,0.0001X0.0172*%
%ADD90R,0.0001X0.0172*%
%ADD91R,0.0001X0.0174*%
%ADD92R,0.0001X0.0176*%
%ADD93R,0.0001X0.0178*%
%ADD94R,0.0001X0.0178*%
%ADD95R,0.0001X0.0179*%
%ADD96R,0.0001X0.0180*%
%ADD97R,0.0001X0.0181*%
%ADD98R,0.0001X0.0181*%
%ADD99R,0.0001X0.0182*%
%ADD100R,0.0001X0.0183*%
%ADD101R,0.0001X0.0183*%
%ADD102R,0.0001X0.0184*%
%ADD103R,0.0001X0.0185*%
%ADD104R,0.0001X0.0187*%
%ADD105R,0.0001X0.0187*%
%ADD106R,0.0001X0.0189*%
%ADD107R,0.0001X0.0189*%
%ADD108R,0.0001X0.0188*%
%ADD109R,0.0001X0.0190*%
%ADD110R,0.0001X0.0191*%
%ADD111R,0.0001X0.0192*%
%ADD112R,0.0001X0.0192*%
%ADD113R,0.0001X0.0193*%
%ADD114R,0.0001X0.0193*%
%ADD115R,0.0001X0.0194*%
%ADD116R,0.0001X0.0195*%
%ADD117R,0.0001X0.0197*%
%ADD118R,0.0001X0.0197*%
%ADD119R,0.0001X0.0196*%
%ADD120R,0.0001X0.0198*%
%ADD121R,0.0001X0.0198*%
%ADD122R,0.0001X0.0199*%
%ADD123R,0.0001X0.0199*%
%ADD124R,0.0001X0.0200*%
%ADD125R,0.0001X0.0201*%
%ADD126R,0.0001X0.0201*%
%ADD127R,0.0001X0.0202*%
%ADD128R,0.0001X0.0203*%
%ADD129R,0.0001X0.0204*%
%ADD130R,0.0001X0.0205*%
%ADD131R,0.0001X0.0206*%
%ADD132R,0.0001X0.0207*%
%ADD133R,0.0001X0.0208*%
%ADD134R,0.0001X0.0207*%
%ADD135R,0.0001X0.0209*%
%ADD136R,0.0001X0.0209*%
%ADD137R,0.0001X0.0210*%
%ADD138R,0.0001X0.0211*%
%ADD139R,0.0001X0.0211*%
%ADD140R,0.0001X0.0213*%
%ADD141R,0.0001X0.0213*%
%ADD142R,0.0001X0.0214*%
%ADD143R,0.0001X0.0213*%
%ADD144R,0.0001X0.0215*%
%ADD145R,0.0001X0.0216*%
%ADD146R,0.0001X0.0217*%
%ADD147R,0.0001X0.0217*%
%ADD148R,0.0001X0.0218*%
%ADD149R,0.0001X0.0219*%
%ADD150R,0.0001X0.0219*%
%ADD151R,0.0001X0.0219*%
%ADD152R,0.0001X0.0220*%
%ADD153R,0.0001X0.0221*%
%ADD154R,0.0001X0.0221*%
%ADD155R,0.0001X0.0222*%
%ADD156R,0.0001X0.0222*%
%ADD157R,0.0001X0.0223*%
%ADD158R,0.0001X0.0223*%
%ADD159R,0.0001X0.0224*%
%ADD160R,0.0001X0.0223*%
%ADD161R,0.0001X0.0225*%
%ADD162R,0.0001X0.0226*%
%ADD163R,0.0001X0.0227*%
%ADD164R,0.0001X0.0227*%
%ADD165R,0.0001X0.0227*%
%ADD166R,0.0001X0.0227*%
%ADD167R,0.0001X0.0228*%
%ADD168R,0.0001X0.0228*%
%ADD169R,0.0001X0.0229*%
%ADD170R,0.0001X0.0229*%
%ADD171R,0.0001X0.0230*%
%ADD172R,0.0001X0.0231*%
%ADD173R,0.0001X0.0231*%
%ADD174R,0.0001X0.0231*%
%ADD175R,0.0001X0.0232*%
%ADD176R,0.0001X0.0231*%
%ADD177R,0.0001X0.0233*%
%ADD178R,0.0001X0.0233*%
%ADD179R,0.0001X0.0234*%
%ADD180R,0.0001X0.0234*%
%ADD181R,0.0001X0.0235*%
%ADD182R,0.0001X0.0235*%
%ADD183R,0.0001X0.0236*%
%ADD184R,0.0001X0.0237*%
%ADD185R,0.0001X0.0237*%
%ADD186R,0.0001X0.0237*%
%ADD187R,0.0001X0.0237*%
%ADD188R,0.0001X0.0238*%
%ADD189R,0.0001X0.0238*%
%ADD190R,0.0001X0.0239*%
%ADD191R,0.0001X0.0239*%
%ADD192R,0.0001X0.0239*%
%ADD193R,0.0001X0.0239*%
%ADD194R,0.0001X0.0240*%
%ADD195R,0.0001X0.0241*%
%ADD196R,0.0001X0.0241*%
%ADD197R,0.0001X0.0241*%
%ADD198R,0.0001X0.0241*%
%ADD199R,0.0001X0.0242*%
%ADD200R,0.0001X0.0242*%
%ADD201R,0.0001X0.0242*%
%ADD202R,0.0001X0.0243*%
%ADD203R,0.0001X0.0243*%
%ADD204R,0.0001X0.0243*%
%ADD205R,0.0001X0.0243*%
%ADD206R,0.0001X0.0244*%
%ADD207R,0.0001X0.0244*%
%ADD208R,0.0001X0.0240*%
%ADD209R,0.0001X0.0238*%
%ADD210R,0.0001X0.0232*%
%ADD211R,0.0001X0.0232*%
%ADD212R,0.0001X0.0228*%
%ADD213R,0.0001X0.0229*%
%ADD214R,0.0001X0.0229*%
%ADD215R,0.0001X0.0224*%
%ADD216R,0.0001X0.0225*%
%ADD217R,0.0001X0.0223*%
%ADD218R,0.0001X0.0220*%
%ADD219R,0.0001X0.0218*%
%ADD220R,0.0001X0.0214*%
%ADD221R,0.0001X0.0215*%
%ADD222R,0.0001X0.0213*%
%ADD223R,0.0001X0.0212*%
%ADD224R,0.0001X0.0209*%
%ADD225R,0.0001X0.0209*%
%ADD226R,0.0001X0.0207*%
%ADD227R,0.0001X0.0206*%
%ADD228R,0.0001X0.0203*%
%ADD229R,0.0001X0.0202*%
%ADD230R,0.0001X0.0202*%
%ADD231R,0.0001X0.0200*%
%ADD232R,0.0001X0.0199*%
%ADD233R,0.0001X0.0199*%
%ADD234R,0.0001X0.0195*%
%ADD235R,0.0001X0.0191*%
%ADD236R,0.0001X0.0192*%
%ADD237R,0.0001X0.0187*%
%ADD238R,0.0001X0.0187*%
%ADD239R,0.0001X0.0186*%
%ADD240R,0.0001X0.0183*%
%ADD241R,0.0001X0.0183*%
%ADD242R,0.0001X0.0179*%
%ADD243R,0.0001X0.0177*%
%ADD244R,0.0001X0.0177*%
%ADD245R,0.0001X0.0178*%
%ADD246R,0.0001X0.0175*%
%ADD247R,0.0001X0.0174*%
%ADD248R,0.0001X0.0167*%
%ADD249R,0.0001X0.0168*%
%ADD250R,0.0001X0.0168*%
%ADD251R,0.0001X0.0163*%
%ADD252R,0.0001X0.0164*%
%ADD253R,0.0001X0.0157*%
%ADD254R,0.0001X0.0157*%
%ADD255R,0.0001X0.0153*%
%ADD256R,0.0001X0.0152*%
%ADD257R,0.0001X0.0152*%
%ADD258R,0.0001X0.0145*%
%ADD259R,0.0001X0.0144*%
%ADD260R,0.0001X0.0139*%
%ADD261R,0.0001X0.0139*%
%ADD262R,0.0001X0.0140*%
%ADD263R,0.0001X0.0137*%
%ADD264R,0.0001X0.0131*%
%ADD265R,0.0001X0.0131*%
%ADD266R,0.0001X0.0130*%
%ADD267R,0.0001X0.0128*%
%ADD268R,0.0001X0.0128*%
%ADD269R,0.0001X0.0125*%
%ADD270R,0.0001X0.0124*%
%ADD271R,0.0001X0.0121*%
%ADD272R,0.0001X0.0121*%
%ADD273R,0.0001X0.0118*%
%ADD274R,0.0001X0.0118*%
%ADD275R,0.0001X0.0114*%
%ADD276R,0.0001X0.0114*%
%ADD277R,0.0001X0.0106*%
%ADD278R,0.0001X0.0106*%
%ADD279R,0.0001X0.0102*%
%ADD280R,0.0001X0.0102*%
%ADD281R,0.0001X0.0098*%
%ADD282R,0.0001X0.0098*%
%ADD283R,0.0001X0.0093*%
%ADD284R,0.0001X0.0094*%
%ADD285R,0.0001X0.0093*%
%ADD286R,0.0001X0.0088*%
%ADD287R,0.0001X0.0088*%
%ADD288R,0.0001X0.0083*%
%ADD289R,0.0001X0.0082*%
%ADD290R,0.0001X0.0083*%
%ADD291R,0.0001X0.0077*%
%ADD292R,0.0001X0.0076*%
%ADD293R,0.0001X0.0077*%
%ADD294R,0.0001X0.0070*%
%ADD295R,0.0001X0.0071*%
%ADD296R,0.0001X0.0063*%
%ADD297R,0.0001X0.0063*%
%ADD298R,0.0001X0.0054*%
%ADD299R,0.0001X0.0054*%
%ADD300R,0.0001X0.0055*%
%ADD301R,0.0001X0.0044*%
%ADD302R,0.0001X0.0044*%
%ADD303R,0.0001X0.0045*%
%ADD304R,0.0001X0.0030*%
%ADD305R,0.0001X0.0031*%
%ADD306C,0.0030*%
%ADD307C,0.0060*%
%ADD308R,0.0600X0.0600*%
D10*
X000180Y000180D02*
X000180Y029708D01*
X019050Y029708D01*
X019050Y000180D01*
X000180Y000180D01*
X000731Y001755D02*
X000733Y001805D01*
X000739Y001855D01*
X000749Y001904D01*
X000763Y001952D01*
X000780Y001999D01*
X000801Y002044D01*
X000826Y002088D01*
X000854Y002129D01*
X000886Y002168D01*
X000920Y002205D01*
X000957Y002239D01*
X000997Y002269D01*
X001039Y002296D01*
X001083Y002320D01*
X001129Y002341D01*
X001176Y002357D01*
X001224Y002370D01*
X001274Y002379D01*
X001323Y002384D01*
X001374Y002385D01*
X001424Y002382D01*
X001473Y002375D01*
X001522Y002364D01*
X001570Y002349D01*
X001616Y002331D01*
X001661Y002309D01*
X001704Y002283D01*
X001745Y002254D01*
X001784Y002222D01*
X001820Y002187D01*
X001852Y002149D01*
X001882Y002109D01*
X001909Y002066D01*
X001932Y002022D01*
X001951Y001976D01*
X001967Y001928D01*
X001979Y001879D01*
X001987Y001830D01*
X001991Y001780D01*
X001991Y001730D01*
X001987Y001680D01*
X001979Y001631D01*
X001967Y001582D01*
X001951Y001534D01*
X001932Y001488D01*
X001909Y001444D01*
X001882Y001401D01*
X001852Y001361D01*
X001820Y001323D01*
X001784Y001288D01*
X001745Y001256D01*
X001704Y001227D01*
X001661Y001201D01*
X001616Y001179D01*
X001570Y001161D01*
X001522Y001146D01*
X001473Y001135D01*
X001424Y001128D01*
X001374Y001125D01*
X001323Y001126D01*
X001274Y001131D01*
X001224Y001140D01*
X001176Y001153D01*
X001129Y001169D01*
X001083Y001190D01*
X001039Y001214D01*
X000997Y001241D01*
X000957Y001271D01*
X000920Y001305D01*
X000886Y001342D01*
X000854Y001381D01*
X000826Y001422D01*
X000801Y001466D01*
X000780Y001511D01*
X000763Y001558D01*
X000749Y001606D01*
X000739Y001655D01*
X000733Y001705D01*
X000731Y001755D01*
X000731Y005298D02*
X000733Y005348D01*
X000739Y005398D01*
X000749Y005447D01*
X000763Y005495D01*
X000780Y005542D01*
X000801Y005587D01*
X000826Y005631D01*
X000854Y005672D01*
X000886Y005711D01*
X000920Y005748D01*
X000957Y005782D01*
X000997Y005812D01*
X001039Y005839D01*
X001083Y005863D01*
X001129Y005884D01*
X001176Y005900D01*
X001224Y005913D01*
X001274Y005922D01*
X001323Y005927D01*
X001374Y005928D01*
X001424Y005925D01*
X001473Y005918D01*
X001522Y005907D01*
X001570Y005892D01*
X001616Y005874D01*
X001661Y005852D01*
X001704Y005826D01*
X001745Y005797D01*
X001784Y005765D01*
X001820Y005730D01*
X001852Y005692D01*
X001882Y005652D01*
X001909Y005609D01*
X001932Y005565D01*
X001951Y005519D01*
X001967Y005471D01*
X001979Y005422D01*
X001987Y005373D01*
X001991Y005323D01*
X001991Y005273D01*
X001987Y005223D01*
X001979Y005174D01*
X001967Y005125D01*
X001951Y005077D01*
X001932Y005031D01*
X001909Y004987D01*
X001882Y004944D01*
X001852Y004904D01*
X001820Y004866D01*
X001784Y004831D01*
X001745Y004799D01*
X001704Y004770D01*
X001661Y004744D01*
X001616Y004722D01*
X001570Y004704D01*
X001522Y004689D01*
X001473Y004678D01*
X001424Y004671D01*
X001374Y004668D01*
X001323Y004669D01*
X001274Y004674D01*
X001224Y004683D01*
X001176Y004696D01*
X001129Y004712D01*
X001083Y004733D01*
X001039Y004757D01*
X000997Y004784D01*
X000957Y004814D01*
X000920Y004848D01*
X000886Y004885D01*
X000854Y004924D01*
X000826Y004965D01*
X000801Y005009D01*
X000780Y005054D01*
X000763Y005101D01*
X000749Y005149D01*
X000739Y005198D01*
X000733Y005248D01*
X000731Y005298D01*
X016514Y011007D02*
X016514Y011008D01*
X016514Y011008D01*
X016514Y011009D02*
X016514Y011009D01*
X016514Y011009D01*
X016514Y011009D01*
X016514Y011009D01*
X016515Y011009D02*
X016515Y011009D01*
X016515Y011009D01*
X016515Y011009D01*
X016515Y011009D01*
X016515Y011008D02*
X016516Y011008D01*
X016516Y011008D01*
X016516Y011008D01*
X016517Y011009D01*
X016516Y011009D01*
X016516Y011010D01*
X016516Y011010D01*
X016517Y011010D01*
X016517Y011011D01*
X016517Y011011D01*
X016517Y011011D01*
X016516Y011011D01*
X016516Y011011D01*
X016516Y011011D01*
X016516Y011010D01*
X016516Y011010D01*
X016517Y011010D01*
X016517Y011010D01*
X016516Y011010D02*
X016516Y011010D01*
X016516Y011011D01*
X016516Y011012D01*
X016517Y011012D01*
X016517Y011012D01*
X016516Y011012D01*
X016517Y011012D01*
X016517Y011011D01*
X016516Y011011D02*
X016514Y011010D01*
X016514Y011011D02*
X016514Y011012D01*
X016514Y011012D01*
X016514Y011013D01*
X016516Y011013D01*
X016516Y011013D01*
X016516Y011013D01*
X016516Y011013D01*
X016516Y011013D01*
X016517Y011013D01*
X016517Y011013D01*
X016517Y011013D01*
X016516Y011014D02*
X016517Y011014D01*
X016516Y011014D01*
X016517Y011014D02*
X016517Y011015D01*
X016516Y011015D01*
X016516Y011016D01*
X016516Y011016D01*
X016516Y011016D01*
X016517Y011016D01*
X016517Y011016D01*
X016517Y011016D01*
X016517Y011016D01*
X016516Y011016D01*
X016516Y011016D01*
X016516Y011017D01*
X016517Y011017D01*
X016517Y011016D01*
X016517Y011015D01*
X016516Y011015D01*
X016515Y011015D02*
X016515Y011016D01*
X016515Y011016D01*
X016514Y011016D01*
X016514Y011015D01*
X016515Y011015D01*
X016515Y011015D01*
X016515Y011014D01*
X016515Y011013D01*
X016514Y011014D01*
X016514Y011014D01*
X016514Y011015D01*
X016514Y011015D01*
X016514Y011016D01*
X016514Y011017D02*
X016515Y011018D01*
X016515Y011018D01*
X016515Y011019D01*
X016515Y011020D01*
X016514Y011019D02*
X016514Y011019D01*
X016515Y011018D01*
X016516Y011018D02*
X016516Y011018D01*
X016516Y011018D01*
X016516Y011017D01*
X016516Y011017D01*
X016517Y011017D01*
X016517Y011017D01*
X016517Y011018D01*
X016517Y011018D01*
X016516Y011018D01*
X016517Y011018D01*
X016517Y011018D01*
X016517Y011019D02*
X016517Y011019D01*
X016517Y011019D01*
X016516Y011019D01*
X016517Y011019D01*
X016517Y011020D02*
X016517Y011020D01*
X016517Y011020D01*
X016516Y011020D01*
X016516Y011020D01*
X016516Y011020D01*
X016516Y011020D01*
X016516Y011020D01*
X016516Y011021D02*
X016516Y011021D01*
X016516Y011021D01*
X016517Y011021D01*
X016517Y011021D01*
X016517Y011021D01*
X016516Y011021D02*
X016516Y011021D01*
X016516Y011021D01*
X016517Y011022D01*
X016517Y011023D01*
X016517Y011023D01*
X016516Y011023D01*
X016516Y011023D01*
X016516Y011022D01*
X016517Y011022D01*
X016517Y011023D02*
X016516Y011023D01*
X016516Y011024D01*
X016516Y011024D01*
X016516Y011024D01*
X016517Y011024D01*
X016517Y011024D01*
X016517Y011024D01*
X016516Y011024D01*
X016516Y011024D01*
X016516Y011025D01*
X016516Y011025D01*
X016517Y011025D01*
X016517Y011024D01*
X016517Y011024D01*
X016517Y011023D01*
X016516Y011023D02*
X016514Y011023D01*
X016515Y011022D02*
X016515Y011023D01*
X016515Y011024D02*
X016514Y011024D01*
X016514Y011024D01*
X016514Y011025D01*
X016515Y011025D01*
X016515Y011024D01*
X016515Y011024D01*
X016515Y011025D02*
X016515Y011025D01*
X016515Y011026D02*
X016515Y011026D01*
X016515Y011027D01*
X016516Y011027D02*
X016514Y011027D01*
X016514Y011026D01*
X016515Y011026D01*
X016516Y011026D02*
X016517Y011026D01*
X016517Y011026D01*
X016516Y011026D01*
X016516Y011025D01*
X016517Y011026D02*
X016516Y011026D01*
X016517Y011026D02*
X016517Y011027D01*
X016517Y011028D01*
X016517Y011028D01*
X016516Y011028D01*
X016516Y011027D01*
X016516Y011027D01*
X016517Y011027D01*
X016517Y011027D01*
X016517Y011027D01*
X016516Y011027D01*
X016516Y011028D01*
X016517Y011028D01*
X016517Y011029D01*
X016516Y011029D01*
X016516Y011029D01*
X016517Y011029D01*
X016517Y011029D01*
X016517Y011030D01*
X016517Y011030D01*
X016516Y011030D02*
X016516Y011030D01*
X016516Y011030D01*
X016516Y011029D01*
X016516Y011030D02*
X016517Y011029D01*
X016516Y011030D02*
X016516Y011030D01*
X016516Y011030D01*
X016517Y011031D01*
X016517Y011032D01*
X016517Y011033D01*
X016516Y011033D01*
X016516Y011033D01*
X016516Y011032D01*
X016516Y011032D01*
X016517Y011032D01*
X016517Y011032D01*
X016516Y011031D02*
X016517Y011031D01*
X016516Y011031D02*
X016516Y011032D01*
X016517Y011033D02*
X016516Y011033D01*
X016517Y011033D01*
X016517Y011033D01*
X016517Y011034D01*
X016517Y011034D01*
X016517Y011034D01*
X016516Y011034D01*
X016516Y011034D01*
X016516Y011033D01*
X016516Y011034D01*
X016517Y011034D01*
X016517Y011035D01*
X016516Y011035D01*
X016516Y011035D01*
X016516Y011035D01*
X016516Y011036D01*
X016517Y011036D01*
X016517Y011036D01*
X016517Y011035D01*
X016516Y011035D02*
X016516Y011036D01*
X016517Y011036D01*
X016517Y011037D01*
X016517Y011037D01*
X016517Y011038D01*
X016516Y011038D01*
X016516Y011039D01*
X016517Y011039D01*
X016517Y011039D01*
X016517Y011038D01*
X016517Y011038D01*
X016516Y011038D01*
X016516Y011037D01*
X016517Y011037D01*
X016517Y011037D01*
X016516Y011037D01*
X016516Y011037D01*
X016516Y011038D02*
X016514Y011036D01*
X016514Y011035D01*
X016514Y011034D01*
X016514Y011034D01*
X016514Y011034D01*
X016514Y011035D01*
X016514Y011036D01*
X016515Y011036D01*
X016515Y011035D01*
X016515Y011035D01*
X016515Y011034D02*
X016515Y011033D01*
X016515Y011033D01*
X016514Y011033D01*
X016514Y011034D01*
X016514Y011033D01*
X016515Y011032D02*
X016514Y011032D01*
X016515Y011032D02*
X016515Y011032D01*
X016515Y011031D01*
X016514Y011031D01*
X016514Y011030D02*
X016514Y011029D01*
X016514Y011028D01*
X016514Y011028D01*
X016515Y011028D01*
X016515Y011028D01*
X016515Y011029D01*
X016513Y011029D01*
X016513Y011029D01*
X016513Y011028D01*
X016515Y011030D02*
X016514Y011030D01*
X016515Y011029D02*
X016515Y011030D01*
X016517Y011028D02*
X016517Y011028D01*
X016517Y011026D02*
X016517Y011026D01*
X016514Y011026D02*
X016514Y011026D01*
X016514Y011025D02*
X016514Y011025D01*
X016514Y011022D02*
X016516Y011022D01*
X016514Y011020D01*
X016514Y011019D01*
X016514Y011020D01*
X016514Y011019D02*
X016514Y011018D01*
X016514Y011017D02*
X016515Y011017D01*
X016516Y011018D02*
X016516Y011018D01*
X016514Y011015D02*
X016514Y011014D01*
X016514Y011013D01*
X016516Y011011D02*
X016514Y011011D01*
X016516Y011009D02*
X016516Y011009D01*
X016516Y011008D02*
X016516Y011008D01*
X016516Y011008D01*
X016516Y011007D01*
X016516Y011007D01*
X016516Y011007D01*
X016516Y011007D01*
X016517Y011007D01*
X016517Y011007D01*
X016517Y011007D01*
X016517Y011007D01*
X016517Y011008D02*
X016517Y011008D01*
X016517Y011008D01*
X016517Y011008D01*
X016517Y011008D01*
X016516Y011007D02*
X016515Y011007D01*
X016514Y011007D01*
X016514Y011007D01*
X016514Y011038D02*
X016514Y011039D01*
X016515Y011039D01*
X016516Y011039D01*
X016516Y011039D01*
X016516Y011039D01*
X016516Y011039D01*
X016516Y011038D01*
X016514Y011038D01*
X016514Y011039D02*
X016514Y011039D01*
X016514Y011040D02*
X016514Y011040D01*
X016515Y011040D01*
X016515Y011040D01*
X016515Y011041D01*
X016515Y011041D01*
X016514Y011041D01*
X016514Y011041D01*
X016514Y011040D01*
X016514Y011042D02*
X016514Y011042D01*
X016515Y011042D01*
X016515Y011042D01*
X016515Y011043D01*
X016515Y011044D02*
X016514Y011044D01*
X016514Y011044D01*
X016514Y011045D01*
X016515Y011045D01*
X016515Y011046D01*
X016515Y011046D01*
X016515Y011046D01*
X016514Y011046D01*
X016514Y011045D02*
X016515Y011045D01*
X016516Y011045D02*
X016517Y011045D01*
X016517Y011046D02*
X016517Y011046D01*
X016516Y011046D01*
X016517Y011046D01*
X016517Y011047D01*
X016517Y011047D01*
X016517Y011047D01*
X016516Y011047D01*
X016517Y011047D01*
X016517Y011048D01*
X016517Y011048D01*
X016517Y011048D01*
X016517Y011049D01*
X016517Y011049D01*
X016517Y011049D01*
X016516Y011049D01*
X016517Y011049D01*
X016517Y011049D01*
X016516Y011049D01*
X016516Y011049D01*
X016516Y011050D01*
X016517Y011051D01*
X016517Y011052D01*
X016517Y011052D01*
X016516Y011052D01*
X016516Y011052D01*
X016516Y011051D01*
X016517Y011051D01*
X016517Y011051D01*
X016516Y011052D02*
X016516Y011051D01*
X016516Y011051D01*
X016515Y011051D02*
X016514Y011051D01*
X016514Y011052D01*
X016514Y011053D01*
X016514Y011053D01*
X016514Y011054D01*
X016516Y011055D01*
X016516Y011055D01*
X016517Y011055D01*
X016517Y011055D01*
X016517Y011055D01*
X016517Y011054D01*
X016517Y011054D01*
X016517Y011053D01*
X016517Y011053D01*
X016516Y011053D01*
X016516Y011053D01*
X016516Y011054D01*
X016516Y011055D01*
X016516Y011055D01*
X016516Y011055D01*
X016516Y011054D01*
X016516Y011054D01*
X016517Y011054D01*
X016517Y011054D01*
X016516Y011054D01*
X016516Y011053D02*
X016517Y011053D01*
X016517Y011053D01*
X016517Y011052D02*
X016516Y011052D01*
X016517Y011052D02*
X016517Y011052D01*
X016515Y011051D02*
X016515Y011052D01*
X016515Y011053D01*
X016515Y011054D01*
X016514Y011053D02*
X016514Y011054D01*
X016514Y011053D02*
X016515Y011052D01*
X016515Y011050D02*
X016514Y011050D01*
X016515Y011050D02*
X016515Y011050D01*
X016515Y011049D01*
X016514Y011049D01*
X016514Y011047D01*
X016515Y011047D01*
X016514Y011047D01*
X016514Y011048D01*
X016514Y011048D01*
X016515Y011049D02*
X016514Y011049D01*
X016515Y011048D02*
X016515Y011049D01*
X016515Y011048D02*
X016515Y011048D01*
X016515Y011047D01*
X016515Y011046D01*
X016516Y011047D02*
X016516Y011048D01*
X016516Y011048D01*
X016517Y011048D01*
X016516Y011048D01*
X016516Y011047D01*
X016517Y011049D02*
X016517Y011049D01*
X016517Y011050D01*
X016517Y011050D01*
X016516Y011050D01*
X016516Y011049D01*
X016516Y011044D02*
X016516Y011044D01*
X016516Y011043D01*
X016516Y011043D01*
X016517Y011043D01*
X016517Y011043D01*
X016517Y011044D01*
X016516Y011044D01*
X016517Y011044D02*
X016517Y011044D01*
X016517Y011043D02*
X016516Y011043D01*
X016516Y011042D01*
X016517Y011042D01*
X016517Y011042D01*
X016517Y011043D01*
X016517Y011043D01*
X016516Y011043D02*
X016516Y011042D01*
X016516Y011042D01*
X016517Y011042D01*
X016517Y011042D01*
X016516Y011042D02*
X016516Y011042D01*
X016516Y011042D01*
X016516Y011041D02*
X016517Y011041D01*
X016517Y011041D01*
X016517Y011041D01*
X016517Y011041D01*
X016516Y011041D01*
X016516Y011041D01*
X016516Y011041D01*
X016516Y011041D01*
X016517Y011040D02*
X016517Y011040D01*
X016516Y011040D01*
X016517Y011040D01*
X016517Y011040D01*
X016517Y011039D01*
X016516Y011039D02*
X016516Y011038D01*
X016516Y011039D02*
X016517Y011040D01*
X016514Y011042D02*
X016514Y011043D01*
X016516Y011056D02*
X016516Y011056D01*
X016516Y011056D01*
X016516Y011057D01*
X016516Y011058D01*
X016517Y011058D01*
X016517Y011058D01*
X016517Y011058D01*
X016517Y011057D01*
X016516Y011057D01*
X016516Y011057D01*
X016516Y011057D01*
X016516Y011057D01*
X016516Y011057D01*
X016516Y011058D02*
X016516Y011058D01*
X016517Y011058D01*
X016517Y011058D01*
X016516Y011058D01*
X016514Y011058D01*
X016514Y011057D01*
X016515Y011057D01*
X016515Y011057D01*
X016515Y011058D01*
X016516Y011059D02*
X016516Y011059D01*
X016516Y011059D01*
X016517Y011059D01*
X016517Y011059D01*
X016517Y011060D01*
X016516Y011060D01*
X016516Y011059D01*
X016517Y011059D01*
X016517Y011059D01*
X016517Y011058D01*
X016517Y011056D02*
X016517Y011056D01*
X016517Y011056D01*
X016516Y011056D01*
X016516Y011056D01*
X016516Y011056D01*
X016514Y011056D01*
X016514Y011057D01*
X016514Y011057D01*
X016514Y011059D02*
X016514Y011060D01*
X016515Y011060D01*
X016515Y011061D01*
X016515Y011062D01*
X016515Y011063D01*
X016516Y011063D02*
X016514Y011063D01*
X016514Y011064D02*
X016514Y011064D01*
X016514Y011064D01*
X016514Y011065D01*
X016514Y011064D01*
X016515Y011064D02*
X016515Y011065D01*
X016515Y011065D01*
X016514Y011065D01*
X016514Y011066D02*
X016515Y011066D01*
X016515Y011067D01*
X016515Y011067D01*
X016514Y011067D01*
X016514Y011068D02*
X016515Y011068D01*
X016515Y011069D01*
X016515Y011070D01*
X016515Y011071D01*
X016516Y011071D02*
X016516Y011072D01*
X016515Y011073D01*
X016514Y011073D01*
X016515Y011074D01*
X016515Y011074D01*
X016515Y011075D02*
X016514Y011075D01*
X016514Y011075D01*
X016514Y011076D01*
X016515Y011076D01*
X016515Y011075D01*
X016515Y011075D01*
X016515Y011076D02*
X016515Y011076D01*
X016514Y011076D02*
X016514Y011076D01*
X016513Y011076D02*
X016513Y011077D01*
X016513Y011077D01*
X016515Y011077D01*
X016516Y011077D02*
X016516Y011077D01*
X016515Y011078D02*
X016515Y011079D01*
X016515Y011079D01*
X016514Y011079D01*
X016514Y011078D01*
X016515Y011078D01*
X016515Y011078D01*
X016514Y011078D02*
X016514Y011078D01*
X016514Y011079D01*
X016514Y011080D02*
X016514Y011080D01*
X016514Y011081D01*
X016514Y011082D02*
X016514Y011082D01*
X016515Y011082D01*
X016515Y011081D01*
X016515Y011080D01*
X016515Y011080D01*
X016514Y011080D01*
X016514Y011083D02*
X016516Y011084D01*
X016516Y011086D01*
X016514Y011086D01*
X016515Y011086D02*
X016515Y011087D01*
X016515Y011088D01*
X016515Y011088D01*
X016514Y011088D01*
X016514Y011088D01*
X016514Y011089D01*
X016514Y011088D01*
X016515Y011088D01*
X016515Y011089D01*
X016515Y011089D01*
X016514Y011089D01*
X016514Y011090D02*
X016515Y011090D01*
X016515Y011090D01*
X016515Y011091D01*
X016515Y011091D01*
X016515Y011091D01*
X016514Y011091D01*
X016515Y011091D01*
X016515Y011092D02*
X016515Y011092D01*
X016515Y011093D01*
X016515Y011093D01*
X016514Y011093D01*
X016514Y011092D01*
X016515Y011092D01*
X016514Y011092D02*
X016514Y011092D01*
X016514Y011093D01*
X016514Y011094D02*
X016516Y011095D01*
X016515Y011096D02*
X016515Y011096D01*
X016515Y011095D01*
X016514Y011095D01*
X016514Y011096D01*
X016514Y011096D01*
X016514Y011097D02*
X016514Y011095D01*
X016515Y011096D02*
X016515Y011097D01*
X016514Y011097D01*
X016514Y011098D01*
X016516Y011098D01*
X016516Y011097D01*
X016516Y011099D02*
X016516Y011099D01*
X016515Y011099D02*
X016514Y011099D01*
X016514Y011099D01*
X016514Y011100D02*
X016514Y011101D01*
X016514Y011101D01*
X016515Y011101D01*
X016515Y011101D01*
X016515Y011100D01*
X016513Y011100D01*
X016514Y011102D02*
X016514Y011103D01*
X016514Y011103D01*
X016514Y011103D01*
X016514Y011102D01*
X016515Y011102D01*
X016515Y011103D01*
X016515Y011104D01*
X016514Y011104D01*
X016514Y011103D01*
X016515Y011102D02*
X016515Y011102D01*
X016516Y011104D02*
X016516Y011104D01*
X016515Y011105D02*
X016515Y011106D01*
X016514Y011106D02*
X016514Y011105D01*
X016515Y011105D01*
X016515Y011105D01*
X016514Y011106D02*
X016514Y011106D01*
X016514Y011106D01*
X016514Y011105D01*
X016514Y011107D02*
X016514Y011107D01*
X016514Y011107D01*
X016514Y011107D01*
X016514Y011107D01*
X016514Y011108D01*
X016514Y011109D01*
X016515Y011109D01*
X016515Y011110D01*
X016515Y011111D01*
X016515Y011112D01*
X016515Y011112D01*
X016514Y011112D01*
X016514Y011111D01*
X016515Y011111D01*
X016513Y011111D01*
X016514Y011110D02*
X016515Y011110D01*
X016515Y011110D01*
X016515Y011110D01*
X016514Y011109D02*
X016515Y011109D01*
X016515Y011108D01*
X016515Y011107D01*
X016516Y011107D02*
X016514Y011107D01*
X016514Y011112D02*
X016514Y011112D01*
X016515Y011099D02*
X016515Y011099D01*
X016515Y011087D02*
X016515Y011087D01*
X016514Y011085D02*
X016516Y011085D01*
X016515Y011073D02*
X016515Y011073D01*
X016514Y011072D01*
X016514Y011071D01*
X016514Y011070D01*
X016515Y011069D01*
X016516Y011069D02*
X016514Y011069D01*
X016514Y011068D01*
X016514Y011068D01*
X016515Y011068D02*
X016515Y011068D01*
X016514Y011070D02*
X016514Y011070D01*
X016514Y011071D01*
X016516Y011071D01*
X016514Y011069D02*
X016514Y011070D01*
X016514Y011062D02*
X016516Y011062D01*
X016515Y011061D02*
X016515Y011061D01*
X016515Y011062D02*
X016514Y011062D01*
X016514Y011060D01*
X016514Y011061D01*
X016514Y011061D01*
X016516Y011059D02*
X016514Y011059D01*
X017267Y005298D02*
X017269Y005348D01*
X017275Y005398D01*
X017285Y005447D01*
X017299Y005495D01*
X017316Y005542D01*
X017337Y005587D01*
X017362Y005631D01*
X017390Y005672D01*
X017422Y005711D01*
X017456Y005748D01*
X017493Y005782D01*
X017533Y005812D01*
X017575Y005839D01*
X017619Y005863D01*
X017665Y005884D01*
X017712Y005900D01*
X017760Y005913D01*
X017810Y005922D01*
X017859Y005927D01*
X017910Y005928D01*
X017960Y005925D01*
X018009Y005918D01*
X018058Y005907D01*
X018106Y005892D01*
X018152Y005874D01*
X018197Y005852D01*
X018240Y005826D01*
X018281Y005797D01*
X018320Y005765D01*
X018356Y005730D01*
X018388Y005692D01*
X018418Y005652D01*
X018445Y005609D01*
X018468Y005565D01*
X018487Y005519D01*
X018503Y005471D01*
X018515Y005422D01*
X018523Y005373D01*
X018527Y005323D01*
X018527Y005273D01*
X018523Y005223D01*
X018515Y005174D01*
X018503Y005125D01*
X018487Y005077D01*
X018468Y005031D01*
X018445Y004987D01*
X018418Y004944D01*
X018388Y004904D01*
X018356Y004866D01*
X018320Y004831D01*
X018281Y004799D01*
X018240Y004770D01*
X018197Y004744D01*
X018152Y004722D01*
X018106Y004704D01*
X018058Y004689D01*
X018009Y004678D01*
X017960Y004671D01*
X017910Y004668D01*
X017859Y004669D01*
X017810Y004674D01*
X017760Y004683D01*
X017712Y004696D01*
X017665Y004712D01*
X017619Y004733D01*
X017575Y004757D01*
X017533Y004784D01*
X017493Y004814D01*
X017456Y004848D01*
X017422Y004885D01*
X017390Y004924D01*
X017362Y004965D01*
X017337Y005009D01*
X017316Y005054D01*
X017299Y005101D01*
X017285Y005149D01*
X017275Y005198D01*
X017269Y005248D01*
X017267Y005298D01*
X017267Y001361D02*
X017269Y001411D01*
X017275Y001461D01*
X017285Y001510D01*
X017299Y001558D01*
X017316Y001605D01*
X017337Y001650D01*
X017362Y001694D01*
X017390Y001735D01*
X017422Y001774D01*
X017456Y001811D01*
X017493Y001845D01*
X017533Y001875D01*
X017575Y001902D01*
X017619Y001926D01*
X017665Y001947D01*
X017712Y001963D01*
X017760Y001976D01*
X017810Y001985D01*
X017859Y001990D01*
X017910Y001991D01*
X017960Y001988D01*
X018009Y001981D01*
X018058Y001970D01*
X018106Y001955D01*
X018152Y001937D01*
X018197Y001915D01*
X018240Y001889D01*
X018281Y001860D01*
X018320Y001828D01*
X018356Y001793D01*
X018388Y001755D01*
X018418Y001715D01*
X018445Y001672D01*
X018468Y001628D01*
X018487Y001582D01*
X018503Y001534D01*
X018515Y001485D01*
X018523Y001436D01*
X018527Y001386D01*
X018527Y001336D01*
X018523Y001286D01*
X018515Y001237D01*
X018503Y001188D01*
X018487Y001140D01*
X018468Y001094D01*
X018445Y001050D01*
X018418Y001007D01*
X018388Y000967D01*
X018356Y000929D01*
X018320Y000894D01*
X018281Y000862D01*
X018240Y000833D01*
X018197Y000807D01*
X018152Y000785D01*
X018106Y000767D01*
X018058Y000752D01*
X018009Y000741D01*
X017960Y000734D01*
X017910Y000731D01*
X017859Y000732D01*
X017810Y000737D01*
X017760Y000746D01*
X017712Y000759D01*
X017665Y000775D01*
X017619Y000796D01*
X017575Y000820D01*
X017533Y000847D01*
X017493Y000877D01*
X017456Y000911D01*
X017422Y000948D01*
X017390Y000987D01*
X017362Y001028D01*
X017337Y001072D01*
X017316Y001117D01*
X017299Y001164D01*
X017285Y001212D01*
X017275Y001261D01*
X017269Y001311D01*
X017267Y001361D01*
D11*
X011580Y010117D02*
X011733Y010271D01*
X011580Y010424D01*
X011273Y010424D01*
X011273Y010578D02*
X011733Y010578D01*
X011733Y010808D01*
X011656Y010885D01*
X011503Y010885D01*
X011426Y010808D01*
X011426Y010578D01*
X011426Y010731D02*
X011273Y010885D01*
X011273Y011038D02*
X011273Y011268D01*
X011350Y011345D01*
X011656Y011345D01*
X011733Y011268D01*
X011733Y011038D01*
X011273Y011038D01*
X011350Y011499D02*
X011273Y011575D01*
X011273Y011729D01*
X011350Y011805D01*
X011733Y011805D01*
X011733Y011959D02*
X011733Y012112D01*
X011733Y012036D02*
X011273Y012036D01*
X011273Y012112D02*
X011273Y011959D01*
X011273Y012266D02*
X011733Y012266D01*
X011273Y012573D01*
X011733Y012573D01*
X011656Y012726D02*
X011350Y012726D01*
X011273Y012803D01*
X011273Y012956D01*
X011350Y013033D01*
X011656Y013033D01*
X011733Y012956D01*
X011733Y012803D01*
X011656Y012726D01*
X011196Y013187D02*
X011196Y013494D01*
X011273Y013647D02*
X011733Y013647D01*
X011733Y013877D01*
X011656Y013954D01*
X011503Y013954D01*
X011426Y013877D01*
X011426Y013647D01*
X011426Y014107D02*
X011426Y014338D01*
X011503Y014414D01*
X011656Y014414D01*
X011733Y014338D01*
X011733Y014107D01*
X011273Y014107D01*
X011426Y014261D02*
X011273Y014414D01*
X011350Y014568D02*
X011273Y014645D01*
X011273Y014798D01*
X011350Y014875D01*
X011656Y014875D01*
X011733Y014798D01*
X011733Y014645D01*
X011656Y014568D01*
X011350Y014568D01*
X011196Y015028D02*
X011196Y015335D01*
X011273Y015489D02*
X011733Y015489D01*
X011580Y015642D01*
X011733Y015795D01*
X011273Y015795D01*
X011273Y015949D02*
X011273Y016102D01*
X011273Y016026D02*
X011733Y016026D01*
X011733Y016102D02*
X011733Y015949D01*
X011733Y016256D02*
X011273Y016563D01*
X011733Y016563D01*
X011733Y016716D02*
X011733Y016870D01*
X011733Y016793D02*
X011273Y016793D01*
X011273Y016716D02*
X011273Y016870D01*
X011273Y016256D02*
X011733Y016256D01*
X011733Y011499D02*
X011350Y011499D01*
X011503Y010424D02*
X011503Y010117D01*
X011580Y010117D02*
X011273Y010117D01*
D12*
X012734Y017070D02*
X012659Y017145D01*
X012659Y017295D01*
X012734Y017370D01*
X012809Y017370D01*
X012885Y017295D01*
X012885Y017145D01*
X012960Y017070D01*
X013035Y017070D01*
X013110Y017145D01*
X013110Y017295D01*
X013035Y017370D01*
X012960Y017530D02*
X013110Y017680D01*
X012659Y017680D01*
X012659Y017530D02*
X012659Y017830D01*
X017959Y017755D02*
X018410Y017755D01*
X018185Y017530D01*
X018185Y017830D01*
X018335Y017370D02*
X018034Y017370D01*
X017959Y017295D01*
X017959Y017145D01*
X018034Y017070D01*
X018335Y017370D01*
X018410Y017295D01*
X018410Y017145D01*
X018335Y017070D01*
X018034Y017070D01*
X018034Y016910D02*
X017959Y016834D01*
X017959Y016684D01*
X018034Y016609D01*
X018335Y016910D01*
X018034Y016910D01*
X018034Y016609D02*
X018335Y016609D01*
X018410Y016684D01*
X018410Y016834D01*
X018335Y016910D01*
X018335Y016449D02*
X018410Y016374D01*
X018410Y016224D01*
X018335Y016149D01*
X018260Y016149D01*
X018185Y016224D01*
X018185Y016374D01*
X018109Y016449D01*
X018034Y016449D01*
X017959Y016374D01*
X017959Y016224D01*
X018034Y016149D01*
X017959Y015989D02*
X018410Y015989D01*
X018410Y015688D02*
X017959Y015688D01*
X018109Y015839D01*
X017959Y015989D01*
X018034Y015528D02*
X017959Y015453D01*
X017959Y015303D01*
X018034Y015228D01*
X018185Y015303D02*
X018185Y015453D01*
X018109Y015528D01*
X018034Y015528D01*
X018185Y015303D02*
X018260Y015228D01*
X018335Y015228D01*
X018410Y015303D01*
X018410Y015453D01*
X018335Y015528D01*
X003452Y015542D02*
X003452Y015208D01*
X002467Y015208D01*
X002467Y014656D01*
X001877Y015542D02*
X003452Y015542D01*
X002467Y013278D02*
X002467Y012727D01*
X003452Y012727D01*
X003452Y012393D01*
X001877Y012393D01*
X001853Y012113D02*
X003428Y012113D01*
X003428Y011778D01*
X002444Y011778D01*
X002444Y011227D01*
X002444Y009849D02*
X002444Y009298D01*
X003428Y009298D01*
X003428Y008963D01*
X001853Y008963D01*
X001066Y009652D02*
X001066Y011424D01*
X001089Y013082D02*
X001089Y014853D01*
D13*
X001241Y014800D02*
X001241Y014700D01*
X001241Y014750D02*
X001391Y014750D01*
X001341Y014700D01*
X001391Y014653D02*
X001391Y014553D01*
X001391Y014603D02*
X001241Y014603D01*
X001266Y014506D02*
X001241Y014480D01*
X001241Y014405D01*
X001391Y014405D01*
X001391Y014480D01*
X001366Y014506D01*
X001341Y014506D01*
X001316Y014480D01*
X001316Y014405D01*
X001316Y014480D02*
X001291Y014506D01*
X001266Y014506D01*
X001217Y011371D02*
X001217Y011271D01*
X001317Y011371D01*
X001342Y011371D01*
X001367Y011346D01*
X001367Y011296D01*
X001342Y011271D01*
X001367Y011224D02*
X001367Y011124D01*
X001367Y011174D02*
X001217Y011174D01*
X001242Y011076D02*
X001217Y011051D01*
X001217Y010976D01*
X001367Y010976D01*
X001367Y011051D01*
X001342Y011076D01*
X001317Y011076D01*
X001292Y011051D01*
X001292Y010976D01*
X001292Y011051D02*
X001267Y011076D01*
X001242Y011076D01*
D14*
X003613Y011821D02*
X003940Y011821D01*
X003777Y011658D02*
X003777Y011985D01*
X003800Y012337D02*
X003800Y012664D01*
X003800Y015087D02*
X003800Y015414D01*
X003964Y015250D02*
X003637Y015250D01*
X003777Y009235D02*
X003777Y008908D01*
X003886Y025872D02*
X003886Y026503D01*
X004096Y026503D02*
X003676Y026503D01*
X003518Y026837D02*
X003518Y027468D01*
X003294Y027468D02*
X003294Y026837D01*
X002874Y026837D01*
X002649Y026837D02*
X002649Y027468D01*
X002334Y027468D01*
X002229Y027362D01*
X002229Y027152D01*
X002334Y027047D01*
X002649Y027047D01*
X002439Y027047D02*
X002229Y026837D01*
X002057Y026503D02*
X002162Y026398D01*
X002162Y026293D01*
X002057Y026188D01*
X001847Y026188D01*
X001742Y026083D01*
X001742Y025978D01*
X001847Y025872D01*
X002057Y025872D01*
X002162Y025978D01*
X002387Y025872D02*
X002597Y026083D01*
X002492Y026083D02*
X002807Y026083D01*
X002807Y025872D02*
X002807Y026503D01*
X002492Y026503D01*
X002387Y026398D01*
X002387Y026188D01*
X002492Y026083D01*
X002057Y026503D02*
X001847Y026503D01*
X001742Y026398D01*
X002874Y027468D02*
X003294Y027468D01*
X003294Y027152D02*
X003084Y027152D01*
X003518Y026837D02*
X003728Y027047D01*
X003939Y026837D01*
X003939Y027468D01*
X004163Y027362D02*
X004163Y026942D01*
X004268Y026837D01*
X004478Y026837D01*
X004583Y026942D01*
X004583Y027362D01*
X004478Y027468D01*
X004268Y027468D01*
X004163Y027362D01*
X004807Y027362D02*
X004807Y027152D01*
X004912Y027047D01*
X005228Y027047D01*
X005228Y026837D02*
X005228Y027468D01*
X004912Y027468D01*
X004807Y027362D01*
X004965Y026503D02*
X004965Y025872D01*
X004741Y025978D02*
X004636Y025872D01*
X004425Y025872D01*
X004320Y025978D01*
X004320Y026398D01*
X004425Y026503D01*
X004636Y026503D01*
X004741Y026398D01*
X004741Y025978D01*
X005175Y026293D02*
X004965Y026503D01*
X005175Y026293D02*
X005385Y026503D01*
X005385Y025872D01*
X003452Y025978D02*
X003346Y025872D01*
X003136Y025872D01*
X003031Y025978D01*
X003031Y026398D01*
X003136Y026503D01*
X003346Y026503D01*
X003452Y026398D01*
X003452Y025978D01*
D15*
X001276Y027670D02*
X005855Y027670D01*
X005855Y029383D01*
X001276Y029383D01*
X001276Y027670D01*
X001040Y025662D02*
X005619Y025662D01*
X005619Y023950D01*
X001040Y023950D01*
X001040Y025662D01*
X014103Y012294D02*
X013853Y012044D01*
X013853Y011544D01*
X014103Y011294D01*
X014603Y011294D01*
X014853Y011544D01*
X015103Y011294D01*
X015603Y011294D01*
X015853Y011544D01*
X016103Y011294D01*
X016603Y011294D01*
X016853Y011544D01*
X017103Y011294D01*
X017603Y011294D01*
X017853Y011544D01*
X017853Y012044D01*
X017603Y012294D01*
X017103Y012294D01*
X016853Y012044D01*
X016603Y012294D01*
X016103Y012294D01*
X015853Y012044D01*
X015603Y012294D01*
X015103Y012294D01*
X014853Y012044D01*
X014603Y012294D01*
X014103Y012294D01*
D16*
X017418Y012472D03*
X017418Y011991D03*
X017418Y011509D03*
D17*
X017419Y011509D03*
D18*
X017419Y011991D03*
X017419Y012473D03*
D19*
X017420Y011991D03*
X017420Y011509D03*
D20*
X017420Y012473D03*
D21*
X017421Y011991D03*
X017421Y011509D03*
D22*
X017421Y012473D03*
D23*
X017422Y011509D03*
D24*
X017422Y011991D03*
D25*
X017422Y012473D03*
D26*
X017423Y011509D03*
D27*
X017423Y011991D03*
D28*
X017423Y012473D03*
D29*
X017424Y011991D03*
X017424Y011509D03*
D30*
X017424Y012473D03*
D31*
X017425Y011509D03*
D32*
X017425Y011991D03*
X017425Y012473D03*
D33*
X017426Y012473D03*
X017426Y011510D03*
D34*
X017426Y011991D03*
D35*
X017427Y011509D03*
D36*
X017427Y011991D03*
X017427Y012473D03*
D37*
X017428Y012473D03*
X017428Y011510D03*
D38*
X017428Y011991D03*
D39*
X017429Y011992D03*
X017429Y012473D03*
X017429Y011510D03*
D40*
X017430Y011510D03*
X017430Y012473D03*
D41*
X017650Y012473D03*
X017650Y011991D03*
X017430Y011991D03*
X017650Y011509D03*
D42*
X017431Y011510D03*
D43*
X017431Y011992D03*
X017431Y012473D03*
D44*
X017432Y011510D03*
X017648Y011510D03*
D45*
X017432Y011991D03*
X017432Y012473D03*
D46*
X017433Y012473D03*
X017433Y011991D03*
X017433Y011509D03*
D47*
X017434Y011510D03*
D48*
X017434Y011991D03*
X017434Y012473D03*
D49*
X017435Y011510D03*
X017645Y011510D03*
D50*
X017435Y011992D03*
X017435Y012473D03*
D51*
X017436Y012473D03*
X017436Y011991D03*
X017436Y011509D03*
D52*
X017437Y011510D03*
X017643Y011510D03*
D53*
X017437Y011992D03*
D54*
X017643Y011991D03*
X017643Y012473D03*
X017437Y012473D03*
D55*
X017438Y011509D03*
D56*
X017438Y011991D03*
X017642Y011991D03*
X017642Y012473D03*
X017438Y012473D03*
D57*
X017439Y012473D03*
X017439Y011510D03*
D58*
X017439Y011992D03*
D59*
X017440Y011510D03*
D60*
X017440Y011991D03*
X017640Y011991D03*
D61*
X017640Y012473D03*
X017440Y012473D03*
X017640Y011509D03*
D62*
X017441Y011510D03*
D63*
X017441Y011991D03*
X017441Y012473D03*
D64*
X017442Y011510D03*
X017638Y011510D03*
D65*
X017638Y011992D03*
X017442Y011992D03*
D66*
X017442Y012473D03*
X017638Y012473D03*
D67*
X017637Y011510D03*
X017443Y011510D03*
D68*
X017443Y011991D03*
X017637Y011991D03*
X017637Y012473D03*
X017443Y012473D03*
D69*
X017444Y011510D03*
D70*
X017444Y011991D03*
D71*
X017444Y012473D03*
D72*
X017445Y011992D03*
X017635Y011992D03*
X017635Y011510D03*
X017445Y011510D03*
D73*
X017445Y012473D03*
X017635Y012473D03*
D74*
X017446Y012474D03*
X017446Y011510D03*
D75*
X017446Y011992D03*
D76*
X017447Y011510D03*
X017633Y011510D03*
D77*
X017633Y011992D03*
X017447Y011992D03*
D78*
X017447Y012473D03*
X017633Y012473D03*
D79*
X017632Y011510D03*
X017448Y011510D03*
D80*
X017448Y011992D03*
X017632Y011992D03*
D81*
X017632Y012473D03*
X017448Y012473D03*
D82*
X017449Y011510D03*
D83*
X017449Y011991D03*
X017449Y012473D03*
D84*
X017450Y011510D03*
X017630Y011510D03*
D85*
X017630Y011991D03*
X017450Y011991D03*
X017450Y012473D03*
X017630Y012473D03*
D86*
X017451Y012473D03*
X017451Y011510D03*
D87*
X017451Y011991D03*
D88*
X017452Y011991D03*
X017628Y011991D03*
X017628Y012473D03*
X017452Y012473D03*
X017452Y011510D03*
X017628Y011510D03*
D89*
X017627Y011510D03*
X017453Y011510D03*
X017453Y012473D03*
X017627Y012473D03*
D90*
X017627Y011991D03*
X017453Y011991D03*
D91*
X017454Y011991D03*
X017454Y012473D03*
X017454Y011510D03*
D92*
X017455Y011510D03*
X017455Y011991D03*
X017625Y011991D03*
X017625Y012473D03*
X017455Y012473D03*
D93*
X017456Y012473D03*
X017456Y011510D03*
D94*
X017456Y011991D03*
D95*
X017457Y011510D03*
X017623Y011510D03*
D96*
X017457Y011991D03*
X017457Y012473D03*
X017623Y012473D03*
D97*
X017622Y011510D03*
X017458Y011510D03*
D98*
X017458Y011992D03*
X017622Y011992D03*
D99*
X017622Y012473D03*
X017458Y012473D03*
D100*
X017459Y011510D03*
D101*
X017459Y011992D03*
D102*
X017459Y012473D03*
D103*
X017460Y012474D03*
X017620Y012474D03*
X017620Y011992D03*
X017460Y011992D03*
X017460Y011510D03*
X017620Y011510D03*
D104*
X017461Y011510D03*
X017461Y012474D03*
D105*
X017461Y011992D03*
D106*
X017462Y011510D03*
D107*
X017462Y011992D03*
X017618Y011992D03*
D108*
X017618Y012473D03*
X017462Y012473D03*
X017618Y011510D03*
D109*
X017617Y011510D03*
X017463Y011510D03*
X017617Y011991D03*
X017617Y012473D03*
X017463Y012473D03*
D110*
X017463Y011992D03*
X017616Y011992D03*
D111*
X017464Y012473D03*
X017464Y011510D03*
D112*
X017464Y011991D03*
D113*
X017615Y012474D03*
X017615Y011510D03*
X017465Y011510D03*
D114*
X017465Y011992D03*
X017615Y011992D03*
D115*
X017465Y012473D03*
D116*
X017466Y012474D03*
X017466Y011992D03*
X017466Y011510D03*
D117*
X017467Y011510D03*
X017612Y011510D03*
D118*
X017613Y011992D03*
X017612Y011992D03*
X017467Y011992D03*
D119*
X017467Y012473D03*
X017613Y012473D03*
X017613Y011510D03*
D120*
X017468Y011510D03*
X017468Y012473D03*
X017612Y012473D03*
D121*
X017468Y011991D03*
D122*
X017469Y011510D03*
D123*
X017469Y011992D03*
D124*
X017469Y012473D03*
D125*
X017470Y012474D03*
X017470Y011510D03*
X017610Y011510D03*
D126*
X017610Y011992D03*
X017470Y011992D03*
D127*
X017471Y012473D03*
X017471Y011510D03*
D128*
X017472Y011992D03*
X017471Y011992D03*
X017608Y011992D03*
D129*
X017472Y012473D03*
X017472Y011510D03*
D130*
X017473Y011510D03*
X017607Y011510D03*
X017607Y011992D03*
X017606Y011992D03*
X017473Y011992D03*
X017473Y012474D03*
X017607Y012474D03*
D131*
X017474Y012473D03*
X017474Y011510D03*
D132*
X017474Y011992D03*
D133*
X017475Y012473D03*
X017475Y011510D03*
D134*
X017475Y011992D03*
X017605Y011992D03*
D135*
X017476Y012474D03*
X017476Y011510D03*
D136*
X017476Y011992D03*
X017603Y011992D03*
D137*
X017603Y012473D03*
X017477Y012473D03*
X017477Y011510D03*
X017603Y011510D03*
D138*
X017602Y011992D03*
X017478Y011992D03*
X017477Y011992D03*
D139*
X017478Y012474D03*
X017602Y012474D03*
X017602Y011510D03*
X017478Y011510D03*
D140*
X017479Y011510D03*
X017479Y012474D03*
D141*
X017479Y011992D03*
D142*
X017480Y012473D03*
X017480Y011510D03*
D143*
X017480Y011992D03*
X017600Y011992D03*
X017601Y011992D03*
D144*
X017598Y011992D03*
X017482Y011992D03*
X017481Y011992D03*
X017481Y012474D03*
X017598Y012474D03*
X017598Y011510D03*
X017481Y011510D03*
D145*
X017482Y011510D03*
X017482Y012473D03*
D146*
X017483Y012474D03*
X017597Y012474D03*
X017597Y011510D03*
X017483Y011510D03*
D147*
X017483Y011992D03*
X017596Y011992D03*
X017597Y011992D03*
D148*
X017484Y012473D03*
X017484Y011510D03*
D149*
X017484Y011992D03*
X017594Y011992D03*
D150*
X017595Y012474D03*
X017485Y012474D03*
X017485Y011510D03*
X017595Y011510D03*
D151*
X017595Y011992D03*
X017485Y011992D03*
D152*
X017486Y012473D03*
X017486Y011510D03*
D153*
X017487Y011992D03*
X017486Y011992D03*
X017592Y011992D03*
X017593Y011992D03*
D154*
X017593Y012474D03*
X017592Y012474D03*
X017487Y012474D03*
X017487Y011510D03*
X017593Y011510D03*
D155*
X017592Y011510D03*
X017591Y011510D03*
X017488Y011510D03*
X017488Y012473D03*
D156*
X017488Y011992D03*
D157*
X017489Y012474D03*
X017489Y011510D03*
D158*
X017489Y011992D03*
D159*
X017490Y012473D03*
X017490Y011510D03*
D160*
X017490Y011992D03*
X017590Y011992D03*
X017591Y011992D03*
D161*
X017588Y011992D03*
X017492Y011992D03*
X017491Y011992D03*
X017492Y012474D03*
X017491Y012474D03*
X017588Y012474D03*
X017588Y011510D03*
X017491Y011510D03*
D162*
X017492Y011510D03*
X017493Y011510D03*
X017587Y011510D03*
X017587Y011992D03*
X017587Y012473D03*
D163*
X017586Y011992D03*
X017585Y011992D03*
X017493Y011992D03*
D164*
X017493Y012474D03*
X017585Y012474D03*
X017586Y012474D03*
X017586Y011510D03*
D165*
X017494Y011510D03*
X017494Y012474D03*
D166*
X017494Y011992D03*
D167*
X017495Y012473D03*
X017495Y011510D03*
X017585Y011510D03*
D168*
X017495Y011992D03*
D169*
X017496Y012474D03*
X017497Y012474D03*
X017583Y012474D03*
X017583Y011510D03*
X017496Y011510D03*
D170*
X017497Y011992D03*
X017496Y011992D03*
X017583Y011992D03*
D171*
X017582Y011992D03*
X017582Y012473D03*
X017498Y012473D03*
X017498Y011510D03*
X017497Y011510D03*
X017582Y011510D03*
D172*
X017581Y011992D03*
X017580Y011992D03*
X017500Y011992D03*
X017498Y011992D03*
D173*
X017499Y012474D03*
X017499Y011510D03*
D174*
X017499Y011992D03*
D175*
X017500Y011510D03*
X017501Y011510D03*
D176*
X017580Y011510D03*
X017581Y011510D03*
X017581Y012474D03*
X017580Y012474D03*
X017500Y012474D03*
D177*
X017501Y011992D03*
X017502Y011992D03*
X017503Y011992D03*
X017577Y011992D03*
X017578Y011992D03*
D178*
X017578Y012474D03*
X017577Y012474D03*
X017503Y012474D03*
X017502Y012474D03*
X017501Y012474D03*
X017502Y011510D03*
X017577Y011510D03*
X017578Y011510D03*
D179*
X017576Y011510D03*
X017575Y011510D03*
X017503Y011510D03*
X017576Y011992D03*
X017576Y012473D03*
D180*
X017504Y012473D03*
X017504Y011510D03*
D181*
X017574Y011510D03*
X017574Y011992D03*
X017504Y011992D03*
X017574Y012474D03*
D182*
X017575Y012474D03*
X017573Y012474D03*
X017506Y012474D03*
X017505Y012474D03*
X017506Y011992D03*
X017505Y011992D03*
X017573Y011992D03*
X017575Y011992D03*
X017506Y011510D03*
X017505Y011510D03*
D183*
X017507Y011510D03*
X017508Y011510D03*
X017571Y011510D03*
X017572Y011510D03*
X017573Y011510D03*
X017572Y011992D03*
X017507Y011992D03*
X017507Y012473D03*
X017572Y012473D03*
D184*
X017571Y011992D03*
X017570Y011992D03*
X017510Y011992D03*
X017508Y011992D03*
D185*
X017508Y012474D03*
X017510Y012474D03*
X017570Y012474D03*
X017571Y012474D03*
X017570Y011510D03*
D186*
X017509Y011510D03*
X017509Y012474D03*
X017569Y012474D03*
D187*
X017569Y011992D03*
X017509Y011992D03*
D188*
X017511Y012473D03*
X017568Y012473D03*
X017568Y011510D03*
X017567Y011510D03*
X017512Y011510D03*
X017511Y011510D03*
X017510Y011510D03*
D189*
X017511Y011992D03*
X017568Y011992D03*
D190*
X017567Y011992D03*
X017566Y011992D03*
X017565Y011992D03*
X017515Y011992D03*
X017513Y011992D03*
X017512Y011992D03*
D191*
X017513Y012474D03*
X017512Y012474D03*
X017515Y012474D03*
X017565Y012474D03*
X017566Y012474D03*
X017567Y012474D03*
X017566Y011510D03*
X017565Y011510D03*
X017513Y011510D03*
D192*
X017514Y011510D03*
X017514Y012474D03*
X017564Y012474D03*
D193*
X017564Y011992D03*
X017514Y011992D03*
D194*
X017516Y011992D03*
X017563Y011992D03*
X017563Y012473D03*
X017516Y012473D03*
X017517Y011510D03*
X017518Y011510D03*
X017516Y011510D03*
X017515Y011510D03*
X017562Y011510D03*
X017563Y011510D03*
D195*
X017562Y011992D03*
X017561Y011992D03*
X017560Y011992D03*
X017558Y011992D03*
X017521Y011992D03*
X017520Y011992D03*
X017518Y011992D03*
X017517Y011992D03*
D196*
X017518Y012474D03*
X017517Y012474D03*
X017520Y012474D03*
X017521Y012474D03*
X017558Y012474D03*
X017560Y012474D03*
X017561Y012474D03*
X017562Y012474D03*
X017561Y011510D03*
X017560Y011510D03*
X017520Y011510D03*
D197*
X017519Y011510D03*
X017519Y012474D03*
X017559Y012474D03*
D198*
X017559Y011992D03*
X017519Y011992D03*
D199*
X017522Y012473D03*
X017523Y012473D03*
X017556Y012473D03*
X017557Y012473D03*
X017558Y011510D03*
X017557Y011510D03*
X017556Y011510D03*
X017555Y011510D03*
X017525Y011510D03*
X017523Y011510D03*
X017522Y011510D03*
X017521Y011510D03*
D200*
X017522Y011992D03*
X017523Y011992D03*
X017556Y011992D03*
X017557Y011992D03*
D201*
X017559Y011510D03*
X017554Y011510D03*
X017524Y011510D03*
D202*
X017524Y011992D03*
X017529Y011992D03*
X017549Y011992D03*
X017554Y011992D03*
D203*
X017554Y012474D03*
X017549Y012474D03*
X017529Y012474D03*
X017524Y012474D03*
X017529Y011510D03*
D204*
X017530Y011992D03*
X017531Y011992D03*
X017532Y011992D03*
X017528Y011992D03*
X017527Y011992D03*
X017526Y011992D03*
X017525Y011992D03*
X017547Y011992D03*
X017548Y011992D03*
X017550Y011992D03*
X017551Y011992D03*
X017552Y011992D03*
X017553Y011992D03*
X017555Y011992D03*
D205*
X017555Y012474D03*
X017553Y012474D03*
X017552Y012474D03*
X017551Y012474D03*
X017550Y012474D03*
X017548Y012474D03*
X017547Y012474D03*
X017546Y012474D03*
X017533Y012474D03*
X017532Y012474D03*
X017531Y012474D03*
X017530Y012474D03*
X017528Y012474D03*
X017527Y012474D03*
X017526Y012474D03*
X017525Y012474D03*
X017526Y011510D03*
X017527Y011510D03*
X017528Y011510D03*
X017551Y011510D03*
X017552Y011510D03*
X017553Y011510D03*
D206*
X017550Y011510D03*
X017548Y011510D03*
X017547Y011510D03*
X017546Y011510D03*
X017545Y011510D03*
X017543Y011510D03*
X017542Y011510D03*
X017541Y011510D03*
X017540Y011510D03*
X017538Y011510D03*
X017537Y011510D03*
X017536Y011510D03*
X017535Y011510D03*
X017533Y011510D03*
X017532Y011510D03*
X017531Y011510D03*
X017530Y011510D03*
X017533Y011992D03*
X017535Y011992D03*
X017536Y011992D03*
X017537Y011992D03*
X017538Y011992D03*
X017540Y011992D03*
X017541Y011992D03*
X017542Y011992D03*
X017543Y011992D03*
X017545Y011992D03*
X017546Y011992D03*
X017545Y012473D03*
X017543Y012473D03*
X017542Y012473D03*
X017541Y012473D03*
X017540Y012473D03*
X017538Y012473D03*
X017537Y012473D03*
X017536Y012473D03*
X017535Y012473D03*
D207*
X017534Y012473D03*
X017539Y012473D03*
X017544Y012473D03*
X017544Y011992D03*
X017539Y011992D03*
X017534Y011992D03*
X017534Y011510D03*
X017539Y011510D03*
X017544Y011510D03*
X017549Y011510D03*
D208*
X017564Y011510D03*
D209*
X017569Y011510D03*
D210*
X017579Y011510D03*
X017579Y012473D03*
D211*
X017579Y011992D03*
D212*
X017584Y011510D03*
D213*
X017584Y011992D03*
D214*
X017584Y012474D03*
D215*
X017589Y012473D03*
X017589Y011510D03*
D216*
X017589Y011992D03*
D217*
X017590Y012474D03*
X017591Y012474D03*
X017590Y011510D03*
D218*
X017594Y011510D03*
X017594Y012473D03*
D219*
X017596Y012473D03*
X017596Y011510D03*
D220*
X017599Y011510D03*
X017599Y012473D03*
D221*
X017599Y011992D03*
D222*
X017600Y012474D03*
X017600Y011510D03*
D223*
X017601Y011510D03*
X017601Y012473D03*
D224*
X017604Y012474D03*
X017604Y011510D03*
D225*
X017604Y011992D03*
D226*
X017605Y012474D03*
X017605Y011510D03*
D227*
X017606Y011510D03*
X017606Y012473D03*
D228*
X017608Y012474D03*
X017608Y011510D03*
D229*
X017609Y011510D03*
X017609Y012473D03*
D230*
X017609Y011991D03*
D231*
X017610Y012473D03*
D232*
X017611Y012474D03*
X017611Y011510D03*
D233*
X017611Y011992D03*
D234*
X017614Y011992D03*
X017614Y012474D03*
X017614Y011510D03*
D235*
X017616Y011510D03*
D236*
X017616Y012473D03*
D237*
X017619Y011510D03*
D238*
X017619Y011992D03*
D239*
X017619Y012473D03*
D240*
X017621Y012474D03*
X017621Y011510D03*
D241*
X017621Y011992D03*
D242*
X017623Y011992D03*
D243*
X017624Y011510D03*
D244*
X017624Y011992D03*
D245*
X017624Y012473D03*
D246*
X017625Y011510D03*
D247*
X017626Y011510D03*
X017626Y011991D03*
X017626Y012473D03*
D248*
X017629Y011510D03*
D249*
X017629Y011991D03*
D250*
X017629Y012473D03*
D251*
X017631Y011510D03*
D252*
X017631Y011991D03*
X017631Y012473D03*
D253*
X017634Y012474D03*
X017634Y011510D03*
D254*
X017634Y011992D03*
D255*
X017636Y011510D03*
D256*
X017636Y011991D03*
D257*
X017636Y012473D03*
D258*
X017639Y011992D03*
X017639Y011510D03*
D259*
X017639Y012473D03*
D260*
X017641Y011510D03*
D261*
X017641Y011992D03*
D262*
X017641Y012473D03*
D263*
X017642Y011510D03*
D264*
X017644Y011510D03*
D265*
X017644Y011992D03*
D266*
X017644Y012473D03*
D267*
X017645Y011991D03*
D268*
X017645Y012473D03*
D269*
X017646Y011510D03*
D270*
X017646Y011991D03*
X017646Y012473D03*
D271*
X017647Y012473D03*
X017647Y011510D03*
D272*
X017647Y011992D03*
D273*
X017648Y011991D03*
D274*
X017648Y012473D03*
D275*
X017649Y011509D03*
D276*
X017649Y011991D03*
X017649Y012473D03*
D277*
X017651Y011509D03*
D278*
X017651Y011991D03*
X017651Y012473D03*
D279*
X017652Y012473D03*
X017652Y011509D03*
D280*
X017652Y011991D03*
D281*
X017653Y012473D03*
X017653Y011509D03*
D282*
X017653Y011991D03*
D283*
X017654Y011510D03*
D284*
X017654Y011991D03*
D285*
X017654Y012473D03*
D286*
X017655Y012473D03*
X017655Y011509D03*
D287*
X017655Y011991D03*
D288*
X017656Y011510D03*
D289*
X017656Y011991D03*
D290*
X017656Y012473D03*
D291*
X017657Y011510D03*
D292*
X017657Y011991D03*
D293*
X017657Y012473D03*
D294*
X017658Y011991D03*
X017658Y011509D03*
D295*
X017658Y012473D03*
D296*
X017659Y011510D03*
D297*
X017659Y011991D03*
X017659Y012473D03*
D298*
X017660Y011509D03*
D299*
X017660Y011991D03*
D300*
X017660Y012473D03*
D301*
X017661Y011509D03*
D302*
X017661Y011991D03*
D303*
X017661Y012473D03*
D304*
X017662Y011991D03*
X017662Y011509D03*
D305*
X017662Y012473D03*
D306*
X017649Y011095D02*
X017649Y010902D01*
X017745Y010805D01*
X017842Y010902D01*
X017842Y011095D01*
X017548Y011047D02*
X017548Y010854D01*
X017499Y010805D01*
X017402Y010805D01*
X017354Y010854D01*
X017253Y010854D02*
X017204Y010805D01*
X017108Y010805D01*
X017059Y010854D01*
X017059Y011047D02*
X017108Y011095D01*
X017204Y011095D01*
X017253Y011047D01*
X017253Y010854D01*
X017354Y011047D02*
X017402Y011095D01*
X017499Y011095D01*
X017548Y011047D01*
X016799Y011067D02*
X016799Y010873D01*
X016750Y010825D01*
X016654Y010825D01*
X016605Y010873D01*
X016605Y010970D01*
X016702Y010970D01*
X016605Y011067D02*
X016654Y011115D01*
X016750Y011115D01*
X016799Y011067D01*
X016504Y011115D02*
X016504Y010825D01*
X016311Y010825D02*
X016311Y011115D01*
X016210Y011115D02*
X016064Y011115D01*
X016016Y011067D01*
X016016Y010873D01*
X016064Y010825D01*
X016210Y010825D01*
X016210Y011115D01*
X016504Y011115D02*
X016311Y010825D01*
X015618Y010845D02*
X015618Y011135D01*
X015473Y011135D01*
X015424Y011086D01*
X015424Y010990D01*
X015473Y010941D01*
X015618Y010941D01*
X015521Y010941D02*
X015424Y010845D01*
X015323Y010845D02*
X015130Y011135D01*
X015323Y011135D02*
X015130Y010845D01*
X014634Y011135D02*
X014440Y011135D01*
X014537Y011135D02*
X014537Y010845D01*
X014339Y010845D02*
X014145Y011135D01*
X014339Y011135D02*
X014145Y010845D01*
X014091Y016830D02*
X014338Y016830D01*
X014214Y016830D02*
X014214Y017201D01*
X014338Y017077D01*
D307*
X014334Y017515D02*
X014334Y015915D01*
X013734Y015915D01*
X013734Y017515D01*
X014334Y017515D01*
X014734Y017515D02*
X014734Y015915D01*
X015334Y015915D01*
X015334Y017515D01*
X014734Y017515D01*
X015734Y017515D02*
X015734Y015915D01*
X016334Y015915D01*
X016334Y017515D01*
X015734Y017515D01*
X016734Y017515D02*
X016734Y015915D01*
X017334Y015915D01*
X017334Y017515D01*
X016734Y017515D01*
X017784Y017975D02*
X017784Y015455D01*
X013284Y015455D01*
X013284Y017975D01*
X017784Y017975D01*
X017012Y014276D02*
X016798Y014276D01*
X016691Y014169D01*
X016474Y014169D02*
X016474Y014062D01*
X016367Y013955D01*
X016154Y013955D01*
X016047Y013849D01*
X016047Y013742D01*
X016154Y013635D01*
X016367Y013635D01*
X016474Y013742D01*
X016691Y013742D02*
X016691Y013849D01*
X016798Y013955D01*
X017012Y013955D01*
X017119Y014062D01*
X017119Y014169D01*
X017012Y014276D01*
X017119Y013742D02*
X017012Y013635D01*
X016798Y013635D01*
X016691Y013742D01*
X016474Y014169D02*
X016367Y014276D01*
X016154Y014276D01*
X016047Y014169D01*
X015209Y014276D02*
X015209Y013635D01*
X015209Y013955D02*
X014782Y013955D01*
X014565Y014062D02*
X014458Y013955D01*
X014244Y013955D01*
X014137Y013849D01*
X014137Y013742D01*
X014244Y013635D01*
X014458Y013635D01*
X014565Y013742D01*
X014782Y013635D02*
X014782Y014276D01*
X014565Y014169D02*
X014565Y014062D01*
X014565Y014169D02*
X014458Y014276D01*
X014244Y014276D01*
X014137Y014169D01*
D308*
X014034Y016215D03*
X015034Y016215D03*
X016034Y016215D03*
X017034Y016215D03*
M02*
