G75*
%MOIN*%
%OFA0B0*%
%FSLAX24Y24*%
%IPPOS*%
%LPD*%
%AMOC8*
5,1,8,0,0,1.08239X$1,22.5*
%
%ADD10C,0.0000*%
D10*
X000159Y000159D02*
X000159Y030080D01*
X019057Y030080D01*
X019057Y000159D01*
X000159Y000159D01*
X002106Y001340D02*
X002108Y001380D01*
X002114Y001420D01*
X002123Y001459D01*
X002137Y001496D01*
X002154Y001533D01*
X002174Y001567D01*
X002197Y001600D01*
X002224Y001630D01*
X002253Y001657D01*
X002285Y001682D01*
X002319Y001703D01*
X002355Y001720D01*
X002393Y001735D01*
X002431Y001745D01*
X002471Y001752D01*
X002511Y001755D01*
X002551Y001754D01*
X002591Y001749D01*
X002630Y001740D01*
X002668Y001728D01*
X002705Y001712D01*
X002740Y001693D01*
X002773Y001670D01*
X002804Y001644D01*
X002832Y001615D01*
X002857Y001584D01*
X002879Y001550D01*
X002897Y001515D01*
X002912Y001478D01*
X002924Y001439D01*
X002932Y001400D01*
X002936Y001360D01*
X002936Y001320D01*
X002932Y001280D01*
X002924Y001241D01*
X002912Y001202D01*
X002897Y001165D01*
X002879Y001130D01*
X002857Y001096D01*
X002832Y001065D01*
X002804Y001036D01*
X002773Y001010D01*
X002740Y000987D01*
X002705Y000968D01*
X002668Y000952D01*
X002630Y000940D01*
X002591Y000931D01*
X002551Y000926D01*
X002511Y000925D01*
X002471Y000928D01*
X002431Y000935D01*
X002393Y000945D01*
X002355Y000960D01*
X002319Y000977D01*
X002285Y000998D01*
X002253Y001023D01*
X002224Y001050D01*
X002197Y001080D01*
X002174Y001113D01*
X002154Y001147D01*
X002137Y001184D01*
X002123Y001221D01*
X002114Y001260D01*
X002108Y001300D01*
X002106Y001340D01*
X016279Y001340D02*
X016281Y001380D01*
X016287Y001420D01*
X016296Y001459D01*
X016310Y001496D01*
X016327Y001533D01*
X016347Y001567D01*
X016370Y001600D01*
X016397Y001630D01*
X016426Y001657D01*
X016458Y001682D01*
X016492Y001703D01*
X016528Y001720D01*
X016566Y001735D01*
X016604Y001745D01*
X016644Y001752D01*
X016684Y001755D01*
X016724Y001754D01*
X016764Y001749D01*
X016803Y001740D01*
X016841Y001728D01*
X016878Y001712D01*
X016913Y001693D01*
X016946Y001670D01*
X016977Y001644D01*
X017005Y001615D01*
X017030Y001584D01*
X017052Y001550D01*
X017070Y001515D01*
X017085Y001478D01*
X017097Y001439D01*
X017105Y001400D01*
X017109Y001360D01*
X017109Y001320D01*
X017105Y001280D01*
X017097Y001241D01*
X017085Y001202D01*
X017070Y001165D01*
X017052Y001130D01*
X017030Y001096D01*
X017005Y001065D01*
X016977Y001036D01*
X016946Y001010D01*
X016913Y000987D01*
X016878Y000968D01*
X016841Y000952D01*
X016803Y000940D01*
X016764Y000931D01*
X016724Y000926D01*
X016684Y000925D01*
X016644Y000928D01*
X016604Y000935D01*
X016566Y000945D01*
X016528Y000960D01*
X016492Y000977D01*
X016458Y000998D01*
X016426Y001023D01*
X016397Y001050D01*
X016370Y001080D01*
X016347Y001113D01*
X016327Y001147D01*
X016310Y001184D01*
X016296Y001221D01*
X016287Y001260D01*
X016281Y001300D01*
X016279Y001340D01*
X010189Y028673D02*
X010191Y028698D01*
X010197Y028723D01*
X010206Y028747D01*
X010219Y028769D01*
X010236Y028789D01*
X010255Y028806D01*
X010276Y028820D01*
X010300Y028830D01*
X010324Y028837D01*
X010350Y028840D01*
X010375Y028839D01*
X010400Y028834D01*
X010424Y028825D01*
X010447Y028813D01*
X010467Y028798D01*
X010485Y028779D01*
X010500Y028758D01*
X010511Y028735D01*
X010519Y028711D01*
X010523Y028686D01*
X010523Y028660D01*
X010519Y028635D01*
X010511Y028611D01*
X010500Y028588D01*
X010485Y028567D01*
X010467Y028548D01*
X010447Y028533D01*
X010424Y028521D01*
X010400Y028512D01*
X010375Y028507D01*
X010350Y028506D01*
X010324Y028509D01*
X010300Y028516D01*
X010276Y028526D01*
X010255Y028540D01*
X010236Y028557D01*
X010219Y028577D01*
X010206Y028599D01*
X010197Y028623D01*
X010191Y028648D01*
X010189Y028673D01*
X008693Y028673D02*
X008695Y028698D01*
X008701Y028723D01*
X008710Y028747D01*
X008723Y028769D01*
X008740Y028789D01*
X008759Y028806D01*
X008780Y028820D01*
X008804Y028830D01*
X008828Y028837D01*
X008854Y028840D01*
X008879Y028839D01*
X008904Y028834D01*
X008928Y028825D01*
X008951Y028813D01*
X008971Y028798D01*
X008989Y028779D01*
X009004Y028758D01*
X009015Y028735D01*
X009023Y028711D01*
X009027Y028686D01*
X009027Y028660D01*
X009023Y028635D01*
X009015Y028611D01*
X009004Y028588D01*
X008989Y028567D01*
X008971Y028548D01*
X008951Y028533D01*
X008928Y028521D01*
X008904Y028512D01*
X008879Y028507D01*
X008854Y028506D01*
X008828Y028509D01*
X008804Y028516D01*
X008780Y028526D01*
X008759Y028540D01*
X008740Y028557D01*
X008723Y028577D01*
X008710Y028599D01*
X008701Y028623D01*
X008695Y028648D01*
X008693Y028673D01*
M02*
