%
M48
M72
T01C0.0170
T02C0.0276
T03C0.0335
T04C0.0394
T05C0.0400
T06C0.0440
T07C0.0787
T08C0.0831
%
T01
X7285Y8584
X6813Y8466
X6498Y8269
X6340Y7698
X7128Y9332
X7443Y9765
X7049Y11655
X7088Y12128
X6537Y12482
X6380Y12876
X5946Y11576
X5789Y10090
X3732Y12443
X4372Y13594
X4883Y15435
X5828Y16025
X6183Y16419
X6537Y16025
X6970Y17059
X6301Y17216
X5828Y18004
X5317Y18476
X4135Y17413
X2954Y19775
X2482Y20523
X2994Y21311
X4175Y21389
X4450Y23161
X3860Y23594
X5041Y25927
X4411Y26399
X4332Y27049
X2757Y26320
X2403Y26773
X2009Y29263
X2561Y29775
X4608Y29775
X5159Y29303
X6498Y24067
X7128Y23594
X7836Y21822
X8387Y22216
X8348Y21114
X7679Y19106
X7403Y18791
X8624Y18811
X9706Y17511
X9096Y16822
X8348Y15799
X7482Y14254
X8033Y14135
X7443Y13387
X9411Y15681
X10356Y15868
X10828Y15789
X11498Y15326
X10710Y14539
X10317Y14224
X10307Y11537
X9726Y11045
X9254Y10100
X8702Y9057
X7954Y7856
X7246Y6015
X6409Y5425
X7246Y4736
X8131Y5425
X9214Y5376
X9214Y3998
X10789Y3998
X10789Y5376
X10927Y6183
X10100Y6901
X10002Y8712
X10238Y9460
X11478Y10002
X11419Y8742
X11596Y8072
X11793Y7521
X13515Y5937
X14224Y6842
X13673Y3299
X14677Y11183
X14293Y12521
X14293Y12954
X14411Y13387
X13269Y12452
X12679Y12925
X13939Y18082
X13309Y18633
X11734Y19500
X11183Y20444
X11380Y21114
X11675Y21468
X10956Y22246
X11232Y23191
X12216Y21862
X12994Y23476
X12403Y23988
X13663Y24618
X14057Y23948
X15238Y23919
X16498Y24273
X17236Y24962
X16498Y25602
X17285Y23446
X17797Y26163
X18230Y26714
X17777Y19844
X18663Y18594
X17876Y17885
X17137Y11133
X10474Y21114
X9057Y25120
X10041Y25474
X9057Y27817
X5356Y21665
X3191Y7561
X4657Y6921
X3072Y4647
X2718Y4313
X5759Y3259
T02
X2718Y22403
X2718Y23191
T03
X8860Y28673
X10356Y28673
T04
X3506Y24962
X4490Y24962
X2521Y24962
X8624Y22994
X9608Y22994
X10592Y22994
X14529Y24962
X15513Y24962
X16498Y24962
T05
X3387Y16041
X3387Y15041
X3387Y14041
X2431Y7773
X2431Y6773
X2431Y5773
X1431Y5773
X1431Y6773
X1431Y7773
X1458Y14041
X1458Y15041
X1458Y16041
X18279Y24588
T06
X10576Y2128
X11576Y2128
X7049Y2128
X8049Y2128
T07
X5238Y27718
X1773Y27718
X7876Y25750
X11340Y25750
X13781Y27718
X17246Y27718
T08
X2521Y1340
X16694Y1340
M30
