G75*
%MOIN*%
%OFA0B0*%
%FSLAX24Y24*%
%IPPOS*%
%LPD*%
%AMOC8*
5,1,8,0,0,1.08239X$1,22.5*
%
%ADD10R,0.0433X0.0394*%
%ADD11R,0.0394X0.0433*%
%ADD12C,0.0100*%
%ADD13R,0.1030X0.1030*%
%ADD14R,0.0137X0.0550*%
%ADD15R,0.0984X0.0472*%
%ADD16R,0.0315X0.0315*%
%ADD17R,0.0630X0.0315*%
%ADD18R,0.0315X0.0630*%
%ADD19C,0.0740*%
%ADD20C,0.0570*%
%ADD21R,0.0740X0.0740*%
%ADD22OC8,0.1181*%
%ADD23C,0.0740*%
%ADD24R,0.0217X0.0472*%
%ADD25R,0.0630X0.0551*%
%ADD26R,0.0472X0.0217*%
%ADD27R,0.0709X0.0591*%
%ADD28R,0.0984X0.0591*%
%ADD29R,0.0157X0.0551*%
%ADD30R,0.0709X0.0394*%
%ADD31R,0.0327X0.0248*%
%ADD32R,0.0157X0.1024*%
%ADD33R,0.0600X0.0300*%
%ADD34R,0.0197X0.0591*%
%ADD35R,0.0591X0.0197*%
%ADD36OC8,0.0740*%
%ADD37C,0.0118*%
%ADD38C,0.0310*%
%ADD39C,0.0079*%
%ADD40C,0.0157*%
%ADD41C,0.0160*%
%ADD42C,0.0236*%
%ADD43C,0.0120*%
%ADD44C,0.0240*%
D10*
X006832Y007738D03*
X007502Y007738D03*
X008722Y016261D03*
X009391Y016261D03*
X008131Y016773D03*
X007462Y016773D03*
X009224Y018072D03*
X009893Y018072D03*
X010946Y018515D03*
X011616Y018515D03*
X010631Y021714D03*
X009962Y021714D03*
X009057Y021665D03*
X008387Y021665D03*
X006242Y021104D03*
X005572Y021104D03*
X005809Y019844D03*
X005139Y019844D03*
X004480Y025897D03*
X003811Y025897D03*
X003988Y029588D03*
X003319Y029588D03*
X014671Y023437D03*
X015340Y023437D03*
X016065Y023441D03*
X016734Y023441D03*
D11*
X018269Y025563D03*
X018269Y026232D03*
X011261Y014785D03*
X011261Y014116D03*
X009726Y010553D03*
X009726Y009883D03*
X008476Y017679D03*
X008476Y018348D03*
X007689Y019608D03*
X007689Y020277D03*
X007679Y018328D03*
X007679Y017659D03*
X004765Y020691D03*
X004765Y021360D03*
X009057Y026202D03*
X009057Y026872D03*
X010002Y026872D03*
X010002Y026202D03*
X004588Y028614D03*
X004588Y029283D03*
X002570Y029283D03*
X002570Y028614D03*
X002757Y010376D03*
X002757Y009706D03*
X000986Y009667D03*
X000986Y010336D03*
D12*
X008637Y019300D02*
X008937Y019300D01*
X008937Y019500D02*
X008637Y019500D01*
X008637Y019697D02*
X008937Y019697D01*
X008937Y019908D02*
X008637Y019908D01*
X008637Y020107D02*
X008937Y020107D01*
X008937Y020305D02*
X008637Y020305D01*
X009101Y020480D02*
X009101Y020780D01*
X009301Y020780D02*
X009301Y020480D01*
X009499Y020480D02*
X009499Y020780D01*
X009709Y020780D02*
X009709Y020480D01*
X009908Y020480D02*
X009908Y020780D01*
X010107Y020780D02*
X010107Y020480D01*
X010271Y020305D02*
X010571Y020305D01*
X010571Y020107D02*
X010271Y020107D01*
X010271Y019908D02*
X010571Y019908D01*
X010571Y019697D02*
X010271Y019697D01*
X010271Y019500D02*
X010571Y019500D01*
X010571Y019300D02*
X010271Y019300D01*
X010107Y019125D02*
X010107Y018825D01*
X009908Y018825D02*
X009908Y019125D01*
X009709Y019125D02*
X009709Y018825D01*
X009499Y018825D02*
X009499Y019125D01*
X009301Y019125D02*
X009301Y018825D01*
X009101Y018825D02*
X009101Y019125D01*
X009096Y028159D02*
X009096Y028476D01*
X009096Y028793D01*
X009352Y028793D02*
X009352Y028476D01*
X009352Y028159D01*
X009608Y028159D02*
X009608Y028476D01*
X009608Y028793D01*
X009864Y028793D02*
X009864Y028476D01*
X009864Y028159D01*
X010120Y028159D02*
X010120Y028476D01*
X010120Y028793D01*
D13*
X009600Y019799D03*
D14*
X009618Y007504D03*
X009874Y007504D03*
X010130Y007504D03*
X010385Y007504D03*
X010641Y007504D03*
X010897Y007504D03*
X011153Y007504D03*
X011409Y007504D03*
X011409Y004625D03*
X011153Y004625D03*
X010897Y004625D03*
X010641Y004625D03*
X010385Y004625D03*
X010130Y004625D03*
X009874Y004625D03*
X009618Y004625D03*
X009362Y004625D03*
X009106Y004625D03*
X008850Y004625D03*
X008594Y004625D03*
X008594Y007504D03*
X008850Y007504D03*
X009106Y007504D03*
X009362Y007504D03*
D15*
X007246Y006714D03*
X007246Y005415D03*
D16*
X003702Y009470D03*
X003702Y010061D03*
X001891Y010297D03*
X001891Y009706D03*
X005828Y018486D03*
X005828Y019076D03*
X003506Y028309D03*
X003506Y028899D03*
X014706Y022746D03*
X015297Y022746D03*
X016163Y022742D03*
X016754Y022742D03*
D17*
X018506Y018112D03*
X018506Y017639D03*
X018506Y017167D03*
X018506Y016694D03*
X018506Y016222D03*
X018506Y015750D03*
X018506Y015277D03*
X018506Y014805D03*
X018506Y014332D03*
X018506Y013860D03*
X018506Y013387D03*
X018506Y012915D03*
X013309Y012915D03*
X013309Y013387D03*
X013309Y013860D03*
X013309Y014332D03*
X013309Y014805D03*
X013309Y015277D03*
X013309Y015750D03*
X013309Y016222D03*
X013309Y016694D03*
X013309Y017167D03*
X013309Y017639D03*
X013309Y018112D03*
D18*
X016537Y019214D03*
X017167Y019214D03*
X017797Y019214D03*
X017530Y011813D03*
X017128Y011813D03*
X016655Y011813D03*
X016183Y011813D03*
X015631Y011813D03*
X015159Y011813D03*
X014687Y011813D03*
X014284Y011813D03*
D19*
X018279Y024588D03*
X003387Y016041D03*
X003387Y015041D03*
X003387Y014041D03*
X001458Y014041D03*
X001458Y015041D03*
X001458Y016041D03*
D20*
X002718Y022403D03*
X002718Y023191D03*
D21*
X002521Y024962D03*
X003506Y024962D03*
X004490Y024962D03*
X008624Y022994D03*
X009608Y022994D03*
X010592Y022994D03*
X014529Y024962D03*
X015513Y024962D03*
X016498Y024962D03*
X002431Y005773D03*
D22*
X007876Y025750D03*
X005238Y027718D03*
X001773Y027718D03*
X011340Y025750D03*
X013781Y027718D03*
X017246Y027718D03*
D23*
X011576Y002498D02*
X011576Y001758D01*
X010576Y001758D02*
X010576Y002498D01*
X008049Y002498D02*
X008049Y001758D01*
X007049Y001758D02*
X007049Y002498D01*
D24*
X003880Y026566D03*
X003506Y026566D03*
X003131Y026566D03*
X003131Y027590D03*
X003880Y027590D03*
D25*
X004135Y019175D03*
X004135Y018072D03*
X002915Y018033D03*
X002915Y019135D03*
D26*
X003033Y020139D03*
X003033Y020513D03*
X003033Y020887D03*
X004057Y020887D03*
X004057Y020139D03*
D27*
X008157Y029539D03*
X011058Y029539D03*
D28*
X009608Y029539D03*
D29*
X009608Y028476D03*
X009864Y028476D03*
X010120Y028476D03*
X009352Y028476D03*
X009096Y028476D03*
D30*
X001380Y021104D03*
X001380Y020002D03*
D31*
X001813Y019155D03*
X001813Y018250D03*
D32*
X003269Y011616D03*
X003742Y011616D03*
X004214Y011616D03*
D33*
X004523Y022096D03*
X004523Y023596D03*
X006523Y023596D03*
X006523Y022096D03*
D34*
X006498Y015238D03*
X006183Y015238D03*
X005868Y015238D03*
X006813Y015238D03*
X007128Y015238D03*
X007443Y015238D03*
X007757Y015238D03*
X008072Y015238D03*
X008387Y015238D03*
X008702Y015238D03*
X009017Y015238D03*
X009017Y010671D03*
X008702Y010671D03*
X008387Y010671D03*
X008072Y010671D03*
X007757Y010671D03*
X007443Y010671D03*
X007128Y010671D03*
X006813Y010671D03*
X006498Y010671D03*
X006183Y010671D03*
X005868Y010671D03*
D35*
X005159Y011380D03*
X005159Y011694D03*
X005159Y012009D03*
X005159Y012324D03*
X005159Y012639D03*
X005159Y012954D03*
X005159Y013269D03*
X005159Y013584D03*
X005159Y013899D03*
X005159Y014214D03*
X005159Y014529D03*
X009726Y014529D03*
X009726Y014214D03*
X009726Y013899D03*
X009726Y013584D03*
X009726Y013269D03*
X009726Y012954D03*
X009726Y012639D03*
X009726Y012324D03*
X009726Y012009D03*
X009726Y011694D03*
X009726Y011380D03*
D36*
X002431Y007773D03*
X002431Y006773D03*
X001431Y006773D03*
X001431Y005773D03*
X001431Y007773D03*
D37*
X000318Y000318D02*
X000318Y029921D01*
X007722Y029921D01*
X007684Y029884D01*
X007684Y029195D01*
X005597Y029195D01*
X004944Y029195D01*
X004944Y029244D02*
X004628Y029244D01*
X004628Y029322D01*
X004944Y029322D01*
X004944Y029521D01*
X004933Y029561D01*
X004912Y029597D01*
X004883Y029627D01*
X004846Y029648D01*
X004806Y029659D01*
X004628Y029659D01*
X004628Y029322D01*
X004549Y029322D01*
X004549Y029244D01*
X004232Y029244D01*
X004232Y029046D01*
X004243Y029005D01*
X004264Y028969D01*
X004294Y028939D01*
X004318Y028925D01*
X004310Y028917D01*
X004120Y029107D01*
X004144Y029272D01*
X004254Y029272D01*
X004304Y029322D01*
X004549Y029322D01*
X004549Y029659D01*
X004370Y029659D01*
X004330Y029648D01*
X004323Y029644D01*
X004323Y029834D01*
X004254Y029904D01*
X003722Y029904D01*
X003653Y029835D01*
X003584Y029904D01*
X003053Y029904D01*
X002983Y029834D01*
X002983Y029342D01*
X003053Y029272D01*
X003121Y029272D01*
X003121Y029004D01*
X003229Y028896D01*
X003229Y028692D01*
X003299Y028623D01*
X003712Y028623D01*
X003782Y028692D01*
X003782Y028875D01*
X003799Y028852D01*
X003815Y028849D01*
X004052Y028613D01*
X003782Y028343D01*
X003782Y028515D01*
X003712Y028585D01*
X003299Y028585D01*
X003229Y028515D01*
X003229Y028316D01*
X003214Y028331D01*
X003212Y028331D01*
X002886Y028656D01*
X002886Y028880D01*
X002841Y028925D01*
X002865Y028939D01*
X002895Y028969D01*
X002916Y029005D01*
X002926Y029046D01*
X002926Y029244D01*
X002610Y029244D01*
X002610Y029322D01*
X002926Y029322D01*
X002926Y029521D01*
X002916Y029561D01*
X002895Y029597D01*
X002865Y029627D01*
X002829Y029648D01*
X002788Y029659D01*
X002610Y029659D01*
X002610Y029322D01*
X002531Y029322D01*
X002531Y029244D01*
X002215Y029244D01*
X002215Y029046D01*
X002225Y029005D01*
X002246Y028969D01*
X002276Y028939D01*
X002300Y028925D01*
X002255Y028880D01*
X002255Y028348D01*
X002324Y028278D01*
X002705Y028278D01*
X002932Y028051D01*
X002932Y027904D01*
X002904Y027876D01*
X002904Y027305D01*
X002974Y027235D01*
X003163Y027235D01*
X002982Y027054D01*
X002982Y026922D01*
X002974Y026922D01*
X002904Y026852D01*
X002904Y026281D01*
X002974Y026211D01*
X003289Y026211D01*
X003290Y026212D01*
X003300Y026203D01*
X003336Y026182D01*
X003376Y026171D01*
X003503Y026171D01*
X003475Y026143D01*
X003475Y026134D01*
X002177Y026134D01*
X001439Y025396D01*
X001341Y025299D01*
X001341Y025431D01*
X002409Y026499D01*
X002458Y026499D01*
X002558Y026541D01*
X002635Y026618D01*
X002677Y026719D01*
X002677Y026828D01*
X002635Y026928D01*
X002558Y027006D01*
X002458Y027047D01*
X002349Y027047D01*
X002248Y027006D01*
X002171Y026928D01*
X002129Y026828D01*
X002129Y026779D01*
X001061Y025711D01*
X000946Y025595D01*
X000946Y021389D01*
X000906Y021350D01*
X000906Y020858D01*
X000976Y020788D01*
X001783Y020788D01*
X001853Y020858D01*
X001853Y020906D01*
X002044Y020906D01*
X001851Y020713D01*
X001851Y020313D01*
X001967Y020197D01*
X002223Y019942D01*
X002319Y019942D01*
X001776Y019398D01*
X001600Y019398D01*
X001530Y019328D01*
X001530Y018982D01*
X001600Y018912D01*
X001756Y018912D01*
X002481Y018187D01*
X002481Y017708D01*
X002551Y017638D01*
X002678Y017638D01*
X002678Y016832D01*
X002442Y016596D01*
X002442Y015651D01*
X002581Y015512D01*
X002915Y015178D01*
X002898Y015138D01*
X002898Y014944D01*
X002973Y014764D01*
X003110Y014626D01*
X003290Y014552D01*
X003485Y014552D01*
X003664Y014626D01*
X003802Y014764D01*
X003859Y014901D01*
X003859Y014290D01*
X003975Y014174D01*
X004447Y013701D01*
X004705Y013701D01*
X004705Y013584D01*
X004705Y013467D01*
X003935Y013467D01*
X003187Y012719D01*
X003071Y012603D01*
X003071Y011066D01*
X001101Y011066D01*
X000985Y010950D01*
X000985Y010950D01*
X000788Y010753D01*
X000788Y010672D01*
X000740Y010672D01*
X000670Y010602D01*
X000670Y010070D01*
X000739Y010002D01*
X000670Y009933D01*
X000670Y009401D01*
X000740Y009331D01*
X001232Y009331D01*
X001302Y009401D01*
X001302Y009703D01*
X001652Y010053D01*
X001685Y010020D01*
X002098Y010020D01*
X002168Y010090D01*
X002168Y010504D01*
X002098Y010573D01*
X001685Y010573D01*
X001615Y010504D01*
X001615Y010495D01*
X001534Y010495D01*
X001418Y010379D01*
X001302Y010263D01*
X001302Y010602D01*
X001249Y010655D01*
X001265Y010670D01*
X002470Y010670D01*
X002442Y010641D01*
X002442Y010110D01*
X002510Y010041D01*
X002442Y009972D01*
X002442Y009440D01*
X002511Y009371D01*
X002089Y009371D01*
X002089Y009430D02*
X002098Y009430D01*
X002168Y009500D01*
X002168Y009913D01*
X002098Y009983D01*
X001685Y009983D01*
X001615Y009913D01*
X001615Y009500D01*
X001685Y009430D01*
X001694Y009430D01*
X001694Y009054D01*
X002087Y008660D01*
X002203Y008544D01*
X003056Y008544D01*
X003505Y008993D01*
X003505Y005359D01*
X003067Y004921D01*
X003018Y004921D01*
X002917Y004880D01*
X002863Y004825D01*
X002434Y004825D01*
X001804Y005455D01*
X001920Y005571D01*
X001920Y005976D01*
X001633Y006262D01*
X001228Y006262D01*
X000942Y005976D01*
X000942Y005571D01*
X001228Y005284D01*
X001471Y005284D01*
X002286Y004469D01*
X002863Y004469D01*
X002917Y004415D01*
X003018Y004373D01*
X003127Y004373D01*
X003228Y004415D01*
X003305Y004492D01*
X003346Y004593D01*
X003346Y004642D01*
X003900Y005195D01*
X003900Y009194D01*
X003909Y009194D01*
X003979Y009263D01*
X003979Y009331D01*
X005832Y009331D01*
X005947Y009447D01*
X006320Y009819D01*
X006320Y008479D01*
X006265Y008425D01*
X006224Y008324D01*
X006224Y008215D01*
X006265Y008114D01*
X006342Y008037D01*
X006443Y007995D01*
X006467Y007995D01*
X006457Y007956D01*
X006457Y007777D01*
X006793Y007777D01*
X006793Y007698D01*
X006872Y007698D01*
X006872Y007382D01*
X007070Y007382D01*
X007110Y007393D01*
X007146Y007414D01*
X007176Y007443D01*
X007190Y007468D01*
X007236Y007422D01*
X007263Y007422D01*
X007263Y007069D01*
X006704Y007069D01*
X006634Y007000D01*
X006634Y006429D01*
X006704Y006359D01*
X007787Y006359D01*
X007857Y006429D01*
X007857Y007000D01*
X007787Y007069D01*
X007741Y007069D01*
X007741Y007305D01*
X008407Y007305D01*
X008407Y007180D01*
X008415Y007171D01*
X008415Y006955D01*
X008887Y006483D01*
X008992Y006378D01*
X010814Y006378D01*
X011227Y006791D01*
X011332Y006896D01*
X011332Y007110D01*
X011527Y007110D01*
X011597Y007180D01*
X011597Y007828D01*
X011527Y007898D01*
X011291Y007898D01*
X011281Y007888D01*
X011271Y007898D01*
X011103Y007898D01*
X011597Y008392D01*
X011597Y008532D01*
X011651Y008586D01*
X011693Y008687D01*
X011693Y008796D01*
X011651Y008897D01*
X011574Y008974D01*
X011473Y009016D01*
X011364Y009016D01*
X011264Y008974D01*
X011203Y008914D01*
X011203Y012162D01*
X010652Y012713D01*
X010652Y012713D01*
X010589Y012776D01*
X011493Y012776D01*
X011597Y012881D01*
X012684Y013967D01*
X012788Y014071D01*
X012788Y021936D01*
X014335Y023483D01*
X014335Y023190D01*
X014405Y023121D01*
X014670Y023121D01*
X014768Y023022D01*
X014500Y023022D01*
X014430Y022952D01*
X014430Y022721D01*
X014134Y022426D01*
X014134Y018166D01*
X016729Y015571D01*
X018071Y015571D01*
X018071Y015543D01*
X018101Y015513D01*
X018071Y015484D01*
X018071Y015070D01*
X018101Y015041D01*
X018071Y015012D01*
X018071Y014598D01*
X018101Y014569D01*
X018071Y014539D01*
X018071Y014125D01*
X018101Y014096D01*
X018071Y014067D01*
X018071Y013653D01*
X018101Y013624D01*
X018071Y013594D01*
X018071Y013566D01*
X015558Y013566D01*
X015453Y013461D01*
X015243Y013251D01*
X014651Y013251D01*
X014685Y013333D01*
X014685Y013442D01*
X014643Y013543D01*
X014566Y013620D01*
X014466Y013661D01*
X014357Y013661D01*
X014256Y013620D01*
X014202Y013566D01*
X013743Y013566D01*
X013743Y013594D01*
X013713Y013624D01*
X013743Y013653D01*
X013743Y014067D01*
X013713Y014096D01*
X013743Y014125D01*
X013743Y014539D01*
X013713Y014569D01*
X013743Y014598D01*
X013743Y015012D01*
X013713Y015041D01*
X013743Y015070D01*
X013743Y015484D01*
X013713Y015513D01*
X013743Y015543D01*
X013743Y015956D01*
X013713Y015986D01*
X013743Y016015D01*
X013743Y016429D01*
X013713Y016458D01*
X013743Y016488D01*
X013743Y016901D01*
X013713Y016931D01*
X013743Y016960D01*
X013743Y017374D01*
X013713Y017403D01*
X013743Y017433D01*
X013743Y017846D01*
X013742Y017847D01*
X013751Y017857D01*
X013772Y017893D01*
X013783Y017933D01*
X013783Y018092D01*
X013328Y018092D01*
X013328Y018131D01*
X013783Y018131D01*
X013783Y018290D01*
X013772Y018331D01*
X013751Y018367D01*
X013721Y018397D01*
X013685Y018418D01*
X013645Y018428D01*
X013328Y018428D01*
X013328Y018132D01*
X013289Y018132D01*
X013289Y018428D01*
X012973Y018428D01*
X012932Y018418D01*
X012896Y018397D01*
X012866Y018367D01*
X012845Y018331D01*
X012835Y018290D01*
X012835Y018131D01*
X013289Y018131D01*
X013289Y018092D01*
X012835Y018092D01*
X012835Y017933D01*
X012845Y017893D01*
X012866Y017857D01*
X012876Y017847D01*
X012875Y017846D01*
X012875Y017433D01*
X012904Y017403D01*
X012875Y017374D01*
X012875Y016960D01*
X012904Y016931D01*
X012875Y016901D01*
X012875Y016488D01*
X012904Y016458D01*
X012875Y016429D01*
X012875Y016015D01*
X012904Y015986D01*
X012875Y015956D01*
X012875Y015543D01*
X012904Y015513D01*
X012875Y015484D01*
X012875Y015070D01*
X012904Y015041D01*
X012875Y015012D01*
X012875Y014598D01*
X012904Y014569D01*
X012875Y014539D01*
X012875Y014125D01*
X012904Y014096D01*
X012875Y014067D01*
X012875Y013653D01*
X012904Y013624D01*
X012875Y013594D01*
X012875Y013181D01*
X012876Y013179D01*
X012866Y013170D01*
X012845Y013134D01*
X012835Y013093D01*
X012835Y012935D01*
X013289Y012935D01*
X013289Y012895D01*
X013328Y012895D01*
X013328Y012598D01*
X013645Y012598D01*
X013685Y012609D01*
X013721Y012630D01*
X013751Y012660D01*
X013772Y012696D01*
X013783Y012737D01*
X013783Y012895D01*
X013328Y012895D01*
X013328Y012935D01*
X013783Y012935D01*
X013783Y013093D01*
X013772Y013134D01*
X013751Y013170D01*
X013742Y013179D01*
X013743Y013181D01*
X013743Y013209D01*
X014192Y013209D01*
X014138Y013187D01*
X014061Y013110D01*
X014019Y013009D01*
X014019Y012900D01*
X014061Y012799D01*
X014122Y012738D01*
X014061Y012676D01*
X014019Y012576D01*
X014019Y012467D01*
X014061Y012366D01*
X014138Y012289D01*
X014238Y012247D01*
X014347Y012247D01*
X014448Y012289D01*
X014502Y012343D01*
X018186Y012343D01*
X018481Y012638D01*
X018870Y012638D01*
X018898Y012666D01*
X018898Y000318D01*
X000318Y000318D01*
X000318Y000392D02*
X018898Y000392D01*
X018898Y000509D02*
X000318Y000509D01*
X000318Y000625D02*
X018898Y000625D01*
X018898Y000742D02*
X000318Y000742D01*
X000318Y000859D02*
X002190Y000859D01*
X002196Y000853D02*
X002407Y000766D01*
X002636Y000766D01*
X002847Y000853D01*
X003008Y001015D01*
X003096Y001226D01*
X003096Y001454D01*
X003008Y001666D01*
X002847Y001827D01*
X002636Y001915D01*
X002407Y001915D01*
X002196Y001827D01*
X002034Y001666D01*
X001947Y001454D01*
X001947Y001226D01*
X002034Y001015D01*
X002196Y000853D01*
X002074Y000975D02*
X000318Y000975D01*
X000318Y001092D02*
X002002Y001092D01*
X001954Y001209D02*
X000318Y001209D01*
X000318Y001325D02*
X001947Y001325D01*
X001947Y001442D02*
X000318Y001442D01*
X000318Y001558D02*
X001990Y001558D01*
X002044Y001675D02*
X000318Y001675D01*
X000318Y001792D02*
X002160Y001792D01*
X002392Y001908D02*
X000318Y001908D01*
X000318Y002025D02*
X006560Y002025D01*
X006560Y002141D02*
X000318Y002141D01*
X000318Y002258D02*
X006560Y002258D01*
X006560Y002375D02*
X000318Y002375D01*
X000318Y002491D02*
X006560Y002491D01*
X006560Y002595D02*
X006560Y001660D01*
X006634Y001481D01*
X006772Y001343D01*
X006952Y001269D01*
X007146Y001269D01*
X007326Y001343D01*
X007463Y001481D01*
X007538Y001660D01*
X007538Y002595D01*
X007498Y002691D01*
X009002Y004195D01*
X009016Y004191D01*
X009106Y004191D01*
X009195Y004191D01*
X009234Y004201D01*
X009272Y004191D01*
X009362Y004191D01*
X009420Y004191D01*
X009420Y003778D01*
X008440Y002798D01*
X008326Y002912D01*
X008146Y002987D01*
X007952Y002987D01*
X007772Y002912D01*
X007634Y002775D01*
X007560Y002595D01*
X007560Y001660D01*
X007634Y001481D01*
X007772Y001343D01*
X007952Y001269D01*
X008146Y001269D01*
X008326Y001343D01*
X008463Y001481D01*
X008538Y001660D01*
X008538Y001930D01*
X009178Y001930D01*
X009294Y002046D01*
X009932Y002684D01*
X009932Y002492D01*
X010087Y002337D01*
X010087Y001660D01*
X010162Y001481D01*
X010299Y001343D01*
X010479Y001269D01*
X010674Y001269D01*
X010853Y001343D01*
X010991Y001481D01*
X011065Y001660D01*
X011065Y002359D01*
X011087Y002337D01*
X011087Y001660D01*
X011162Y001481D01*
X011299Y001343D01*
X011479Y001269D01*
X011674Y001269D01*
X011853Y001343D01*
X011991Y001481D01*
X012065Y001660D01*
X012065Y002595D01*
X011991Y002775D01*
X011853Y002912D01*
X011674Y002987D01*
X011607Y002987D01*
X011607Y004707D01*
X011597Y004717D01*
X011597Y004950D01*
X011527Y005019D01*
X011291Y005019D01*
X011281Y005009D01*
X011271Y005019D01*
X011072Y005019D01*
X011063Y005027D01*
X011027Y005048D01*
X010987Y005059D01*
X010897Y005059D01*
X010808Y005059D01*
X010769Y005049D01*
X010731Y005059D01*
X010641Y005059D01*
X010552Y005059D01*
X010511Y005048D01*
X010475Y005027D01*
X010467Y005019D01*
X010268Y005019D01*
X010257Y005009D01*
X010247Y005019D01*
X010012Y005019D01*
X010002Y005009D01*
X009991Y005019D01*
X009756Y005019D01*
X009746Y005009D01*
X009736Y005019D01*
X009536Y005019D01*
X009528Y005027D01*
X009492Y005048D01*
X009451Y005059D01*
X009362Y005059D01*
X009362Y004625D01*
X009362Y004191D01*
X009362Y004625D01*
X009362Y004625D01*
X009134Y004625D01*
X009106Y004625D01*
X009106Y004191D01*
X009106Y004625D01*
X009106Y004625D01*
X009106Y004625D01*
X009362Y004625D01*
X009362Y004625D01*
X009362Y004625D01*
X009362Y005059D01*
X009272Y005059D01*
X009234Y005049D01*
X009195Y005059D01*
X009106Y005059D01*
X009106Y004625D01*
X009106Y004625D01*
X009106Y005059D01*
X009016Y005059D01*
X008976Y005048D01*
X008940Y005027D01*
X008932Y005019D01*
X008732Y005019D01*
X008722Y005009D01*
X008712Y005019D01*
X008476Y005019D01*
X008407Y004950D01*
X008407Y004717D01*
X006967Y003278D01*
X006851Y003162D01*
X006851Y002945D01*
X006772Y002912D01*
X006634Y002775D01*
X006560Y002595D01*
X006565Y002608D02*
X000318Y002608D01*
X000318Y002724D02*
X006613Y002724D01*
X006701Y002841D02*
X000318Y002841D01*
X000318Y002958D02*
X006851Y002958D01*
X006851Y003074D02*
X000318Y003074D01*
X000318Y003191D02*
X006880Y003191D01*
X006997Y003308D02*
X000318Y003308D01*
X000318Y003424D02*
X007113Y003424D01*
X007230Y003541D02*
X000318Y003541D01*
X000318Y003657D02*
X007347Y003657D01*
X007463Y003774D02*
X000318Y003774D01*
X000318Y003891D02*
X007580Y003891D01*
X007696Y004007D02*
X000318Y004007D01*
X000318Y004124D02*
X007813Y004124D01*
X007930Y004240D02*
X000318Y004240D01*
X000318Y004357D02*
X008046Y004357D01*
X008163Y004474D02*
X003286Y004474D01*
X003345Y004590D02*
X008279Y004590D01*
X008396Y004707D02*
X003412Y004707D01*
X003528Y004823D02*
X008407Y004823D01*
X008407Y004940D02*
X003645Y004940D01*
X003762Y005057D02*
X006651Y005057D01*
X006656Y005051D02*
X006692Y005031D01*
X006733Y005020D01*
X007187Y005020D01*
X007187Y005356D01*
X007305Y005356D01*
X007305Y005474D01*
X007897Y005474D01*
X007897Y005672D01*
X007886Y005713D01*
X007865Y005749D01*
X007835Y005778D01*
X007799Y005799D01*
X007759Y005810D01*
X007305Y005810D01*
X007305Y005474D01*
X007187Y005474D01*
X007187Y005810D01*
X006733Y005810D01*
X006692Y005799D01*
X006656Y005778D01*
X006626Y005749D01*
X006605Y005713D01*
X006594Y005672D01*
X006594Y005474D01*
X007187Y005474D01*
X007187Y005356D01*
X006594Y005356D01*
X006594Y005158D01*
X006605Y005117D01*
X006626Y005081D01*
X006656Y005051D01*
X006594Y005173D02*
X003878Y005173D01*
X003900Y005290D02*
X006594Y005290D01*
X006594Y005523D02*
X003900Y005523D01*
X003900Y005407D02*
X007187Y005407D01*
X007187Y005523D02*
X007305Y005523D01*
X007305Y005407D02*
X018898Y005407D01*
X018898Y005523D02*
X007897Y005523D01*
X007897Y005640D02*
X018898Y005640D01*
X018898Y005756D02*
X007858Y005756D01*
X007897Y005356D02*
X007305Y005356D01*
X007305Y005020D01*
X007759Y005020D01*
X007799Y005031D01*
X007835Y005051D01*
X007865Y005081D01*
X007886Y005117D01*
X007897Y005158D01*
X007897Y005356D01*
X007897Y005290D02*
X018898Y005290D01*
X018898Y005173D02*
X007897Y005173D01*
X007841Y005057D02*
X009007Y005057D01*
X009106Y005057D02*
X009106Y005057D01*
X009205Y005057D02*
X009263Y005057D01*
X009362Y005057D02*
X009362Y005057D01*
X009461Y005057D02*
X010542Y005057D01*
X010641Y005057D02*
X010641Y005057D01*
X010641Y005059D02*
X010641Y004625D01*
X010641Y004625D01*
X010641Y004191D01*
X010583Y004191D01*
X010583Y002987D01*
X010674Y002987D01*
X010853Y002912D01*
X010955Y002810D01*
X010955Y004191D01*
X010897Y004191D01*
X010897Y004625D01*
X010670Y004625D01*
X010641Y004625D01*
X010641Y004191D01*
X010731Y004191D01*
X010769Y004201D01*
X010808Y004191D01*
X010897Y004191D01*
X010897Y004625D01*
X010897Y004625D01*
X010897Y004625D01*
X010641Y004625D01*
X010641Y004625D01*
X010641Y004625D01*
X010641Y005059D01*
X010740Y005057D02*
X010798Y005057D01*
X010897Y005057D02*
X010897Y005057D01*
X010897Y005059D02*
X010897Y004625D01*
X010897Y004625D01*
X010897Y005059D01*
X010996Y005057D02*
X018898Y005057D01*
X018898Y004940D02*
X011597Y004940D01*
X011597Y004823D02*
X018898Y004823D01*
X018898Y004707D02*
X011607Y004707D01*
X011607Y004590D02*
X018898Y004590D01*
X018898Y004474D02*
X011607Y004474D01*
X011607Y004357D02*
X018898Y004357D01*
X018898Y004240D02*
X011607Y004240D01*
X011607Y004124D02*
X018898Y004124D01*
X018898Y004007D02*
X011607Y004007D01*
X011607Y003891D02*
X018898Y003891D01*
X018898Y003774D02*
X011607Y003774D01*
X011607Y003657D02*
X018898Y003657D01*
X018898Y003541D02*
X011607Y003541D01*
X011607Y003424D02*
X018898Y003424D01*
X018898Y003308D02*
X011607Y003308D01*
X011607Y003191D02*
X018898Y003191D01*
X018898Y003074D02*
X011607Y003074D01*
X011743Y002958D02*
X018898Y002958D01*
X018898Y002841D02*
X011924Y002841D01*
X012012Y002724D02*
X018898Y002724D01*
X018898Y002608D02*
X012060Y002608D01*
X012065Y002491D02*
X018898Y002491D01*
X018898Y002375D02*
X012065Y002375D01*
X012065Y002258D02*
X018898Y002258D01*
X018898Y002141D02*
X012065Y002141D01*
X012065Y002025D02*
X018898Y002025D01*
X018898Y001908D02*
X016824Y001908D01*
X016809Y001915D02*
X016580Y001915D01*
X016369Y001827D01*
X016208Y001666D01*
X016120Y001454D01*
X016120Y001226D01*
X016208Y001015D01*
X016369Y000853D01*
X016580Y000766D01*
X016809Y000766D01*
X017020Y000853D01*
X017181Y001015D01*
X017269Y001226D01*
X017269Y001454D01*
X017181Y001666D01*
X017020Y001827D01*
X016809Y001915D01*
X016565Y001908D02*
X012065Y001908D01*
X012065Y001792D02*
X016334Y001792D01*
X016217Y001675D02*
X012065Y001675D01*
X012023Y001558D02*
X016163Y001558D01*
X016120Y001442D02*
X011952Y001442D01*
X011810Y001325D02*
X016120Y001325D01*
X016127Y001209D02*
X003088Y001209D01*
X003096Y001325D02*
X006815Y001325D01*
X006673Y001442D02*
X003096Y001442D01*
X003053Y001558D02*
X006602Y001558D01*
X006560Y001675D02*
X002999Y001675D01*
X002882Y001792D02*
X006560Y001792D01*
X006560Y001908D02*
X002651Y001908D01*
X003040Y001092D02*
X016176Y001092D01*
X016247Y000975D02*
X002969Y000975D01*
X002852Y000859D02*
X016364Y000859D01*
X017025Y000859D02*
X018898Y000859D01*
X018898Y000975D02*
X017142Y000975D01*
X017213Y001092D02*
X018898Y001092D01*
X018898Y001209D02*
X017262Y001209D01*
X017269Y001325D02*
X018898Y001325D01*
X018898Y001442D02*
X017269Y001442D01*
X017226Y001558D02*
X018898Y001558D01*
X018898Y001675D02*
X017172Y001675D01*
X017055Y001792D02*
X018898Y001792D01*
X018898Y005873D02*
X003900Y005873D01*
X003900Y005990D02*
X018898Y005990D01*
X018898Y006106D02*
X003900Y006106D01*
X003900Y006223D02*
X018898Y006223D01*
X018898Y006339D02*
X003900Y006339D01*
X003900Y006456D02*
X006634Y006456D01*
X006634Y006573D02*
X003900Y006573D01*
X003900Y006689D02*
X006634Y006689D01*
X006634Y006806D02*
X003900Y006806D01*
X003900Y006922D02*
X006634Y006922D01*
X006674Y007039D02*
X003900Y007039D01*
X003900Y007156D02*
X007263Y007156D01*
X007263Y007272D02*
X003900Y007272D01*
X003900Y007389D02*
X006569Y007389D01*
X006554Y007393D02*
X006595Y007382D01*
X006793Y007382D01*
X006793Y007698D01*
X006457Y007698D01*
X006457Y007520D01*
X006468Y007480D01*
X006488Y007443D01*
X006518Y007414D01*
X006554Y007393D01*
X006461Y007506D02*
X003900Y007506D01*
X003900Y007622D02*
X006457Y007622D01*
X006457Y007855D02*
X003900Y007855D01*
X003900Y007739D02*
X006793Y007739D01*
X006793Y007777D02*
X006793Y008094D01*
X006710Y008094D01*
X006730Y008114D01*
X006762Y008192D01*
X006867Y008192D01*
X006968Y008234D01*
X007045Y008311D01*
X007082Y008400D01*
X007130Y008352D01*
X007219Y008315D01*
X007264Y008269D01*
X007264Y008054D01*
X007236Y008054D01*
X007190Y008008D01*
X007176Y008032D01*
X007146Y008062D01*
X007110Y008083D01*
X007070Y008094D01*
X006872Y008094D01*
X006872Y007777D01*
X006793Y007777D01*
X006793Y007855D02*
X006872Y007855D01*
X006872Y007972D02*
X006793Y007972D01*
X006793Y008089D02*
X006872Y008089D01*
X006899Y008205D02*
X007264Y008205D01*
X007264Y008089D02*
X007089Y008089D01*
X007049Y008322D02*
X007203Y008322D01*
X007016Y008650D02*
X006991Y008676D01*
X006991Y009092D01*
X007073Y009058D01*
X007182Y009058D01*
X007283Y009100D01*
X007360Y009177D01*
X007402Y009278D01*
X007402Y009387D01*
X007360Y009488D01*
X007334Y009514D01*
X007388Y009491D01*
X007497Y009491D01*
X007560Y009517D01*
X007560Y009132D01*
X008672Y008020D01*
X008672Y007898D01*
X008476Y007898D01*
X008407Y007828D01*
X008407Y007703D01*
X007837Y007703D01*
X007837Y007984D01*
X007767Y008054D01*
X007739Y008054D01*
X007739Y008466D01*
X007600Y008605D01*
X007554Y008650D01*
X007517Y008739D01*
X007440Y008817D01*
X007340Y008858D01*
X007231Y008858D01*
X007130Y008817D01*
X007053Y008739D01*
X007016Y008650D01*
X007025Y008672D02*
X006995Y008672D01*
X006991Y008788D02*
X007101Y008788D01*
X006991Y008905D02*
X007787Y008905D01*
X007670Y009021D02*
X006991Y009021D01*
X007128Y009332D02*
X007128Y010671D01*
X007443Y010671D02*
X007443Y009765D01*
X007360Y009488D02*
X007560Y009488D01*
X007560Y009371D02*
X007402Y009371D01*
X007392Y009255D02*
X007560Y009255D01*
X007560Y009138D02*
X007321Y009138D01*
X007469Y008788D02*
X007904Y008788D01*
X008020Y008672D02*
X007545Y008672D01*
X007650Y008555D02*
X008137Y008555D01*
X008254Y008438D02*
X007739Y008438D01*
X007739Y008322D02*
X008370Y008322D01*
X008487Y008205D02*
X007739Y008205D01*
X007739Y008089D02*
X008603Y008089D01*
X008672Y007972D02*
X007837Y007972D01*
X007837Y007855D02*
X008434Y007855D01*
X008407Y007739D02*
X007837Y007739D01*
X007741Y007272D02*
X008407Y007272D01*
X008415Y007156D02*
X007741Y007156D01*
X007817Y007039D02*
X008415Y007039D01*
X008448Y006922D02*
X007857Y006922D01*
X007857Y006806D02*
X008564Y006806D01*
X008681Y006689D02*
X007857Y006689D01*
X007857Y006573D02*
X008797Y006573D01*
X008914Y006456D02*
X007857Y006456D01*
X007305Y005756D02*
X007187Y005756D01*
X007187Y005640D02*
X007305Y005640D01*
X007305Y005290D02*
X007187Y005290D01*
X007187Y005173D02*
X007305Y005173D01*
X007305Y005057D02*
X007187Y005057D01*
X006594Y005640D02*
X003900Y005640D01*
X003900Y005756D02*
X006634Y005756D01*
X006793Y007389D02*
X006872Y007389D01*
X006872Y007506D02*
X006793Y007506D01*
X006793Y007622D02*
X006872Y007622D01*
X007096Y007389D02*
X007263Y007389D01*
X006813Y008466D02*
X006813Y010671D01*
X006498Y010671D02*
X006498Y008269D01*
X006291Y008089D02*
X003900Y008089D01*
X003900Y008205D02*
X006228Y008205D01*
X006224Y008322D02*
X003900Y008322D01*
X003900Y008438D02*
X006279Y008438D01*
X006320Y008555D02*
X003900Y008555D01*
X003900Y008672D02*
X006320Y008672D01*
X006320Y008788D02*
X003900Y008788D01*
X003900Y008905D02*
X006320Y008905D01*
X006320Y009021D02*
X003900Y009021D01*
X003900Y009138D02*
X006320Y009138D01*
X006320Y009255D02*
X003970Y009255D01*
X003929Y009727D02*
X003909Y009747D01*
X003496Y009747D01*
X003426Y009677D01*
X003426Y009473D01*
X002892Y008940D01*
X002367Y008940D01*
X002089Y009217D01*
X002089Y009430D01*
X002156Y009488D02*
X002442Y009488D01*
X002442Y009605D02*
X002168Y009605D01*
X002168Y009721D02*
X002442Y009721D01*
X002442Y009838D02*
X002168Y009838D01*
X002127Y009954D02*
X002442Y009954D01*
X002480Y010071D02*
X002149Y010071D01*
X002168Y010188D02*
X002442Y010188D01*
X002442Y010304D02*
X002168Y010304D01*
X002168Y010421D02*
X002442Y010421D01*
X002442Y010537D02*
X002134Y010537D01*
X002454Y010654D02*
X001250Y010654D01*
X001302Y010537D02*
X001649Y010537D01*
X001460Y010421D02*
X001302Y010421D01*
X001302Y010304D02*
X001343Y010304D01*
X001436Y009838D02*
X001615Y009838D01*
X001615Y009721D02*
X001320Y009721D01*
X001302Y009605D02*
X001615Y009605D01*
X001626Y009488D02*
X001302Y009488D01*
X001272Y009371D02*
X001694Y009371D01*
X001694Y009255D02*
X000318Y009255D01*
X000318Y009371D02*
X000700Y009371D01*
X000670Y009488D02*
X000318Y009488D01*
X000318Y009605D02*
X000670Y009605D01*
X000670Y009721D02*
X000318Y009721D01*
X000318Y009838D02*
X000670Y009838D01*
X000691Y009954D02*
X000318Y009954D01*
X000318Y010071D02*
X000670Y010071D01*
X000670Y010188D02*
X000318Y010188D01*
X000318Y010304D02*
X000670Y010304D01*
X000670Y010421D02*
X000318Y010421D01*
X000318Y010537D02*
X000670Y010537D01*
X000722Y010654D02*
X000318Y010654D01*
X000318Y010771D02*
X000806Y010771D01*
X000922Y010887D02*
X000318Y010887D01*
X000318Y011004D02*
X001039Y011004D01*
X001553Y009954D02*
X001656Y009954D01*
X002089Y009255D02*
X003207Y009255D01*
X003324Y009371D02*
X003004Y009371D01*
X003073Y009440D01*
X003073Y009742D01*
X003194Y009863D01*
X003426Y009863D01*
X003426Y009854D01*
X003496Y009784D01*
X003909Y009784D01*
X003979Y009854D01*
X003979Y010197D01*
X004819Y010197D01*
X005611Y010989D01*
X005610Y010987D01*
X005610Y010671D01*
X005868Y010671D01*
X005868Y010671D01*
X005868Y011125D01*
X005985Y011125D01*
X005985Y011146D01*
X006142Y011304D01*
X006258Y011420D01*
X006901Y011420D01*
X006894Y011423D01*
X006816Y011500D01*
X006775Y011601D01*
X006775Y011677D01*
X006739Y011713D01*
X006186Y011713D01*
X006221Y011631D01*
X006221Y011522D01*
X006179Y011421D01*
X006102Y011344D01*
X006001Y011302D01*
X005924Y011302D01*
X005747Y011125D01*
X005748Y011125D01*
X005868Y011125D01*
X005868Y010671D01*
X005868Y010217D01*
X005985Y010217D01*
X005985Y010044D01*
X005668Y009727D01*
X003929Y009727D01*
X003963Y009838D02*
X005778Y009838D01*
X005895Y009954D02*
X003979Y009954D01*
X003979Y010071D02*
X005985Y010071D01*
X005985Y010188D02*
X003979Y010188D01*
X003470Y009721D02*
X003073Y009721D01*
X003073Y009605D02*
X003426Y009605D01*
X003426Y009488D02*
X003073Y009488D01*
X003004Y009371D02*
X002511Y009371D01*
X002168Y009138D02*
X003091Y009138D01*
X002974Y009021D02*
X002285Y009021D01*
X001959Y008788D02*
X000318Y008788D01*
X000318Y008672D02*
X002075Y008672D01*
X002192Y008555D02*
X000318Y008555D01*
X000318Y008438D02*
X003505Y008438D01*
X003505Y008322D02*
X000318Y008322D01*
X000318Y008205D02*
X001114Y008205D01*
X001212Y008302D02*
X000902Y007992D01*
X000902Y007814D01*
X001390Y007814D01*
X001390Y007732D01*
X000902Y007732D01*
X000902Y007554D01*
X001211Y007245D01*
X000942Y006976D01*
X000942Y006571D01*
X001228Y006284D01*
X001633Y006284D01*
X001920Y006571D01*
X001920Y006976D01*
X001651Y007245D01*
X001959Y007553D01*
X002228Y007284D01*
X002633Y007284D01*
X002916Y007567D01*
X002916Y007506D01*
X002958Y007405D01*
X003012Y007351D01*
X003012Y006607D01*
X002668Y006262D01*
X002011Y006262D01*
X001942Y006193D01*
X001942Y005354D01*
X002011Y005284D01*
X002850Y005284D01*
X002920Y005354D01*
X002920Y006010D01*
X003264Y006355D01*
X003264Y006355D01*
X003369Y006459D01*
X003369Y007351D01*
X003423Y007405D01*
X003465Y007506D01*
X003465Y007615D01*
X003423Y007716D01*
X003346Y007793D01*
X003245Y007835D01*
X003136Y007835D01*
X003035Y007793D01*
X002958Y007716D01*
X002920Y007623D01*
X002920Y007976D01*
X002633Y008262D01*
X002228Y008262D01*
X001959Y007993D01*
X001650Y008302D01*
X001472Y008302D01*
X001472Y007814D01*
X001390Y007814D01*
X001390Y008302D01*
X001212Y008302D01*
X001390Y008205D02*
X001472Y008205D01*
X001472Y008089D02*
X001390Y008089D01*
X001390Y007972D02*
X001472Y007972D01*
X001472Y007855D02*
X001390Y007855D01*
X001390Y007739D02*
X000318Y007739D01*
X000318Y007855D02*
X000902Y007855D01*
X000902Y007972D02*
X000318Y007972D01*
X000318Y008089D02*
X000998Y008089D01*
X000902Y007622D02*
X000318Y007622D01*
X000318Y007506D02*
X000950Y007506D01*
X001067Y007389D02*
X000318Y007389D01*
X000318Y007272D02*
X001183Y007272D01*
X001122Y007156D02*
X000318Y007156D01*
X000318Y007039D02*
X001005Y007039D01*
X000942Y006922D02*
X000318Y006922D01*
X000318Y006806D02*
X000942Y006806D01*
X000942Y006689D02*
X000318Y006689D01*
X000318Y006573D02*
X000942Y006573D01*
X001056Y006456D02*
X000318Y006456D01*
X000318Y006339D02*
X001173Y006339D01*
X001189Y006223D02*
X000318Y006223D01*
X000318Y006106D02*
X001072Y006106D01*
X000955Y005990D02*
X000318Y005990D01*
X000318Y005873D02*
X000942Y005873D01*
X000942Y005756D02*
X000318Y005756D01*
X000318Y005640D02*
X000942Y005640D01*
X000989Y005523D02*
X000318Y005523D01*
X000318Y005407D02*
X001106Y005407D01*
X001222Y005290D02*
X000318Y005290D01*
X000318Y005173D02*
X001582Y005173D01*
X001699Y005057D02*
X000318Y005057D01*
X000318Y004940D02*
X001815Y004940D01*
X001932Y004823D02*
X000318Y004823D01*
X000318Y004707D02*
X002048Y004707D01*
X002165Y004590D02*
X000318Y004590D01*
X000318Y004474D02*
X002282Y004474D01*
X002360Y004647D02*
X001431Y005576D01*
X001431Y005773D01*
X001673Y006223D02*
X001972Y006223D01*
X001942Y006106D02*
X001789Y006106D01*
X001906Y005990D02*
X001942Y005990D01*
X001942Y005873D02*
X001920Y005873D01*
X001920Y005756D02*
X001942Y005756D01*
X001942Y005640D02*
X001920Y005640D01*
X001942Y005523D02*
X001872Y005523D01*
X001852Y005407D02*
X001942Y005407D01*
X001969Y005290D02*
X002006Y005290D01*
X002086Y005173D02*
X003319Y005173D01*
X003202Y005057D02*
X002202Y005057D01*
X002319Y004940D02*
X003086Y004940D01*
X003072Y004647D02*
X002360Y004647D01*
X002856Y005290D02*
X003435Y005290D01*
X003505Y005407D02*
X002920Y005407D01*
X002920Y005523D02*
X003505Y005523D01*
X003505Y005640D02*
X002920Y005640D01*
X002920Y005756D02*
X003505Y005756D01*
X003505Y005873D02*
X002920Y005873D01*
X002920Y005990D02*
X003505Y005990D01*
X003505Y006106D02*
X003016Y006106D01*
X003132Y006223D02*
X003505Y006223D01*
X003505Y006339D02*
X003249Y006339D01*
X003365Y006456D02*
X003505Y006456D01*
X003505Y006573D02*
X003369Y006573D01*
X003369Y006689D02*
X003505Y006689D01*
X003505Y006806D02*
X003369Y006806D01*
X003369Y006922D02*
X003505Y006922D01*
X003505Y007039D02*
X003369Y007039D01*
X003369Y007156D02*
X003505Y007156D01*
X003505Y007272D02*
X003369Y007272D01*
X003406Y007389D02*
X003505Y007389D01*
X003505Y007506D02*
X003464Y007506D01*
X003462Y007622D02*
X003505Y007622D01*
X003505Y007739D02*
X003400Y007739D01*
X003505Y007855D02*
X002920Y007855D01*
X002920Y007739D02*
X002981Y007739D01*
X002920Y007972D02*
X003505Y007972D01*
X003505Y008089D02*
X002807Y008089D01*
X002690Y008205D02*
X003505Y008205D01*
X003505Y008555D02*
X003067Y008555D01*
X003184Y008672D02*
X003505Y008672D01*
X003505Y008788D02*
X003300Y008788D01*
X003417Y008905D02*
X003505Y008905D01*
X003442Y009838D02*
X003169Y009838D01*
X002757Y010376D02*
X004746Y010376D01*
X005946Y011576D01*
X006111Y011354D02*
X006192Y011354D01*
X006199Y011470D02*
X006846Y011470D01*
X006780Y011587D02*
X006221Y011587D01*
X006190Y011703D02*
X006749Y011703D01*
X006813Y011891D02*
X007049Y011655D01*
X006813Y011891D02*
X005868Y011891D01*
X005671Y011694D01*
X005159Y011694D01*
X005159Y012009D02*
X005671Y012009D01*
X005789Y012128D01*
X007088Y012128D01*
X007489Y012636D02*
X008662Y012636D01*
X008662Y012520D02*
X007606Y012520D01*
X007722Y012403D02*
X008662Y012403D01*
X008662Y012287D02*
X007839Y012287D01*
X007955Y012170D02*
X008662Y012170D01*
X008662Y012053D02*
X008072Y012053D01*
X008189Y011937D02*
X008662Y011937D01*
X008662Y011820D02*
X008305Y011820D01*
X008422Y011703D02*
X008768Y011703D01*
X008778Y011694D02*
X008894Y011577D01*
X008548Y011577D01*
X008469Y011656D01*
X006028Y014097D01*
X005573Y014097D01*
X005573Y014362D01*
X005564Y014372D01*
X005573Y014381D01*
X005573Y014677D01*
X005504Y014747D01*
X004814Y014747D01*
X004786Y014718D01*
X004786Y015085D01*
X005650Y015085D01*
X005650Y014969D02*
X004786Y014969D01*
X004786Y015085D02*
X004861Y015161D01*
X004938Y015161D01*
X005039Y015202D01*
X005116Y015279D01*
X005158Y015380D01*
X005158Y015489D01*
X005116Y015590D01*
X005039Y015667D01*
X004938Y015709D01*
X004829Y015709D01*
X004728Y015667D01*
X004651Y015590D01*
X004609Y015489D01*
X004609Y015412D01*
X004569Y015373D01*
X004569Y015746D01*
X006324Y017501D01*
X006440Y017616D01*
X006440Y020788D01*
X006508Y020788D01*
X006577Y020858D01*
X006577Y021160D01*
X006605Y021188D01*
X006721Y021304D01*
X006721Y021827D01*
X006873Y021827D01*
X006942Y021897D01*
X006942Y022295D01*
X006873Y022365D01*
X006174Y022365D01*
X006104Y022295D01*
X006104Y022294D01*
X004942Y022294D01*
X004942Y022295D01*
X004873Y022365D01*
X004174Y022365D01*
X004104Y022295D01*
X004104Y021897D01*
X004174Y021827D01*
X004873Y021827D01*
X004942Y021897D01*
X004942Y021898D01*
X006104Y021898D01*
X006104Y021897D01*
X006174Y021827D01*
X006325Y021827D01*
X006325Y021467D01*
X006278Y021420D01*
X005976Y021420D01*
X005907Y021351D01*
X005838Y021420D01*
X005307Y021420D01*
X005237Y021350D01*
X005237Y021048D01*
X005081Y020892D01*
X005081Y020956D01*
X005036Y021002D01*
X005060Y021016D01*
X005089Y021046D01*
X005110Y021082D01*
X005121Y021122D01*
X005121Y021320D01*
X004805Y021320D01*
X004805Y021399D01*
X005121Y021399D01*
X005121Y021597D01*
X005110Y021638D01*
X005089Y021674D01*
X005060Y021704D01*
X005024Y021725D01*
X004983Y021735D01*
X004805Y021735D01*
X004805Y021399D01*
X004726Y021399D01*
X004726Y021320D01*
X004409Y021320D01*
X004409Y021122D01*
X004419Y021085D01*
X004372Y021085D01*
X004342Y021115D01*
X003771Y021115D01*
X003701Y021045D01*
X003701Y020730D01*
X003771Y020660D01*
X004342Y020660D01*
X004372Y020690D01*
X004449Y020690D01*
X004449Y020425D01*
X004519Y020355D01*
X004568Y020355D01*
X004568Y019887D01*
X004250Y019569D01*
X003771Y019569D01*
X003701Y019500D01*
X003701Y018850D01*
X003771Y018780D01*
X004250Y018780D01*
X004764Y018266D01*
X004764Y017013D01*
X003876Y016125D01*
X003876Y016138D01*
X003802Y016318D01*
X003664Y016456D01*
X003485Y016530D01*
X003290Y016530D01*
X003110Y016456D01*
X002973Y016318D01*
X002916Y016181D01*
X002916Y016399D01*
X003013Y016497D01*
X003152Y016636D01*
X003152Y017638D01*
X003279Y017638D01*
X003349Y017708D01*
X003349Y018358D01*
X003279Y018428D01*
X002800Y018428D01*
X002095Y019133D01*
X002095Y019158D01*
X002849Y019912D01*
X003319Y019912D01*
X003388Y019982D01*
X003388Y020297D01*
X003387Y020298D01*
X003397Y020307D01*
X003417Y020344D01*
X003428Y020384D01*
X003428Y020513D01*
X003033Y020513D01*
X002638Y020513D01*
X002638Y020384D01*
X002649Y020344D01*
X002652Y020337D01*
X002387Y020337D01*
X002247Y020477D01*
X002247Y020550D01*
X002406Y020709D01*
X002664Y020709D01*
X002649Y020683D01*
X002638Y020643D01*
X002638Y020513D01*
X003033Y020513D01*
X003033Y020513D01*
X003033Y020513D01*
X003428Y020513D01*
X003428Y020643D01*
X003417Y020683D01*
X003397Y020719D01*
X003387Y020729D01*
X003388Y020730D01*
X003388Y021045D01*
X003319Y021115D01*
X002747Y021115D01*
X002738Y021105D01*
X002408Y021105D01*
X003863Y022560D01*
X006770Y022560D01*
X007048Y022282D01*
X007048Y020989D01*
X006573Y020514D01*
X006457Y020398D01*
X006457Y016809D01*
X006930Y016337D01*
X006930Y015652D01*
X006676Y015652D01*
X006676Y015786D01*
X006692Y015793D01*
X006769Y015870D01*
X006811Y015971D01*
X006811Y016080D01*
X006769Y016180D01*
X006692Y016258D01*
X006592Y016299D01*
X006482Y016299D01*
X006419Y016273D01*
X006457Y016364D01*
X006457Y016473D01*
X006415Y016574D01*
X006338Y016651D01*
X006237Y016693D01*
X006128Y016693D01*
X006027Y016651D01*
X005950Y016574D01*
X005909Y016473D01*
X005909Y016364D01*
X005947Y016273D01*
X005883Y016299D01*
X005774Y016299D01*
X005673Y016258D01*
X005596Y016180D01*
X005554Y016080D01*
X005554Y015971D01*
X005596Y015870D01*
X005673Y015793D01*
X005690Y015786D01*
X005690Y015622D01*
X005650Y015582D01*
X005650Y014893D01*
X005720Y014823D01*
X006015Y014823D01*
X006025Y014833D01*
X006035Y014823D01*
X006330Y014823D01*
X006340Y014833D01*
X006350Y014823D01*
X006634Y014823D01*
X006634Y013944D01*
X006739Y013839D01*
X007168Y013410D01*
X007168Y013333D01*
X007210Y013232D01*
X007287Y013155D01*
X007388Y013113D01*
X007497Y013113D01*
X007598Y013155D01*
X007675Y013232D01*
X007717Y013333D01*
X007717Y013442D01*
X007675Y013543D01*
X007674Y013544D01*
X008154Y013544D01*
X008662Y014052D01*
X008662Y011809D01*
X008778Y011694D01*
X008885Y011587D02*
X008539Y011587D01*
X008391Y011182D02*
X009362Y011182D01*
X009381Y011162D01*
X009861Y011162D01*
X010158Y010865D01*
X010158Y010202D01*
X010042Y010085D01*
X010042Y010149D01*
X009996Y010195D01*
X010020Y010209D01*
X010050Y010239D01*
X010071Y010275D01*
X010082Y010315D01*
X010082Y010513D01*
X009765Y010513D01*
X009765Y010592D01*
X009687Y010592D01*
X009687Y010928D01*
X009508Y010928D01*
X009468Y010918D01*
X009431Y010897D01*
X009402Y010867D01*
X009381Y010831D01*
X009370Y010790D01*
X009370Y010592D01*
X009687Y010592D01*
X009687Y010513D01*
X009370Y010513D01*
X009370Y010315D01*
X009381Y010275D01*
X009402Y010239D01*
X009431Y010209D01*
X009456Y010195D01*
X009410Y010149D01*
X009410Y009703D01*
X008896Y010217D01*
X008898Y010217D01*
X009017Y010217D01*
X009017Y010671D01*
X009017Y011125D01*
X008898Y011125D01*
X008858Y011114D01*
X008821Y011093D01*
X008813Y011085D01*
X008555Y011085D01*
X008545Y011075D01*
X008535Y011085D01*
X008294Y011085D01*
X008391Y011182D01*
X008329Y011120D02*
X008880Y011120D01*
X009017Y011120D02*
X009017Y011120D01*
X009017Y011125D02*
X009017Y010671D01*
X009017Y010671D01*
X009017Y010671D01*
X009275Y010671D01*
X009275Y010987D01*
X009264Y011028D01*
X009243Y011064D01*
X009213Y011093D01*
X009177Y011114D01*
X009137Y011125D01*
X009017Y011125D01*
X009017Y011004D02*
X009017Y011004D01*
X009017Y010887D02*
X009017Y010887D01*
X009017Y010771D02*
X009017Y010771D01*
X009017Y010671D02*
X009017Y010671D01*
X009017Y010217D01*
X009137Y010217D01*
X009177Y010227D01*
X009213Y010248D01*
X009243Y010278D01*
X009264Y010314D01*
X009275Y010355D01*
X009275Y010671D01*
X009017Y010671D01*
X009017Y010654D02*
X009017Y010654D01*
X009017Y010537D02*
X009017Y010537D01*
X009017Y010421D02*
X009017Y010421D01*
X009017Y010304D02*
X009017Y010304D01*
X008926Y010188D02*
X009448Y010188D01*
X009410Y010071D02*
X009042Y010071D01*
X009159Y009954D02*
X009410Y009954D01*
X009410Y009838D02*
X009276Y009838D01*
X009392Y009721D02*
X009410Y009721D01*
X009362Y009500D02*
X009362Y007504D01*
X009372Y007514D01*
X009106Y007504D02*
X009106Y008220D01*
X008072Y009254D01*
X008072Y010671D01*
X008387Y010671D02*
X008387Y009372D01*
X008702Y009057D01*
X009362Y009500D02*
X008702Y010159D01*
X008702Y010671D01*
X009154Y011120D02*
X009902Y011120D01*
X010019Y011004D02*
X009270Y011004D01*
X009275Y010887D02*
X009422Y010887D01*
X009370Y010771D02*
X009275Y010771D01*
X009275Y010654D02*
X009370Y010654D01*
X009275Y010537D02*
X009687Y010537D01*
X009765Y010537D02*
X010158Y010537D01*
X010082Y010592D02*
X010082Y010790D01*
X010071Y010831D01*
X010050Y010867D01*
X010020Y010897D01*
X009984Y010918D01*
X009944Y010928D01*
X009765Y010928D01*
X009765Y010592D01*
X010082Y010592D01*
X010082Y010654D02*
X010158Y010654D01*
X010158Y010771D02*
X010082Y010771D01*
X010030Y010887D02*
X010135Y010887D01*
X010345Y011237D02*
X010414Y011237D01*
X010414Y011168D02*
X010140Y011442D01*
X010140Y011490D01*
X010149Y011498D01*
X010169Y011535D01*
X010180Y011575D01*
X010180Y011694D01*
X009726Y011694D01*
X009726Y011694D01*
X010180Y011694D01*
X010180Y011814D01*
X010176Y011831D01*
X010282Y011831D01*
X010414Y011699D01*
X010414Y011168D01*
X010414Y011354D02*
X010228Y011354D01*
X010140Y011470D02*
X010414Y011470D01*
X010414Y011587D02*
X010180Y011587D01*
X010180Y011703D02*
X010410Y011703D01*
X010293Y011820D02*
X010179Y011820D01*
X010356Y012009D02*
X009726Y012009D01*
X009726Y012324D02*
X010435Y012324D01*
X010789Y011970D01*
X010789Y008584D01*
X010385Y008181D01*
X010385Y007504D01*
X010641Y007504D02*
X010641Y008043D01*
X011025Y008427D01*
X011025Y012088D01*
X010474Y012639D01*
X009726Y012639D01*
X009726Y012954D02*
X011419Y012954D01*
X012610Y014145D01*
X012610Y022009D01*
X014431Y023830D01*
X014431Y023880D01*
X015513Y024962D01*
X015276Y024473D02*
X015933Y024473D01*
X015983Y024524D01*
X016000Y024495D01*
X016030Y024465D01*
X016066Y024444D01*
X016107Y024433D01*
X016458Y024433D01*
X016458Y024923D01*
X016537Y024923D01*
X016537Y025002D01*
X016458Y025002D01*
X016458Y025491D01*
X016107Y025491D01*
X016066Y025480D01*
X016030Y025459D01*
X016000Y025430D01*
X015983Y025401D01*
X015933Y025451D01*
X015094Y025451D01*
X015024Y025382D01*
X015024Y024725D01*
X015018Y024719D01*
X015018Y025382D01*
X014948Y025451D01*
X014110Y025451D01*
X014040Y025382D01*
X014040Y025161D01*
X011755Y025161D01*
X012050Y025456D01*
X012050Y026044D01*
X011634Y026459D01*
X011046Y026459D01*
X010631Y026044D01*
X010631Y025456D01*
X010925Y025161D01*
X010510Y025161D01*
X008831Y023483D01*
X008204Y023483D01*
X008138Y023416D01*
X005968Y025586D01*
X005852Y025703D01*
X004856Y025703D01*
X004856Y025858D01*
X004519Y025858D01*
X004519Y025937D01*
X004441Y025937D01*
X004441Y026253D01*
X004242Y026253D01*
X004202Y026242D01*
X004166Y026221D01*
X004136Y026192D01*
X004122Y026168D01*
X004087Y026202D01*
X004087Y026261D01*
X004107Y026281D01*
X004107Y026852D01*
X004037Y026922D01*
X003722Y026922D01*
X003721Y026921D01*
X003711Y026930D01*
X003675Y026951D01*
X003635Y026962D01*
X003506Y026962D01*
X003506Y026567D01*
X003506Y026567D01*
X003506Y026962D01*
X003396Y026962D01*
X003580Y027145D01*
X003685Y027250D01*
X003685Y027272D01*
X003722Y027235D01*
X003866Y027235D01*
X004058Y027043D01*
X004058Y026994D01*
X004100Y026894D01*
X004177Y026816D01*
X004278Y026775D01*
X004387Y026775D01*
X004488Y026816D01*
X004565Y026894D01*
X004606Y026994D01*
X004606Y027103D01*
X004565Y027204D01*
X004488Y027281D01*
X004387Y027323D01*
X004338Y027323D01*
X004107Y027554D01*
X004107Y027876D01*
X004079Y027904D01*
X004079Y028066D01*
X004077Y028068D01*
X004077Y028079D01*
X004309Y028311D01*
X004342Y028278D01*
X004794Y028278D01*
X004528Y028012D01*
X004528Y027424D01*
X004944Y027009D01*
X005532Y027009D01*
X005947Y027424D01*
X005947Y028012D01*
X005532Y028428D01*
X005361Y028428D01*
X005544Y028611D01*
X005544Y028638D01*
X005745Y028839D01*
X008575Y028839D01*
X008533Y028738D01*
X008533Y028608D01*
X008583Y028488D01*
X008675Y028396D01*
X008795Y028346D01*
X008858Y028346D01*
X008858Y028179D01*
X008869Y028139D01*
X008890Y028103D01*
X008920Y028073D01*
X008956Y028052D01*
X008996Y028041D01*
X009096Y028041D01*
X009096Y028447D01*
X009096Y028447D01*
X009096Y028041D01*
X009196Y028041D01*
X009223Y028049D01*
X009282Y027990D01*
X009422Y027990D01*
X009430Y027998D01*
X009430Y027497D01*
X009143Y027210D01*
X009139Y027215D01*
X008975Y027215D01*
X008967Y027207D01*
X008811Y027207D01*
X008741Y027138D01*
X008741Y026606D01*
X008810Y026537D01*
X008741Y026468D01*
X008741Y025937D01*
X008811Y025867D01*
X008859Y025867D01*
X008859Y025309D01*
X008824Y025275D01*
X008783Y025174D01*
X008783Y025065D01*
X008824Y024964D01*
X008901Y024887D01*
X009002Y024846D01*
X009111Y024846D01*
X009212Y024887D01*
X009289Y024964D01*
X009331Y025065D01*
X009331Y025174D01*
X009289Y025275D01*
X009254Y025309D01*
X009254Y025867D01*
X009303Y025867D01*
X009373Y025937D01*
X009373Y026468D01*
X009304Y026537D01*
X009373Y026606D01*
X009373Y026936D01*
X009686Y027249D01*
X009686Y026606D01*
X009754Y026537D01*
X009686Y026468D01*
X009686Y025937D01*
X009755Y025867D01*
X009804Y025867D01*
X009804Y025618D01*
X009767Y025529D01*
X009767Y025420D01*
X009809Y025319D01*
X009886Y025242D01*
X009986Y025200D01*
X010095Y025200D01*
X010196Y025242D01*
X010273Y025319D01*
X010315Y025420D01*
X010315Y025529D01*
X010273Y025629D01*
X010199Y025703D01*
X010199Y025867D01*
X010248Y025867D01*
X010317Y025937D01*
X010317Y026468D01*
X010249Y026537D01*
X010317Y026606D01*
X010317Y027138D01*
X010248Y027207D01*
X010042Y027207D01*
X010042Y027998D01*
X010050Y027990D01*
X010190Y027990D01*
X010289Y028089D01*
X010289Y028122D01*
X010317Y028151D01*
X010317Y028346D01*
X010421Y028346D01*
X010541Y028396D01*
X010633Y028488D01*
X010682Y028608D01*
X010682Y028738D01*
X010633Y028858D01*
X010541Y028950D01*
X010421Y028999D01*
X010291Y028999D01*
X010202Y028962D01*
X010040Y029125D01*
X010149Y029125D01*
X010219Y029194D01*
X010219Y029884D01*
X010181Y029921D01*
X010623Y029921D01*
X010585Y029884D01*
X010585Y029194D01*
X010655Y029125D01*
X011462Y029125D01*
X011532Y029194D01*
X011532Y029884D01*
X011494Y029921D01*
X018898Y029921D01*
X018898Y018360D01*
X018870Y018388D01*
X018148Y018388D01*
X018540Y018780D01*
X018644Y018884D01*
X018644Y024262D01*
X018694Y024311D01*
X018768Y024491D01*
X018768Y024685D01*
X018694Y024865D01*
X018556Y025003D01*
X018457Y025044D01*
X018457Y025227D01*
X018515Y025227D01*
X018585Y025297D01*
X018585Y025828D01*
X018540Y025874D01*
X018564Y025888D01*
X018593Y025918D01*
X018614Y025954D01*
X018625Y025994D01*
X018625Y026193D01*
X018309Y026193D01*
X018309Y026271D01*
X018625Y026271D01*
X018625Y026469D01*
X018614Y026510D01*
X018593Y026546D01*
X018564Y026576D01*
X018528Y026597D01*
X018487Y026607D01*
X018309Y026607D01*
X018309Y026271D01*
X018230Y026271D01*
X018230Y026193D01*
X017913Y026193D01*
X017913Y025994D01*
X017924Y025954D01*
X017945Y025918D01*
X017975Y025888D01*
X017999Y025874D01*
X017953Y025828D01*
X017953Y025297D01*
X018023Y025227D01*
X018101Y025227D01*
X018101Y025044D01*
X018002Y025003D01*
X017865Y024865D01*
X017790Y024685D01*
X017790Y024491D01*
X017865Y024311D01*
X018002Y024174D01*
X018182Y024099D01*
X018288Y024099D01*
X018288Y019032D01*
X018106Y018850D01*
X018113Y018878D01*
X018113Y019194D01*
X017817Y019194D01*
X017817Y019234D01*
X018113Y019234D01*
X018113Y019550D01*
X018103Y019591D01*
X018082Y019627D01*
X018052Y019656D01*
X018016Y019677D01*
X017975Y019688D01*
X017817Y019688D01*
X017817Y019234D01*
X017777Y019234D01*
X017777Y019194D01*
X017817Y019194D01*
X017817Y018740D01*
X017975Y018740D01*
X018004Y018748D01*
X017949Y018693D01*
X017654Y018693D01*
X017550Y018589D01*
X017255Y018294D01*
X017255Y017703D01*
X017359Y017599D01*
X017969Y016989D01*
X018071Y016989D01*
X018071Y016960D01*
X018101Y016931D01*
X018071Y016901D01*
X018071Y016873D01*
X018048Y016873D01*
X016085Y018835D01*
X016085Y022412D01*
X016138Y022465D01*
X016370Y022465D01*
X016440Y022535D01*
X016440Y022871D01*
X016477Y022837D01*
X016477Y022535D01*
X016547Y022465D01*
X016960Y022465D01*
X017030Y022535D01*
X017030Y022949D01*
X016960Y023018D01*
X016810Y023018D01*
X016694Y023121D01*
X016694Y023401D01*
X016773Y023401D01*
X016773Y023085D01*
X016971Y023085D01*
X017012Y023095D01*
X017048Y023116D01*
X017078Y023146D01*
X017099Y023182D01*
X017109Y023223D01*
X017109Y023401D01*
X016773Y023401D01*
X016773Y023480D01*
X016694Y023480D01*
X016694Y023796D01*
X016496Y023796D01*
X016456Y023786D01*
X016420Y023765D01*
X016390Y023735D01*
X016376Y023711D01*
X016330Y023756D01*
X015799Y023756D01*
X015729Y023687D01*
X015729Y023194D01*
X015799Y023125D01*
X016153Y023125D01*
X016273Y023018D01*
X015956Y023018D01*
X015886Y022949D01*
X015886Y022717D01*
X015729Y022560D01*
X015729Y018688D01*
X015833Y018583D01*
X017900Y016516D01*
X018071Y016516D01*
X018071Y016488D01*
X018101Y016458D01*
X018071Y016429D01*
X018071Y016015D01*
X018101Y015986D01*
X018071Y015956D01*
X018071Y015928D01*
X016877Y015928D01*
X014491Y018314D01*
X014491Y022278D01*
X014682Y022469D01*
X014913Y022469D01*
X014983Y022539D01*
X014983Y022808D01*
X015020Y022770D01*
X015020Y022539D01*
X015090Y022469D01*
X015504Y022469D01*
X015573Y022539D01*
X015573Y022952D01*
X015504Y023022D01*
X015272Y023022D01*
X015214Y023081D01*
X015301Y023081D01*
X015301Y023397D01*
X015380Y023397D01*
X015380Y023476D01*
X015716Y023476D01*
X015716Y023654D01*
X015705Y023695D01*
X015684Y023731D01*
X015654Y023761D01*
X015618Y023782D01*
X015578Y023793D01*
X015380Y023793D01*
X015380Y023476D01*
X015301Y023476D01*
X015301Y023793D01*
X015103Y023793D01*
X015062Y023782D01*
X015026Y023761D01*
X014996Y023731D01*
X014982Y023707D01*
X014937Y023753D01*
X014605Y023753D01*
X014609Y023757D01*
X014609Y023806D01*
X015276Y024473D01*
X015217Y024414D02*
X017822Y024414D01*
X017790Y024531D02*
X017016Y024531D01*
X017027Y024571D01*
X017027Y024923D01*
X016537Y024923D01*
X016537Y024433D01*
X016889Y024433D01*
X016929Y024444D01*
X016965Y024465D01*
X016995Y024495D01*
X017016Y024531D01*
X017027Y024647D02*
X017790Y024647D01*
X017823Y024764D02*
X017027Y024764D01*
X017027Y024880D02*
X017880Y024880D01*
X017996Y024997D02*
X016537Y024997D01*
X016537Y025002D02*
X017027Y025002D01*
X017027Y025353D01*
X017016Y025394D01*
X016995Y025430D01*
X016965Y025459D01*
X016929Y025480D01*
X016889Y025491D01*
X016537Y025491D01*
X016537Y025002D01*
X016537Y025114D02*
X016458Y025114D01*
X016458Y025230D02*
X016537Y025230D01*
X016537Y025347D02*
X016458Y025347D01*
X016458Y025464D02*
X016537Y025464D01*
X016958Y025464D02*
X017953Y025464D01*
X017953Y025580D02*
X012050Y025580D01*
X012050Y025464D02*
X016037Y025464D01*
X016458Y024880D02*
X016537Y024880D01*
X016537Y024764D02*
X016458Y024764D01*
X016458Y024647D02*
X016537Y024647D01*
X016537Y024531D02*
X016458Y024531D01*
X016773Y023796D02*
X016773Y023480D01*
X017109Y023480D01*
X017109Y023658D01*
X017099Y023699D01*
X017078Y023735D01*
X017048Y023765D01*
X017012Y023786D01*
X016971Y023796D01*
X016773Y023796D01*
X016773Y023714D02*
X016694Y023714D01*
X016694Y023598D02*
X016773Y023598D01*
X016773Y023481D02*
X016694Y023481D01*
X016694Y023365D02*
X016773Y023365D01*
X016773Y023248D02*
X016694Y023248D01*
X016694Y023131D02*
X016773Y023131D01*
X016964Y023015D02*
X018288Y023015D01*
X018288Y023131D02*
X017063Y023131D01*
X017109Y023248D02*
X018288Y023248D01*
X018288Y023365D02*
X017109Y023365D01*
X017109Y023481D02*
X018288Y023481D01*
X018288Y023598D02*
X017109Y023598D01*
X017090Y023714D02*
X018288Y023714D01*
X018288Y023831D02*
X014634Y023831D01*
X014751Y023948D02*
X018288Y023948D01*
X018288Y024064D02*
X014867Y024064D01*
X014984Y024181D02*
X017995Y024181D01*
X017878Y024297D02*
X015100Y024297D01*
X014772Y024473D02*
X014322Y024473D01*
X013695Y023846D01*
X013695Y023346D01*
X014253Y023904D01*
X014253Y023953D01*
X014772Y024473D01*
X014713Y024414D02*
X014262Y024414D01*
X014146Y024297D02*
X014597Y024297D01*
X014480Y024181D02*
X014029Y024181D01*
X013913Y024064D02*
X014364Y024064D01*
X014253Y023948D02*
X013796Y023948D01*
X013695Y023831D02*
X014179Y023831D01*
X014063Y023714D02*
X013695Y023714D01*
X013695Y023598D02*
X013946Y023598D01*
X013830Y023481D02*
X013695Y023481D01*
X013695Y023365D02*
X013713Y023365D01*
X013984Y023131D02*
X014394Y023131D01*
X014335Y023248D02*
X014100Y023248D01*
X014217Y023365D02*
X014335Y023365D01*
X014333Y023481D02*
X014335Y023481D01*
X014671Y023437D02*
X014750Y023293D01*
X015297Y022746D01*
X015020Y022665D02*
X014983Y022665D01*
X014983Y022781D02*
X015009Y022781D01*
X015020Y022548D02*
X014983Y022548D01*
X014706Y022746D02*
X014313Y022352D01*
X014313Y018240D01*
X016803Y015750D01*
X018506Y015750D01*
X018071Y015552D02*
X013743Y015552D01*
X013743Y015668D02*
X016632Y015668D01*
X016516Y015785D02*
X013743Y015785D01*
X013743Y015901D02*
X016399Y015901D01*
X016282Y016018D02*
X013743Y016018D01*
X013743Y016135D02*
X016166Y016135D01*
X016049Y016251D02*
X013743Y016251D01*
X013743Y016368D02*
X015933Y016368D01*
X015816Y016485D02*
X013740Y016485D01*
X013743Y016601D02*
X015699Y016601D01*
X015583Y016718D02*
X013743Y016718D01*
X013743Y016834D02*
X015466Y016834D01*
X015350Y016951D02*
X013734Y016951D01*
X013743Y017068D02*
X015233Y017068D01*
X015116Y017184D02*
X013743Y017184D01*
X013743Y017301D02*
X015000Y017301D01*
X014883Y017417D02*
X013728Y017417D01*
X013743Y017534D02*
X014766Y017534D01*
X014650Y017651D02*
X013743Y017651D01*
X013743Y017767D02*
X014533Y017767D01*
X014417Y017884D02*
X013767Y017884D01*
X013783Y018000D02*
X014300Y018000D01*
X014183Y018117D02*
X013328Y018117D01*
X013289Y018117D02*
X012788Y018117D01*
X012788Y018000D02*
X012835Y018000D01*
X012851Y017884D02*
X012788Y017884D01*
X012788Y017767D02*
X012875Y017767D01*
X012875Y017651D02*
X012788Y017651D01*
X012788Y017534D02*
X012875Y017534D01*
X012890Y017417D02*
X012788Y017417D01*
X012788Y017301D02*
X012875Y017301D01*
X012875Y017184D02*
X012788Y017184D01*
X012788Y017068D02*
X012875Y017068D01*
X012884Y016951D02*
X012788Y016951D01*
X012788Y016834D02*
X012875Y016834D01*
X012875Y016718D02*
X012788Y016718D01*
X012788Y016601D02*
X012875Y016601D01*
X012878Y016485D02*
X012788Y016485D01*
X012788Y016368D02*
X012875Y016368D01*
X012875Y016251D02*
X012788Y016251D01*
X012788Y016135D02*
X012875Y016135D01*
X012875Y016018D02*
X012788Y016018D01*
X012788Y015901D02*
X012875Y015901D01*
X012875Y015785D02*
X012788Y015785D01*
X012788Y015668D02*
X012875Y015668D01*
X012875Y015552D02*
X012788Y015552D01*
X012788Y015435D02*
X012875Y015435D01*
X012875Y015318D02*
X012788Y015318D01*
X012788Y015202D02*
X012875Y015202D01*
X012875Y015085D02*
X012788Y015085D01*
X012788Y014969D02*
X012875Y014969D01*
X012875Y014852D02*
X012788Y014852D01*
X012788Y014735D02*
X012875Y014735D01*
X012875Y014619D02*
X012788Y014619D01*
X012788Y014502D02*
X012875Y014502D01*
X012875Y014386D02*
X012788Y014386D01*
X012788Y014269D02*
X012875Y014269D01*
X012875Y014152D02*
X012788Y014152D01*
X012752Y014036D02*
X012875Y014036D01*
X012875Y013919D02*
X012636Y013919D01*
X012684Y013967D02*
X012684Y013967D01*
X012519Y013802D02*
X012875Y013802D01*
X012875Y013686D02*
X012402Y013686D01*
X012286Y013569D02*
X012875Y013569D01*
X012875Y013453D02*
X012169Y013453D01*
X012052Y013336D02*
X012875Y013336D01*
X012875Y013219D02*
X011936Y013219D01*
X011819Y013103D02*
X012837Y013103D01*
X012835Y012986D02*
X011703Y012986D01*
X011597Y012881D02*
X011597Y012881D01*
X011586Y012870D02*
X012835Y012870D01*
X012835Y012895D02*
X012835Y012737D01*
X012845Y012696D01*
X012866Y012660D01*
X012896Y012630D01*
X012932Y012609D01*
X012973Y012598D01*
X013289Y012598D01*
X013289Y012895D01*
X012835Y012895D01*
X012835Y012753D02*
X010612Y012753D01*
X010729Y012636D02*
X012890Y012636D01*
X013289Y012636D02*
X013328Y012636D01*
X013328Y012753D02*
X013289Y012753D01*
X013289Y012870D02*
X013328Y012870D01*
X013783Y012870D02*
X014031Y012870D01*
X014019Y012986D02*
X013783Y012986D01*
X013780Y013103D02*
X014058Y013103D01*
X014293Y012954D02*
X014411Y013072D01*
X015317Y013072D01*
X015631Y013387D01*
X018506Y013387D01*
X018071Y013569D02*
X014617Y013569D01*
X014681Y013453D02*
X015445Y013453D01*
X015328Y013336D02*
X014685Y013336D01*
X014411Y013387D02*
X013309Y013387D01*
X013743Y013569D02*
X014205Y013569D01*
X013743Y013686D02*
X018071Y013686D01*
X018071Y013802D02*
X013743Y013802D01*
X013743Y013919D02*
X018071Y013919D01*
X018071Y014036D02*
X013743Y014036D01*
X013743Y014152D02*
X018071Y014152D01*
X018071Y014269D02*
X013743Y014269D01*
X013743Y014386D02*
X018071Y014386D01*
X018071Y014502D02*
X013743Y014502D01*
X013743Y014619D02*
X018071Y014619D01*
X018071Y014735D02*
X013743Y014735D01*
X013743Y014852D02*
X018071Y014852D01*
X018071Y014969D02*
X013743Y014969D01*
X013743Y015085D02*
X018071Y015085D01*
X018071Y015202D02*
X013743Y015202D01*
X013743Y015318D02*
X018071Y015318D01*
X018071Y015435D02*
X013743Y015435D01*
X015154Y017651D02*
X016766Y017651D01*
X016649Y017767D02*
X015037Y017767D01*
X014920Y017884D02*
X016533Y017884D01*
X016416Y018000D02*
X014804Y018000D01*
X014687Y018117D02*
X016300Y018117D01*
X016183Y018234D02*
X014571Y018234D01*
X014491Y018350D02*
X016066Y018350D01*
X015950Y018467D02*
X014491Y018467D01*
X014491Y018584D02*
X015833Y018584D01*
X015729Y018700D02*
X014491Y018700D01*
X014491Y018817D02*
X015729Y018817D01*
X015729Y018933D02*
X014491Y018933D01*
X014491Y019050D02*
X015729Y019050D01*
X015729Y019167D02*
X014491Y019167D01*
X014491Y019283D02*
X015729Y019283D01*
X015729Y019400D02*
X014491Y019400D01*
X014491Y019516D02*
X015729Y019516D01*
X015729Y019633D02*
X014491Y019633D01*
X014491Y019750D02*
X015729Y019750D01*
X015729Y019866D02*
X014491Y019866D01*
X014491Y019983D02*
X015729Y019983D01*
X015729Y020099D02*
X014491Y020099D01*
X014491Y020216D02*
X015729Y020216D01*
X015729Y020333D02*
X014491Y020333D01*
X014491Y020449D02*
X015729Y020449D01*
X015729Y020566D02*
X014491Y020566D01*
X014491Y020683D02*
X015729Y020683D01*
X015729Y020799D02*
X014491Y020799D01*
X014491Y020916D02*
X015729Y020916D01*
X015729Y021032D02*
X014491Y021032D01*
X014491Y021149D02*
X015729Y021149D01*
X015729Y021266D02*
X014491Y021266D01*
X014491Y021382D02*
X015729Y021382D01*
X015729Y021499D02*
X014491Y021499D01*
X014491Y021615D02*
X015729Y021615D01*
X015729Y021732D02*
X014491Y021732D01*
X014491Y021849D02*
X015729Y021849D01*
X015729Y021965D02*
X014491Y021965D01*
X014491Y022082D02*
X015729Y022082D01*
X015729Y022198D02*
X014491Y022198D01*
X014528Y022315D02*
X015729Y022315D01*
X015729Y022432D02*
X014644Y022432D01*
X014430Y022781D02*
X013634Y022781D01*
X013517Y022665D02*
X014374Y022665D01*
X014257Y022548D02*
X013401Y022548D01*
X013284Y022432D02*
X014140Y022432D01*
X014134Y022315D02*
X013167Y022315D01*
X013051Y022198D02*
X014134Y022198D01*
X014134Y022082D02*
X012934Y022082D01*
X012817Y021965D02*
X014134Y021965D01*
X014134Y021849D02*
X012788Y021849D01*
X012788Y021732D02*
X014134Y021732D01*
X014134Y021615D02*
X012788Y021615D01*
X012788Y021499D02*
X014134Y021499D01*
X014134Y021382D02*
X012788Y021382D01*
X012788Y021266D02*
X014134Y021266D01*
X014134Y021149D02*
X012788Y021149D01*
X012788Y021032D02*
X014134Y021032D01*
X014134Y020916D02*
X012788Y020916D01*
X012788Y020799D02*
X014134Y020799D01*
X014134Y020683D02*
X012788Y020683D01*
X012788Y020566D02*
X014134Y020566D01*
X014134Y020449D02*
X012788Y020449D01*
X012788Y020333D02*
X014134Y020333D01*
X014134Y020216D02*
X012788Y020216D01*
X012788Y020099D02*
X014134Y020099D01*
X014134Y019983D02*
X012788Y019983D01*
X012788Y019866D02*
X014134Y019866D01*
X014134Y019750D02*
X012788Y019750D01*
X012788Y019633D02*
X014134Y019633D01*
X014134Y019516D02*
X012788Y019516D01*
X012788Y019400D02*
X014134Y019400D01*
X014134Y019283D02*
X012788Y019283D01*
X012788Y019167D02*
X014134Y019167D01*
X014134Y019050D02*
X012788Y019050D01*
X012788Y018933D02*
X014134Y018933D01*
X014134Y018817D02*
X012788Y018817D01*
X012788Y018700D02*
X014134Y018700D01*
X014134Y018584D02*
X012788Y018584D01*
X012788Y018467D02*
X014134Y018467D01*
X014134Y018350D02*
X013761Y018350D01*
X013783Y018234D02*
X014134Y018234D01*
X013328Y018234D02*
X013289Y018234D01*
X013289Y018350D02*
X013328Y018350D01*
X012857Y018350D02*
X012788Y018350D01*
X012788Y018234D02*
X012835Y018234D01*
X011841Y018199D02*
X011814Y018199D01*
X011814Y015943D01*
X011698Y015827D01*
X011026Y015156D01*
X011044Y015161D01*
X011222Y015161D01*
X011222Y014824D01*
X011222Y014746D01*
X010906Y014746D01*
X010906Y014548D01*
X010916Y014507D01*
X010937Y014471D01*
X010967Y014441D01*
X010991Y014427D01*
X010946Y014382D01*
X010946Y014077D01*
X010176Y014077D01*
X010180Y014095D01*
X010180Y014214D01*
X009726Y014214D01*
X009726Y014214D01*
X009272Y014214D01*
X009272Y014095D01*
X009282Y014054D01*
X009303Y014018D01*
X009312Y014010D01*
X009312Y013751D01*
X009321Y013742D01*
X009312Y013732D01*
X009312Y013437D01*
X009321Y013427D01*
X009312Y013417D01*
X009312Y013122D01*
X009321Y013112D01*
X009312Y013102D01*
X009312Y012807D01*
X009321Y012797D01*
X009312Y012787D01*
X009312Y012492D01*
X009321Y012482D01*
X009312Y012472D01*
X009312Y012177D01*
X009321Y012167D01*
X009312Y012157D01*
X009312Y011899D01*
X009303Y011891D01*
X009282Y011854D01*
X009272Y011814D01*
X009272Y011759D01*
X009058Y011973D01*
X009058Y014054D01*
X009272Y014268D01*
X009272Y014214D01*
X009726Y014214D01*
X009726Y014214D01*
X010180Y014214D01*
X010180Y014331D01*
X010202Y014331D01*
X010910Y015040D01*
X010906Y015023D01*
X010906Y014824D01*
X011222Y014824D01*
X011301Y014824D01*
X011617Y014824D01*
X011617Y015023D01*
X011606Y015063D01*
X011586Y015099D01*
X011556Y015129D01*
X011520Y015150D01*
X011479Y015161D01*
X011301Y015161D01*
X011301Y014824D01*
X011301Y014746D01*
X011617Y014746D01*
X011617Y014548D01*
X011606Y014507D01*
X011586Y014471D01*
X011556Y014441D01*
X011532Y014427D01*
X011577Y014382D01*
X011577Y013916D01*
X011841Y014180D01*
X011841Y018199D01*
X011841Y018117D02*
X011814Y018117D01*
X011814Y018000D02*
X011841Y018000D01*
X011841Y017884D02*
X011814Y017884D01*
X011814Y017767D02*
X011841Y017767D01*
X011841Y017651D02*
X011814Y017651D01*
X011814Y017534D02*
X011841Y017534D01*
X011841Y017417D02*
X011814Y017417D01*
X011814Y017301D02*
X011841Y017301D01*
X011841Y017184D02*
X011814Y017184D01*
X011814Y017068D02*
X011841Y017068D01*
X011841Y016951D02*
X011814Y016951D01*
X011814Y016834D02*
X011841Y016834D01*
X011841Y016718D02*
X011814Y016718D01*
X011814Y016601D02*
X011841Y016601D01*
X011841Y016485D02*
X011814Y016485D01*
X011814Y016368D02*
X011841Y016368D01*
X011841Y016251D02*
X011814Y016251D01*
X011814Y016135D02*
X011841Y016135D01*
X011841Y016018D02*
X011814Y016018D01*
X011841Y015901D02*
X011772Y015901D01*
X011841Y015785D02*
X011655Y015785D01*
X011539Y015668D02*
X011841Y015668D01*
X011841Y015552D02*
X011422Y015552D01*
X011305Y015435D02*
X011841Y015435D01*
X011841Y015318D02*
X011189Y015318D01*
X011072Y015202D02*
X011841Y015202D01*
X011841Y015085D02*
X011594Y015085D01*
X011617Y014969D02*
X011841Y014969D01*
X011841Y014852D02*
X011617Y014852D01*
X011617Y014735D02*
X011841Y014735D01*
X011841Y014619D02*
X011617Y014619D01*
X011604Y014502D02*
X011841Y014502D01*
X011841Y014386D02*
X011573Y014386D01*
X011577Y014269D02*
X011841Y014269D01*
X011814Y014152D02*
X011577Y014152D01*
X011577Y014036D02*
X011697Y014036D01*
X011581Y013919D02*
X011577Y013919D01*
X011498Y013584D02*
X009726Y013584D01*
X009726Y013269D02*
X011458Y013269D01*
X012265Y014076D01*
X012265Y021813D01*
X012216Y021862D01*
X012216Y021813D01*
X011760Y022198D02*
X007443Y022198D01*
X007443Y022082D02*
X011643Y022082D01*
X011526Y021965D02*
X010998Y021965D01*
X010996Y021972D02*
X010975Y022009D01*
X010946Y022038D01*
X010909Y022059D01*
X010869Y022070D01*
X010671Y022070D01*
X010671Y021754D01*
X010592Y021754D01*
X010592Y022070D01*
X010394Y022070D01*
X010354Y022059D01*
X010317Y022038D01*
X010288Y022009D01*
X010274Y021984D01*
X010228Y022030D01*
X009696Y022030D01*
X009627Y021960D01*
X009627Y021468D01*
X009696Y021398D01*
X009749Y021398D01*
X009749Y020986D01*
X009737Y020989D01*
X009709Y020989D01*
X009682Y020989D01*
X009657Y020983D01*
X009657Y021289D01*
X009564Y021381D01*
X009392Y021553D01*
X009392Y021911D01*
X009323Y021981D01*
X008791Y021981D01*
X008745Y021935D01*
X008731Y021959D01*
X008702Y021989D01*
X008665Y022010D01*
X008625Y022021D01*
X008427Y022021D01*
X008427Y021704D01*
X008348Y021704D01*
X008348Y021626D01*
X008012Y021626D01*
X008012Y021447D01*
X008023Y021407D01*
X008044Y021370D01*
X008073Y021341D01*
X008109Y021320D01*
X008150Y021309D01*
X008348Y021309D01*
X008348Y021626D01*
X008427Y021626D01*
X008427Y021309D01*
X008625Y021309D01*
X008665Y021320D01*
X008702Y021341D01*
X008731Y021370D01*
X008745Y021395D01*
X008791Y021349D01*
X009149Y021349D01*
X009340Y021157D01*
X009340Y020949D01*
X009231Y020949D01*
X009201Y020919D01*
X009171Y020949D01*
X009031Y020949D01*
X008932Y020850D01*
X008932Y020474D01*
X008869Y020474D01*
X008860Y020484D01*
X008004Y020484D01*
X008004Y020543D01*
X007935Y020613D01*
X007442Y020613D01*
X007373Y020543D01*
X007373Y020455D01*
X007290Y020455D01*
X006975Y020140D01*
X006871Y020036D01*
X006871Y017408D01*
X007068Y017211D01*
X007172Y017107D01*
X007834Y017107D01*
X007817Y017097D01*
X007788Y017068D01*
X007774Y017043D01*
X007728Y017089D01*
X007196Y017089D01*
X007127Y017019D01*
X007127Y016700D01*
X006853Y016973D01*
X006853Y020235D01*
X007328Y020709D01*
X007443Y020825D01*
X007443Y022446D01*
X007328Y022562D01*
X006934Y022955D01*
X003699Y022955D01*
X003583Y022839D01*
X003162Y022418D01*
X003162Y022438D01*
X003151Y022507D01*
X003130Y022574D01*
X003098Y022636D01*
X003057Y022692D01*
X003007Y022742D01*
X002951Y022783D01*
X002889Y022815D01*
X002876Y022819D01*
X002947Y022848D01*
X003061Y022962D01*
X003122Y023110D01*
X003122Y023271D01*
X003061Y023419D01*
X002947Y023533D01*
X002798Y023595D01*
X002649Y023595D01*
X001774Y024470D01*
X001774Y025061D01*
X002032Y025319D01*
X002032Y024543D01*
X002102Y024473D01*
X002941Y024473D01*
X003010Y024543D01*
X003010Y025170D01*
X003016Y025176D01*
X003016Y024543D01*
X003086Y024473D01*
X003925Y024473D01*
X003976Y024524D01*
X003992Y024495D01*
X004022Y024465D01*
X004058Y024444D01*
X004099Y024433D01*
X004450Y024433D01*
X004450Y024923D01*
X004529Y024923D01*
X004529Y025002D01*
X005019Y025002D01*
X005019Y025304D01*
X005687Y025304D01*
X008135Y022857D01*
X008135Y022574D01*
X008204Y022505D01*
X009043Y022505D01*
X009113Y022574D01*
X009113Y023201D01*
X009119Y023207D01*
X009119Y022574D01*
X009189Y022505D01*
X010027Y022505D01*
X010078Y022555D01*
X010095Y022526D01*
X010124Y022496D01*
X010161Y022475D01*
X010201Y022465D01*
X010553Y022465D01*
X010553Y022954D01*
X010631Y022954D01*
X010631Y022465D01*
X010983Y022465D01*
X011024Y022475D01*
X011060Y022496D01*
X011089Y022526D01*
X011110Y022562D01*
X011121Y022603D01*
X011121Y022954D01*
X010632Y022954D01*
X010632Y023033D01*
X011121Y023033D01*
X011121Y023385D01*
X011110Y023425D01*
X011089Y023461D01*
X011060Y023491D01*
X011024Y023512D01*
X010983Y023523D01*
X010631Y023523D01*
X010631Y023033D01*
X010553Y023033D01*
X010553Y023523D01*
X010201Y023523D01*
X010161Y023512D01*
X010124Y023491D01*
X010095Y023461D01*
X010078Y023432D01*
X010027Y023483D01*
X009394Y023483D01*
X010675Y024763D01*
X014040Y024763D01*
X014040Y024755D01*
X013297Y024011D01*
X013297Y023470D01*
X012826Y022999D01*
X012561Y022999D01*
X012456Y022895D01*
X010814Y021253D01*
X010709Y021148D01*
X010709Y020407D01*
X010641Y020474D01*
X010276Y020474D01*
X010276Y020850D01*
X010177Y020949D01*
X010066Y020949D01*
X010066Y021398D01*
X010228Y021398D01*
X010274Y021444D01*
X010288Y021420D01*
X010317Y021390D01*
X010354Y021369D01*
X010394Y021358D01*
X010592Y021358D01*
X010592Y021675D01*
X010671Y021675D01*
X010671Y021754D01*
X011007Y021754D01*
X011007Y021932D01*
X010996Y021972D01*
X011007Y021849D02*
X011410Y021849D01*
X011293Y021732D02*
X010671Y021732D01*
X010671Y021675D02*
X011007Y021675D01*
X011007Y021496D01*
X010996Y021456D01*
X010975Y021420D01*
X010946Y021390D01*
X010909Y021369D01*
X010869Y021358D01*
X010671Y021358D01*
X010671Y021675D01*
X010671Y021615D02*
X010592Y021615D01*
X010592Y021499D02*
X010671Y021499D01*
X010671Y021382D02*
X010592Y021382D01*
X010710Y021149D02*
X010066Y021149D01*
X010066Y021266D02*
X010827Y021266D01*
X010932Y021382D02*
X010943Y021382D01*
X011007Y021499D02*
X011060Y021499D01*
X011007Y021615D02*
X011176Y021615D01*
X011424Y021359D02*
X011442Y021313D01*
X011520Y021236D01*
X011620Y021194D01*
X011697Y021194D01*
X011841Y021050D01*
X011841Y018831D01*
X011794Y018831D01*
X011794Y019042D01*
X011066Y019770D01*
X011066Y021001D01*
X011424Y021359D01*
X011490Y021266D02*
X011330Y021266D01*
X011214Y021149D02*
X011742Y021149D01*
X011841Y021032D02*
X011097Y021032D01*
X011066Y020916D02*
X011841Y020916D01*
X011841Y020799D02*
X011066Y020799D01*
X011066Y020683D02*
X011841Y020683D01*
X011841Y020566D02*
X011066Y020566D01*
X011066Y020449D02*
X011841Y020449D01*
X011841Y020333D02*
X011066Y020333D01*
X011066Y020216D02*
X011841Y020216D01*
X011841Y020099D02*
X011066Y020099D01*
X011066Y019983D02*
X011841Y019983D01*
X011841Y019866D02*
X011066Y019866D01*
X011086Y019750D02*
X011841Y019750D01*
X011841Y019633D02*
X011203Y019633D01*
X011319Y019516D02*
X011841Y019516D01*
X011841Y019400D02*
X011436Y019400D01*
X011553Y019283D02*
X011841Y019283D01*
X011841Y019167D02*
X011669Y019167D01*
X011786Y019050D02*
X011841Y019050D01*
X011841Y018933D02*
X011794Y018933D01*
X011616Y018968D02*
X011616Y018515D01*
X011616Y018968D02*
X010887Y019696D01*
X010887Y021074D01*
X012634Y022821D01*
X012930Y022821D01*
X012841Y023015D02*
X010632Y023015D01*
X010631Y023131D02*
X010553Y023131D01*
X010553Y023248D02*
X010631Y023248D01*
X010631Y023365D02*
X010553Y023365D01*
X010553Y023481D02*
X010631Y023481D01*
X011070Y023481D02*
X013297Y023481D01*
X013297Y023598D02*
X009509Y023598D01*
X009626Y023714D02*
X013297Y023714D01*
X013297Y023831D02*
X009742Y023831D01*
X009859Y023948D02*
X013297Y023948D01*
X013350Y024064D02*
X009976Y024064D01*
X010092Y024181D02*
X013466Y024181D01*
X013583Y024297D02*
X010209Y024297D01*
X010325Y024414D02*
X013699Y024414D01*
X013816Y024531D02*
X010442Y024531D01*
X010559Y024647D02*
X013933Y024647D01*
X014040Y025230D02*
X011824Y025230D01*
X011941Y025347D02*
X014040Y025347D01*
X015018Y025347D02*
X015024Y025347D01*
X015018Y025230D02*
X015024Y025230D01*
X015018Y025114D02*
X015024Y025114D01*
X015018Y024997D02*
X015024Y024997D01*
X015018Y024880D02*
X015024Y024880D01*
X015018Y024764D02*
X015024Y024764D01*
X014987Y023714D02*
X014975Y023714D01*
X015301Y023714D02*
X015380Y023714D01*
X015380Y023598D02*
X015301Y023598D01*
X015301Y023481D02*
X015380Y023481D01*
X015380Y023397D02*
X015716Y023397D01*
X015716Y023219D01*
X015705Y023178D01*
X015684Y023142D01*
X015654Y023112D01*
X015618Y023092D01*
X015578Y023081D01*
X015380Y023081D01*
X015380Y023397D01*
X015380Y023365D02*
X015301Y023365D01*
X015301Y023248D02*
X015380Y023248D01*
X015380Y023131D02*
X015301Y023131D01*
X015511Y023015D02*
X015953Y023015D01*
X015886Y022898D02*
X015573Y022898D01*
X015573Y022781D02*
X015886Y022781D01*
X015834Y022665D02*
X015573Y022665D01*
X015573Y022548D02*
X015729Y022548D01*
X015907Y022486D02*
X016163Y022742D01*
X016440Y022781D02*
X016477Y022781D01*
X016477Y022665D02*
X016440Y022665D01*
X016440Y022548D02*
X016477Y022548D01*
X016754Y022742D02*
X016754Y022830D01*
X016065Y023441D01*
X015792Y023131D02*
X015673Y023131D01*
X015716Y023248D02*
X015729Y023248D01*
X015716Y023365D02*
X015729Y023365D01*
X015716Y023481D02*
X015729Y023481D01*
X015716Y023598D02*
X015729Y023598D01*
X015757Y023714D02*
X015694Y023714D01*
X016372Y023714D02*
X016378Y023714D01*
X017030Y022898D02*
X018288Y022898D01*
X018288Y022781D02*
X017030Y022781D01*
X017030Y022665D02*
X018288Y022665D01*
X018288Y022548D02*
X017030Y022548D01*
X016105Y022432D02*
X018288Y022432D01*
X018288Y022315D02*
X016085Y022315D01*
X016085Y022198D02*
X018288Y022198D01*
X018288Y022082D02*
X016085Y022082D01*
X016085Y021965D02*
X018288Y021965D01*
X018288Y021849D02*
X016085Y021849D01*
X016085Y021732D02*
X018288Y021732D01*
X018288Y021615D02*
X016085Y021615D01*
X016085Y021499D02*
X018288Y021499D01*
X018288Y021382D02*
X016085Y021382D01*
X016085Y021266D02*
X018288Y021266D01*
X018288Y021149D02*
X016085Y021149D01*
X016085Y021032D02*
X018288Y021032D01*
X018288Y020916D02*
X016085Y020916D01*
X016085Y020799D02*
X018288Y020799D01*
X018288Y020683D02*
X016085Y020683D01*
X016085Y020566D02*
X018288Y020566D01*
X018288Y020449D02*
X016085Y020449D01*
X016085Y020333D02*
X018288Y020333D01*
X018288Y020216D02*
X016085Y020216D01*
X016085Y020099D02*
X018288Y020099D01*
X018288Y019983D02*
X016085Y019983D01*
X016085Y019866D02*
X018288Y019866D01*
X018288Y019750D02*
X016085Y019750D01*
X016085Y019633D02*
X016258Y019633D01*
X016252Y019627D02*
X016231Y019591D01*
X016220Y019550D01*
X016220Y019234D01*
X016517Y019234D01*
X016517Y019194D01*
X016557Y019194D01*
X016557Y018740D01*
X016715Y018740D01*
X016756Y018751D01*
X016792Y018772D01*
X016822Y018802D01*
X016843Y018838D01*
X016854Y018878D01*
X016854Y019194D01*
X016557Y019194D01*
X016557Y019234D01*
X016854Y019234D01*
X016854Y019550D01*
X016843Y019591D01*
X016822Y019627D01*
X016792Y019656D01*
X016756Y019677D01*
X016715Y019688D01*
X016557Y019688D01*
X016557Y019234D01*
X016517Y019234D01*
X016517Y019688D01*
X016359Y019688D01*
X016318Y019677D01*
X016282Y019656D01*
X016252Y019627D01*
X016220Y019516D02*
X016085Y019516D01*
X016085Y019400D02*
X016220Y019400D01*
X016220Y019283D02*
X016085Y019283D01*
X016085Y019167D02*
X016220Y019167D01*
X016220Y019194D02*
X016220Y018878D01*
X016231Y018838D01*
X016252Y018802D01*
X016282Y018772D01*
X016318Y018751D01*
X016359Y018740D01*
X016517Y018740D01*
X016517Y019194D01*
X016220Y019194D01*
X016220Y019050D02*
X016085Y019050D01*
X016085Y018933D02*
X016220Y018933D01*
X016243Y018817D02*
X016104Y018817D01*
X016220Y018700D02*
X017956Y018700D01*
X017817Y018817D02*
X017777Y018817D01*
X017777Y018740D02*
X017777Y019194D01*
X017480Y019194D01*
X017480Y018878D01*
X017491Y018838D01*
X017512Y018802D01*
X017542Y018772D01*
X017578Y018751D01*
X017618Y018740D01*
X017777Y018740D01*
X017777Y018933D02*
X017817Y018933D01*
X017817Y019050D02*
X017777Y019050D01*
X017777Y019167D02*
X017817Y019167D01*
X017777Y019234D02*
X017480Y019234D01*
X017480Y019550D01*
X017491Y019591D01*
X017512Y019627D01*
X017542Y019656D01*
X017578Y019677D01*
X017618Y019688D01*
X017777Y019688D01*
X017777Y019234D01*
X017777Y019283D02*
X017817Y019283D01*
X017817Y019400D02*
X017777Y019400D01*
X017777Y019516D02*
X017817Y019516D01*
X017817Y019633D02*
X017777Y019633D01*
X017518Y019633D02*
X017389Y019633D01*
X017374Y019648D02*
X017443Y019578D01*
X017443Y018850D01*
X017374Y018780D01*
X016960Y018780D01*
X016890Y018850D01*
X016890Y019578D01*
X016960Y019648D01*
X017374Y019648D01*
X017443Y019516D02*
X017480Y019516D01*
X017480Y019400D02*
X017443Y019400D01*
X017443Y019283D02*
X017480Y019283D01*
X017480Y019167D02*
X017443Y019167D01*
X017443Y019050D02*
X017480Y019050D01*
X017480Y018933D02*
X017443Y018933D01*
X017410Y018817D02*
X017503Y018817D01*
X017544Y018584D02*
X016337Y018584D01*
X016453Y018467D02*
X017428Y018467D01*
X017311Y018350D02*
X016570Y018350D01*
X016687Y018234D02*
X017255Y018234D01*
X017255Y018117D02*
X016803Y018117D01*
X016920Y018000D02*
X017255Y018000D01*
X017255Y017884D02*
X017037Y017884D01*
X017153Y017767D02*
X017255Y017767D01*
X017270Y017651D02*
X017307Y017651D01*
X017386Y017534D02*
X017424Y017534D01*
X017503Y017417D02*
X017541Y017417D01*
X017620Y017301D02*
X017657Y017301D01*
X017736Y017184D02*
X017774Y017184D01*
X017853Y017068D02*
X017890Y017068D01*
X017969Y016951D02*
X018081Y016951D01*
X018043Y017167D02*
X017433Y017777D01*
X017433Y018220D01*
X017728Y018515D01*
X018023Y018515D01*
X018466Y018958D01*
X018466Y024401D01*
X018279Y024588D01*
X018279Y025631D01*
X018269Y025563D01*
X018585Y025580D02*
X018898Y025580D01*
X018898Y025464D02*
X018585Y025464D01*
X018585Y025347D02*
X018898Y025347D01*
X018898Y025230D02*
X018519Y025230D01*
X018457Y025114D02*
X018898Y025114D01*
X018898Y024997D02*
X018562Y024997D01*
X018678Y024880D02*
X018898Y024880D01*
X018898Y024764D02*
X018736Y024764D01*
X018768Y024647D02*
X018898Y024647D01*
X018898Y024531D02*
X018768Y024531D01*
X018736Y024414D02*
X018898Y024414D01*
X018898Y024297D02*
X018680Y024297D01*
X018644Y024181D02*
X018898Y024181D01*
X018898Y024064D02*
X018644Y024064D01*
X018644Y023948D02*
X018898Y023948D01*
X018898Y023831D02*
X018644Y023831D01*
X018644Y023714D02*
X018898Y023714D01*
X018898Y023598D02*
X018644Y023598D01*
X018644Y023481D02*
X018898Y023481D01*
X018898Y023365D02*
X018644Y023365D01*
X018644Y023248D02*
X018898Y023248D01*
X018898Y023131D02*
X018644Y023131D01*
X018644Y023015D02*
X018898Y023015D01*
X018898Y022898D02*
X018644Y022898D01*
X018644Y022781D02*
X018898Y022781D01*
X018898Y022665D02*
X018644Y022665D01*
X018644Y022548D02*
X018898Y022548D01*
X018898Y022432D02*
X018644Y022432D01*
X018644Y022315D02*
X018898Y022315D01*
X018898Y022198D02*
X018644Y022198D01*
X018644Y022082D02*
X018898Y022082D01*
X018898Y021965D02*
X018644Y021965D01*
X018644Y021849D02*
X018898Y021849D01*
X018898Y021732D02*
X018644Y021732D01*
X018644Y021615D02*
X018898Y021615D01*
X018898Y021499D02*
X018644Y021499D01*
X018644Y021382D02*
X018898Y021382D01*
X018898Y021266D02*
X018644Y021266D01*
X018644Y021149D02*
X018898Y021149D01*
X018898Y021032D02*
X018644Y021032D01*
X018644Y020916D02*
X018898Y020916D01*
X018898Y020799D02*
X018644Y020799D01*
X018644Y020683D02*
X018898Y020683D01*
X018898Y020566D02*
X018644Y020566D01*
X018644Y020449D02*
X018898Y020449D01*
X018898Y020333D02*
X018644Y020333D01*
X018644Y020216D02*
X018898Y020216D01*
X018898Y020099D02*
X018644Y020099D01*
X018644Y019983D02*
X018898Y019983D01*
X018898Y019866D02*
X018644Y019866D01*
X018644Y019750D02*
X018898Y019750D01*
X018898Y019633D02*
X018644Y019633D01*
X018644Y019516D02*
X018898Y019516D01*
X018898Y019400D02*
X018644Y019400D01*
X018644Y019283D02*
X018898Y019283D01*
X018898Y019167D02*
X018644Y019167D01*
X018644Y019050D02*
X018898Y019050D01*
X018898Y018933D02*
X018644Y018933D01*
X018576Y018817D02*
X018898Y018817D01*
X018898Y018700D02*
X018460Y018700D01*
X018343Y018584D02*
X018898Y018584D01*
X018898Y018467D02*
X018227Y018467D01*
X018090Y018337D02*
X018071Y018319D01*
X018071Y017905D01*
X018101Y017876D01*
X018071Y017846D01*
X018071Y017433D01*
X018101Y017403D01*
X018080Y017382D01*
X017611Y017851D01*
X017611Y018146D01*
X017802Y018337D01*
X018090Y018337D01*
X018071Y018234D02*
X017698Y018234D01*
X017611Y018117D02*
X018071Y018117D01*
X018071Y018000D02*
X017611Y018000D01*
X017611Y017884D02*
X018093Y017884D01*
X018071Y017767D02*
X017694Y017767D01*
X017811Y017651D02*
X018071Y017651D01*
X018071Y017534D02*
X017928Y017534D01*
X018044Y017417D02*
X018087Y017417D01*
X018043Y017167D02*
X018506Y017167D01*
X018506Y016694D02*
X017974Y016694D01*
X015907Y018761D01*
X015907Y022486D01*
X014492Y023015D02*
X013867Y023015D01*
X013750Y022898D02*
X014430Y022898D01*
X013191Y023365D02*
X011121Y023365D01*
X011121Y023248D02*
X013075Y023248D01*
X012958Y023131D02*
X011121Y023131D01*
X011121Y022898D02*
X012459Y022898D01*
X012343Y022781D02*
X011121Y022781D01*
X011121Y022665D02*
X012226Y022665D01*
X012109Y022548D02*
X011102Y022548D01*
X010631Y022548D02*
X010553Y022548D01*
X010553Y022665D02*
X010631Y022665D01*
X010631Y022781D02*
X010553Y022781D01*
X010553Y022898D02*
X010631Y022898D01*
X010082Y022548D02*
X010071Y022548D01*
X009631Y021965D02*
X009338Y021965D01*
X009392Y021849D02*
X009627Y021849D01*
X009627Y021732D02*
X009392Y021732D01*
X009392Y021615D02*
X009627Y021615D01*
X009627Y021499D02*
X009447Y021499D01*
X009564Y021382D02*
X009749Y021382D01*
X009749Y021266D02*
X009657Y021266D01*
X009657Y021149D02*
X009749Y021149D01*
X009749Y021032D02*
X009657Y021032D01*
X009709Y020989D02*
X009709Y020630D01*
X009709Y020630D01*
X009709Y020989D01*
X009709Y020916D02*
X009709Y020916D01*
X009709Y020799D02*
X009709Y020799D01*
X009709Y020683D02*
X009709Y020683D01*
X010066Y021032D02*
X010709Y021032D01*
X010709Y020916D02*
X010210Y020916D01*
X010276Y020799D02*
X010709Y020799D01*
X010709Y020683D02*
X010276Y020683D01*
X010276Y020566D02*
X010709Y020566D01*
X010709Y020449D02*
X010667Y020449D01*
X010331Y021382D02*
X010066Y021382D01*
X010592Y021849D02*
X010671Y021849D01*
X010671Y021965D02*
X010592Y021965D01*
X011675Y021468D02*
X012019Y021124D01*
X012019Y014106D01*
X011498Y013584D01*
X011045Y013899D02*
X011261Y014116D01*
X011045Y013899D02*
X009726Y013899D01*
X009312Y013919D02*
X009058Y013919D01*
X009058Y013802D02*
X009312Y013802D01*
X009312Y013686D02*
X009058Y013686D01*
X009058Y013569D02*
X009312Y013569D01*
X009312Y013453D02*
X009058Y013453D01*
X009058Y013336D02*
X009312Y013336D01*
X009312Y013219D02*
X009058Y013219D01*
X009058Y013103D02*
X009312Y013103D01*
X009312Y012986D02*
X009058Y012986D01*
X009058Y012870D02*
X009312Y012870D01*
X009312Y012753D02*
X009058Y012753D01*
X009058Y012636D02*
X009312Y012636D01*
X009312Y012520D02*
X009058Y012520D01*
X009058Y012403D02*
X009312Y012403D01*
X009312Y012287D02*
X009058Y012287D01*
X009058Y012170D02*
X009318Y012170D01*
X009312Y012053D02*
X009058Y012053D01*
X009094Y011937D02*
X009312Y011937D01*
X009273Y011820D02*
X009211Y011820D01*
X009687Y010887D02*
X009765Y010887D01*
X009765Y010771D02*
X009687Y010771D01*
X009687Y010654D02*
X009765Y010654D01*
X010082Y010421D02*
X010158Y010421D01*
X010158Y010304D02*
X010079Y010304D01*
X010144Y010188D02*
X010004Y010188D01*
X010354Y009838D02*
X010414Y009838D01*
X010414Y009898D02*
X010414Y008816D01*
X009796Y008197D01*
X009796Y009548D01*
X009972Y009548D01*
X010042Y009618D01*
X010042Y009686D01*
X010202Y009686D01*
X010317Y009802D01*
X010414Y009898D01*
X010414Y009721D02*
X010237Y009721D01*
X010414Y009605D02*
X010029Y009605D01*
X009796Y009488D02*
X010414Y009488D01*
X010414Y009371D02*
X009796Y009371D01*
X009796Y009255D02*
X010414Y009255D01*
X010414Y009138D02*
X009796Y009138D01*
X009796Y009021D02*
X010414Y009021D01*
X010414Y008905D02*
X009796Y008905D01*
X009796Y008788D02*
X010387Y008788D01*
X010270Y008672D02*
X009796Y008672D01*
X009796Y008555D02*
X010154Y008555D01*
X010037Y008438D02*
X009796Y008438D01*
X009796Y008322D02*
X009920Y008322D01*
X009804Y008205D02*
X009796Y008205D01*
X009874Y008023D02*
X010592Y008742D01*
X010592Y011773D01*
X010356Y012009D01*
X010846Y012520D02*
X014019Y012520D01*
X014044Y012636D02*
X013727Y012636D01*
X013783Y012753D02*
X014107Y012753D01*
X014293Y012521D02*
X018112Y012521D01*
X018506Y012915D01*
X018427Y012836D01*
X018479Y012636D02*
X018898Y012636D01*
X018898Y012520D02*
X018362Y012520D01*
X018246Y012403D02*
X018898Y012403D01*
X018898Y012287D02*
X017306Y012287D01*
X017147Y012287D01*
X017147Y011832D01*
X017108Y011832D01*
X017108Y012287D01*
X016949Y012287D01*
X016909Y012276D01*
X016872Y012255D01*
X016863Y012245D01*
X016862Y012247D01*
X016448Y012247D01*
X016419Y012217D01*
X016389Y012247D01*
X015976Y012247D01*
X015907Y012178D01*
X015838Y012247D01*
X015425Y012247D01*
X015395Y012217D01*
X015366Y012247D01*
X014952Y012247D01*
X014951Y012245D01*
X014942Y012255D01*
X014905Y012276D01*
X014865Y012287D01*
X014706Y012287D01*
X014706Y011832D01*
X014667Y011832D01*
X014667Y012287D01*
X014508Y012287D01*
X014468Y012276D01*
X014431Y012255D01*
X014423Y012247D01*
X014077Y012247D01*
X014008Y012177D01*
X014008Y011448D01*
X014077Y011379D01*
X014423Y011379D01*
X014431Y011370D01*
X014468Y011349D01*
X014508Y011339D01*
X014667Y011339D01*
X014667Y011793D01*
X014706Y011793D01*
X014706Y011339D01*
X014865Y011339D01*
X014905Y011349D01*
X014942Y011370D01*
X014951Y011380D01*
X014952Y011379D01*
X015366Y011379D01*
X015395Y011408D01*
X015425Y011379D01*
X015838Y011379D01*
X015907Y011447D01*
X015976Y011379D01*
X016389Y011379D01*
X016419Y011408D01*
X016448Y011379D01*
X016862Y011379D01*
X016863Y011380D01*
X016872Y011370D01*
X016909Y011349D01*
X016949Y011339D01*
X017108Y011339D01*
X017108Y011793D01*
X017147Y011793D01*
X017147Y011339D01*
X017306Y011339D01*
X017346Y011349D01*
X017383Y011370D01*
X017391Y011379D01*
X017737Y011379D01*
X017807Y011448D01*
X017807Y012177D01*
X017737Y012247D01*
X017391Y012247D01*
X017383Y012255D01*
X017346Y012276D01*
X017306Y012287D01*
X017147Y012287D02*
X017108Y012287D01*
X017108Y012170D02*
X017147Y012170D01*
X017147Y012053D02*
X017108Y012053D01*
X017108Y011937D02*
X017147Y011937D01*
X017147Y011703D02*
X017108Y011703D01*
X017108Y011587D02*
X017147Y011587D01*
X017147Y011470D02*
X017108Y011470D01*
X017108Y011354D02*
X017147Y011354D01*
X017354Y011354D02*
X018898Y011354D01*
X018898Y011470D02*
X017807Y011470D01*
X017807Y011587D02*
X018898Y011587D01*
X018898Y011703D02*
X017807Y011703D01*
X017807Y011820D02*
X018898Y011820D01*
X018898Y011937D02*
X017807Y011937D01*
X017807Y012053D02*
X018898Y012053D01*
X018898Y012170D02*
X017807Y012170D01*
X016949Y012287D02*
X014865Y012287D01*
X014706Y012287D02*
X014667Y012287D01*
X014667Y012170D02*
X014706Y012170D01*
X014706Y012053D02*
X014667Y012053D01*
X014667Y011937D02*
X014706Y011937D01*
X014706Y011703D02*
X014667Y011703D01*
X014667Y011587D02*
X014706Y011587D01*
X014706Y011470D02*
X014667Y011470D01*
X014667Y011354D02*
X014706Y011354D01*
X014913Y011354D02*
X016901Y011354D01*
X018898Y011237D02*
X011203Y011237D01*
X011203Y011120D02*
X018898Y011120D01*
X018898Y011004D02*
X011203Y011004D01*
X011203Y010887D02*
X018898Y010887D01*
X018898Y010771D02*
X011203Y010771D01*
X011203Y010654D02*
X018898Y010654D01*
X018898Y010537D02*
X011203Y010537D01*
X011203Y010421D02*
X018898Y010421D01*
X018898Y010304D02*
X011203Y010304D01*
X011203Y010188D02*
X018898Y010188D01*
X018898Y010071D02*
X011203Y010071D01*
X011203Y009954D02*
X018898Y009954D01*
X018898Y009838D02*
X011203Y009838D01*
X011203Y009721D02*
X018898Y009721D01*
X018898Y009605D02*
X011203Y009605D01*
X011203Y009488D02*
X018898Y009488D01*
X018898Y009371D02*
X011203Y009371D01*
X011203Y009255D02*
X018898Y009255D01*
X018898Y009138D02*
X011203Y009138D01*
X011203Y009021D02*
X018898Y009021D01*
X018898Y008905D02*
X011643Y008905D01*
X011693Y008788D02*
X018898Y008788D01*
X018898Y008672D02*
X011686Y008672D01*
X011620Y008555D02*
X018898Y008555D01*
X018898Y008438D02*
X011597Y008438D01*
X011526Y008322D02*
X018898Y008322D01*
X018898Y008205D02*
X011410Y008205D01*
X011293Y008089D02*
X018898Y008089D01*
X018898Y007972D02*
X011177Y007972D01*
X010897Y007944D02*
X011419Y008466D01*
X011419Y008742D01*
X011570Y007855D02*
X018898Y007855D01*
X018898Y007739D02*
X011597Y007739D01*
X011597Y007622D02*
X018898Y007622D01*
X018898Y007506D02*
X011597Y007506D01*
X011597Y007389D02*
X018898Y007389D01*
X018898Y007272D02*
X011597Y007272D01*
X011573Y007156D02*
X018898Y007156D01*
X018898Y007039D02*
X011332Y007039D01*
X011332Y006922D02*
X018898Y006922D01*
X018898Y006806D02*
X011242Y006806D01*
X011126Y006689D02*
X018898Y006689D01*
X018898Y006573D02*
X011009Y006573D01*
X010892Y006456D02*
X018898Y006456D01*
X014460Y011354D02*
X011203Y011354D01*
X011203Y011470D02*
X014008Y011470D01*
X014008Y011587D02*
X011203Y011587D01*
X011203Y011703D02*
X014008Y011703D01*
X014008Y011820D02*
X011203Y011820D01*
X011203Y011937D02*
X014008Y011937D01*
X014008Y012053D02*
X011203Y012053D01*
X011195Y012170D02*
X014008Y012170D01*
X014143Y012287D02*
X011079Y012287D01*
X010962Y012403D02*
X014045Y012403D01*
X014442Y012287D02*
X014508Y012287D01*
X016786Y016018D02*
X018071Y016018D01*
X018071Y016135D02*
X016670Y016135D01*
X016553Y016251D02*
X018071Y016251D01*
X018071Y016368D02*
X016436Y016368D01*
X016320Y016485D02*
X018075Y016485D01*
X017815Y016601D02*
X016203Y016601D01*
X016087Y016718D02*
X017699Y016718D01*
X017582Y016834D02*
X015970Y016834D01*
X015853Y016951D02*
X017466Y016951D01*
X017349Y017068D02*
X015737Y017068D01*
X015620Y017184D02*
X017232Y017184D01*
X017116Y017301D02*
X015503Y017301D01*
X015387Y017417D02*
X016999Y017417D01*
X016883Y017534D02*
X015270Y017534D01*
X016517Y018817D02*
X016557Y018817D01*
X016557Y018933D02*
X016517Y018933D01*
X016517Y019050D02*
X016557Y019050D01*
X016557Y019167D02*
X016517Y019167D01*
X016517Y019283D02*
X016557Y019283D01*
X016557Y019400D02*
X016517Y019400D01*
X016517Y019516D02*
X016557Y019516D01*
X016557Y019633D02*
X016517Y019633D01*
X016816Y019633D02*
X016945Y019633D01*
X016890Y019516D02*
X016854Y019516D01*
X016854Y019400D02*
X016890Y019400D01*
X016890Y019283D02*
X016854Y019283D01*
X016854Y019167D02*
X016890Y019167D01*
X016890Y019050D02*
X016854Y019050D01*
X016854Y018933D02*
X016890Y018933D01*
X016924Y018817D02*
X016831Y018817D01*
X018113Y018933D02*
X018189Y018933D01*
X018113Y019050D02*
X018288Y019050D01*
X018288Y019167D02*
X018113Y019167D01*
X018113Y019283D02*
X018288Y019283D01*
X018288Y019400D02*
X018113Y019400D01*
X018113Y019516D02*
X018288Y019516D01*
X018288Y019633D02*
X018075Y019633D01*
X018101Y025114D02*
X017027Y025114D01*
X017027Y025230D02*
X018020Y025230D01*
X017953Y025347D02*
X017027Y025347D01*
X017953Y025697D02*
X012050Y025697D01*
X012050Y025813D02*
X017953Y025813D01*
X017938Y025930D02*
X012050Y025930D01*
X012047Y026047D02*
X017913Y026047D01*
X017913Y026163D02*
X011930Y026163D01*
X011813Y026280D02*
X017913Y026280D01*
X017913Y026271D02*
X018230Y026271D01*
X018230Y026607D01*
X018051Y026607D01*
X018011Y026597D01*
X017975Y026576D01*
X017945Y026546D01*
X017924Y026510D01*
X017913Y026469D01*
X017913Y026271D01*
X017913Y026396D02*
X011697Y026396D01*
X010983Y026396D02*
X010317Y026396D01*
X010317Y026280D02*
X010867Y026280D01*
X010750Y026163D02*
X010317Y026163D01*
X010317Y026047D02*
X010634Y026047D01*
X010631Y025930D02*
X010311Y025930D01*
X010199Y025813D02*
X010631Y025813D01*
X010631Y025697D02*
X010206Y025697D01*
X010294Y025580D02*
X010631Y025580D01*
X010631Y025464D02*
X010315Y025464D01*
X010285Y025347D02*
X010739Y025347D01*
X010856Y025230D02*
X010169Y025230D01*
X009913Y025230D02*
X009308Y025230D01*
X009331Y025114D02*
X010462Y025114D01*
X010346Y024997D02*
X009303Y024997D01*
X009195Y024880D02*
X010229Y024880D01*
X010112Y024764D02*
X006790Y024764D01*
X006674Y024880D02*
X008918Y024880D01*
X008811Y024997D02*
X006557Y024997D01*
X006441Y025114D02*
X007508Y025114D01*
X007582Y025040D02*
X008170Y025040D01*
X008585Y025456D01*
X008585Y026044D01*
X008170Y026459D01*
X007582Y026459D01*
X007166Y026044D01*
X007166Y025456D01*
X007582Y025040D01*
X007391Y025230D02*
X006324Y025230D01*
X006207Y025347D02*
X007275Y025347D01*
X007166Y025464D02*
X006091Y025464D01*
X005974Y025580D02*
X007166Y025580D01*
X007166Y025697D02*
X005858Y025697D01*
X005761Y025230D02*
X005019Y025230D01*
X005019Y025114D02*
X005878Y025114D01*
X005994Y024997D02*
X004529Y024997D01*
X004529Y024923D02*
X005019Y024923D01*
X005019Y024571D01*
X005008Y024531D01*
X004987Y024495D01*
X004957Y024465D01*
X004921Y024444D01*
X004881Y024433D01*
X004529Y024433D01*
X004529Y024923D01*
X004529Y024880D02*
X004450Y024880D01*
X004450Y024764D02*
X004529Y024764D01*
X004529Y024647D02*
X004450Y024647D01*
X004450Y024531D02*
X004529Y024531D01*
X004539Y023905D02*
X004539Y023612D01*
X004507Y023612D01*
X004507Y023580D01*
X004064Y023580D01*
X004064Y023425D01*
X004075Y023385D01*
X004096Y023348D01*
X004126Y023319D01*
X004162Y023298D01*
X004202Y023287D01*
X004507Y023287D01*
X004507Y023580D01*
X004539Y023580D01*
X004539Y023287D01*
X004844Y023287D01*
X004885Y023298D01*
X004921Y023319D01*
X004951Y023348D01*
X004971Y023385D01*
X004982Y023425D01*
X004982Y023580D01*
X004539Y023580D01*
X004539Y023612D01*
X004982Y023612D01*
X004982Y023767D01*
X004971Y023807D01*
X004951Y023844D01*
X004921Y023873D01*
X004885Y023894D01*
X004844Y023905D01*
X004539Y023905D01*
X004507Y023905D02*
X004202Y023905D01*
X004162Y023894D01*
X004126Y023873D01*
X004096Y023844D01*
X004075Y023807D01*
X004064Y023767D01*
X004064Y023612D01*
X004507Y023612D01*
X004507Y023905D01*
X004507Y023831D02*
X004539Y023831D01*
X004539Y023714D02*
X004507Y023714D01*
X004507Y023598D02*
X002646Y023598D01*
X002530Y023714D02*
X004064Y023714D01*
X004089Y023831D02*
X002413Y023831D01*
X002296Y023948D02*
X007044Y023948D01*
X006951Y023844D02*
X006921Y023873D01*
X006885Y023894D01*
X006844Y023905D01*
X006539Y023905D01*
X006539Y023612D01*
X006507Y023612D01*
X006507Y023580D01*
X006064Y023580D01*
X006064Y023425D01*
X006075Y023385D01*
X006096Y023348D01*
X006126Y023319D01*
X006162Y023298D01*
X006202Y023287D01*
X006507Y023287D01*
X006507Y023580D01*
X006539Y023580D01*
X006539Y023287D01*
X006844Y023287D01*
X006885Y023298D01*
X006921Y023319D01*
X006951Y023348D01*
X006971Y023385D01*
X006982Y023425D01*
X006982Y023580D01*
X006539Y023580D01*
X006539Y023612D01*
X006982Y023612D01*
X006982Y023767D01*
X006971Y023807D01*
X006951Y023844D01*
X006958Y023831D02*
X007160Y023831D01*
X007277Y023714D02*
X006982Y023714D01*
X006982Y023481D02*
X007510Y023481D01*
X007394Y023598D02*
X006539Y023598D01*
X006507Y023598D02*
X004539Y023598D01*
X004539Y023481D02*
X004507Y023481D01*
X004507Y023365D02*
X004539Y023365D01*
X004960Y023365D02*
X006087Y023365D01*
X006064Y023481D02*
X004982Y023481D01*
X004982Y023714D02*
X006064Y023714D01*
X006064Y023767D02*
X006064Y023612D01*
X006507Y023612D01*
X006507Y023905D01*
X006202Y023905D01*
X006162Y023894D01*
X006126Y023873D01*
X006096Y023844D01*
X006075Y023807D01*
X006064Y023767D01*
X006089Y023831D02*
X004958Y023831D01*
X005008Y024531D02*
X006461Y024531D01*
X006344Y024647D02*
X005019Y024647D01*
X005019Y024764D02*
X006227Y024764D01*
X006111Y024880D02*
X005019Y024880D01*
X004856Y025813D02*
X007166Y025813D01*
X007166Y025930D02*
X004519Y025930D01*
X004519Y025937D02*
X004856Y025937D01*
X004856Y026115D01*
X004845Y026155D01*
X004824Y026192D01*
X004794Y026221D01*
X004758Y026242D01*
X004717Y026253D01*
X004519Y026253D01*
X004519Y025937D01*
X004519Y026047D02*
X004441Y026047D01*
X004441Y026163D02*
X004519Y026163D01*
X004840Y026163D02*
X007286Y026163D01*
X007402Y026280D02*
X004106Y026280D01*
X004107Y026396D02*
X007519Y026396D01*
X007169Y026047D02*
X004856Y026047D01*
X004534Y026863D02*
X008741Y026863D01*
X008741Y026979D02*
X004600Y026979D01*
X004606Y027096D02*
X004856Y027096D01*
X004740Y027213D02*
X004556Y027213D01*
X004623Y027329D02*
X004332Y027329D01*
X004215Y027446D02*
X004528Y027446D01*
X004528Y027563D02*
X004107Y027563D01*
X004107Y027679D02*
X004528Y027679D01*
X004528Y027796D02*
X004107Y027796D01*
X004079Y027912D02*
X004528Y027912D01*
X004545Y028029D02*
X004079Y028029D01*
X004144Y028146D02*
X004662Y028146D01*
X004778Y028262D02*
X004260Y028262D01*
X004051Y028612D02*
X002931Y028612D01*
X002886Y028729D02*
X003229Y028729D01*
X003229Y028845D02*
X002886Y028845D01*
X002888Y028962D02*
X003163Y028962D01*
X003121Y029078D02*
X002926Y029078D01*
X002926Y029195D02*
X003121Y029195D01*
X003013Y029312D02*
X002610Y029312D01*
X002531Y029312D02*
X000318Y029312D01*
X000318Y029428D02*
X002215Y029428D01*
X002215Y029521D02*
X002215Y029322D01*
X002531Y029322D01*
X002531Y029659D01*
X002353Y029659D01*
X002312Y029648D01*
X002276Y029627D01*
X002246Y029597D01*
X002225Y029561D01*
X002215Y029521D01*
X002221Y029545D02*
X000318Y029545D01*
X000318Y029662D02*
X002983Y029662D01*
X002983Y029778D02*
X000318Y029778D01*
X000318Y029895D02*
X003043Y029895D01*
X002983Y029545D02*
X002920Y029545D01*
X002926Y029428D02*
X002983Y029428D01*
X002610Y029428D02*
X002531Y029428D01*
X002531Y029545D02*
X002610Y029545D01*
X002215Y029195D02*
X000318Y029195D01*
X000318Y029078D02*
X002215Y029078D01*
X002253Y028962D02*
X000318Y028962D01*
X000318Y028845D02*
X002255Y028845D01*
X002255Y028729D02*
X000318Y028729D01*
X000318Y028612D02*
X002255Y028612D01*
X002255Y028495D02*
X000318Y028495D01*
X000318Y028379D02*
X001430Y028379D01*
X001479Y028428D02*
X001064Y028012D01*
X001064Y027424D01*
X001479Y027009D01*
X002067Y027009D01*
X002483Y027424D01*
X002483Y028012D01*
X002067Y028428D01*
X001479Y028428D01*
X001314Y028262D02*
X000318Y028262D01*
X000318Y028146D02*
X001197Y028146D01*
X001081Y028029D02*
X000318Y028029D01*
X000318Y027912D02*
X001064Y027912D01*
X001064Y027796D02*
X000318Y027796D01*
X000318Y027679D02*
X001064Y027679D01*
X001064Y027563D02*
X000318Y027563D01*
X000318Y027446D02*
X001064Y027446D01*
X001159Y027329D02*
X000318Y027329D01*
X000318Y027213D02*
X001275Y027213D01*
X001392Y027096D02*
X000318Y027096D01*
X000318Y026979D02*
X002222Y026979D01*
X002155Y027096D02*
X003024Y027096D01*
X002982Y026979D02*
X002584Y026979D01*
X002663Y026863D02*
X002915Y026863D01*
X002904Y026746D02*
X002677Y026746D01*
X002640Y026630D02*
X002904Y026630D01*
X002904Y026513D02*
X002491Y026513D01*
X002306Y026396D02*
X002904Y026396D01*
X002905Y026280D02*
X002189Y026280D01*
X002073Y026163D02*
X003495Y026163D01*
X003506Y026630D02*
X003506Y026630D01*
X003506Y026746D02*
X003506Y026746D01*
X003506Y026863D02*
X003506Y026863D01*
X003414Y026979D02*
X004064Y026979D01*
X004096Y026863D02*
X004131Y026863D01*
X004107Y026746D02*
X008741Y026746D01*
X008741Y026630D02*
X004107Y026630D01*
X004107Y026513D02*
X008786Y026513D01*
X008741Y026396D02*
X008232Y026396D01*
X008349Y026280D02*
X008741Y026280D01*
X008741Y026163D02*
X008466Y026163D01*
X008582Y026047D02*
X008741Y026047D01*
X008747Y025930D02*
X008585Y025930D01*
X008585Y025813D02*
X008859Y025813D01*
X008859Y025697D02*
X008585Y025697D01*
X008585Y025580D02*
X008859Y025580D01*
X008859Y025464D02*
X008585Y025464D01*
X008476Y025347D02*
X008859Y025347D01*
X008806Y025230D02*
X008360Y025230D01*
X008243Y025114D02*
X008783Y025114D01*
X009254Y025347D02*
X009797Y025347D01*
X009767Y025464D02*
X009254Y025464D01*
X009254Y025580D02*
X009788Y025580D01*
X009804Y025697D02*
X009254Y025697D01*
X009254Y025813D02*
X009804Y025813D01*
X009692Y025930D02*
X009366Y025930D01*
X009373Y026047D02*
X009686Y026047D01*
X009686Y026163D02*
X009373Y026163D01*
X009373Y026280D02*
X009686Y026280D01*
X009686Y026396D02*
X009373Y026396D01*
X009328Y026513D02*
X009730Y026513D01*
X009686Y026630D02*
X009373Y026630D01*
X009373Y026746D02*
X009686Y026746D01*
X009686Y026863D02*
X009373Y026863D01*
X009416Y026979D02*
X009686Y026979D01*
X009686Y027096D02*
X009533Y027096D01*
X009650Y027213D02*
X009686Y027213D01*
X009608Y027423D02*
X009057Y026872D01*
X009141Y027213D02*
X009146Y027213D01*
X009262Y027329D02*
X005853Y027329D01*
X005947Y027446D02*
X009379Y027446D01*
X009430Y027563D02*
X005947Y027563D01*
X005947Y027679D02*
X009430Y027679D01*
X009430Y027796D02*
X005947Y027796D01*
X005947Y027912D02*
X009430Y027912D01*
X009243Y028029D02*
X005930Y028029D01*
X005814Y028146D02*
X008867Y028146D01*
X008858Y028262D02*
X005697Y028262D01*
X005581Y028379D02*
X008717Y028379D01*
X008580Y028495D02*
X005429Y028495D01*
X005544Y028612D02*
X008533Y028612D01*
X008533Y028729D02*
X005634Y028729D01*
X005671Y029017D02*
X005346Y028693D01*
X005195Y028821D02*
X004904Y028821D01*
X004904Y028880D01*
X004858Y028925D01*
X004883Y028939D01*
X004912Y028969D01*
X004933Y029005D01*
X004944Y029046D01*
X004944Y029244D01*
X004944Y029078D02*
X005480Y029078D01*
X005493Y029091D02*
X005292Y028890D01*
X005264Y028890D01*
X005195Y028821D01*
X005219Y028845D02*
X004904Y028845D01*
X004905Y028962D02*
X005364Y028962D01*
X005493Y029091D02*
X005597Y029195D01*
X005671Y029017D02*
X009895Y029017D01*
X010120Y028793D01*
X010086Y029078D02*
X018898Y029078D01*
X018898Y028962D02*
X010511Y028962D01*
X010638Y028845D02*
X018898Y028845D01*
X018898Y028729D02*
X010682Y028729D01*
X010682Y028612D02*
X018898Y028612D01*
X018898Y028495D02*
X010636Y028495D01*
X010499Y028379D02*
X013438Y028379D01*
X013487Y028428D02*
X013071Y028012D01*
X013071Y027424D01*
X013487Y027009D01*
X014075Y027009D01*
X014491Y027424D01*
X014491Y028012D01*
X014075Y028428D01*
X013487Y028428D01*
X013322Y028262D02*
X010317Y028262D01*
X010312Y028146D02*
X013205Y028146D01*
X013088Y028029D02*
X010229Y028029D01*
X010042Y027912D02*
X013071Y027912D01*
X013071Y027796D02*
X010042Y027796D01*
X010042Y027679D02*
X013071Y027679D01*
X013071Y027563D02*
X010042Y027563D01*
X010042Y027446D02*
X013071Y027446D01*
X013166Y027329D02*
X010042Y027329D01*
X010042Y027213D02*
X013283Y027213D01*
X013400Y027096D02*
X010317Y027096D01*
X010317Y026979D02*
X018898Y026979D01*
X018898Y026863D02*
X010317Y026863D01*
X010317Y026746D02*
X018898Y026746D01*
X018898Y026630D02*
X010317Y026630D01*
X010273Y026513D02*
X017926Y026513D01*
X018230Y026513D02*
X018309Y026513D01*
X018309Y026396D02*
X018230Y026396D01*
X018230Y026280D02*
X018309Y026280D01*
X018625Y026280D02*
X018898Y026280D01*
X018898Y026396D02*
X018625Y026396D01*
X018613Y026513D02*
X018898Y026513D01*
X018898Y026163D02*
X018625Y026163D01*
X018625Y026047D02*
X018898Y026047D01*
X018898Y025930D02*
X018601Y025930D01*
X018585Y025813D02*
X018898Y025813D01*
X018898Y025697D02*
X018585Y025697D01*
X018898Y027096D02*
X017627Y027096D01*
X017540Y027009D02*
X017955Y027424D01*
X017955Y028012D01*
X017540Y028428D01*
X016952Y028428D01*
X016536Y028012D01*
X016536Y027424D01*
X016952Y027009D01*
X017540Y027009D01*
X017744Y027213D02*
X018898Y027213D01*
X018898Y027329D02*
X017860Y027329D01*
X017955Y027446D02*
X018898Y027446D01*
X018898Y027563D02*
X017955Y027563D01*
X017955Y027679D02*
X018898Y027679D01*
X018898Y027796D02*
X017955Y027796D01*
X017955Y027912D02*
X018898Y027912D01*
X018898Y028029D02*
X017938Y028029D01*
X017822Y028146D02*
X018898Y028146D01*
X018898Y028262D02*
X017705Y028262D01*
X017589Y028379D02*
X018898Y028379D01*
X018898Y029195D02*
X011532Y029195D01*
X011532Y029312D02*
X018898Y029312D01*
X018898Y029428D02*
X011532Y029428D01*
X011532Y029545D02*
X018898Y029545D01*
X018898Y029662D02*
X011532Y029662D01*
X011532Y029778D02*
X018898Y029778D01*
X018898Y029895D02*
X011520Y029895D01*
X010596Y029895D02*
X010208Y029895D01*
X010219Y029778D02*
X010585Y029778D01*
X010585Y029662D02*
X010219Y029662D01*
X010219Y029545D02*
X010585Y029545D01*
X010585Y029428D02*
X010219Y029428D01*
X010219Y029312D02*
X010585Y029312D01*
X010585Y029195D02*
X010219Y029195D01*
X009864Y028159D02*
X009864Y027009D01*
X010002Y026872D01*
X009608Y027423D02*
X009608Y028159D01*
X009096Y028146D02*
X009096Y028146D01*
X009096Y028262D02*
X009096Y028262D01*
X009096Y028379D02*
X009096Y028379D01*
X008972Y027213D02*
X005736Y027213D01*
X005619Y027096D02*
X008741Y027096D01*
X007684Y029312D02*
X004628Y029312D01*
X004549Y029312D02*
X004293Y029312D01*
X004232Y029195D02*
X004133Y029195D01*
X004149Y029078D02*
X004232Y029078D01*
X004266Y028962D02*
X004271Y028962D01*
X004588Y028614D02*
X004657Y028624D01*
X004628Y029428D02*
X004549Y029428D01*
X004549Y029545D02*
X004628Y029545D01*
X004938Y029545D02*
X007684Y029545D01*
X007684Y029662D02*
X004323Y029662D01*
X004323Y029778D02*
X007684Y029778D01*
X007695Y029895D02*
X004263Y029895D01*
X003713Y029895D02*
X003594Y029895D01*
X003782Y028845D02*
X003819Y028845D01*
X003782Y028729D02*
X003936Y028729D01*
X003934Y028495D02*
X003782Y028495D01*
X003782Y028379D02*
X003818Y028379D01*
X003229Y028379D02*
X003164Y028379D01*
X003229Y028495D02*
X003047Y028495D01*
X002721Y028262D02*
X002233Y028262D01*
X002255Y028379D02*
X002116Y028379D01*
X002349Y028146D02*
X002838Y028146D01*
X002932Y028029D02*
X002466Y028029D01*
X002483Y027912D02*
X002932Y027912D01*
X002904Y027796D02*
X002483Y027796D01*
X002483Y027679D02*
X002904Y027679D01*
X002904Y027563D02*
X002483Y027563D01*
X002483Y027446D02*
X002904Y027446D01*
X002904Y027329D02*
X002388Y027329D01*
X002271Y027213D02*
X003141Y027213D01*
X003530Y027096D02*
X004005Y027096D01*
X003889Y027213D02*
X003647Y027213D01*
X003016Y025114D02*
X003010Y025114D01*
X003010Y024997D02*
X003016Y024997D01*
X003010Y024880D02*
X003016Y024880D01*
X003010Y024764D02*
X003016Y024764D01*
X003010Y024647D02*
X003016Y024647D01*
X003029Y024531D02*
X002998Y024531D01*
X002999Y023481D02*
X004064Y023481D01*
X004087Y023365D02*
X003083Y023365D01*
X003122Y023248D02*
X007743Y023248D01*
X007627Y023365D02*
X006960Y023365D01*
X006991Y022898D02*
X008093Y022898D01*
X008135Y022781D02*
X007108Y022781D01*
X007224Y022665D02*
X008135Y022665D01*
X008161Y022548D02*
X007341Y022548D01*
X007443Y022432D02*
X011993Y022432D01*
X011876Y022315D02*
X007443Y022315D01*
X007443Y021965D02*
X008049Y021965D01*
X008044Y021959D02*
X008023Y021923D01*
X008012Y021883D01*
X008012Y021704D01*
X008348Y021704D01*
X008348Y022021D01*
X008150Y022021D01*
X008109Y022010D01*
X008073Y021989D01*
X008044Y021959D01*
X008012Y021849D02*
X007443Y021849D01*
X007443Y021732D02*
X008012Y021732D01*
X008012Y021615D02*
X007443Y021615D01*
X007443Y021499D02*
X008012Y021499D01*
X008037Y021382D02*
X007443Y021382D01*
X007443Y021266D02*
X009232Y021266D01*
X009340Y021149D02*
X007443Y021149D01*
X007443Y021032D02*
X009340Y021032D01*
X008998Y020916D02*
X007443Y020916D01*
X007417Y020799D02*
X008932Y020799D01*
X008932Y020683D02*
X007301Y020683D01*
X007328Y020709D02*
X007328Y020709D01*
X007396Y020566D02*
X007184Y020566D01*
X007284Y020449D02*
X007068Y020449D01*
X007167Y020333D02*
X006951Y020333D01*
X006853Y020216D02*
X007051Y020216D01*
X006934Y020099D02*
X006853Y020099D01*
X006853Y019983D02*
X006871Y019983D01*
X006871Y019866D02*
X006853Y019866D01*
X006853Y019750D02*
X006871Y019750D01*
X006871Y019633D02*
X006853Y019633D01*
X006853Y019516D02*
X006871Y019516D01*
X006871Y019400D02*
X006853Y019400D01*
X006853Y019283D02*
X006871Y019283D01*
X006871Y019167D02*
X006853Y019167D01*
X006853Y019050D02*
X006871Y019050D01*
X006871Y018933D02*
X006853Y018933D01*
X006853Y018817D02*
X006871Y018817D01*
X006871Y018700D02*
X006853Y018700D01*
X006853Y018584D02*
X006871Y018584D01*
X006871Y018467D02*
X006853Y018467D01*
X006853Y018350D02*
X006871Y018350D01*
X006871Y018234D02*
X006853Y018234D01*
X006853Y018117D02*
X006871Y018117D01*
X006871Y018000D02*
X006853Y018000D01*
X006853Y017884D02*
X006871Y017884D01*
X006871Y017767D02*
X006853Y017767D01*
X006853Y017651D02*
X006871Y017651D01*
X006871Y017534D02*
X006853Y017534D01*
X006853Y017417D02*
X006871Y017417D01*
X006853Y017301D02*
X006978Y017301D01*
X007095Y017184D02*
X006853Y017184D01*
X006853Y017068D02*
X007175Y017068D01*
X007127Y016951D02*
X006875Y016951D01*
X006992Y016834D02*
X007127Y016834D01*
X007127Y016718D02*
X007108Y016718D01*
X006782Y016485D02*
X006452Y016485D01*
X006457Y016368D02*
X006899Y016368D01*
X006930Y016251D02*
X006698Y016251D01*
X006788Y016135D02*
X006930Y016135D01*
X006930Y016018D02*
X006811Y016018D01*
X006782Y015901D02*
X006930Y015901D01*
X006930Y015785D02*
X006676Y015785D01*
X006676Y015668D02*
X006930Y015668D01*
X006813Y015238D02*
X006813Y014017D01*
X007443Y013387D01*
X007662Y013219D02*
X008662Y013219D01*
X008662Y013103D02*
X007023Y013103D01*
X007139Y012986D02*
X008662Y012986D01*
X008662Y012870D02*
X007256Y012870D01*
X007372Y012753D02*
X008662Y012753D01*
X008662Y013336D02*
X007717Y013336D01*
X007712Y013453D02*
X008662Y013453D01*
X008662Y013569D02*
X008180Y013569D01*
X008296Y013686D02*
X008662Y013686D01*
X008662Y013802D02*
X008413Y013802D01*
X008530Y013919D02*
X008662Y013919D01*
X008662Y014036D02*
X008646Y014036D01*
X008900Y014455D02*
X008900Y014823D01*
X009165Y014823D01*
X009235Y014893D01*
X009235Y015582D01*
X009165Y015652D01*
X008880Y015652D01*
X008880Y015946D01*
X008988Y015946D01*
X009034Y015991D01*
X009048Y015967D01*
X009077Y015937D01*
X009113Y015916D01*
X009154Y015906D01*
X009352Y015906D01*
X009352Y016222D01*
X009431Y016222D01*
X009431Y016301D01*
X009767Y016301D01*
X009767Y016402D01*
X009863Y016306D01*
X009863Y014747D01*
X009381Y014747D01*
X009362Y014727D01*
X009172Y014727D01*
X009056Y014611D01*
X008900Y014455D01*
X008900Y014502D02*
X008947Y014502D01*
X008900Y014619D02*
X009063Y014619D01*
X008900Y014735D02*
X009370Y014735D01*
X009194Y014852D02*
X009863Y014852D01*
X009863Y014969D02*
X009235Y014969D01*
X009235Y015085D02*
X009863Y015085D01*
X009863Y015202D02*
X009235Y015202D01*
X009235Y015318D02*
X009863Y015318D01*
X009863Y015435D02*
X009235Y015435D01*
X009235Y015552D02*
X009863Y015552D01*
X009863Y015668D02*
X008880Y015668D01*
X008880Y015785D02*
X009863Y015785D01*
X009863Y015901D02*
X008880Y015901D01*
X008702Y016242D02*
X008702Y015238D01*
X008524Y015652D02*
X008240Y015652D01*
X008230Y015642D01*
X008220Y015652D01*
X007962Y015652D01*
X007954Y015660D01*
X007917Y015681D01*
X007877Y015692D01*
X007757Y015692D01*
X007640Y015692D01*
X007640Y016457D01*
X007728Y016457D01*
X007774Y016503D01*
X007788Y016479D01*
X007817Y016449D01*
X007854Y016428D01*
X007894Y016417D01*
X008092Y016417D01*
X008092Y016734D01*
X008171Y016734D01*
X008171Y016813D01*
X008507Y016813D01*
X008507Y016991D01*
X008496Y017031D01*
X008475Y017068D01*
X008446Y017097D01*
X008429Y017107D01*
X009062Y017107D01*
X009551Y016617D01*
X009431Y016617D01*
X009431Y016301D01*
X009352Y016301D01*
X009352Y016617D01*
X009154Y016617D01*
X009113Y016606D01*
X009077Y016586D01*
X009048Y016556D01*
X009034Y016532D01*
X008988Y016577D01*
X008507Y016577D01*
X008507Y016734D01*
X008171Y016734D01*
X008171Y016417D01*
X008369Y016417D01*
X008386Y016422D01*
X008386Y016015D01*
X008456Y015946D01*
X008524Y015946D01*
X008524Y015652D01*
X008524Y015668D02*
X007940Y015668D01*
X007757Y015668D02*
X007757Y015668D01*
X007757Y015692D02*
X007757Y015238D01*
X007757Y015238D01*
X007757Y015692D01*
X007757Y015552D02*
X007757Y015552D01*
X007757Y015435D02*
X007757Y015435D01*
X007757Y015318D02*
X007757Y015318D01*
X007640Y015785D02*
X008524Y015785D01*
X008524Y015901D02*
X007640Y015901D01*
X007640Y016018D02*
X008386Y016018D01*
X008386Y016135D02*
X007640Y016135D01*
X007640Y016251D02*
X008386Y016251D01*
X008386Y016368D02*
X007640Y016368D01*
X007755Y016485D02*
X007784Y016485D01*
X007750Y017068D02*
X007788Y017068D01*
X008092Y016718D02*
X008171Y016718D01*
X008171Y016601D02*
X008092Y016601D01*
X008092Y016485D02*
X008171Y016485D01*
X008507Y016601D02*
X009104Y016601D01*
X009352Y016601D02*
X009431Y016601D01*
X009431Y016485D02*
X009352Y016485D01*
X009352Y016368D02*
X009431Y016368D01*
X009431Y016251D02*
X009863Y016251D01*
X009767Y016222D02*
X009767Y016044D01*
X009756Y016003D01*
X009735Y015967D01*
X009706Y015937D01*
X009669Y015916D01*
X009629Y015906D01*
X009431Y015906D01*
X009431Y016222D01*
X009767Y016222D01*
X009767Y016135D02*
X009863Y016135D01*
X009863Y016018D02*
X009760Y016018D01*
X009431Y016018D02*
X009352Y016018D01*
X009352Y016135D02*
X009431Y016135D01*
X009767Y016368D02*
X009801Y016368D01*
X010041Y016380D02*
X010041Y014529D01*
X010256Y014386D02*
X010949Y014386D01*
X010946Y014269D02*
X010180Y014269D01*
X010180Y014152D02*
X010946Y014152D01*
X010919Y014502D02*
X010372Y014502D01*
X010489Y014619D02*
X010906Y014619D01*
X010906Y014735D02*
X010606Y014735D01*
X010722Y014852D02*
X010906Y014852D01*
X010906Y014969D02*
X010839Y014969D01*
X011222Y014969D02*
X011301Y014969D01*
X011301Y015085D02*
X011222Y015085D01*
X011222Y014852D02*
X011301Y014852D01*
X010828Y015789D02*
X010946Y015907D01*
X010946Y018515D01*
X010133Y017717D02*
X010152Y017698D01*
X009778Y017325D01*
X009638Y017325D01*
X009254Y017741D01*
X009254Y017744D01*
X009242Y017757D01*
X009490Y017757D01*
X009535Y017802D01*
X009549Y017778D01*
X009579Y017748D01*
X009615Y017727D01*
X009656Y017717D01*
X009854Y017717D01*
X009854Y018033D01*
X009933Y018033D01*
X009933Y017717D01*
X010131Y017717D01*
X010133Y017717D01*
X010104Y017651D02*
X009338Y017651D01*
X009445Y017534D02*
X009987Y017534D01*
X009871Y017417D02*
X009553Y017417D01*
X009334Y016834D02*
X008507Y016834D01*
X008507Y016718D02*
X009451Y016718D01*
X009218Y016951D02*
X008507Y016951D01*
X008475Y017068D02*
X009101Y017068D01*
X009135Y017285D02*
X010041Y016380D01*
X009135Y017285D02*
X007246Y017285D01*
X007049Y017482D01*
X007049Y019962D01*
X007364Y020277D01*
X007689Y020277D01*
X007717Y020305D01*
X008787Y020305D01*
X008932Y020566D02*
X007982Y020566D01*
X008044Y019697D02*
X008170Y019572D01*
X008170Y018624D01*
X008160Y018614D01*
X008160Y018540D01*
X008150Y018530D01*
X008150Y018506D01*
X007995Y018506D01*
X007995Y018594D01*
X007925Y018664D01*
X007433Y018664D01*
X007363Y018594D01*
X007363Y018062D01*
X007408Y018017D01*
X007384Y018003D01*
X007355Y017973D01*
X007334Y017937D01*
X007323Y017897D01*
X007323Y017698D01*
X007639Y017698D01*
X007639Y017620D01*
X007323Y017620D01*
X007323Y017463D01*
X007319Y017463D01*
X007227Y017556D01*
X007227Y019888D01*
X007373Y020034D01*
X007373Y020011D01*
X007418Y019966D01*
X007394Y019952D01*
X007364Y019922D01*
X007344Y019886D01*
X007333Y019845D01*
X007333Y019647D01*
X007649Y019647D01*
X007649Y019569D01*
X007333Y019569D01*
X007333Y019370D01*
X007344Y019330D01*
X007364Y019294D01*
X007394Y019264D01*
X007430Y019243D01*
X007471Y019232D01*
X007649Y019232D01*
X007649Y019568D01*
X007728Y019568D01*
X007728Y019232D01*
X007906Y019232D01*
X007947Y019243D01*
X007983Y019264D01*
X008013Y019294D01*
X008034Y019330D01*
X008044Y019370D01*
X008044Y019569D01*
X007728Y019569D01*
X007728Y019647D01*
X008044Y019647D01*
X008044Y019697D01*
X008109Y019633D02*
X007728Y019633D01*
X007649Y019633D02*
X007227Y019633D01*
X007227Y019516D02*
X007333Y019516D01*
X007333Y019400D02*
X007227Y019400D01*
X007227Y019283D02*
X007375Y019283D01*
X007227Y019167D02*
X008170Y019167D01*
X008170Y019283D02*
X008002Y019283D01*
X008044Y019400D02*
X008170Y019400D01*
X008170Y019516D02*
X008044Y019516D01*
X007728Y019516D02*
X007649Y019516D01*
X007649Y019400D02*
X007728Y019400D01*
X007728Y019283D02*
X007649Y019283D01*
X007227Y019050D02*
X008170Y019050D01*
X008170Y018933D02*
X007227Y018933D01*
X007227Y018817D02*
X008170Y018817D01*
X008170Y018700D02*
X007227Y018700D01*
X007227Y018584D02*
X007363Y018584D01*
X007363Y018467D02*
X007227Y018467D01*
X007227Y018350D02*
X007363Y018350D01*
X007363Y018234D02*
X007227Y018234D01*
X007227Y018117D02*
X007363Y018117D01*
X007382Y018000D02*
X007227Y018000D01*
X007227Y017884D02*
X007323Y017884D01*
X007323Y017767D02*
X007227Y017767D01*
X007227Y017651D02*
X007639Y017651D01*
X007718Y017651D02*
X008160Y017651D01*
X008160Y017767D02*
X008035Y017767D01*
X008035Y017698D02*
X008035Y017897D01*
X008024Y017937D01*
X008003Y017973D01*
X007973Y018003D01*
X007949Y018017D01*
X007995Y018062D01*
X007995Y018150D01*
X008160Y018150D01*
X008160Y018082D01*
X008229Y018013D01*
X008160Y017945D01*
X008160Y017463D01*
X008035Y017463D01*
X008035Y017620D01*
X007718Y017620D01*
X007718Y017698D01*
X008035Y017698D01*
X008035Y017534D02*
X008160Y017534D01*
X008160Y017884D02*
X008035Y017884D01*
X007976Y018000D02*
X008216Y018000D01*
X008160Y018117D02*
X007995Y018117D01*
X007995Y018584D02*
X008160Y018584D01*
X008328Y018456D02*
X008456Y018328D01*
X008476Y018348D01*
X008456Y018328D02*
X007679Y018328D01*
X007323Y017534D02*
X007249Y017534D01*
X006549Y016718D02*
X005541Y016718D01*
X005657Y016834D02*
X006457Y016834D01*
X006457Y016951D02*
X005774Y016951D01*
X005891Y017068D02*
X006457Y017068D01*
X006457Y017184D02*
X006007Y017184D01*
X006124Y017301D02*
X006457Y017301D01*
X006457Y017417D02*
X006240Y017417D01*
X006357Y017534D02*
X006457Y017534D01*
X006457Y017651D02*
X006440Y017651D01*
X006440Y017767D02*
X006457Y017767D01*
X006457Y017884D02*
X006440Y017884D01*
X006440Y018000D02*
X006457Y018000D01*
X006457Y018117D02*
X006440Y018117D01*
X006440Y018234D02*
X006457Y018234D01*
X006457Y018350D02*
X006440Y018350D01*
X006440Y018467D02*
X006457Y018467D01*
X006457Y018584D02*
X006440Y018584D01*
X006440Y018700D02*
X006457Y018700D01*
X006457Y018817D02*
X006440Y018817D01*
X006440Y018933D02*
X006457Y018933D01*
X006457Y019050D02*
X006440Y019050D01*
X006440Y019167D02*
X006457Y019167D01*
X006457Y019283D02*
X006440Y019283D01*
X006440Y019400D02*
X006457Y019400D01*
X006457Y019516D02*
X006440Y019516D01*
X006440Y019633D02*
X006457Y019633D01*
X006457Y019750D02*
X006440Y019750D01*
X006440Y019866D02*
X006457Y019866D01*
X006457Y019983D02*
X006440Y019983D01*
X006440Y020099D02*
X006457Y020099D01*
X006457Y020216D02*
X006440Y020216D01*
X006440Y020333D02*
X006457Y020333D01*
X006440Y020449D02*
X006508Y020449D01*
X006573Y020514D02*
X006573Y020514D01*
X006625Y020566D02*
X006440Y020566D01*
X006440Y020683D02*
X006741Y020683D01*
X006858Y020799D02*
X006519Y020799D01*
X006577Y020916D02*
X006975Y020916D01*
X007048Y021032D02*
X006577Y021032D01*
X006577Y021149D02*
X007048Y021149D01*
X007048Y021266D02*
X006683Y021266D01*
X006721Y021382D02*
X007048Y021382D01*
X007048Y021499D02*
X006721Y021499D01*
X006721Y021615D02*
X007048Y021615D01*
X007048Y021732D02*
X006721Y021732D01*
X006894Y021849D02*
X007048Y021849D01*
X007048Y021965D02*
X006942Y021965D01*
X006942Y022082D02*
X007048Y022082D01*
X007048Y022198D02*
X006942Y022198D01*
X006923Y022315D02*
X007015Y022315D01*
X006898Y022432D02*
X003735Y022432D01*
X003852Y022548D02*
X006781Y022548D01*
X006539Y023365D02*
X006507Y023365D01*
X006507Y023481D02*
X006539Y023481D01*
X006539Y023714D02*
X006507Y023714D01*
X006507Y023831D02*
X006539Y023831D01*
X006811Y024181D02*
X002063Y024181D01*
X001947Y024297D02*
X006694Y024297D01*
X006577Y024414D02*
X001830Y024414D01*
X001774Y024531D02*
X002044Y024531D01*
X002032Y024647D02*
X001774Y024647D01*
X001774Y024764D02*
X002032Y024764D01*
X002032Y024880D02*
X001774Y024880D01*
X001774Y024997D02*
X002032Y024997D01*
X002032Y025114D02*
X001827Y025114D01*
X001944Y025230D02*
X002032Y025230D01*
X001623Y025580D02*
X001490Y025580D01*
X001506Y025464D02*
X001373Y025464D01*
X001389Y025347D02*
X001341Y025347D01*
X001047Y025697D02*
X000318Y025697D01*
X000318Y025813D02*
X001164Y025813D01*
X001280Y025930D02*
X000318Y025930D01*
X000318Y026047D02*
X001397Y026047D01*
X001513Y026163D02*
X000318Y026163D01*
X000318Y026280D02*
X001630Y026280D01*
X001747Y026396D02*
X000318Y026396D01*
X000318Y026513D02*
X001863Y026513D01*
X001980Y026630D02*
X000318Y026630D01*
X000318Y026746D02*
X002096Y026746D01*
X002144Y026863D02*
X000318Y026863D01*
X000318Y025580D02*
X000946Y025580D01*
X000946Y025464D02*
X000318Y025464D01*
X000318Y025347D02*
X000946Y025347D01*
X000946Y025230D02*
X000318Y025230D01*
X000318Y025114D02*
X000946Y025114D01*
X000946Y024997D02*
X000318Y024997D01*
X000318Y024880D02*
X000946Y024880D01*
X000946Y024764D02*
X000318Y024764D01*
X000318Y024647D02*
X000946Y024647D01*
X000946Y024531D02*
X000318Y024531D01*
X000318Y024414D02*
X000946Y024414D01*
X000946Y024297D02*
X000318Y024297D01*
X000318Y024181D02*
X000946Y024181D01*
X000946Y024064D02*
X000318Y024064D01*
X000318Y023948D02*
X000946Y023948D01*
X000946Y023831D02*
X000318Y023831D01*
X000318Y023714D02*
X000946Y023714D01*
X000946Y023598D02*
X000318Y023598D01*
X000318Y023481D02*
X000946Y023481D01*
X000946Y023365D02*
X000318Y023365D01*
X000318Y023248D02*
X000946Y023248D01*
X000946Y023131D02*
X000318Y023131D01*
X000318Y023015D02*
X000946Y023015D01*
X000946Y022898D02*
X000318Y022898D01*
X000318Y022781D02*
X000946Y022781D01*
X000946Y022665D02*
X000318Y022665D01*
X000318Y022548D02*
X000946Y022548D01*
X000946Y022432D02*
X000318Y022432D01*
X000318Y022315D02*
X000946Y022315D01*
X000946Y022198D02*
X000318Y022198D01*
X000318Y022082D02*
X000946Y022082D01*
X000946Y021965D02*
X000318Y021965D01*
X000318Y021849D02*
X000946Y021849D01*
X000946Y021732D02*
X000318Y021732D01*
X000318Y021615D02*
X000946Y021615D01*
X000946Y021499D02*
X000318Y021499D01*
X000318Y021382D02*
X000938Y021382D01*
X000906Y021266D02*
X000318Y021266D01*
X000318Y021149D02*
X000906Y021149D01*
X000906Y021032D02*
X000318Y021032D01*
X000318Y020916D02*
X000906Y020916D01*
X000965Y020799D02*
X000318Y020799D01*
X000318Y020683D02*
X001851Y020683D01*
X001851Y020566D02*
X000318Y020566D01*
X000318Y020449D02*
X001851Y020449D01*
X001851Y020333D02*
X000318Y020333D01*
X000318Y020216D02*
X000906Y020216D01*
X000906Y020248D02*
X000906Y019864D01*
X000691Y019648D01*
X000552Y019509D01*
X000552Y015494D01*
X000969Y015076D01*
X000969Y014944D01*
X001044Y014764D01*
X001181Y014626D01*
X001361Y014552D01*
X001556Y014552D01*
X001735Y014626D01*
X001873Y014764D01*
X001947Y014944D01*
X001947Y015138D01*
X001873Y015318D01*
X001735Y015456D01*
X001556Y015530D01*
X001361Y015530D01*
X001238Y015479D01*
X001026Y015690D01*
X001026Y015806D01*
X001044Y015764D01*
X001181Y015626D01*
X001361Y015552D01*
X001556Y015552D01*
X001735Y015626D01*
X001873Y015764D01*
X001947Y015944D01*
X001947Y016138D01*
X001931Y016178D01*
X002050Y016297D01*
X002050Y018031D01*
X002095Y018076D01*
X002095Y018423D01*
X002025Y018493D01*
X001600Y018493D01*
X001530Y018423D01*
X001530Y018076D01*
X001575Y018031D01*
X001575Y016522D01*
X001556Y016530D01*
X001361Y016530D01*
X001181Y016456D01*
X001044Y016318D01*
X001026Y016276D01*
X001026Y019313D01*
X001399Y019686D01*
X001783Y019686D01*
X001853Y019755D01*
X001853Y020248D01*
X001783Y020317D01*
X000976Y020317D01*
X000906Y020248D01*
X000906Y020099D02*
X000318Y020099D01*
X000318Y019983D02*
X000906Y019983D01*
X000906Y019866D02*
X000318Y019866D01*
X000318Y019750D02*
X000792Y019750D01*
X000676Y019633D02*
X000318Y019633D01*
X000318Y019516D02*
X000559Y019516D01*
X000552Y019400D02*
X000318Y019400D01*
X000318Y019283D02*
X000552Y019283D01*
X000552Y019167D02*
X000318Y019167D01*
X000318Y019050D02*
X000552Y019050D01*
X000552Y018933D02*
X000318Y018933D01*
X000318Y018817D02*
X000552Y018817D01*
X000552Y018700D02*
X000318Y018700D01*
X000318Y018584D02*
X000552Y018584D01*
X000552Y018467D02*
X000318Y018467D01*
X000318Y018350D02*
X000552Y018350D01*
X000552Y018234D02*
X000318Y018234D01*
X000318Y018117D02*
X000552Y018117D01*
X000552Y018000D02*
X000318Y018000D01*
X000318Y017884D02*
X000552Y017884D01*
X000552Y017767D02*
X000318Y017767D01*
X000318Y017651D02*
X000552Y017651D01*
X000552Y017534D02*
X000318Y017534D01*
X000318Y017417D02*
X000552Y017417D01*
X000552Y017301D02*
X000318Y017301D01*
X000318Y017184D02*
X000552Y017184D01*
X000552Y017068D02*
X000318Y017068D01*
X000318Y016951D02*
X000552Y016951D01*
X000552Y016834D02*
X000318Y016834D01*
X000318Y016718D02*
X000552Y016718D01*
X000552Y016601D02*
X000318Y016601D01*
X000318Y016485D02*
X000552Y016485D01*
X000552Y016368D02*
X000318Y016368D01*
X000318Y016251D02*
X000552Y016251D01*
X000552Y016135D02*
X000318Y016135D01*
X000318Y016018D02*
X000552Y016018D01*
X000552Y015901D02*
X000318Y015901D01*
X000318Y015785D02*
X000552Y015785D01*
X000552Y015668D02*
X000318Y015668D01*
X000318Y015552D02*
X000552Y015552D01*
X000611Y015435D02*
X000318Y015435D01*
X000318Y015318D02*
X000727Y015318D01*
X000844Y015202D02*
X000318Y015202D01*
X000318Y015085D02*
X000961Y015085D01*
X000969Y014969D02*
X000318Y014969D01*
X000318Y014852D02*
X001007Y014852D01*
X001072Y014735D02*
X000318Y014735D01*
X000318Y014619D02*
X001200Y014619D01*
X001294Y014502D02*
X000318Y014502D01*
X000318Y014386D02*
X001111Y014386D01*
X001044Y014318D02*
X000969Y014138D01*
X000969Y013944D01*
X001044Y013764D01*
X001181Y013626D01*
X001361Y013552D01*
X001556Y013552D01*
X001735Y013626D01*
X001873Y013764D01*
X001947Y013944D01*
X001947Y014138D01*
X001873Y014318D01*
X001735Y014456D01*
X001556Y014530D01*
X001361Y014530D01*
X001181Y014456D01*
X001044Y014318D01*
X001023Y014269D02*
X000318Y014269D01*
X000318Y014152D02*
X000975Y014152D01*
X000969Y014036D02*
X000318Y014036D01*
X000318Y013919D02*
X000979Y013919D01*
X001028Y013802D02*
X000318Y013802D01*
X000318Y013686D02*
X001122Y013686D01*
X001319Y013569D02*
X000318Y013569D01*
X000318Y013453D02*
X003921Y013453D01*
X003804Y013336D02*
X000318Y013336D01*
X000318Y013219D02*
X003688Y013219D01*
X003571Y013103D02*
X000318Y013103D01*
X000318Y012986D02*
X003455Y012986D01*
X003338Y012870D02*
X000318Y012870D01*
X000318Y012753D02*
X003221Y012753D01*
X003105Y012636D02*
X000318Y012636D01*
X000318Y012520D02*
X003071Y012520D01*
X003071Y012403D02*
X000318Y012403D01*
X000318Y012287D02*
X003071Y012287D01*
X003071Y012170D02*
X000318Y012170D01*
X000318Y012053D02*
X003071Y012053D01*
X003071Y011937D02*
X000318Y011937D01*
X000318Y011820D02*
X003071Y011820D01*
X003071Y011703D02*
X000318Y011703D01*
X000318Y011587D02*
X003071Y011587D01*
X003071Y011470D02*
X000318Y011470D01*
X000318Y011354D02*
X003071Y011354D01*
X003071Y011237D02*
X000318Y011237D01*
X000318Y011120D02*
X003071Y011120D01*
X003467Y011120D02*
X003504Y011120D01*
X003504Y011083D02*
X003509Y011066D01*
X003467Y011066D01*
X003467Y012439D01*
X004099Y013071D01*
X004209Y013071D01*
X004132Y012995D01*
X004016Y012879D01*
X004016Y011066D01*
X003975Y011066D01*
X003980Y011083D01*
X003980Y011616D01*
X003980Y012148D01*
X003969Y012189D01*
X003948Y012225D01*
X003918Y012255D01*
X003882Y012276D01*
X003841Y012287D01*
X003742Y012287D01*
X003742Y011616D01*
X003742Y011616D01*
X003980Y011616D01*
X003742Y011616D01*
X003742Y011616D01*
X003742Y012287D01*
X003642Y012287D01*
X003602Y012276D01*
X003565Y012255D01*
X003536Y012225D01*
X003515Y012189D01*
X003504Y012148D01*
X003504Y011616D01*
X003742Y011616D01*
X003742Y011616D01*
X003504Y011616D01*
X003504Y011083D01*
X003504Y011237D02*
X003467Y011237D01*
X003467Y011354D02*
X003504Y011354D01*
X003504Y011470D02*
X003467Y011470D01*
X003467Y011587D02*
X003504Y011587D01*
X003504Y011703D02*
X003467Y011703D01*
X003467Y011820D02*
X003504Y011820D01*
X003504Y011937D02*
X003467Y011937D01*
X003467Y012053D02*
X003504Y012053D01*
X003510Y012170D02*
X003467Y012170D01*
X003467Y012287D02*
X003642Y012287D01*
X003742Y012287D02*
X003742Y012287D01*
X003842Y012287D02*
X004016Y012287D01*
X004016Y012403D02*
X003467Y012403D01*
X003548Y012520D02*
X004016Y012520D01*
X004016Y012636D02*
X003664Y012636D01*
X003781Y012753D02*
X004016Y012753D01*
X004016Y012870D02*
X003897Y012870D01*
X004014Y012986D02*
X004124Y012986D01*
X004016Y012170D02*
X003974Y012170D01*
X003980Y012053D02*
X004016Y012053D01*
X004016Y011937D02*
X003980Y011937D01*
X003980Y011820D02*
X004016Y011820D01*
X004016Y011703D02*
X003980Y011703D01*
X003980Y011587D02*
X004016Y011587D01*
X004016Y011470D02*
X003980Y011470D01*
X003980Y011354D02*
X004016Y011354D01*
X004016Y011237D02*
X003980Y011237D01*
X003980Y011120D02*
X004016Y011120D01*
X003742Y011703D02*
X003742Y011703D01*
X003742Y011820D02*
X003742Y011820D01*
X003742Y011937D02*
X003742Y011937D01*
X003742Y012053D02*
X003742Y012053D01*
X003742Y012170D02*
X003742Y012170D01*
X003485Y013552D02*
X003290Y013552D01*
X003110Y013626D01*
X002973Y013764D01*
X002898Y013944D01*
X002898Y014138D01*
X002973Y014318D01*
X003110Y014456D01*
X003290Y014530D01*
X003485Y014530D01*
X003664Y014456D01*
X003802Y014318D01*
X003876Y014138D01*
X003876Y013944D01*
X003802Y013764D01*
X003664Y013626D01*
X003485Y013552D01*
X003527Y013569D02*
X004705Y013569D01*
X004705Y013584D02*
X005159Y013584D01*
X005159Y013584D01*
X005159Y013584D01*
X005613Y013584D01*
X005613Y013465D01*
X005603Y013424D01*
X005582Y013388D01*
X005573Y013380D01*
X005573Y013122D01*
X005564Y013112D01*
X005573Y013102D01*
X005573Y012817D01*
X006070Y012817D01*
X006105Y012853D01*
X006105Y012930D01*
X006147Y013031D01*
X006224Y013108D01*
X006325Y013150D01*
X006416Y013150D01*
X005865Y013701D01*
X005613Y013701D01*
X005613Y013584D01*
X005159Y013584D01*
X004705Y013584D01*
X004705Y013686D02*
X003724Y013686D01*
X003818Y013802D02*
X004346Y013802D01*
X004230Y013919D02*
X003866Y013919D01*
X003876Y014036D02*
X004113Y014036D01*
X003996Y014152D02*
X003871Y014152D01*
X003880Y014269D02*
X003822Y014269D01*
X003859Y014386D02*
X003734Y014386D01*
X003859Y014502D02*
X003552Y014502D01*
X003646Y014619D02*
X003859Y014619D01*
X003859Y014735D02*
X003773Y014735D01*
X003838Y014852D02*
X003859Y014852D01*
X004608Y015159D02*
X004608Y014214D01*
X004786Y014735D02*
X004803Y014735D01*
X004786Y014852D02*
X005691Y014852D01*
X005515Y014735D02*
X006634Y014735D01*
X006634Y014619D02*
X005573Y014619D01*
X005573Y014502D02*
X006634Y014502D01*
X006634Y014386D02*
X005573Y014386D01*
X005573Y014269D02*
X006634Y014269D01*
X006634Y014152D02*
X005573Y014152D01*
X005613Y013686D02*
X005880Y013686D01*
X005997Y013569D02*
X005613Y013569D01*
X005610Y013453D02*
X006113Y013453D01*
X006230Y013336D02*
X005573Y013336D01*
X005573Y013219D02*
X006347Y013219D01*
X006219Y013103D02*
X005573Y013103D01*
X005573Y012986D02*
X006129Y012986D01*
X006105Y012870D02*
X005573Y012870D01*
X005159Y012639D02*
X006143Y012639D01*
X006380Y012876D01*
X006537Y012482D02*
X006380Y012324D01*
X005159Y012324D01*
X005859Y011237D02*
X006075Y011237D01*
X005868Y011120D02*
X005868Y011120D01*
X005868Y011004D02*
X005868Y011004D01*
X005868Y010887D02*
X005868Y010887D01*
X005868Y010771D02*
X005868Y010771D01*
X005868Y010671D02*
X005868Y010671D01*
X005868Y010671D01*
X005868Y010217D01*
X005748Y010217D01*
X005708Y010227D01*
X005672Y010248D01*
X005642Y010278D01*
X005621Y010314D01*
X005610Y010355D01*
X005610Y010671D01*
X005868Y010671D01*
X005868Y010654D02*
X005868Y010654D01*
X005868Y010537D02*
X005868Y010537D01*
X005868Y010421D02*
X005868Y010421D01*
X005868Y010304D02*
X005868Y010304D01*
X005627Y010304D02*
X004926Y010304D01*
X005043Y010421D02*
X005610Y010421D01*
X005610Y010537D02*
X005159Y010537D01*
X005276Y010654D02*
X005610Y010654D01*
X005610Y010771D02*
X005393Y010771D01*
X005509Y010887D02*
X005610Y010887D01*
X006221Y009721D02*
X006320Y009721D01*
X006320Y009605D02*
X006105Y009605D01*
X005988Y009488D02*
X006320Y009488D01*
X006320Y009371D02*
X005871Y009371D01*
X006461Y007972D02*
X003900Y007972D01*
X003191Y007561D02*
X003191Y006533D01*
X002431Y005773D01*
X002228Y006284D02*
X002633Y006284D01*
X002920Y006571D01*
X002920Y006976D01*
X002633Y007262D01*
X002228Y007262D01*
X001942Y006976D01*
X001942Y006571D01*
X002228Y006284D01*
X002173Y006339D02*
X001689Y006339D01*
X001805Y006456D02*
X002056Y006456D01*
X001942Y006573D02*
X001920Y006573D01*
X001920Y006689D02*
X001942Y006689D01*
X001942Y006806D02*
X001920Y006806D01*
X001920Y006922D02*
X001942Y006922D01*
X002005Y007039D02*
X001856Y007039D01*
X001740Y007156D02*
X002122Y007156D01*
X002123Y007389D02*
X001795Y007389D01*
X001911Y007506D02*
X002007Y007506D01*
X001678Y007272D02*
X003012Y007272D01*
X003012Y007156D02*
X002740Y007156D01*
X002856Y007039D02*
X003012Y007039D01*
X003012Y006922D02*
X002920Y006922D01*
X002920Y006806D02*
X003012Y006806D01*
X003012Y006689D02*
X002920Y006689D01*
X002920Y006573D02*
X002978Y006573D01*
X002862Y006456D02*
X002805Y006456D01*
X002745Y006339D02*
X002689Y006339D01*
X002738Y007389D02*
X002975Y007389D01*
X002917Y007506D02*
X002855Y007506D01*
X002171Y008205D02*
X001747Y008205D01*
X001864Y008089D02*
X002054Y008089D01*
X001842Y008905D02*
X000318Y008905D01*
X000318Y009021D02*
X001726Y009021D01*
X001694Y009138D02*
X000318Y009138D01*
X001597Y013569D02*
X003248Y013569D01*
X003051Y013686D02*
X001795Y013686D01*
X001889Y013802D02*
X002957Y013802D01*
X002909Y013919D02*
X001937Y013919D01*
X001947Y014036D02*
X002898Y014036D01*
X002904Y014152D02*
X001941Y014152D01*
X001893Y014269D02*
X002952Y014269D01*
X003040Y014386D02*
X001805Y014386D01*
X001623Y014502D02*
X003223Y014502D01*
X003129Y014619D02*
X001717Y014619D01*
X001844Y014735D02*
X003001Y014735D01*
X002936Y014852D02*
X001909Y014852D01*
X001947Y014969D02*
X002898Y014969D01*
X002898Y015085D02*
X001947Y015085D01*
X001921Y015202D02*
X002891Y015202D01*
X002775Y015318D02*
X001872Y015318D01*
X001756Y015435D02*
X002658Y015435D01*
X002541Y015552D02*
X001165Y015552D01*
X001139Y015668D02*
X001048Y015668D01*
X001035Y015785D02*
X001026Y015785D01*
X001026Y016368D02*
X001094Y016368D01*
X001026Y016485D02*
X001251Y016485D01*
X001026Y016601D02*
X001575Y016601D01*
X001575Y016718D02*
X001026Y016718D01*
X001026Y016834D02*
X001575Y016834D01*
X001575Y016951D02*
X001026Y016951D01*
X001026Y017068D02*
X001575Y017068D01*
X001575Y017184D02*
X001026Y017184D01*
X001026Y017301D02*
X001575Y017301D01*
X001575Y017417D02*
X001026Y017417D01*
X001026Y017534D02*
X001575Y017534D01*
X001575Y017651D02*
X001026Y017651D01*
X001026Y017767D02*
X001575Y017767D01*
X001575Y017884D02*
X001026Y017884D01*
X001026Y018000D02*
X001575Y018000D01*
X001530Y018117D02*
X001026Y018117D01*
X001026Y018234D02*
X001530Y018234D01*
X001530Y018350D02*
X001026Y018350D01*
X001026Y018467D02*
X001574Y018467D01*
X001852Y018817D02*
X001026Y018817D01*
X001026Y018933D02*
X001579Y018933D01*
X001530Y019050D02*
X001026Y019050D01*
X001026Y019167D02*
X001530Y019167D01*
X001530Y019283D02*
X001026Y019283D01*
X001113Y019400D02*
X001778Y019400D01*
X001894Y019516D02*
X001230Y019516D01*
X001346Y019633D02*
X002011Y019633D01*
X002127Y019750D02*
X001847Y019750D01*
X001853Y019866D02*
X002244Y019866D01*
X002182Y019983D02*
X001853Y019983D01*
X001853Y020099D02*
X002065Y020099D01*
X001948Y020216D02*
X001853Y020216D01*
X002275Y020449D02*
X002638Y020449D01*
X002638Y020566D02*
X002263Y020566D01*
X002380Y020683D02*
X002648Y020683D01*
X002452Y021149D02*
X004409Y021149D01*
X004409Y021266D02*
X002569Y021266D01*
X002686Y021382D02*
X004726Y021382D01*
X004726Y021399D02*
X004409Y021399D01*
X004409Y021597D01*
X004420Y021638D01*
X004441Y021674D01*
X004471Y021704D01*
X004507Y021725D01*
X004548Y021735D01*
X004726Y021735D01*
X004726Y021399D01*
X004805Y021382D02*
X005269Y021382D01*
X005237Y021266D02*
X005121Y021266D01*
X005121Y021149D02*
X005237Y021149D01*
X005221Y021032D02*
X005076Y021032D01*
X005081Y020916D02*
X005105Y020916D01*
X005121Y021499D02*
X006325Y021499D01*
X006325Y021615D02*
X005116Y021615D01*
X004996Y021732D02*
X006325Y021732D01*
X006152Y021849D02*
X004894Y021849D01*
X004805Y021732D02*
X004726Y021732D01*
X004726Y021615D02*
X004805Y021615D01*
X004805Y021499D02*
X004726Y021499D01*
X004535Y021732D02*
X003035Y021732D01*
X002919Y021615D02*
X004414Y021615D01*
X004409Y021499D02*
X002802Y021499D01*
X002593Y021849D02*
X001341Y021849D01*
X001341Y021965D02*
X002645Y021965D01*
X002614Y021970D02*
X002683Y021959D01*
X002703Y021959D01*
X002046Y021302D01*
X001853Y021302D01*
X001853Y021350D01*
X001783Y021420D01*
X001343Y021420D01*
X001341Y021422D01*
X001341Y024232D01*
X002314Y023259D01*
X002314Y023110D01*
X002376Y022962D01*
X002489Y022848D01*
X002560Y022819D01*
X002548Y022815D01*
X002485Y022783D01*
X002429Y022742D01*
X002379Y022692D01*
X002338Y022636D01*
X002307Y022574D01*
X002285Y022507D01*
X002274Y022438D01*
X002274Y022413D01*
X002708Y022413D01*
X002708Y022393D01*
X002274Y022393D01*
X002274Y022368D01*
X002285Y022299D01*
X002307Y022233D01*
X002338Y022170D01*
X002379Y022114D01*
X002429Y022064D01*
X002485Y022023D01*
X002548Y021992D01*
X002614Y021970D01*
X002411Y022082D02*
X001341Y022082D01*
X001341Y022198D02*
X002324Y022198D01*
X002282Y022315D02*
X001341Y022315D01*
X001341Y022432D02*
X002274Y022432D01*
X002298Y022548D02*
X001341Y022548D01*
X001341Y022665D02*
X002359Y022665D01*
X002483Y022781D02*
X001341Y022781D01*
X001341Y022898D02*
X002439Y022898D01*
X002354Y023015D02*
X001341Y023015D01*
X001341Y023131D02*
X002314Y023131D01*
X002314Y023248D02*
X001341Y023248D01*
X001341Y023365D02*
X002209Y023365D01*
X002092Y023481D02*
X001341Y023481D01*
X001341Y023598D02*
X001975Y023598D01*
X001859Y023714D02*
X001341Y023714D01*
X001341Y023831D02*
X001742Y023831D01*
X001626Y023948D02*
X001341Y023948D01*
X001341Y024064D02*
X001509Y024064D01*
X001392Y024181D02*
X001341Y024181D01*
X002180Y024064D02*
X006927Y024064D01*
X007257Y024297D02*
X009646Y024297D01*
X009529Y024181D02*
X007374Y024181D01*
X007490Y024064D02*
X009413Y024064D01*
X009296Y023948D02*
X007607Y023948D01*
X007723Y023831D02*
X009179Y023831D01*
X009063Y023714D02*
X007840Y023714D01*
X007957Y023598D02*
X008946Y023598D01*
X009113Y023131D02*
X009119Y023131D01*
X009113Y023015D02*
X009119Y023015D01*
X009113Y022898D02*
X009119Y022898D01*
X009113Y022781D02*
X009119Y022781D01*
X009113Y022665D02*
X009119Y022665D01*
X009145Y022548D02*
X009087Y022548D01*
X008775Y021965D02*
X008725Y021965D01*
X008427Y021965D02*
X008348Y021965D01*
X008348Y021849D02*
X008427Y021849D01*
X008427Y021732D02*
X008348Y021732D01*
X008348Y021615D02*
X008427Y021615D01*
X008427Y021499D02*
X008348Y021499D01*
X008348Y021382D02*
X008427Y021382D01*
X008738Y021382D02*
X008758Y021382D01*
X007977Y023015D02*
X003083Y023015D01*
X003122Y023131D02*
X007860Y023131D01*
X008073Y023481D02*
X008203Y023481D01*
X007140Y024414D02*
X009762Y024414D01*
X009879Y024531D02*
X007024Y024531D01*
X006907Y024647D02*
X009996Y024647D01*
X010029Y023481D02*
X010115Y023481D01*
X008787Y019300D02*
X008787Y019091D01*
X008932Y019091D01*
X008932Y018755D01*
X009031Y018656D01*
X009143Y018656D01*
X009143Y018388D01*
X008958Y018388D01*
X008888Y018319D01*
X008888Y017837D01*
X008792Y017837D01*
X008792Y017945D01*
X008723Y018013D01*
X008792Y018082D01*
X008792Y018614D01*
X008722Y018684D01*
X008487Y018684D01*
X008487Y019154D01*
X008508Y019133D01*
X008556Y019105D01*
X008609Y019091D01*
X008787Y019091D01*
X008787Y019300D01*
X008787Y019300D01*
X008787Y019283D02*
X008787Y019283D01*
X008787Y019167D02*
X008787Y019167D01*
X008932Y019050D02*
X008487Y019050D01*
X008487Y018933D02*
X008932Y018933D01*
X008932Y018817D02*
X008487Y018817D01*
X008487Y018700D02*
X008987Y018700D01*
X009143Y018584D02*
X008792Y018584D01*
X008792Y018467D02*
X009143Y018467D01*
X008920Y018350D02*
X008792Y018350D01*
X008792Y018234D02*
X008888Y018234D01*
X008888Y018117D02*
X008792Y018117D01*
X008736Y018000D02*
X008888Y018000D01*
X008888Y017884D02*
X008792Y017884D01*
X009501Y017767D02*
X009560Y017767D01*
X009535Y018343D02*
X009490Y018388D01*
X009459Y018388D01*
X009459Y018656D01*
X009569Y018656D01*
X009604Y018692D01*
X009639Y018656D01*
X009745Y018656D01*
X009745Y018597D01*
X009838Y018505D01*
X009933Y018409D01*
X009933Y018112D01*
X009854Y018112D01*
X009854Y018428D01*
X009656Y018428D01*
X009615Y018418D01*
X009579Y018397D01*
X009549Y018367D01*
X009535Y018343D01*
X009540Y018350D02*
X009528Y018350D01*
X009459Y018467D02*
X009875Y018467D01*
X009854Y018350D02*
X009933Y018350D01*
X009933Y018234D02*
X009854Y018234D01*
X009854Y018117D02*
X009933Y018117D01*
X009933Y018000D02*
X009854Y018000D01*
X009854Y017884D02*
X009933Y017884D01*
X009933Y017767D02*
X009854Y017767D01*
X009759Y018584D02*
X009459Y018584D01*
X008722Y016261D02*
X008702Y016242D01*
X009156Y014152D02*
X009272Y014152D01*
X009293Y014036D02*
X009058Y014036D01*
X007223Y013219D02*
X006906Y013219D01*
X006789Y013336D02*
X007168Y013336D01*
X007125Y013453D02*
X006673Y013453D01*
X006556Y013569D02*
X007009Y013569D01*
X006892Y013686D02*
X006440Y013686D01*
X006323Y013802D02*
X006776Y013802D01*
X006659Y013919D02*
X006206Y013919D01*
X006090Y014036D02*
X006634Y014036D01*
X006498Y015238D02*
X006498Y015986D01*
X006537Y016025D01*
X006183Y016419D02*
X006183Y015238D01*
X005868Y015238D02*
X005868Y015986D01*
X005828Y016025D01*
X005577Y016135D02*
X004958Y016135D01*
X005074Y016251D02*
X005667Y016251D01*
X005554Y016018D02*
X004841Y016018D01*
X004725Y015901D02*
X005583Y015901D01*
X005690Y015785D02*
X004608Y015785D01*
X004569Y015668D02*
X004731Y015668D01*
X004635Y015552D02*
X004569Y015552D01*
X004569Y015435D02*
X004609Y015435D01*
X004883Y015435D02*
X004608Y015159D01*
X005037Y015202D02*
X005650Y015202D01*
X005650Y015318D02*
X005132Y015318D01*
X005158Y015435D02*
X005650Y015435D01*
X005650Y015552D02*
X005132Y015552D01*
X005036Y015668D02*
X005690Y015668D01*
X005909Y016368D02*
X005191Y016368D01*
X005308Y016485D02*
X005913Y016485D01*
X005977Y016601D02*
X005424Y016601D01*
X005215Y016951D02*
X005160Y016951D01*
X005160Y016896D02*
X006044Y017780D01*
X006044Y018179D01*
X006007Y018169D01*
X005848Y018169D01*
X005848Y018466D01*
X005809Y018466D01*
X005809Y018169D01*
X005650Y018169D01*
X005609Y018180D01*
X005573Y018201D01*
X005544Y018231D01*
X005523Y018267D01*
X005512Y018307D01*
X005512Y018466D01*
X005809Y018466D01*
X005809Y018506D01*
X005512Y018506D01*
X005512Y018664D01*
X005523Y018705D01*
X005544Y018741D01*
X005573Y018771D01*
X005609Y018792D01*
X005641Y018800D01*
X005622Y018800D01*
X005552Y018870D01*
X005552Y019283D01*
X004569Y019283D01*
X004569Y019329D02*
X004569Y019021D01*
X005160Y018430D01*
X005160Y016896D01*
X005160Y017068D02*
X005331Y017068D01*
X005448Y017184D02*
X005160Y017184D01*
X005160Y017301D02*
X005564Y017301D01*
X005681Y017417D02*
X005160Y017417D01*
X005160Y017534D02*
X005798Y017534D01*
X005914Y017651D02*
X005160Y017651D01*
X005160Y017767D02*
X006031Y017767D01*
X006044Y017884D02*
X005160Y017884D01*
X005160Y018000D02*
X006044Y018000D01*
X006044Y018117D02*
X005160Y018117D01*
X005160Y018234D02*
X005542Y018234D01*
X005512Y018350D02*
X005160Y018350D01*
X005123Y018467D02*
X005809Y018467D01*
X005809Y018350D02*
X005848Y018350D01*
X005848Y018234D02*
X005809Y018234D01*
X005512Y018584D02*
X005006Y018584D01*
X004890Y018700D02*
X005521Y018700D01*
X005605Y018817D02*
X004773Y018817D01*
X004657Y018933D02*
X005552Y018933D01*
X005552Y019050D02*
X004569Y019050D01*
X004569Y019167D02*
X005552Y019167D01*
X005552Y019283D02*
X005622Y019353D01*
X005631Y019353D01*
X005631Y019528D01*
X005543Y019528D01*
X005474Y019597D01*
X005405Y019528D01*
X004874Y019528D01*
X004821Y019581D01*
X004569Y019329D01*
X004640Y019400D02*
X005631Y019400D01*
X005631Y019516D02*
X004757Y019516D01*
X004431Y019750D02*
X002687Y019750D01*
X002803Y019866D02*
X004547Y019866D01*
X004568Y019983D02*
X004412Y019983D01*
X004412Y019982D02*
X004412Y020297D01*
X004342Y020367D01*
X003771Y020367D01*
X003701Y020297D01*
X003701Y019982D01*
X003771Y019912D01*
X004342Y019912D01*
X004412Y019982D01*
X004412Y020099D02*
X004568Y020099D01*
X004568Y020216D02*
X004412Y020216D01*
X004376Y020333D02*
X004568Y020333D01*
X004449Y020449D02*
X003428Y020449D01*
X003428Y020566D02*
X004449Y020566D01*
X004449Y020683D02*
X004365Y020683D01*
X003749Y020683D02*
X003418Y020683D01*
X003388Y020799D02*
X003701Y020799D01*
X003701Y020916D02*
X003388Y020916D01*
X003388Y021032D02*
X003701Y021032D01*
X003737Y020333D02*
X003411Y020333D01*
X003388Y020216D02*
X003701Y020216D01*
X003701Y020099D02*
X003388Y020099D01*
X003388Y019983D02*
X003701Y019983D01*
X003718Y019516D02*
X003349Y019516D01*
X003357Y019509D02*
X003328Y019538D01*
X003291Y019559D01*
X003251Y019570D01*
X002974Y019570D01*
X002974Y019194D01*
X003389Y019194D01*
X003389Y019432D01*
X003378Y019472D01*
X003357Y019509D01*
X003389Y019400D02*
X003701Y019400D01*
X003701Y019283D02*
X003389Y019283D01*
X003389Y019076D02*
X002974Y019076D01*
X002974Y018701D01*
X003251Y018701D01*
X003291Y018712D01*
X003328Y018733D01*
X003357Y018762D01*
X003378Y018798D01*
X003389Y018839D01*
X003389Y019076D01*
X003389Y019050D02*
X003701Y019050D01*
X003701Y019167D02*
X002974Y019167D01*
X002974Y019194D02*
X002974Y019076D01*
X002856Y019076D01*
X002856Y018701D01*
X002579Y018701D01*
X002539Y018712D01*
X002502Y018733D01*
X002473Y018762D01*
X002452Y018798D01*
X002441Y018839D01*
X002441Y019076D01*
X002856Y019076D01*
X002856Y019194D01*
X002441Y019194D01*
X002441Y019432D01*
X002452Y019472D01*
X002473Y019509D01*
X002502Y019538D01*
X002539Y019559D01*
X002579Y019570D01*
X002856Y019570D01*
X002856Y019194D01*
X002974Y019194D01*
X002974Y019283D02*
X002856Y019283D01*
X002856Y019167D02*
X002104Y019167D01*
X002178Y019050D02*
X002441Y019050D01*
X002441Y018933D02*
X002294Y018933D01*
X002411Y018817D02*
X002447Y018817D01*
X002528Y018700D02*
X004330Y018700D01*
X004447Y018584D02*
X002644Y018584D01*
X002761Y018467D02*
X003714Y018467D01*
X003723Y018475D02*
X003693Y018446D01*
X003672Y018409D01*
X003661Y018369D01*
X003661Y018131D01*
X004076Y018131D01*
X004076Y018013D01*
X004194Y018013D01*
X004194Y017638D01*
X004471Y017638D01*
X004512Y017649D01*
X004548Y017670D01*
X004578Y017699D01*
X004599Y017735D01*
X004609Y017776D01*
X004609Y018013D01*
X004194Y018013D01*
X004194Y018131D01*
X004076Y018131D01*
X004076Y018507D01*
X003800Y018507D01*
X003759Y018496D01*
X003723Y018475D01*
X003661Y018350D02*
X003349Y018350D01*
X003349Y018234D02*
X003661Y018234D01*
X003661Y018013D02*
X003661Y017776D01*
X003672Y017735D01*
X003693Y017699D01*
X003723Y017670D01*
X003759Y017649D01*
X003800Y017638D01*
X004076Y017638D01*
X004076Y018013D01*
X003661Y018013D01*
X003661Y018000D02*
X003349Y018000D01*
X003349Y017884D02*
X003661Y017884D01*
X003664Y017767D02*
X003349Y017767D01*
X003291Y017651D02*
X003756Y017651D01*
X004076Y017651D02*
X004194Y017651D01*
X004194Y017767D02*
X004076Y017767D01*
X004076Y017884D02*
X004194Y017884D01*
X004194Y018000D02*
X004076Y018000D01*
X004076Y018117D02*
X003349Y018117D01*
X003152Y017534D02*
X004764Y017534D01*
X004764Y017417D02*
X003152Y017417D01*
X003152Y017301D02*
X004764Y017301D01*
X004764Y017184D02*
X003152Y017184D01*
X003152Y017068D02*
X004764Y017068D01*
X004703Y016951D02*
X003152Y016951D01*
X003152Y016834D02*
X004586Y016834D01*
X004470Y016718D02*
X003152Y016718D01*
X003118Y016601D02*
X004353Y016601D01*
X004236Y016485D02*
X003594Y016485D01*
X003752Y016368D02*
X004120Y016368D01*
X004003Y016251D02*
X003830Y016251D01*
X003876Y016135D02*
X003886Y016135D01*
X003180Y016485D02*
X003001Y016485D01*
X003023Y016368D02*
X002916Y016368D01*
X002916Y016251D02*
X002945Y016251D01*
X002563Y016718D02*
X002050Y016718D01*
X002050Y016834D02*
X002678Y016834D01*
X002678Y016951D02*
X002050Y016951D01*
X002050Y017068D02*
X002678Y017068D01*
X002678Y017184D02*
X002050Y017184D01*
X002050Y017301D02*
X002678Y017301D01*
X002678Y017417D02*
X002050Y017417D01*
X002050Y017534D02*
X002678Y017534D01*
X002538Y017651D02*
X002050Y017651D01*
X002050Y017767D02*
X002481Y017767D01*
X002481Y017884D02*
X002050Y017884D01*
X002050Y018000D02*
X002481Y018000D01*
X002481Y018117D02*
X002095Y018117D01*
X002095Y018234D02*
X002435Y018234D01*
X002318Y018350D02*
X002095Y018350D01*
X002051Y018467D02*
X002201Y018467D01*
X002085Y018584D02*
X001026Y018584D01*
X001026Y018700D02*
X001968Y018700D01*
X002220Y019283D02*
X002441Y019283D01*
X002441Y019400D02*
X002337Y019400D01*
X002454Y019516D02*
X002480Y019516D01*
X002570Y019633D02*
X004314Y019633D01*
X003701Y018933D02*
X003389Y018933D01*
X003383Y018817D02*
X003735Y018817D01*
X004076Y018467D02*
X004194Y018467D01*
X004194Y018507D02*
X004194Y018131D01*
X004609Y018131D01*
X004609Y018369D01*
X004599Y018409D01*
X004578Y018446D01*
X004548Y018475D01*
X004512Y018496D01*
X004471Y018507D01*
X004194Y018507D01*
X004194Y018350D02*
X004076Y018350D01*
X004076Y018234D02*
X004194Y018234D01*
X004194Y018117D02*
X004764Y018117D01*
X004764Y018000D02*
X004609Y018000D01*
X004609Y017884D02*
X004764Y017884D01*
X004764Y017767D02*
X004607Y017767D01*
X004515Y017651D02*
X004764Y017651D01*
X004764Y018234D02*
X004609Y018234D01*
X004609Y018350D02*
X004680Y018350D01*
X004564Y018467D02*
X004556Y018467D01*
X002974Y018817D02*
X002856Y018817D01*
X002856Y018933D02*
X002974Y018933D01*
X002974Y019050D02*
X002856Y019050D01*
X002856Y019400D02*
X002974Y019400D01*
X002974Y019516D02*
X002856Y019516D01*
X001937Y020799D02*
X001794Y020799D01*
X001821Y021382D02*
X002126Y021382D01*
X002243Y021499D02*
X001341Y021499D01*
X001341Y021615D02*
X002359Y021615D01*
X002476Y021732D02*
X001341Y021732D01*
X002953Y022781D02*
X003525Y022781D01*
X003409Y022665D02*
X003077Y022665D01*
X003138Y022548D02*
X003292Y022548D01*
X003176Y022432D02*
X003162Y022432D01*
X003385Y022082D02*
X004104Y022082D01*
X004104Y022198D02*
X003502Y022198D01*
X003618Y022315D02*
X004124Y022315D01*
X004104Y021965D02*
X003269Y021965D01*
X003152Y021849D02*
X004152Y021849D01*
X004923Y022315D02*
X006124Y022315D01*
X005938Y021382D02*
X005876Y021382D01*
X007227Y019866D02*
X007338Y019866D01*
X007333Y019750D02*
X007227Y019750D01*
X007321Y019983D02*
X007401Y019983D01*
X006666Y016601D02*
X006388Y016601D01*
X009275Y010421D02*
X009370Y010421D01*
X009373Y010304D02*
X009258Y010304D01*
X009726Y009883D02*
X009618Y009696D01*
X009618Y007504D01*
X009874Y007504D02*
X009874Y008023D01*
X010052Y007949D02*
X010207Y008105D01*
X010207Y007938D01*
X010130Y007938D01*
X010130Y007504D01*
X010130Y007504D01*
X010130Y007070D01*
X010219Y007070D01*
X010259Y007081D01*
X010296Y007102D01*
X010304Y007110D01*
X010503Y007110D01*
X010513Y007120D01*
X010524Y007110D01*
X010759Y007110D01*
X010769Y007120D01*
X010779Y007110D01*
X010974Y007110D01*
X010974Y007044D01*
X010666Y006736D01*
X009141Y006736D01*
X008773Y007103D01*
X008773Y007110D01*
X008968Y007110D01*
X008978Y007120D01*
X008988Y007110D01*
X009224Y007110D01*
X009234Y007120D01*
X009244Y007110D01*
X009480Y007110D01*
X009490Y007120D01*
X009500Y007110D01*
X009736Y007110D01*
X009746Y007120D01*
X009756Y007110D01*
X009955Y007110D01*
X009963Y007102D01*
X010000Y007081D01*
X010040Y007070D01*
X010130Y007070D01*
X010130Y007504D01*
X010130Y007504D01*
X010130Y007938D01*
X010052Y007938D01*
X010052Y007949D01*
X010074Y007972D02*
X010207Y007972D01*
X010207Y008089D02*
X010191Y008089D01*
X010130Y007855D02*
X010130Y007855D01*
X010130Y007739D02*
X010130Y007739D01*
X010130Y007622D02*
X010130Y007622D01*
X010130Y007506D02*
X010130Y007506D01*
X010130Y007389D02*
X010130Y007389D01*
X010130Y007272D02*
X010130Y007272D01*
X010130Y007156D02*
X010130Y007156D01*
X010736Y006806D02*
X009071Y006806D01*
X008954Y006922D02*
X010852Y006922D01*
X010969Y007039D02*
X008837Y007039D01*
X008850Y007504D02*
X008850Y008122D01*
X008820Y008151D01*
X009106Y004940D02*
X009106Y004940D01*
X009106Y004823D02*
X009106Y004823D01*
X009106Y004707D02*
X009106Y004707D01*
X009106Y004590D02*
X009106Y004590D01*
X009106Y004474D02*
X009106Y004474D01*
X009106Y004357D02*
X009106Y004357D01*
X009106Y004240D02*
X009106Y004240D01*
X008931Y004124D02*
X009420Y004124D01*
X009420Y004007D02*
X008814Y004007D01*
X008698Y003891D02*
X009420Y003891D01*
X009416Y003774D02*
X008581Y003774D01*
X008465Y003657D02*
X009299Y003657D01*
X009182Y003541D02*
X008348Y003541D01*
X008231Y003424D02*
X009066Y003424D01*
X008949Y003308D02*
X008115Y003308D01*
X007998Y003191D02*
X008832Y003191D01*
X008716Y003074D02*
X007882Y003074D01*
X007882Y002958D02*
X007765Y002958D01*
X007701Y002841D02*
X007648Y002841D01*
X007613Y002724D02*
X007532Y002724D01*
X007532Y002608D02*
X007565Y002608D01*
X007560Y002491D02*
X007538Y002491D01*
X007538Y002375D02*
X007560Y002375D01*
X007560Y002258D02*
X007538Y002258D01*
X007538Y002141D02*
X007560Y002141D01*
X007560Y002025D02*
X007538Y002025D01*
X007538Y001908D02*
X007560Y001908D01*
X007560Y001792D02*
X007538Y001792D01*
X007538Y001675D02*
X007560Y001675D01*
X007602Y001558D02*
X007496Y001558D01*
X007425Y001442D02*
X007673Y001442D01*
X007815Y001325D02*
X007283Y001325D01*
X008216Y002958D02*
X008599Y002958D01*
X008483Y002841D02*
X008397Y002841D01*
X008538Y001908D02*
X010087Y001908D01*
X010087Y001792D02*
X008538Y001792D01*
X008538Y001675D02*
X010087Y001675D01*
X010130Y001558D02*
X008496Y001558D01*
X008425Y001442D02*
X010201Y001442D01*
X010342Y001325D02*
X008283Y001325D01*
X009273Y002025D02*
X010087Y002025D01*
X010087Y002141D02*
X009390Y002141D01*
X009506Y002258D02*
X010087Y002258D01*
X010050Y002375D02*
X009623Y002375D01*
X009739Y002491D02*
X009933Y002491D01*
X009932Y002608D02*
X009856Y002608D01*
X010583Y003074D02*
X010955Y003074D01*
X010955Y002958D02*
X010743Y002958D01*
X010924Y002841D02*
X010955Y002841D01*
X011065Y002258D02*
X011087Y002258D01*
X011087Y002141D02*
X011065Y002141D01*
X011065Y002025D02*
X011087Y002025D01*
X011087Y001908D02*
X011065Y001908D01*
X011065Y001792D02*
X011087Y001792D01*
X011087Y001675D02*
X011065Y001675D01*
X011023Y001558D02*
X011130Y001558D01*
X011201Y001442D02*
X010952Y001442D01*
X010810Y001325D02*
X011342Y001325D01*
X010955Y003191D02*
X010583Y003191D01*
X010583Y003308D02*
X010955Y003308D01*
X010955Y003424D02*
X010583Y003424D01*
X010583Y003541D02*
X010955Y003541D01*
X010955Y003657D02*
X010583Y003657D01*
X010583Y003774D02*
X010955Y003774D01*
X010955Y003891D02*
X010583Y003891D01*
X010583Y004007D02*
X010955Y004007D01*
X010955Y004124D02*
X010583Y004124D01*
X010641Y004240D02*
X010641Y004240D01*
X010641Y004357D02*
X010641Y004357D01*
X010641Y004474D02*
X010641Y004474D01*
X010641Y004590D02*
X010641Y004590D01*
X010641Y004707D02*
X010641Y004707D01*
X010641Y004823D02*
X010641Y004823D01*
X010641Y004940D02*
X010641Y004940D01*
X010897Y004940D02*
X010897Y004940D01*
X010897Y004823D02*
X010897Y004823D01*
X010897Y004707D02*
X010897Y004707D01*
X010897Y004590D02*
X010897Y004590D01*
X010897Y004474D02*
X010897Y004474D01*
X010897Y004357D02*
X010897Y004357D01*
X010897Y004240D02*
X010897Y004240D01*
X009362Y004240D02*
X009362Y004240D01*
X009362Y004357D02*
X009362Y004357D01*
X009362Y004474D02*
X009362Y004474D01*
X009362Y004590D02*
X009362Y004590D01*
X009362Y004707D02*
X009362Y004707D01*
X009362Y004823D02*
X009362Y004823D01*
X009362Y004940D02*
X009362Y004940D01*
X010897Y007504D02*
X010897Y007944D01*
X002442Y015668D02*
X001777Y015668D01*
X001882Y015785D02*
X002442Y015785D01*
X002442Y015901D02*
X001930Y015901D01*
X001947Y016018D02*
X002442Y016018D01*
X002442Y016135D02*
X001947Y016135D01*
X002004Y016251D02*
X002442Y016251D01*
X002442Y016368D02*
X002050Y016368D01*
X002050Y016485D02*
X002442Y016485D01*
X002447Y016601D02*
X002050Y016601D01*
X002997Y022898D02*
X003642Y022898D01*
X001739Y025697D02*
X001606Y025697D01*
X001723Y025813D02*
X001856Y025813D01*
X001840Y025930D02*
X001973Y025930D01*
X001956Y026047D02*
X002089Y026047D01*
X004944Y029428D02*
X007684Y029428D01*
X014124Y028379D02*
X016903Y028379D01*
X016786Y028262D02*
X014241Y028262D01*
X014357Y028146D02*
X016670Y028146D01*
X016553Y028029D02*
X014474Y028029D01*
X014491Y027912D02*
X016536Y027912D01*
X016536Y027796D02*
X014491Y027796D01*
X014491Y027679D02*
X016536Y027679D01*
X016536Y027563D02*
X014491Y027563D01*
X014491Y027446D02*
X016536Y027446D01*
X016631Y027329D02*
X014396Y027329D01*
X014279Y027213D02*
X016748Y027213D01*
X016864Y027096D02*
X014163Y027096D01*
D38*
X013663Y024618D03*
X014057Y023948D03*
X012994Y023476D03*
X012403Y023988D03*
X011232Y023191D03*
X010956Y022246D03*
X011675Y021468D03*
X011380Y021114D03*
X011183Y020444D03*
X011734Y019500D03*
X010474Y021114D03*
X012216Y021862D03*
X013309Y018633D03*
X013939Y018082D03*
X011498Y015326D03*
X010828Y015789D03*
X010356Y015868D03*
X009411Y015681D03*
X009096Y016822D03*
X009706Y017511D03*
X008624Y018811D03*
X007679Y019106D03*
X007403Y018791D03*
X006970Y017059D03*
X006537Y016025D03*
X006183Y016419D03*
X005828Y016025D03*
X006301Y017216D03*
X005828Y018004D03*
X005317Y018476D03*
X004135Y017413D03*
X004883Y015435D03*
X004372Y013594D03*
X003732Y012443D03*
X005946Y011576D03*
X006537Y012482D03*
X006380Y012876D03*
X007088Y012128D03*
X007049Y011655D03*
X007443Y013387D03*
X007482Y014254D03*
X008033Y014135D03*
X008348Y015799D03*
X010317Y014224D03*
X010710Y014539D03*
X010307Y011537D03*
X009726Y011045D03*
X009254Y010100D03*
X008702Y009057D03*
X007954Y007856D03*
X007285Y008584D03*
X006813Y008466D03*
X006498Y008269D03*
X006340Y007698D03*
X007128Y009332D03*
X007443Y009765D03*
X005789Y010090D03*
X004657Y006921D03*
X003191Y007561D03*
X003072Y004647D03*
X002718Y004313D03*
X005759Y003259D03*
X006409Y005425D03*
X007246Y006015D03*
X007246Y004736D03*
X008131Y005425D03*
X009214Y005376D03*
X009214Y003998D03*
X010789Y003998D03*
X010789Y005376D03*
X010927Y006183D03*
X010100Y006901D03*
X010002Y008712D03*
X010238Y009460D03*
X011478Y010002D03*
X011419Y008742D03*
X011596Y008072D03*
X011793Y007521D03*
X013515Y005937D03*
X014224Y006842D03*
X013673Y003299D03*
X014677Y011183D03*
X014293Y012521D03*
X014293Y012954D03*
X014411Y013387D03*
X013269Y012452D03*
X012679Y012925D03*
X017137Y011133D03*
X017876Y017885D03*
X018663Y018594D03*
X017777Y019844D03*
X017285Y023446D03*
X016498Y024273D03*
X017236Y024962D03*
X016498Y025602D03*
X015238Y023919D03*
X017797Y026163D03*
X018230Y026714D03*
X010041Y025474D03*
X009057Y025120D03*
X009057Y027817D03*
X007128Y023594D03*
X006498Y024067D03*
X005041Y025927D03*
X004411Y026399D03*
X004332Y027049D03*
X005159Y029303D03*
X004608Y029775D03*
X002561Y029775D03*
X002009Y029263D03*
X002403Y026773D03*
X002757Y026320D03*
X003860Y023594D03*
X004450Y023161D03*
X005356Y021665D03*
X004175Y021389D03*
X002994Y021311D03*
X002482Y020523D03*
X002954Y019775D03*
X007836Y021822D03*
X008387Y022216D03*
X008348Y021114D03*
D39*
X007689Y020277D02*
X008328Y019637D01*
X008328Y018456D01*
X008476Y017679D02*
X009096Y017679D01*
X009569Y017167D01*
X009844Y017167D01*
X010356Y017679D01*
X010356Y017718D01*
X010248Y017826D01*
X010248Y018319D01*
X009903Y018663D01*
X009903Y018971D01*
X009908Y018975D01*
X010107Y018975D02*
X010107Y018706D01*
X010307Y018506D01*
X010937Y018506D01*
X010946Y018515D01*
X010356Y017679D02*
X010356Y015868D01*
X009224Y018072D02*
X009301Y018149D01*
X009301Y018975D01*
X009303Y018974D01*
X009499Y020630D02*
X009499Y021223D01*
X009057Y021665D01*
X009908Y021660D02*
X009908Y020630D01*
X009908Y021660D02*
X009962Y021714D01*
D40*
X011616Y018515D02*
X011616Y016025D01*
X010120Y014529D01*
X010041Y014529D01*
X009726Y014529D01*
X009254Y014529D01*
X008860Y014135D01*
X008860Y011891D01*
X009372Y011380D01*
X009726Y011380D01*
X009923Y011380D01*
X010356Y010946D01*
X010356Y010120D01*
X010120Y009883D01*
X009726Y009883D01*
X009726Y011380D02*
X008466Y011380D01*
X008387Y011458D01*
X008151Y011222D01*
X006340Y011222D01*
X006183Y011065D01*
X006183Y010671D01*
X006183Y009962D01*
X005750Y009529D01*
X003761Y009529D01*
X003702Y009470D01*
X003702Y005277D01*
X003072Y004647D01*
X002974Y008742D02*
X002285Y008742D01*
X001891Y009135D01*
X001891Y009706D01*
X001891Y010297D02*
X001616Y010297D01*
X000986Y009667D01*
X000986Y010336D02*
X000986Y010671D01*
X001183Y010868D01*
X004647Y010868D01*
X005159Y011380D01*
X004214Y011616D02*
X004214Y012797D01*
X004372Y012954D01*
X005159Y012954D01*
X005159Y013269D02*
X004017Y013269D01*
X003269Y012521D01*
X003269Y011616D01*
X003112Y010061D02*
X003702Y010061D01*
X003702Y009470D02*
X002974Y008742D01*
X002757Y009706D02*
X003112Y010061D01*
X004529Y013899D02*
X004057Y014372D01*
X004057Y016025D01*
X004962Y016931D01*
X004962Y018348D01*
X004135Y019175D01*
X004765Y019805D01*
X004765Y020691D01*
X005159Y020691D01*
X005159Y019864D01*
X005139Y019844D01*
X005159Y020691D02*
X005572Y021104D01*
X005513Y021045D01*
X006242Y021104D02*
X006523Y021385D01*
X006523Y022096D01*
X004523Y022096D01*
X003781Y022757D02*
X006852Y022757D01*
X007246Y022364D01*
X007246Y020907D01*
X006655Y020317D01*
X006655Y016891D01*
X007128Y016419D01*
X007128Y015238D01*
X007128Y014135D01*
X007521Y013742D01*
X008072Y013742D01*
X008702Y014372D01*
X008702Y015238D01*
X008387Y015238D02*
X008387Y014490D01*
X008033Y014135D01*
X007482Y014254D02*
X008072Y014844D01*
X008072Y015238D01*
X007443Y015238D02*
X007443Y016754D01*
X007462Y016773D01*
X006242Y017698D02*
X006242Y021104D01*
X005809Y019844D02*
X005828Y019824D01*
X005828Y019076D01*
X006242Y017698D02*
X004372Y015828D01*
X004372Y014450D01*
X004608Y014214D01*
X005159Y014214D01*
X005159Y013899D02*
X005946Y013899D01*
X008387Y011458D01*
X007757Y010671D02*
X007757Y009214D01*
X008820Y008151D01*
X008850Y004625D02*
X008850Y004322D01*
X007049Y002521D01*
X007049Y002128D01*
X007049Y003080D01*
X008594Y004625D01*
X009618Y004625D02*
X009618Y003696D01*
X008049Y002128D01*
X009096Y002128D01*
X009874Y002905D01*
X009874Y004625D01*
X010130Y004625D02*
X010130Y002574D01*
X010576Y002128D01*
X010385Y002319D01*
X010385Y004625D01*
X011153Y004625D02*
X011153Y002551D01*
X011576Y002128D01*
X011409Y002295D01*
X011409Y004625D01*
X005159Y013899D02*
X004529Y013899D01*
X002915Y018033D02*
X001813Y019135D01*
X001813Y019155D01*
X002797Y020139D01*
X003033Y020139D01*
X002305Y020139D01*
X002049Y020395D01*
X002049Y020631D01*
X002324Y020907D01*
X003013Y020907D01*
X003033Y020887D01*
X002128Y021104D02*
X003781Y022757D01*
X004057Y020887D02*
X004569Y020887D01*
X004765Y020691D01*
X002128Y021104D02*
X001380Y021104D01*
X001143Y021340D01*
X001143Y025513D01*
X002403Y026773D01*
X003131Y028131D02*
X002649Y028614D01*
X002570Y028614D01*
X003319Y029086D02*
X003506Y028899D01*
X003319Y029086D02*
X003319Y029588D01*
X004254Y028693D02*
X004332Y028614D01*
X003880Y028161D01*
X003880Y027984D01*
X003880Y027590D02*
X003880Y027502D01*
X004332Y027049D01*
X003889Y026557D02*
X003889Y025976D01*
X003811Y025897D01*
X004332Y028614D02*
X004588Y028614D01*
X004657Y028624D02*
X005277Y028624D01*
X005346Y028693D01*
X009057Y027017D02*
X009057Y026872D01*
X009057Y026202D02*
X009057Y025120D01*
X010002Y025513D02*
X010041Y025474D01*
X010002Y025513D02*
X010002Y026202D01*
X010002Y026872D02*
X009943Y026931D01*
D41*
X010592Y024962D02*
X008624Y022994D01*
X008279Y022994D01*
X005769Y025504D01*
X003063Y025504D01*
X002521Y024962D01*
X003889Y026557D02*
X003880Y026566D01*
X003880Y027590D02*
X003880Y027984D01*
X004254Y028693D02*
X003909Y029037D01*
X003988Y029588D01*
X003131Y028131D02*
X003131Y027590D01*
X010592Y024962D02*
X014529Y024962D01*
X013496Y023929D01*
X013496Y023387D01*
X012930Y022821D01*
X007502Y007738D02*
X007735Y007504D01*
X008594Y007504D01*
D42*
X007502Y007738D02*
X007502Y008368D01*
X007285Y008584D01*
X003387Y015041D02*
X002679Y015750D01*
X002679Y016498D01*
X002915Y016734D01*
X002915Y018033D01*
X001813Y018250D02*
X001813Y016395D01*
X001458Y016041D01*
X000789Y015592D02*
X001340Y015041D01*
X001458Y015041D01*
X000789Y015592D02*
X000789Y019411D01*
X001380Y020002D01*
X002718Y023191D02*
X001537Y024372D01*
X001537Y025159D01*
X002275Y025897D01*
X003811Y025897D01*
D43*
X003161Y026566D02*
X003161Y026980D01*
X003506Y027324D01*
X003506Y028309D01*
X003161Y026566D02*
X003131Y026566D01*
X008594Y007504D02*
X008594Y007029D01*
X009067Y006557D01*
X010740Y006557D01*
X011153Y006970D01*
X011153Y007504D01*
X011409Y007504D01*
D44*
X007502Y007738D02*
X007502Y006970D01*
X007246Y006714D01*
M02*
